<svg width="212" height="198" viewBox="0 0 212 198" fill="none" xmlns="http://www.w3.org/2000/svg">
<g opacity="0.75">
<path d="M58.4767 4.59187C58.4767 3.84529 58.2557 3.11551 57.8416 2.4947C57.4275 1.8739 56.839 1.38999 56.1504 1.10414C55.4618 0.818289 54.704 0.743289 53.9729 0.888706C53.2418 1.03412 52.5701 1.39337 52.0427 1.92106C51.5154 2.44875 51.1561 3.12124 51.0103 3.8534C50.8645 4.58556 50.9387 5.34457 51.2235 6.0345C51.5083 6.72444 51.991 7.3143 52.6105 7.72954C53.23 8.14478 53.9585 8.36677 54.7039 8.36741C55.704 8.36741 56.6631 7.96965 57.3705 7.2617C58.078 6.55376 58.4758 5.59349 58.4767 4.59187Z" fill="#F44730"/>
<path d="M83.9454 4.59183C83.9454 3.84511 83.7243 3.11514 83.3101 2.49426C82.8959 1.87339 82.3072 1.38956 81.6184 1.1038C80.9296 0.818042 80.1716 0.743275 79.4404 0.888953C78.7092 1.03463 78.0375 1.39418 77.5103 1.92219C76.9831 2.4502 76.6241 3.12294 76.4787 3.85531C76.3332 4.58768 76.4079 5.34674 76.6932 6.03661C76.9785 6.72649 77.4617 7.31621 78.0816 7.73106C78.7015 8.14592 79.4303 8.36736 80.1758 8.36736C81.1756 8.36736 82.1344 7.9695 82.8413 7.26146C83.5483 6.55342 83.9454 5.59314 83.9454 4.59183Z" fill="#F44730"/>
<path d="M109.422 4.59183C109.422 3.84511 109.201 3.11514 108.787 2.49426C108.372 1.87339 107.784 1.38956 107.095 1.1038C106.406 0.818042 105.648 0.743275 104.917 0.888953C104.186 1.03463 103.514 1.39418 102.987 1.92219C102.46 2.4502 102.101 3.12294 101.955 3.85531C101.81 4.58768 101.884 5.34674 102.17 6.03661C102.455 6.72649 102.938 7.31621 103.558 7.73106C104.178 8.14592 104.907 8.36736 105.652 8.36736C106.652 8.36736 107.611 7.9695 108.318 7.26146C109.025 6.55342 109.422 5.59314 109.422 4.59183Z" fill="#F44730"/>
<path d="M134.883 4.59183C134.883 3.84511 134.662 3.11514 134.248 2.49426C133.833 1.87339 133.245 1.38956 132.556 1.1038C131.867 0.818042 131.109 0.743275 130.378 0.888953C129.647 1.03463 128.975 1.39418 128.448 1.92219C127.921 2.4502 127.562 3.12294 127.416 3.85531C127.271 4.58768 127.345 5.34674 127.631 6.03661C127.916 6.72649 128.399 7.31621 129.019 7.73106C129.639 8.14592 130.368 8.36736 131.113 8.36736C132.113 8.36736 133.072 7.9695 133.779 7.26146C134.486 6.55342 134.883 5.59314 134.883 4.59183Z" fill="#F44730"/>
<path d="M160.359 4.59183C160.359 3.84511 160.138 3.11514 159.724 2.49426C159.31 1.87339 158.721 1.38956 158.032 1.1038C157.344 0.818042 156.586 0.743275 155.854 0.888953C155.123 1.03463 154.452 1.39418 153.924 1.92219C153.397 2.4502 153.038 3.12294 152.893 3.85531C152.747 4.58768 152.822 5.34674 153.107 6.03661C153.393 6.72649 153.876 7.31621 154.496 7.73106C155.116 8.14592 155.844 8.36736 156.59 8.36736C157.59 8.36736 158.548 7.9695 159.255 7.26146C159.962 6.55342 160.359 5.59314 160.359 4.59183Z" fill="#F44730"/>
<path d="M33.0157 28.2296C33.0157 27.4829 32.7946 26.7529 32.3804 26.1321C31.9662 25.5112 31.3775 25.0273 30.6887 24.7415C29.9999 24.4557 29.242 24.381 28.5107 24.5266C27.7795 24.6723 27.1078 25.0319 26.5806 25.5599C26.0534 26.0879 25.6944 26.7606 25.549 27.493C25.4035 28.2254 25.4782 28.9845 25.7635 29.6744C26.0488 30.3643 26.5319 30.9539 27.1519 31.3688C27.7718 31.7836 28.5006 32.0051 29.2461 32.0051C30.2459 32.0051 31.2047 31.6073 31.9117 30.8993C32.6186 30.1912 33.0157 29.2309 33.0157 28.2296Z" fill="#F44730"/>
<path d="M58.4767 28.2296C58.4767 27.483 58.2557 26.7531 57.8416 26.1323C57.4275 25.5115 56.839 25.0276 56.1504 24.7418C55.4618 24.4559 54.704 24.381 53.9729 24.5264C53.2418 24.6718 52.5701 25.0311 52.0427 25.5588C51.5154 26.0865 51.1561 26.7589 51.0103 27.491C50.8645 28.2232 50.9387 28.9822 51.2235 29.6721C51.5083 30.3621 51.991 30.9519 52.6105 31.3672C53.23 31.7824 53.9585 32.0044 54.7039 32.005C55.704 32.005 56.6631 31.6074 57.3705 30.8994C58.078 30.1915 58.4758 29.2312 58.4767 28.2296Z" fill="#F44730"/>
<path d="M83.9454 28.2296C83.9454 27.4829 83.7243 26.7529 83.3101 26.1321C82.8959 25.5112 82.3072 25.0273 81.6184 24.7415C80.9296 24.4557 80.1716 24.381 79.4404 24.5266C78.7092 24.6723 78.0375 25.0319 77.5103 25.5599C76.9831 26.0879 76.6241 26.7606 76.4787 27.493C76.3332 28.2254 76.4079 28.9845 76.6932 29.6744C76.9785 30.3643 77.4617 30.9539 78.0816 31.3688C78.7015 31.7836 79.4303 32.0051 80.1758 32.0051C81.1756 32.0051 82.1344 31.6073 82.8413 30.8993C83.5483 30.1912 83.9454 29.2309 83.9454 28.2296Z" fill="#F44730"/>
<path d="M109.422 28.2296C109.422 27.4829 109.201 26.7529 108.787 26.1321C108.372 25.5112 107.784 25.0273 107.095 24.7415C106.406 24.4557 105.648 24.381 104.917 24.5266C104.186 24.6723 103.514 25.0319 102.987 25.5599C102.46 26.0879 102.101 26.7606 101.955 27.493C101.81 28.2254 101.884 28.9845 102.17 29.6744C102.455 30.3643 102.938 30.9539 103.558 31.3688C104.178 31.7836 104.907 32.0051 105.652 32.0051C106.652 32.0051 107.611 31.6073 108.318 30.8993C109.025 30.1912 109.422 29.2309 109.422 28.2296Z" fill="#F44730"/>
<path d="M134.883 28.2296C134.883 27.4829 134.662 26.7529 134.248 26.1321C133.833 25.5112 133.245 25.0273 132.556 24.7415C131.867 24.4557 131.109 24.381 130.378 24.5266C129.647 24.6723 128.975 25.0319 128.448 25.5599C127.921 26.0879 127.562 26.7606 127.416 27.493C127.271 28.2254 127.345 28.9845 127.631 29.6744C127.916 30.3643 128.399 30.9539 129.019 31.3688C129.639 31.7836 130.368 32.0051 131.113 32.0051C132.113 32.0051 133.072 31.6073 133.779 30.8993C134.486 30.1912 134.883 29.2309 134.883 28.2296Z" fill="#F44730"/>
<path d="M160.359 28.2296C160.359 27.4829 160.138 26.7529 159.724 26.1321C159.31 25.5112 158.721 25.0273 158.032 24.7415C157.344 24.4557 156.586 24.381 155.854 24.5266C155.123 24.6723 154.452 25.0319 153.924 25.5599C153.397 26.0879 153.038 26.7606 152.893 27.493C152.747 28.2254 152.822 28.9845 153.107 29.6744C153.393 30.3643 153.876 30.9539 154.496 31.3688C155.116 31.7836 155.844 32.0051 156.59 32.0051C157.59 32.0051 158.548 31.6073 159.255 30.8993C159.962 30.1912 160.359 29.2309 160.359 28.2296Z" fill="#F44730"/>
<path d="M185.836 28.2296C185.836 27.4829 185.615 26.7529 185.201 26.1321C184.787 25.5112 184.198 25.0273 183.509 24.7415C182.82 24.4557 182.062 24.381 181.331 24.5266C180.6 24.6723 179.928 25.0319 179.401 25.5599C178.874 26.0879 178.515 26.7606 178.369 27.493C178.224 28.2254 178.299 28.9845 178.584 29.6744C178.869 30.3643 179.352 30.9539 179.972 31.3688C180.592 31.7836 181.321 32.0051 182.066 32.0051C183.066 32.0051 184.025 31.6073 184.732 30.8993C185.439 30.1912 185.836 29.2309 185.836 28.2296Z" fill="#F44730"/>
<path d="M7.53917 51.8624C7.53917 51.1157 7.31807 50.3857 6.90387 49.7649C6.48966 49.144 5.90092 48.6601 5.21211 48.3743C4.52331 48.0885 3.76539 48.0138 3.03416 48.1595C2.30294 48.3051 1.63125 48.6648 1.10406 49.1928C0.576875 49.7208 0.217884 50.3935 0.0724334 51.1259C-0.0730169 51.8583 0.00163274 52.6173 0.286944 53.3072C0.572255 53.9971 1.05538 54.5868 1.67529 55.0017C2.29519 55.4165 3.02403 55.6379 3.76958 55.6379C4.76933 55.6379 5.72811 55.2401 6.43505 54.5321C7.14198 53.824 7.53917 52.8637 7.53917 51.8624Z" fill="#F44730"/>
<path d="M33.0157 51.8673C33.0157 51.1206 32.7946 50.3906 32.3804 49.7698C31.9662 49.1489 31.3775 48.6649 30.6887 48.3792C29.9999 48.0934 29.242 48.0187 28.5107 48.1643C27.7795 48.31 27.1078 48.6697 26.5806 49.1977C26.0534 49.7257 25.6944 50.3984 25.549 51.1308C25.4035 51.8632 25.4782 52.6222 25.7635 53.3121C26.0488 54.002 26.5319 54.5917 27.1519 55.0065C27.7718 55.4214 28.5006 55.6428 29.2461 55.6428C30.2459 55.6428 31.2047 55.245 31.9117 54.5369C32.6186 53.8289 33.0157 52.8686 33.0157 51.8673Z" fill="#F44730"/>
<path d="M58.4767 51.8673C58.4767 51.1207 58.2557 50.3909 57.8416 49.7701C57.4275 49.1493 56.839 48.6654 56.1504 48.3795C55.4618 48.0937 54.704 48.0187 53.9729 48.1641C53.2418 48.3095 52.5701 48.6688 52.0427 49.1965C51.5154 49.7241 51.1561 50.3965 51.0103 51.1287C50.8645 51.8608 50.9387 52.62 51.2235 53.3099C51.5083 53.9998 51.991 54.5897 52.6105 55.0049C53.23 55.4202 53.9585 55.6421 54.7039 55.6427C55.704 55.6427 56.6631 55.245 57.3705 54.5371C58.078 53.8291 58.4758 52.8689 58.4767 51.8673Z" fill="#F44730"/>
<path d="M83.9454 51.8673C83.9454 51.1206 83.7243 50.3906 83.3101 49.7698C82.8959 49.1489 82.3072 48.6649 81.6184 48.3792C80.9296 48.0934 80.1716 48.0187 79.4404 48.1643C78.7092 48.31 78.0375 48.6697 77.5103 49.1977C76.9831 49.7257 76.6241 50.3984 76.4787 51.1308C76.3332 51.8632 76.4079 52.6222 76.6932 53.3121C76.9785 54.002 77.4617 54.5917 78.0816 55.0065C78.7015 55.4214 79.4303 55.6428 80.1758 55.6428C81.1756 55.6428 82.1344 55.245 82.8413 54.5369C83.5483 53.8289 83.9454 52.8686 83.9454 51.8673Z" fill="#F44730"/>
<path d="M109.422 51.8673C109.422 51.1206 109.201 50.3906 108.787 49.7698C108.372 49.1489 107.784 48.6649 107.095 48.3792C106.406 48.0934 105.648 48.0187 104.917 48.1643C104.186 48.31 103.514 48.6697 102.987 49.1977C102.46 49.7257 102.101 50.3984 101.955 51.1308C101.81 51.8632 101.884 52.6222 102.17 53.3121C102.455 54.002 102.938 54.5917 103.558 55.0065C104.178 55.4214 104.907 55.6428 105.652 55.6428C106.652 55.6428 107.611 55.245 108.318 54.5369C109.025 53.8289 109.422 52.8686 109.422 51.8673Z" fill="#F44730"/>
<path d="M134.883 51.8673C134.883 51.1206 134.662 50.3906 134.248 49.7698C133.833 49.1489 133.245 48.6649 132.556 48.3792C131.867 48.0934 131.109 48.0187 130.378 48.1643C129.647 48.31 128.975 48.6697 128.448 49.1977C127.921 49.7257 127.562 50.3984 127.416 51.1308C127.271 51.8632 127.345 52.6222 127.631 53.3121C127.916 54.002 128.399 54.5917 129.019 55.0065C129.639 55.4214 130.368 55.6428 131.113 55.6428C132.113 55.6428 133.072 55.245 133.779 54.5369C134.486 53.8289 134.883 52.8686 134.883 51.8673Z" fill="#F44730"/>
<path d="M160.359 51.8673C160.359 51.1206 160.138 50.3906 159.724 49.7698C159.31 49.1489 158.721 48.6649 158.032 48.3792C157.344 48.0934 156.586 48.0187 155.854 48.1643C155.123 48.31 154.452 48.6697 153.924 49.1977C153.397 49.7257 153.038 50.3984 152.893 51.1308C152.747 51.8632 152.822 52.6222 153.107 53.3121C153.393 54.002 153.876 54.5917 154.496 55.0065C155.116 55.4214 155.844 55.6428 156.59 55.6428C157.59 55.6428 158.548 55.245 159.255 54.5369C159.962 53.8289 160.359 52.8686 160.359 51.8673Z" fill="#F44730"/>
<path d="M185.836 51.8673C185.836 51.1206 185.615 50.3906 185.201 49.7698C184.787 49.1489 184.198 48.6649 183.509 48.3792C182.82 48.0934 182.062 48.0187 181.331 48.1643C180.6 48.31 179.928 48.6697 179.401 49.1977C178.874 49.7257 178.515 50.3984 178.369 51.1308C178.224 51.8632 178.299 52.6222 178.584 53.3121C178.869 54.002 179.352 54.5917 179.972 55.0065C180.592 55.4214 181.321 55.6428 182.066 55.6428C183.066 55.6428 184.025 55.245 184.732 54.5369C185.439 53.8289 185.836 52.8686 185.836 51.8673Z" fill="#F44730"/>
<path d="M211.297 51.8673C211.297 51.1206 211.076 50.3906 210.662 49.7698C210.248 49.1489 209.659 48.6649 208.97 48.3792C208.281 48.0934 207.523 48.0187 206.792 48.1643C206.061 48.31 205.389 48.6697 204.862 49.1977C204.335 49.7257 203.976 50.3984 203.83 51.1308C203.685 51.8632 203.759 52.6222 204.045 53.3121C204.33 54.002 204.813 54.5917 205.433 55.0065C206.053 55.4214 206.782 55.6428 207.527 55.6428C208.527 55.6428 209.486 55.245 210.193 54.5369C210.9 53.8289 211.297 52.8686 211.297 51.8673Z" fill="#F44730"/>
<path d="M7.53919 75.4988C7.53855 74.7522 7.3169 74.0226 6.90231 73.4022C6.48772 72.7817 5.89878 72.2983 5.20992 72.013C4.52106 71.7277 3.76323 71.6535 3.03222 71.7995C2.3012 71.9456 1.62981 72.3053 1.10295 72.8334C0.576081 73.3616 0.21739 74.0344 0.0721997 74.7667C-0.0729907 75.4989 0.00184347 76.2579 0.287248 76.9476C0.572654 77.6373 1.05581 78.2267 1.67564 78.6414C2.29548 79.0561 3.02417 79.2775 3.76959 79.2775C4.76964 79.2767 5.72841 78.8781 6.43526 78.1696C7.1421 77.461 7.53919 76.5004 7.53919 75.4988Z" fill="#F44730"/>
<path d="M33.0157 75.4988C33.0151 74.7522 32.7935 74.0226 32.3789 73.4022C31.9643 72.7817 31.3753 72.2983 30.6865 72.013C29.9976 71.7277 29.2398 71.6535 28.5088 71.7995C27.7778 71.9456 27.1064 72.3053 26.5795 72.8334C26.0526 73.3616 25.694 74.0344 25.5488 74.7667C25.4036 75.4989 25.4784 76.2579 25.7638 76.9476C26.0492 77.6373 26.5324 78.2267 27.1522 78.6414C27.772 79.0561 28.5007 79.2775 29.2462 79.2775C30.2462 79.2767 31.205 78.8781 31.9119 78.1696C32.6187 77.461 33.0157 76.5004 33.0157 75.4988Z" fill="#F44730"/>
<path d="M58.4767 75.4988C58.476 74.7524 58.2545 74.0229 57.84 73.4025C57.4256 72.7821 56.8369 72.2987 56.1482 72.0133C55.4595 71.728 54.7018 71.6535 53.9709 71.7993C53.24 71.945 52.5686 72.3046 52.0416 72.8324C51.5146 73.3602 51.1556 74.0327 51.0101 74.7647C50.8645 75.4968 50.9389 76.2556 51.2239 76.9454C51.5088 77.6351 51.9914 78.2248 52.6108 78.6399C53.2302 79.055 53.9586 79.2769 54.7039 79.2776C55.7045 79.2776 56.6641 78.8794 57.3717 78.1708C58.0792 77.4622 58.4767 76.501 58.4767 75.4988Z" fill="#F44730"/>
<path d="M83.9454 75.4988C83.9448 74.7522 83.7232 74.0226 83.3086 73.4022C82.894 72.7817 82.305 72.2983 81.6162 72.013C80.9273 71.7277 80.1695 71.6535 79.4385 71.7995C78.7075 71.9456 78.0361 72.3053 77.5092 72.8334C76.9823 73.3616 76.6236 74.0344 76.4784 74.7667C76.3333 75.4989 76.4081 76.2579 76.6935 76.9476C76.9789 77.6373 77.4621 78.2267 78.0819 78.6414C78.7017 79.0561 79.4304 79.2775 80.1758 79.2775C81.1759 79.2767 82.1347 78.8781 82.8416 78.1696C83.5484 77.461 83.9454 76.5004 83.9454 75.4988Z" fill="#F44730"/>
<path d="M109.422 75.4988C109.421 74.7522 109.2 74.0226 108.785 73.4022C108.371 72.7817 107.782 72.2983 107.093 72.013C106.404 71.7277 105.646 71.6535 104.915 71.7995C104.184 71.9456 103.513 72.3053 102.986 72.8334C102.459 73.3616 102.1 74.0344 101.955 74.7667C101.81 75.4989 101.885 76.2579 102.17 76.9476C102.455 77.6373 102.939 78.2267 103.558 78.6414C104.178 79.0561 104.907 79.2775 105.652 79.2775C106.652 79.2767 107.611 78.8781 108.318 78.1696C109.025 77.461 109.422 76.5004 109.422 75.4988Z" fill="#F44730"/>
<path d="M134.883 75.4988C134.882 74.7522 134.661 74.0226 134.246 73.4022C133.831 72.7817 133.243 72.2983 132.554 72.013C131.865 71.7277 131.107 71.6535 130.376 71.7995C129.645 71.9456 128.974 72.3053 128.447 72.8334C127.92 73.3616 127.561 74.0344 127.416 74.7667C127.271 75.4989 127.346 76.2579 127.631 76.9476C127.916 77.6373 128.4 78.2267 129.019 78.6414C129.639 79.0561 130.368 79.2775 131.113 79.2775C132.113 79.2767 133.072 78.8781 133.779 78.1696C134.486 77.461 134.883 76.5004 134.883 75.4988Z" fill="#F44730"/>
<path d="M160.359 75.4988C160.359 74.7522 160.137 74.0226 159.723 73.4022C159.308 72.7817 158.719 72.2983 158.03 72.013C157.341 71.7277 156.584 71.6535 155.853 71.7995C155.122 71.9456 154.45 72.3053 153.923 72.8334C153.396 73.3616 153.038 74.0344 152.893 74.7667C152.747 75.4989 152.822 76.2579 153.108 76.9476C153.393 77.6373 153.876 78.2267 154.496 78.6414C155.116 79.0561 155.844 79.2775 156.59 79.2775C157.59 79.2767 158.549 78.8781 159.256 78.1696C159.962 77.461 160.359 76.5004 160.359 75.4988Z" fill="#F44730"/>
<path d="M185.836 75.4988C185.835 74.7522 185.614 74.0226 185.199 73.4022C184.785 72.7817 184.196 72.2983 183.507 72.013C182.818 71.7277 182.06 71.6535 181.329 71.7995C180.598 71.9456 179.927 72.3053 179.4 72.8334C178.873 73.3616 178.514 74.0344 178.369 74.7667C178.224 75.4989 178.299 76.2579 178.584 76.9476C178.87 77.6373 179.353 78.2267 179.973 78.6414C180.592 79.0561 181.321 79.2775 182.066 79.2775C183.067 79.2767 184.025 78.8781 184.732 78.1696C185.439 77.461 185.836 76.5004 185.836 75.4988Z" fill="#F44730"/>
<path d="M211.297 75.4988C211.296 74.7522 211.075 74.0226 210.66 73.4022C210.246 72.7817 209.657 72.2983 208.968 72.013C208.279 71.7277 207.521 71.6535 206.79 71.7995C206.059 71.9456 205.388 72.3053 204.861 72.8334C204.334 73.3616 203.975 74.0344 203.83 74.7667C203.685 75.4989 203.76 76.2579 204.045 76.9476C204.33 77.6373 204.814 78.2267 205.433 78.6414C206.053 79.0561 206.782 79.2775 207.527 79.2775C208.527 79.2767 209.486 78.8781 210.193 78.1696C210.9 77.461 211.297 76.5004 211.297 75.4988Z" fill="#F44730"/>
<path d="M7.53917 99.1398C7.53917 98.3931 7.31807 97.6631 6.90387 97.0422C6.48966 96.4213 5.90092 95.9374 5.21211 95.6516C4.52331 95.3659 3.76539 95.2911 3.03416 95.4368C2.30294 95.5825 1.63125 95.942 1.10406 96.47C0.576875 96.9981 0.217884 97.6708 0.0724334 98.4032C-0.0730169 99.1355 0.00163274 99.8947 0.286944 100.585C0.572255 101.274 1.05538 101.864 1.67529 102.279C2.29519 102.694 3.02403 102.915 3.76958 102.915C4.76933 102.915 5.72811 102.517 6.43505 101.809C7.14198 101.101 7.53917 100.141 7.53917 99.1398Z" fill="#F44730"/>
<path d="M29.2461 102.915C31.328 102.915 33.0157 101.225 33.0157 99.1397C33.0157 97.0546 31.328 95.3643 29.2461 95.3643C27.1643 95.3643 25.4766 97.0546 25.4766 99.1397C25.4766 101.225 27.1643 102.915 29.2461 102.915Z" fill="#F44730"/>
<path d="M54.7071 102.915C56.789 102.915 58.4767 101.225 58.4767 99.1397C58.4767 97.0546 56.789 95.3643 54.7071 95.3643C52.6252 95.3643 50.9375 97.0546 50.9375 99.1397C50.9375 101.225 52.6252 102.915 54.7071 102.915Z" fill="#F44730"/>
<path d="M80.1758 102.915C82.2577 102.915 83.9454 101.225 83.9454 99.1397C83.9454 97.0546 82.2577 95.3643 80.1758 95.3643C78.094 95.3643 76.4062 97.0546 76.4062 99.1397C76.4062 101.225 78.094 102.915 80.1758 102.915Z" fill="#F44730"/>
<path d="M109.422 99.1398C109.422 98.3931 109.201 97.6631 108.787 97.0422C108.372 96.4213 107.784 95.9374 107.095 95.6516C106.406 95.3659 105.648 95.2911 104.917 95.4368C104.186 95.5825 103.514 95.942 102.987 96.47C102.46 96.9981 102.101 97.6708 101.955 98.4032C101.81 99.1355 101.884 99.8947 102.17 100.585C102.455 101.274 102.938 101.864 103.558 102.279C104.178 102.694 104.907 102.915 105.652 102.915C106.652 102.915 107.611 102.517 108.318 101.809C109.025 101.101 109.422 100.141 109.422 99.1398Z" fill="#F44730"/>
<path d="M131.113 102.915C133.195 102.915 134.883 101.225 134.883 99.1397C134.883 97.0546 133.195 95.3643 131.113 95.3643C129.031 95.3643 127.344 97.0546 127.344 99.1397C127.344 101.225 129.031 102.915 131.113 102.915Z" fill="#F44730"/>
<path d="M156.59 102.915C158.672 102.915 160.359 101.225 160.359 99.1397C160.359 97.0546 158.672 95.3643 156.59 95.3643C154.508 95.3643 152.82 97.0546 152.82 99.1397C152.82 101.225 154.508 102.915 156.59 102.915Z" fill="#F44730"/>
<path d="M182.066 102.915C184.148 102.915 185.836 101.225 185.836 99.1397C185.836 97.0546 184.148 95.3643 182.066 95.3643C179.985 95.3643 178.297 97.0546 178.297 99.1397C178.297 101.225 179.985 102.915 182.066 102.915Z" fill="#F44730"/>
<path d="M211.297 99.1398C211.297 98.3931 211.076 97.6631 210.662 97.0422C210.248 96.4213 209.659 95.9374 208.97 95.6516C208.281 95.3659 207.523 95.2911 206.792 95.4368C206.061 95.5825 205.389 95.942 204.862 96.47C204.335 96.9981 203.976 97.6708 203.83 98.4032C203.685 99.1355 203.759 99.8947 204.045 100.585C204.33 101.274 204.813 101.864 205.433 102.279C206.053 102.694 206.782 102.915 207.527 102.915C208.527 102.915 209.486 102.517 210.193 101.809C210.9 101.101 211.297 100.141 211.297 99.1398Z" fill="#F44730"/>
<path d="M7.53917 122.775C7.53917 122.028 7.31807 121.298 6.90387 120.677C6.48966 120.056 5.90092 119.572 5.21211 119.286C4.52331 119.001 3.76539 118.926 3.03416 119.072C2.30294 119.217 1.63125 119.577 1.10406 120.105C0.576875 120.633 0.217884 121.306 0.0724334 122.038C-0.0730169 122.77 0.00163274 123.529 0.286944 124.219C0.572255 124.909 1.05538 125.499 1.67529 125.914C2.29519 126.329 3.02403 126.55 3.76958 126.55C4.26461 126.55 4.75477 126.452 5.21211 126.263C5.66946 126.073 6.08501 125.795 6.43505 125.444C6.78509 125.094 7.06277 124.677 7.25221 124.219C7.44165 123.761 7.53917 123.27 7.53917 122.775Z" fill="#F44730"/>
<path d="M29.2461 126.552C31.328 126.552 33.0157 124.862 33.0157 122.776C33.0157 120.691 31.328 119.001 29.2461 119.001C27.1643 119.001 25.4766 120.691 25.4766 122.776C25.4766 124.862 27.1643 126.552 29.2461 126.552Z" fill="#F44730"/>
<path d="M54.7071 126.552C56.789 126.552 58.4767 124.862 58.4767 122.776C58.4767 120.691 56.789 119.001 54.7071 119.001C52.6252 119.001 50.9375 120.691 50.9375 122.776C50.9375 124.862 52.6252 126.552 54.7071 126.552Z" fill="#F44730"/>
<path d="M80.1758 126.552C82.2577 126.552 83.9454 124.862 83.9454 122.776C83.9454 120.691 82.2577 119.001 80.1758 119.001C78.094 119.001 76.4062 120.691 76.4062 122.776C76.4062 124.862 78.094 126.552 80.1758 126.552Z" fill="#F44730"/>
<path d="M109.422 122.775C109.422 122.028 109.201 121.298 108.787 120.677C108.372 120.056 107.784 119.572 107.095 119.286C106.406 119.001 105.648 118.926 104.917 119.072C104.186 119.217 103.514 119.577 102.987 120.105C102.46 120.633 102.101 121.306 101.955 122.038C101.81 122.77 101.884 123.529 102.17 124.219C102.455 124.909 102.938 125.499 103.558 125.914C104.178 126.329 104.907 126.55 105.652 126.55C106.147 126.55 106.638 126.452 107.095 126.263C107.552 126.073 107.968 125.795 108.318 125.444C108.668 125.094 108.946 124.677 109.135 124.219C109.324 123.761 109.422 123.27 109.422 122.775Z" fill="#F44730"/>
<path d="M131.113 126.552C133.195 126.552 134.883 124.862 134.883 122.776C134.883 120.691 133.195 119.001 131.113 119.001C129.031 119.001 127.344 120.691 127.344 122.776C127.344 124.862 129.031 126.552 131.113 126.552Z" fill="#F44730"/>
<path d="M156.59 126.552C158.672 126.552 160.359 124.862 160.359 122.776C160.359 120.691 158.672 119.001 156.59 119.001C154.508 119.001 152.82 120.691 152.82 122.776C152.82 124.862 154.508 126.552 156.59 126.552Z" fill="#F44730"/>
<path d="M182.066 126.552C184.148 126.552 185.836 124.862 185.836 122.776C185.836 120.691 184.148 119.001 182.066 119.001C179.985 119.001 178.297 120.691 178.297 122.776C178.297 124.862 179.985 126.552 182.066 126.552Z" fill="#F44730"/>
<path d="M211.297 122.775C211.297 122.028 211.076 121.298 210.662 120.677C210.248 120.056 209.659 119.572 208.97 119.286C208.281 119.001 207.523 118.926 206.792 119.072C206.061 119.217 205.389 119.577 204.862 120.105C204.335 120.633 203.976 121.306 203.83 122.038C203.685 122.77 203.759 123.529 204.045 124.219C204.33 124.909 204.813 125.499 205.433 125.914C206.053 126.329 206.782 126.55 207.527 126.55C208.022 126.55 208.513 126.452 208.97 126.263C209.427 126.073 209.843 125.795 210.193 125.444C210.543 125.094 210.821 124.677 211.01 124.219C211.2 123.761 211.297 123.27 211.297 122.775Z" fill="#F44730"/>
<path d="M7.53917 146.414C7.53917 145.667 7.31807 144.938 6.90387 144.317C6.48966 143.696 5.90092 143.212 5.21211 142.926C4.52331 142.64 3.76539 142.566 3.03416 142.711C2.30294 142.857 1.63125 143.216 1.10406 143.744C0.576875 144.272 0.217884 144.945 0.0724334 145.678C-0.0730169 146.41 0.00163274 147.169 0.286944 147.859C0.572255 148.549 1.05538 149.138 1.67529 149.553C2.29519 149.968 3.02403 150.19 3.76958 150.19C4.76933 150.19 5.72811 149.792 6.43505 149.084C7.14198 148.376 7.53917 147.415 7.53917 146.414Z" fill="#F44730"/>
<path d="M29.2461 150.19C31.328 150.19 33.0157 148.499 33.0157 146.414C33.0157 144.329 31.328 142.639 29.2461 142.639C27.1643 142.639 25.4766 144.329 25.4766 146.414C25.4766 148.499 27.1643 150.19 29.2461 150.19Z" fill="#F44730"/>
<path d="M54.7071 150.19C56.789 150.19 58.4767 148.499 58.4767 146.414C58.4767 144.329 56.789 142.639 54.7071 142.639C52.6252 142.639 50.9375 144.329 50.9375 146.414C50.9375 148.499 52.6252 150.19 54.7071 150.19Z" fill="#F44730"/>
<path d="M80.1758 150.19C82.2577 150.19 83.9454 148.499 83.9454 146.414C83.9454 144.329 82.2577 142.639 80.1758 142.639C78.094 142.639 76.4062 144.329 76.4062 146.414C76.4062 148.499 78.094 150.19 80.1758 150.19Z" fill="#F44730"/>
<path d="M109.422 146.414C109.422 145.667 109.201 144.938 108.787 144.317C108.372 143.696 107.784 143.212 107.095 142.926C106.406 142.64 105.648 142.566 104.917 142.711C104.186 142.857 103.514 143.216 102.987 143.744C102.46 144.272 102.101 144.945 101.955 145.678C101.81 146.41 101.884 147.169 102.17 147.859C102.455 148.549 102.938 149.138 103.558 149.553C104.178 149.968 104.907 150.19 105.652 150.19C106.652 150.19 107.611 149.792 108.318 149.084C109.025 148.376 109.422 147.415 109.422 146.414Z" fill="#F44730"/>
<path d="M131.113 150.19C133.195 150.19 134.883 148.499 134.883 146.414C134.883 144.329 133.195 142.639 131.113 142.639C129.031 142.639 127.344 144.329 127.344 146.414C127.344 148.499 129.031 150.19 131.113 150.19Z" fill="#F44730"/>
<path d="M156.59 150.19C158.672 150.19 160.359 148.499 160.359 146.414C160.359 144.329 158.672 142.639 156.59 142.639C154.508 142.639 152.82 144.329 152.82 146.414C152.82 148.499 154.508 150.19 156.59 150.19Z" fill="#F44730"/>
<path d="M182.066 150.19C184.148 150.19 185.836 148.499 185.836 146.414C185.836 144.329 184.148 142.639 182.066 142.639C179.985 142.639 178.297 144.329 178.297 146.414C178.297 148.499 179.985 150.19 182.066 150.19Z" fill="#F44730"/>
<path d="M211.297 146.414C211.297 145.667 211.076 144.938 210.662 144.317C210.248 143.696 209.659 143.212 208.97 142.926C208.281 142.64 207.523 142.566 206.792 142.711C206.061 142.857 205.389 143.216 204.862 143.744C204.335 144.272 203.976 144.945 203.83 145.678C203.685 146.41 203.759 147.169 204.045 147.859C204.33 148.549 204.813 149.138 205.433 149.553C206.053 149.968 206.782 150.19 207.527 150.19C208.527 150.19 209.486 149.792 210.193 149.084C210.9 148.376 211.297 147.415 211.297 146.414Z" fill="#F44730"/>
<path d="M29.2461 173.822C31.328 173.822 33.0157 172.132 33.0157 170.047C33.0157 167.962 31.328 166.271 29.2461 166.271C27.1643 166.271 25.4766 167.962 25.4766 170.047C25.4766 172.132 27.1643 173.822 29.2461 173.822Z" fill="#F44730"/>
<path d="M54.7071 173.822C56.789 173.822 58.4767 172.132 58.4767 170.047C58.4767 167.962 56.789 166.271 54.7071 166.271C52.6252 166.271 50.9375 167.962 50.9375 170.047C50.9375 172.132 52.6252 173.822 54.7071 173.822Z" fill="#F44730"/>
<path d="M80.1758 173.822C82.2577 173.822 83.9454 172.132 83.9454 170.047C83.9454 167.962 82.2577 166.271 80.1758 166.271C78.094 166.271 76.4062 167.962 76.4062 170.047C76.4062 172.132 78.094 173.822 80.1758 173.822Z" fill="#F44730"/>
<path d="M109.422 170.047C109.422 169.3 109.201 168.57 108.787 167.949C108.372 167.329 107.784 166.845 107.095 166.559C106.406 166.273 105.648 166.198 104.917 166.344C104.186 166.49 103.514 166.849 102.987 167.377C102.46 167.905 102.101 168.578 101.955 169.31C101.81 170.043 101.884 170.802 102.17 171.492C102.455 172.182 102.938 172.771 103.558 173.186C104.178 173.601 104.907 173.822 105.652 173.822C106.652 173.822 107.611 173.425 108.318 172.717C109.025 172.009 109.422 171.048 109.422 170.047Z" fill="#F44730"/>
<path d="M131.113 173.822C133.195 173.822 134.883 172.132 134.883 170.047C134.883 167.962 133.195 166.271 131.113 166.271C129.031 166.271 127.344 167.962 127.344 170.047C127.344 172.132 129.031 173.822 131.113 173.822Z" fill="#F44730"/>
<path d="M156.59 173.822C158.672 173.822 160.359 172.132 160.359 170.047C160.359 167.962 158.672 166.271 156.59 166.271C154.508 166.271 152.82 167.962 152.82 170.047C152.82 172.132 154.508 173.822 156.59 173.822Z" fill="#F44730"/>
<path d="M182.066 173.822C184.148 173.822 185.836 172.132 185.836 170.047C185.836 167.962 184.148 166.271 182.066 166.271C179.985 166.271 178.297 167.962 178.297 170.047C178.297 172.132 179.985 173.822 182.066 173.822Z" fill="#F44730"/>
<path d="M54.7071 197.46C56.789 197.46 58.4767 195.77 58.4767 193.685C58.4767 191.6 56.789 189.909 54.7071 189.909C52.6252 189.909 50.9375 191.6 50.9375 193.685C50.9375 195.77 52.6252 197.46 54.7071 197.46Z" fill="#F44730"/>
<path d="M80.1758 197.46C82.2577 197.46 83.9454 195.77 83.9454 193.685C83.9454 191.6 82.2577 189.909 80.1758 189.909C78.094 189.909 76.4062 191.6 76.4062 193.685C76.4062 195.77 78.094 197.46 80.1758 197.46Z" fill="#F44730"/>
<path d="M109.422 193.687C109.422 192.94 109.201 192.21 108.787 191.589C108.372 190.968 107.784 190.484 107.095 190.199C106.406 189.913 105.648 189.838 104.917 189.984C104.186 190.129 103.514 190.489 102.987 191.017C102.46 191.545 102.101 192.218 101.955 192.95C101.81 193.683 101.884 194.442 102.17 195.131C102.455 195.821 102.938 196.411 103.558 196.826C104.178 197.241 104.907 197.462 105.652 197.462C106.652 197.462 107.611 197.064 108.318 196.356C109.025 195.648 109.422 194.688 109.422 193.687Z" fill="#F44730"/>
<path d="M131.113 197.46C133.195 197.46 134.883 195.77 134.883 193.685C134.883 191.6 133.195 189.909 131.113 189.909C129.031 189.909 127.344 191.6 127.344 193.685C127.344 195.77 129.031 197.46 131.113 197.46Z" fill="#F44730"/>
<path d="M156.59 197.46C158.672 197.46 160.359 195.77 160.359 193.685C160.359 191.6 158.672 189.909 156.59 189.909C154.508 189.909 152.82 191.6 152.82 193.685C152.82 195.77 154.508 197.46 156.59 197.46Z" fill="#F44730"/>
</g>
</svg>
