<svg xmlns="http://www.w3.org/2000/svg" viewBox="0 0 335.27493 70.23641"><defs><style>.cls-1{fill:none;}.cls-2{fill:#a4c639;}</style></defs><g id="Capa_2" data-name="Capa 2"><g id="Capa_1-2" data-name="Capa 1"><rect class="cls-1" width="335.27493" height="70.23641"/><path d="M193.2277,24.82763c.55036,0,1.07319-.2683,1.475.13346a5.458,5.458,0,0,1,0,1.475V45.20872a2.75172,2.75172,0,0,1-1.475,0v-3.082a8.127,8.127,0,0,1-4.678,3.21959,8.22572,8.22572,0,0,1-6.83819-1.34149,10.5964,10.5964,0,0,1-2.81644-3.6186,8.15544,8.15544,0,0,1,.67006-7.24133,7.48114,7.48114,0,0,1,4.96147-3.48651,7.90354,7.90354,0,0,1,6.30159,1.0732A8.92038,8.92038,0,0,1,193.108,32.878l.13346-8.04484m-8.19483,6.16538a6.73042,6.73042,0,0,0-5.09493,7.24132A7.07556,7.07556,0,0,0,183.84,43.46822a6.25532,6.25532,0,0,0,5.36323-.13346,6.56885,6.56885,0,0,0,3.88827-7.10649,6.36762,6.36762,0,0,0-3.35167-4.678,8.10652,8.10652,0,0,0-4.678-.55036ZM242.559,24.83038c.40176-.40176.93835-.13346,1.47495,0v20.3811a2.75172,2.75172,0,0,1-1.47495,0V42.14323a8.29752,8.29752,0,0,1-6.03467,3.48652,7.68282,7.68282,0,0,1-4.55971-1.0732,8.22267,8.22267,0,0,1-4.02312-5.36323,7.65831,7.65831,0,0,1,1.0732-5.89982,8.02916,8.02916,0,0,1,5.22839-3.6186,8.2739,8.2739,0,0,1,6.16813,1.20666,10.4616,10.4616,0,0,1,2.14639,2.01155v-8.0586m-8.17967,6.164a6.90038,6.90038,0,0,0-4.29279,3.21958A6.37805,6.37805,0,0,0,229.415,38.643a6.64428,6.64428,0,0,0,8.448,4.9601,6.93338,6.93338,0,0,0,3.48651-2.683,6.07042,6.07042,0,0,0,.93836-5.2284,6.907,6.907,0,0,0-3.6186-4.5597,9.30551,9.30551,0,0,0-4.29278-.13346Zm-10.45678-6.036a.98444.98444,0,0,1,1.07319,1.475.99973.99973,0,0,1-1.60979.13346.985.985,0,0,1,.55036-1.60979Zm-74.2982,4.42625a7.42024,7.42024,0,0,1,5.09493.80489,9.36305,9.36305,0,0,1,3.082,2.54816V29.52217h1.34149c.13347,5.22839,0,10.45953,0,15.68792a2.75451,2.75451,0,0,1-1.475,0v-3.082a8.04376,8.04376,0,0,1-5.09493,3.21959,8.364,8.364,0,0,1-5.36323-.67006,8.17966,8.17966,0,0,1-4.42487-6.03467,8.35191,8.35191,0,0,1,.67006-4.42487,8.92093,8.92093,0,0,1,6.16812-4.82663m.13347,1.6098a6.78592,6.78592,0,0,0-4.96147,4.678,6.61315,6.61315,0,0,0,2.683,7.24133,6.96344,6.96344,0,0,0,5.36323.93835,6.843,6.843,0,0,0,4.5597-4.42487,6.42479,6.42479,0,0,0-2.41331-7.24132,6.19737,6.19737,0,0,0-5.22839-1.20666Zm15.18022-.14034a7.26059,7.26059,0,0,1,9.118,0,7.54764,7.54764,0,0,1,2.683,5.63153v8.71628a2.75187,2.75187,0,0,1-1.475,0V36.2269a5.73517,5.73517,0,0,0-5.77875-5.36323,5.82743,5.82743,0,0,0-5.63153,5.49806v8.84974a2.75175,2.75175,0,0,1-1.475,0V36.77726a7.1247,7.1247,0,0,1,2.54816-5.89983Zm32.44906,5.22839a7.00638,7.00638,0,0,1,7.10648-6.83819,4.51981,4.51981,0,0,1,0,1.3415c-.40176.2683-.80489.13346-1.20665.2683a5.953,5.953,0,0,0-3.88827,3.082,11.009,11.009,0,0,0-.55036,4.678v6.56989c-.40176.2683-.93836.13346-1.475.13346v-9.235Zm13.40945-6.56851a7.53548,7.53548,0,0,1,5.63153.93835,8.32682,8.32682,0,0,1,4.02311,5.63153,7.61564,7.61564,0,0,1-.55035,4.55971A8.11561,8.11561,0,0,1,204.47839,39.042a7.97344,7.97344,0,0,1,1.07319-5.77875A7.51491,7.51491,0,0,1,210.78,29.507m.2683,1.475a6.66877,6.66877,0,0,0-5.09494,7.37478,6.76612,6.76612,0,0,0,8.3269,5.49944,7.32424,7.32424,0,0,0,3.21958-2.01156,6.57377,6.57377,0,0,0,1.74325-4.678,6.74756,6.74756,0,0,0-3.4865-5.49807,7.21687,7.21687,0,0,0-4.678-.67006Zm12.35-1.0732c.40176-.40176,1.0732-.2683,1.6098-.13346V44.5249c0,.67006-.93836.2683-1.3415.40176a.289.289,0,0,1-.2683-.2683Z"/><path class="cls-2" d="M104.00656,9.69969l2.32113,4.14419a12.58449,12.58449,0,0,0-7.295,11.10758h27.855a12.58534,12.58534,0,0,0-7.295-11.10758l2.32114-4.14419s.1651-.16511-.16511-.33022c-.16511-.1651-.33022.16511-.33022.16511l-2.48623,4.14419a14.84585,14.84585,0,0,0-12.26746,0l-2.47661-4.14419a.57646.57646,0,0,0-.33021-.16511.57647.57647,0,0,0,.1651.33022Zm2.32113,8.12327a1.43092,1.43092,0,0,1,1.32636,1.32636,1.43092,1.43092,0,0,1-1.32636,1.32636,1.3071,1.3071,0,0,1-1.32636-1.28755q-.00028-.01941,0-.03881a1.30711,1.30711,0,0,1,1.28755-1.32636Q106.30829,17.82267,106.32769,17.823Zm13.26361,0a1.43092,1.43092,0,0,1,1.32636,1.32636,1.43092,1.43092,0,0,1-1.32636,1.32636,1.30709,1.30709,0,0,1-1.32636-1.28754q-.00028-.01941,0-.03882a1.30709,1.30709,0,0,1,1.28754-1.32636Q119.57189,17.82267,119.5913,17.823ZM98.869,26.59565V47.81742a3.00615,3.00615,0,0,0,2.32113,2.48623h3.30214v7.295a3.00085,3.00085,0,1,0,5.97138,0V50.316H115.271v7.295a3.00085,3.00085,0,1,0,5.97137,0V50.316h3.30214a2.82124,2.82124,0,0,0,2.32113-2.48624V26.59565Z"/><path id="A" class="cls-2" d="M94.22672,26.11409a3.15819,3.15819,0,0,1,2.98568,3.30214V42.01665a3.00085,3.00085,0,1,1-5.97137,0V29.43a3.14948,3.14948,0,0,1,2.98569-3.30214Z"/><path id="A-2" data-name="A" class="cls-2" d="M131.6964,26.11409a3.1582,3.1582,0,0,1,2.98569,3.30214V42.01665a3.00085,3.00085,0,1,1-5.97138,0V29.43a3.14948,3.14948,0,0,1,2.98569-3.30214Z"/></g></g></svg>