<svg xmlns="http://www.w3.org/2000/svg" xmlns:xlink="http://www.w3.org/1999/xlink" viewBox="0 0 335.27493 70.23641"><defs><style>.cls-1{fill:none;}.cls-2{clip-path:url(#clip-path);}.cls-3{fill:#39cefd;}.cls-4{fill:#03569b;}.cls-5{fill:url(#Degradado_sin_nombre_4);}.cls-6{fill:#16b9fd;}.cls-7{fill:url(#Degradado_sin_nombre_3);}.cls-8{fill:gray;}</style><clipPath id="clip-path"><path class="cls-1" d="M141.79721,33.37179,129.605,45.56837l12.19222,12.19657H127.86512L115.66854,45.56837l12.19658-12.19658ZM127.86512,12.47147,105.22056,35.116l6.96823,6.96822,29.60842-29.61278Z"/></clipPath><linearGradient id="Degradado_sin_nombre_4" x1="13274.45642" y1="-14683.27545" x2="13408.14766" y2="-14549.58422" gradientTransform="matrix(0.03882, 0, 0, -0.03882, -390.63132, -516.10924)" gradientUnits="userSpaceOnUse"><stop offset="0" stop-color="#1a237e" stop-opacity="0.4"/><stop offset="1" stop-color="#1a237e" stop-opacity="0"/></linearGradient><radialGradient id="Degradado_sin_nombre_3" cx="8890.14055" cy="4073.2664" r="5709.68058" gradientTransform="translate(-472.78662 -551.65874) scale(0.0097)" gradientUnits="userSpaceOnUse"><stop offset="0" stop-color="#fff" stop-opacity="0.1"/><stop offset="1" stop-color="#fff" stop-opacity="0"/></radialGradient></defs><g id="Capa_2" data-name="Capa 2"><g id="Capa_1-2" data-name="Capa 1"><rect class="cls-1" width="335.27493" height="70.23641"/><g class="cls-2"><path class="cls-3" d="M122.63677,52.53659l19.16044-19.1648H127.86512L115.6729,45.56837Z"/></g><g class="cls-2"><path class="cls-3" d="M105.22056,35.116l22.64456-22.64456h13.93209L112.18879,42.08425Z"/></g><g class="cls-2"><path class="cls-4" d="M127.86512,57.76058h13.93209L129.605,45.56837l-6.96822,6.96822Z"/></g><g class="cls-2"><path class="cls-5" d="M129.605,45.56837l-6.96822,6.96822,10.3346-3.58Z"/></g><g class="cls-2"><path class="cls-6" d="M115.67212,45.566l6.9684-6.96845,6.96884,6.96845-6.96884,6.96844Z"/></g><path class="cls-7" d="M141.79721,33.37179,129.605,45.56837l12.19222,12.19657H127.86512L115.66854,45.56837l12.19658-12.19658ZM127.86512,12.47147,105.22056,35.116l6.96823,6.96822,29.60842-29.61278Z"/><path class="cls-8" d="M146.22032,24.61244H158.397v2.38142h-9.70543V34.1988h8.76185V36.551h-8.76185v9.11569h-2.47129Zm15.12317,0h2.49938V45.66783h-2.49938ZM172.98664,46.1385a5.34553,5.34553,0,0,1-4.15626-1.58836,6.50967,6.50967,0,0,1-1.40189-4.44046V30.67047h2.49937v9.05728a4.40442,4.40442,0,0,0,.97054,3.14528,3.45835,3.45835,0,0,0,2.61732,1.011,3.865,3.865,0,0,0,2.24663-.67623,4.31529,4.31529,0,0,0,1.52771-1.76361,4.9638,4.9638,0,0,0,.55829-2.2938V30.68058h2.49825V45.67682h-2.38143v-2.186h-.118a4.94458,4.94458,0,0,1-1.97029,1.88155,5.76989,5.76989,0,0,1-2.88243.76386Z"/><path id="B" class="cls-8" d="M189.96666,45.90373a4.8622,4.8622,0,0,1-1.70519-.29431,3.9092,3.9092,0,0,1-1.294-.79418,3.60606,3.60606,0,0,1-.88181-1.29406,4.83388,4.83388,0,0,1-.29431-1.79393V32.93507H183.174v-2.2646h2.61732v-4.2349h2.49937v4.2349H191.937v2.2646h-3.64628v8.17548a2.89194,2.89194,0,0,0,.47179,1.82314,2.01991,2.01991,0,0,0,1.61758.647,3.04617,3.04617,0,0,0,1.64678-.49988v2.441a3.83741,3.83741,0,0,1-.91213.29431,5.93643,5.93643,0,0,1-1.14577.08987Z"/><path id="B-2" data-name="B" class="cls-8" d="M200.56625,45.90373a4.8622,4.8622,0,0,1-1.70519-.29431,3.9092,3.9092,0,0,1-1.294-.79418,3.60606,3.60606,0,0,1-.88181-1.29406,4.83388,4.83388,0,0,1-.29431-1.79393V32.93507h-2.61732v-2.2646h2.61732v-4.2349h2.49937v4.2349h3.64628v2.2646h-3.64628v8.17548a2.89194,2.89194,0,0,0,.47179,1.82314,2.01991,2.01991,0,0,0,1.61758.647,3.04612,3.04612,0,0,0,1.64678-.49988v2.441a3.83726,3.83726,0,0,1-.91213.29431,5.93643,5.93643,0,0,1-1.14577.08987Z"/><path class="cls-8" d="M211.57473,46.1385a7.35592,7.35592,0,0,1-3.853-1.029,7.27194,7.27194,0,0,1-2.67573-2.82289,8.7797,8.7797,0,0,1-.94133-4.08886,9.06186,9.06186,0,0,1,.8818-3.999,7.37526,7.37526,0,0,1,2.55891-2.91163,6.76711,6.76711,0,0,1,3.82264-1.08962,7.06351,7.06351,0,0,1,3.82264,1.011,6.35432,6.35432,0,0,1,2.47129,2.70494,8.64344,8.64344,0,0,1,.8818,3.96979,2.866,2.866,0,0,1-.08987.76385H206.603a5.95978,5.95978,0,0,0,.82339,2.88243,4.81822,4.81822,0,0,0,1.85347,1.7636,5.14757,5.14757,0,0,0,2.38143.58861,4.87929,4.87929,0,0,0,4.44046-2.70494l2.11745,1.029a7.51712,7.51712,0,0,1-2.64653,2.88242,7.24318,7.24318,0,0,1-3.999,1.05817Zm4.32251-9.55715a4.86588,4.86588,0,0,0-.528-1.88155,4.00494,4.00494,0,0,0-1.49962-1.58837,4.60141,4.60141,0,0,0-2.52746-.647,4.25136,4.25136,0,0,0-2.99924,1.14578,5.41981,5.41981,0,0,0-1.58837,2.97005h9.146Zm5.54243-5.91088h2.38143v2.41175h.118a3.95077,3.95077,0,0,1,1.70519-2.0287,4.93314,4.93314,0,0,1,4.41013-.52908v2.70494a4.65992,4.65992,0,0,0-2.11745-.47179,3.48423,3.48423,0,0,0-1.99949.61782,4.45177,4.45177,0,0,0-1.46031,1.676,4.84862,4.84862,0,0,0-.528,2.24663v8.37992h-2.49938V30.6817Z"/></g></g></svg>