<svg xmlns="http://www.w3.org/2000/svg" viewBox="0 0 335.27492 70.23641"><defs><style>.cls-1{fill:#4e8df6;}.cls-2{fill:none;}</style></defs><g id="Capa_2" data-name="Capa 2"><g id="Contenido"><rect class="cls-1" x="159.96528" y="28.89462" width="1.00037" height="18.92915"/><path class="cls-1" d="M175.17937,28.43007a9.7393,9.7393,0,0,0-9.9634,9.92912,9.96441,9.96441,0,0,0,19.9287,0,9.741,9.741,0,0,0-9.9653-9.92912Zm0,18.92942a8.78,8.78,0,0,1-8.96385-9.0003,8.96486,8.96486,0,1,1,17.92959,0,8.78137,8.78137,0,0,1-8.96574,9.0003Z"/><path class="cls-1" d="M204.03737,30.32309a9.41966,9.41966,0,0,0-6.03564-1.893c-2.99974,0-6.32206,1.39338-7.49948,4.10753h-.07262v-3.643h-1.00009V47.82377h1.00009V36.93045c0-4.75,2.92956-7.57128,7.67926-7.57128a7.50763,7.50763,0,0,1,5.35648,1.78532c1.42875,1.28595,2.32168,3.393,2.32168,6.67807V47.82377h1.00064V37.82256c0-3.39221-.89293-5.9282-2.75032-7.49947Z"/><rect class="cls-1" x="212.32342" y="28.89462" width="1.00009" height="18.92915"/><path class="cls-1" d="M227.53778,47.35949a8.82107,8.82107,0,0,1-8.96493-9.0003,9.00874,9.00874,0,0,1,2.60752-6.46511,8.69529,8.69529,0,0,1,6.393-2.53491,8.54976,8.54976,0,0,1,8.28552,5.678h1.10752a9.99263,9.99263,0,0,0-19.39424,3.358,10.01078,10.01078,0,0,0,19.35807,3.46428h-1.10644a8.56944,8.56944,0,0,1-8.28606,5.50011Z"/><circle class="cls-1" cx="160.46573" cy="23.02706" r="1.07951"/><circle class="cls-1" cx="212.82306" cy="23.02706" r="1.07951"/><circle class="cls-1" cx="122.4943" cy="35.11793" r="9.87473"/><path class="cls-1" d="M142.646,18.36223a3.39257,3.39257,0,0,0-5.61842-2.5632,24.20781,24.20781,0,1,0,4.78587,4.78533,3.377,3.377,0,0,0,.83255-2.22213Zm-20.152,40.128a23.37232,23.37232,0,1,1,13.98471-42.08741,3.39252,3.39252,0,0,0,4.72957,4.72957A23.36118,23.36118,0,0,1,122.494,58.49025Z"/><rect class="cls-2" width="335.27492" height="70.23641"/></g></g></svg>