<svg xmlns="http://www.w3.org/2000/svg" viewBox="0 0 335.27493 70.23641"><defs><style>.cls-1{fill:none;}.cls-2{fill:#282828;}</style></defs><g id="Capa_2" data-name="Capa 2"><g id="Capa_1-2" data-name="Capa 1"><rect class="cls-1" width="335.27493" height="70.23641"/><path class="cls-2" d="M160.04109,15.80715a17.286,17.286,0,0,0-7.75668,1.80721c-6.19029,3.08347-9.76475,9.57687-9.76475,17.75862,0,8.20044,3.51633,14.50129,9.7279,17.44877a17.85264,17.85264,0,0,0,5.91366,1.53317,24.11513,24.11513,0,0,0,3.75974,0,17.85233,17.85233,0,0,0,5.91366-1.53317c6.2121-2.94749,9.72842-9.24781,9.72842-17.44877,0-8.18176-3.575-14.67515-9.76475-17.75862a17.28809,17.28809,0,0,0-7.7572-1.80721Zm2.46429,5.76782c3.71666.99028,6.41347,4.34363,7.44631,9.23535a21.16354,21.16354,0,0,1-.51071,10.53134c-1.61829,4.86888-5.131,7.61862-9.39989,7.5745-4.2689.04412-7.78159-2.70562-9.39936-7.57451a21.18721,21.18721,0,0,1-.51123-10.53133c1.03335-4.89172,3.73016-8.24508,7.44683-9.23536a12.57569,12.57569,0,0,1,4.92805,0Zm-27.1445-5.76782a3.71563,3.71563,0,1,0,3.71563,3.71563h0A3.71562,3.71562,0,0,0,135.36088,15.80715ZM131.88919,27.144V54.43226h6.94339V27.144Zm55.76974,27.23117c-2.975-.50967-5.83632-.90413-8.26532-2.28367-.03217-.02855,1.434-5.50727,1.5-5.60536,3.904,1.32556,9.39936,3.18467,13.10461,1.48127A4.6347,4.6347,0,0,0,196.6789,42.933c-.37629-2.42328-2.05426-3.81995-6.66052-5.54205-5.13825-1.92035-8.14854-4.28135-9.3812-7.35081a10.04648,10.04648,0,0,1-.53407-5.1097c.75776-4.66854,4.3945-7.916,9.976-8.9089a26.86209,26.86209,0,0,1,6.77626-.0057c2.45183.41,5.26386,1.3375,5.26386,1.7361,0,.14688-1.43664,5.21247-1.51033,5.32458a21.78733,21.78733,0,0,0-7.44424-1.66085c-3.25526-.041-6.78456,1.89129-6.16174,5.30486.44064,2.13886,1.80565,3.18312,6.82972,5.2244,3.70058,1.50515,5.47613,2.54318,6.99788,4.08777a9.59163,9.59163,0,0,1,2.799,7.04563,9.07675,9.07675,0,0,1-.915,4.57927Q200.0551,53.41137,191.8967,54.329a29.18135,29.18135,0,0,1-4.23516.04619Z"/></g></g></svg>