<svg xmlns="http://www.w3.org/2000/svg" viewBox="0 0 335.27492 70.23641"><defs><style>.cls-1{fill:#00a3d2;}.cls-2{fill:none;}</style></defs><g id="Capa_2" data-name="Capa 2"><g id="Contenido"><g id="Vsuu4Y.tif"><path class="cls-1" d="M98.5587,19.77851c2.03343.84924,2.49042,2.65625,2.59482,4.554a26.41372,26.41372,0,0,1-.28078,3.77451c-.03536.39218-.11588.78028-.17756,1.18219a24.22174,24.22174,0,0,1,2.43825.94,20.12578,20.12578,0,0,1,2.98541,1.77266c2.33721,1.75737,2.2322,4.40428-.09945,6.19446a16.92929,16.92929,0,0,1-5.24422,2.58024c.15161,1.00725.278,2.01732.46014,3.01723a8.63743,8.63743,0,0,1-.519,4.31858,3.14523,3.14523,0,0,1-2.21117,2.133c-.18768.053-.36555.14084-.548.21257h-.60155a14.03837,14.03837,0,0,1-6.58568-3.84206c-2.82215,2.408-3.69857,2.93124-5.88253,3.54119a3.3228,3.3228,0,0,1-4.29378-2.22144,8.46081,8.46081,0,0,1-.381-3.851c.16262-1.07455.29527-2.15364.43963-3.219-.89043-.34182-1.7548-.6076-2.56027-.99562-2.13824-1.03006-4.12145-2.23529-4.59815-4.852v-.20052A5.15438,5.15438,0,0,1,75.22575,31.999a12.04247,12.04247,0,0,1,3.53789-2.02164c.64966-.22487,1.29459-.46337,1.94226-.69592a18.56669,18.56669,0,0,1-.415-5.91959,3.92313,3.92313,0,0,1,2.82779-3.58336h1.20312a13.13665,13.13665,0,0,1,6.33071,3.73943c.43763-.35165.80919-.67871,1.20936-.96589.86286-.61925,1.707-1.27557,2.62276-1.80656a18.97915,18.97915,0,0,1,2.26934-.967ZM87.514,29.60975c-.90441,1.591-1.79289,3.18749-2.71827,4.7623a1.21374,1.21374,0,0,0,.0397,1.38322c.81623,1.36982,1.609,2.75395,2.3895,4.14449a.97482.97482,0,0,0,.96541.54662c1.7324-.01928,3.46508-.01985,5.19763-.015a.81133.81133,0,0,0,.79862-.46457Q95.426,37.74693,96.715,35.555a.97609.97609,0,0,0-.0344-1.105c-.86015-1.4614-1.69282-2.93946-2.58175-4.383a1.0952,1.0952,0,0,0-.78584-.43736C91.414,29.59215,89.514,29.60975,87.514,29.60975Zm-6.41973,9.833c.54338-1.39769,1.05109-2.6582,1.515-3.93464a1.37261,1.37261,0,0,0,.01434-.86542c-.46057-1.27683-.96884-2.53645-1.4733-3.83557a1.79537,1.79537,0,0,0-.478.03815,14.00891,14.00891,0,0,0-4.65068,2.43805,2.08477,2.08477,0,0,0-.102,3.416A13.6146,13.6146,0,0,0,81.0943,39.44279Zm10.81978,6.0403a3.21973,3.21973,0,0,0,.37077.492,12.364,12.364,0,0,0,4.27886,2.69624c1.53408.51244,2.45086.07862,2.927-1.457a10.60614,10.60614,0,0,0,.14283-4.3689,13.98091,13.98091,0,0,0-.35175-1.57427c-1.53394.20581-2.92.37938-4.30019.59092a1.00258,1.00258,0,0,0-.54057.37871C93.61,43.28374,92.799,44.34269,91.91408,45.48309Zm-2.22736.111c-.93672-1.18634-1.81111-2.31073-2.71087-3.41445a.98479.98479,0,0,0-.57972-.31693c-1.374-.18757-2.75224-.34383-4.12831-.51017a11.92171,11.92171,0,0,0-.48423,5.30522c.52074,2.14884,1.163,2.44875,2.788,2.08112A11.89029,11.89029,0,0,0,89.68672,45.59406Zm2.11913-21.02648c.92864,1.16976,1.74547,2.21893,2.59082,3.24459a1.16319,1.16319,0,0,0,.63386.38037c.88192.16088,1.77381.26648,2.66082.40045.50734.07662,1.01242.16818,1.59074.26512.16128-1.01609.35907-1.89276.42727-2.7794a7.42572,7.42572,0,0,0-.4839-3.8169,1.68056,1.68056,0,0,0-1.94539-1.02919A11.67179,11.67179,0,0,0,91.80585,24.56758Zm-2.196.02464a9.27659,9.27659,0,0,0-2.75349-2.147,13.336,13.336,0,0,0-2.73925-1.13737,1.52167,1.52167,0,0,0-1.98758,1.05183,9.09831,9.09831,0,0,0-.31531,4.44294,16.01022,16.01022,0,0,0,.40032,2.03484c1.51321-.2273,2.89533-.42367,4.27176-.654a1.0184,1.0184,0,0,0,.55646-.35569C87.88241,26.79538,88.69978,25.74488,89.60989,24.59222ZM100.3625,39.26558a9.14556,9.14556,0,0,0,3.346-1.34946,8.384,8.384,0,0,0,1.90469-1.419c1.087-1.09975,1.063-1.92677-.03947-3.00322a12.77548,12.77548,0,0,0-5.255-2.73808c-.52691,1.36624-1.04106,2.6571-1.51275,3.96331a1.19956,1.19956,0,0,0,.04837.76552C99.32631,36.72049,99.83114,37.94373,100.3625,39.26558Zm-14.716,1.03627-2.01622-3.57079-1.064,3.08294Zm10.14876-.02129L98.9461,39.747l-1.19336-2.95ZM92.67505,42.1433H88.8268l1.94159,2.37118ZM85.63587,29.81068l-3.04984.55859,1.0538,2.9848Zm12.10991,3.45137,1.10465-2.89585-3.04278-.53783Zm-5.07287-5.27011-1.972-2.38751-1.88682,2.38751Z"/><path class="cls-1" d="M261.78109,37.62469q-4.3538.0241-8.70759.04792c-.39442.00211-.78887.00029-1.16271.00029a4.29886,4.29886,0,0,0,1.96013,4.29115,3.92118,3.92118,0,0,0,4.792-1.31276,2.09384,2.09384,0,0,0,.29462-.51958c.14153-.48463.47622-.5771.92164-.55388.46112.024.92447.00535,1.61613.00535a14.23607,14.23607,0,0,1-.77855,1.91256,5.59409,5.59409,0,0,1-4.69883,2.76878,5.89637,5.89637,0,0,1-5.23725-2.13654,6.41277,6.41277,0,0,1-1.34413-3.289,8.18027,8.18027,0,0,1,1.97318-7.245,4.81856,4.81856,0,0,1,2.56694-1.45453,6.10882,6.10882,0,0,1,6.34425,1.89261,6.87772,6.87772,0,0,1,1.26725,3.31779c.05858.29155.12828.58087.19288.87122Zm-9.9754-1.8322h7.30795a3.29365,3.29365,0,0,0-2.79832-3.77255C253.87305,31.73,252.26868,32.88856,251.80569,35.79249Z"/><path class="cls-1" d="M203.6318,40.05607V25.25747h2.34942V43.84429c-.81827,0-1.63876.03133-2.45374-.02193a.96838.96838,0,0,1-.57872-.46335c-2.00758-3.18748-3.99449-6.388-5.99593-9.57937-.88487-1.411-1.78879-2.81-2.692-4.20941a8.03119,8.03119,0,0,0-.57084-.66907V43.767h-2.38557V25.17539c.92731,0,1.79075-.03512,2.64789.02288a1.05718,1.05718,0,0,1,.667.48386c1.2084,1.91551,2.383,3.85231,3.57719,5.77683q2.52957,4.07652,5.07352,8.14411C203.33333,39.70445,203.4193,39.79165,203.6318,40.05607Z"/><path class="cls-1" d="M132.10425,43.79857h-3.03152c-.07805-.597-.17344-1.2072-.23488-1.82078-.13945-1.39273-.19908-2.79683-.4115-4.1778a2.16683,2.16683,0,0,0-2.1164-1.925c-2.29987-.05946-4.60235-.018-7.0521-.018v7.941h-2.4216V25.24016c.27978-.02284.56555-.066.85138-.0664,2.70648-.004,5.41389-.04024,8.119.02216a10.16525,10.16525,0,0,1,2.74385.47518,4.25379,4.25379,0,0,1,2.92575,4.00843c.054,2.40434-.13737,2.81284-2.38913,5.03816,1.58109.63958,1.9699,1.9442,1.99571,3.47582a18.38233,18.38233,0,0,0,.19642,2.89662A22.96742,22.96742,0,0,0,132.10425,43.79857ZM119.3392,27.40748v6.19128c2.31431,0,4.552.08483,6.77925-.03159a2.68273,2.68273,0,0,0,2.82467-2.78424c.13141-1.80607-.70715-3.2354-2.62013-3.34455C124.02981,27.30754,121.72346,27.40748,119.3392,27.40748Z"/><path class="cls-1" d="M161.482,42.26777v1.44678c-1.78508.84222-2.98379.38164-3.754-1.4819-.45746.33226-.89075.6738-1.35011.97568a5.69682,5.69682,0,0,1-4.85212.84278,3.97047,3.97047,0,0,1-2.89517-3.65469,3.76226,3.76226,0,0,1,2.44151-3.85988,17.28436,17.28436,0,0,1,2.69728-.66035c.78365-.146,1.58439-.20683,2.37984-.281.89331-.08331,1.37376-.39965,1.51652-1.04215a1.91342,1.91342,0,0,0-.81513-2.19208,4.65124,4.65124,0,0,0-4.146-.12732c-.69184.314-.92529.76561-1.28676,2.10229h-1.92381a3.62315,3.62315,0,0,1,2.0786-3.82356,8.54278,8.54278,0,0,1,6.23714-.03822,3.08736,3.08736,0,0,1,2.11777,3.17647c-.01209,2.26989-.00144,4.53989-.00043,6.80985.0001.23367-.00624.46758.002.701.03165.89846.13072.99426,1.06011,1.05428C161.12022,42.22418,161.2507,42.243,161.482,42.26777Zm-3.81385-5.19987c-.67016.14249-1.21463.27285-1.76482.37115-.55557.09927-1.12.14972-1.67472.25283a12.49433,12.49433,0,0,0-1.74971.39657,2.186,2.186,0,0,0-1.47008,2.34129,2.10755,2.10755,0,0,0,2.082,1.79419,5.10749,5.10749,0,0,0,1.1994-.02188c2.08553-.38619,3.19259-1.45,3.36884-3.25194C157.717,38.35748,157.66811,37.75439,157.66811,37.0679Z"/><path class="cls-1" d="M221.81853,42.26984v1.48162c-1.76088.78794-2.91776.3207-3.68091-1.53894-.37109.289-.71526.57863-1.08091.838a5.81925,5.81925,0,0,1-5.20632.97942,4.164,4.164,0,0,1-2.82745-3.41719,3.81712,3.81712,0,0,1,2.35333-4.01654,12.9879,12.9879,0,0,1,2.29781-.61529c.91537-.17395,1.84485-.28626,2.77289-.37763,1.036-.102,1.47848-.35551,1.62332-1.02823a1.91816,1.91816,0,0,0-.953-2.3136,4.48779,4.48779,0,0,0-3.96527-.01036,3.59947,3.59947,0,0,0-1.05145,1.25536,2.93413,2.93413,0,0,0-.255.82426h-1.92953a3.34308,3.34308,0,0,1,1.96624-3.71856,7.70445,7.70445,0,0,1,6.93179.17537,2.67718,2.67718,0,0,1,1.48949,2.527c.01966,2.40557.0121,4.81137.01585,7.21707.00037.23389-.0119.46882.00557.70147.05733.76252.205.90924.95468.98218C221.441,42.23092,221.60216,42.24787,221.81853,42.26984Zm-3.78356-5.1264c-1.194.19045-2.33972.35435-3.47739.56215a9.91918,9.91918,0,0,0-1.83038.46879,2.18459,2.18459,0,0,0-1.243,2.291,2.033,2.033,0,0,0,1.906,1.7492,5.01784,5.01784,0,0,0,1.39832-.02115c1.94546-.40845,2.943-1.25664,3.22389-2.82553A12.56312,12.56312,0,0,0,218.035,37.14344Z"/><path class="cls-1" d="M136.70406,37.65237a4.76735,4.76735,0,0,0,.8776,3.45833,2.32089,2.32089,0,0,0,.48376.50171c1.46826,1.15709,4.35571.796,5.21807-.84135.69556-1.32065,1.635-1.30209,2.86618-1.10611a5.18486,5.18486,0,0,1-2.29959,3.59655,6.27089,6.27089,0,0,1-8.665-1.644,7.77111,7.77111,0,0,1-1.089-4.49743,7.78051,7.78051,0,0,1,2.08734-5.55477c2.592-2.66737,8.45018-2.10658,9.76685,2.05707a11.747,11.747,0,0,1,.37062,4.03Zm7.30518-1.857c-.16259-2.73776-1.65808-3.89666-3.889-3.82882a3.55046,3.55046,0,0,0-3.34546,3.82882Z"/><path class="cls-1" d="M172.203,39.06471h2.03071a5.3052,5.3052,0,0,1-3.24583,4.73293,6.642,6.642,0,0,1-4.6057.00834,5.30911,5.30911,0,0,1-2.83845-2.8244,8.90044,8.90044,0,0,1,.05155-7.74323c1.09137-2.32049,2.9392-3.774,6.5958-3.30319a4.67757,4.67757,0,0,1,4.06528,4.7831,3.22961,3.22961,0,0,1-.471.07616c-.49771.0102-.99576.00373-1.54227.00373-.10076-.2789-.19723-.519-.27481-.76515a2.84536,2.84536,0,0,0-2.81932-2.12047,3.04674,3.04674,0,0,0-3.15823,1.682,8.04471,8.04471,0,0,0-.21826,6.68428,2.992,2.992,0,0,0,2.882,1.93739,3.11983,3.11983,0,0,0,3.03177-1.884A13.37681,13.37681,0,0,0,172.203,39.06471Z"/><path class="cls-1" d="M243.04356,43.81724H240.625c-1.65614-4.4904-3.30733-8.96734-4.9953-13.54408h2.64956c1.16754,3.55628,2.35279,7.16645,3.5921,10.94135.27835-.76252.51662-1.37639.72746-1.99954q1.39059-4.11018,2.76356-8.22628c.177-.53286.4279-.86025,1.06608-.78995a17.10865,17.10865,0,0,0,1.74114.01178C246.4429,34.794,244.75774,39.26709,243.04356,43.81724Z"/><path class="cls-1" d="M175.21054,30.26217l1.80169-.106V26.43026h2.33253v3.73819h2.1556v1.83127l-2.05208.10136c-.021.33026-.058.647-.0586.96383q-.00725,3.654-.002,7.308c.00119,1.42675.18357,1.61375,1.59019,1.65945.16153.00525.32271.0212.54711.03649.02159.32064.05278.61028.05715.90033.00393.26075-.02162.52194-.03872.87766a18.35119,18.35119,0,0,1-2.101.15184,2.09427,2.09427,0,0,1-2.28068-2.04079,11.24733,11.24733,0,0,1-.13009-1.693c-.014-2.33582-.006-4.67177-.006-7.00767,0-.35821,0-.71642,0-1.12566l-1.815-.149Z"/><path class="cls-1" d="M228.85673,32.00608l-1.88852.10317c-.02219.35948-.05533.6512-.05583.943q-.00627,3.65445-.0018,7.30892c.00112,1.43972.15724,1.60236,1.57865,1.67629.09795.0051.19506.02629.37347.05137v1.79a16.25717,16.25717,0,0,1-2.12814.10022,2.01318,2.01318,0,0,1-2.02439-1.85548,10.22892,10.22892,0,0,1-.15449-1.791c-.01689-2.36944-.0047-4.73908-.00976-7.10863-.00075-.3552-.03594-.71034-.05766-1.11068L222.75534,32V30.27505l1.77456-.13V26.45762h2.36174v3.70131l1.96509.09261Z"/><path class="cls-1" d="M231.38684,30.31058h2.27574V43.79327h-2.27574Z"/><path class="cls-1" d="M231.37291,25.22136h2.28917v2.47755h-2.28917Z"/><path class="cls-1" d="M90.66527,38.04772a3.028,3.028,0,1,1,.067-6.05556,3.028,3.028,0,1,1-.067,6.05556Z"/></g><rect class="cls-2" width="335.27492" height="70.23641"/></g></g></svg>