<svg xmlns="http://www.w3.org/2000/svg" viewBox="0 0 335.27493 70.23641"><defs><style>.cls-1{fill:none;}.cls-2{fill:#009dde;}</style></defs><g id="Capa_2" data-name="Capa 2"><g id="Capa_1-2" data-name="Capa 1"><rect class="cls-1" width="335.27493" height="70.23641"/><path class="cls-2" d="M112.93981,16.60251c.70168,2.6555,2.97371,5.02563,5.429,7.48475l.52062.52059c3.88016,3.87719,8.22274,8.28184,8.22274,14.85414a14.1719,14.1719,0,1,1-28.34381,0c0-6.43994,4.16924-10.79812,7.98633-14.6185l.23562-.23564h0l.1174-.11733C109.71314,21.88585,112.19982,19.40286,112.93981,16.60251Zm96.934,21.2003A9.12071,9.12071,0,0,1,203.38185,48.243a5.48743,5.48743,0,0,1-6.56152-3.15577c-.03652-.09066-.0699-.18952-.21912-.18764-.15552.00177-.17261.16205-.17425.18493l-.00016.00271-.00126,2.3215-.00126-.00127v6.19822h-4.63923V39.46391a9.12072,9.12072,0,0,1,18.08872-1.6611Zm-96.93418.056s-.88984.9676-1.82177,2.00252l-.13022.14476c-.67336.74922-1.34811,1.51167-1.70659,1.95a5.07891,5.07891,0,0,0-1.21486,3.21946,4.87409,4.87409,0,1,0,9.74818,0,4.76663,4.76663,0,0,0-1.22272-3.22972c-.36113-.40265-1.0062-1.12425-1.65478-1.85026l-.12968-.14516C113.857,38.88677,112.93959,37.85877,112.93959,37.85877Zm108.803-7.47622a9.12044,9.12044,0,0,1,8.285,8.94024l.00108.14117V47.9396h-4.63921l-.00252-2.85228s-.00693-.18574-.17441-.18826c-.14986-.00126-.18261.0976-.21912.18826a5.48728,5.48728,0,0,1-6.56152,3.15516,9.1204,9.1204,0,0,1,3.31068-17.85993Zm-31.597.289-.00128,8.66391c0,5.00316-3.26471,9.05808-8.26723,9.05808-4.95374,0-8.1555-3.97422-8.219-8.90827l-.001-.14981.00126-8.65572h4.61845v8.65572c0,2.5318,1.09559,4.58,3.62864,4.58,2.5013,0,3.59094-1.99918,3.61683-4.48874l.00048-.0913-.00755-8.66391Zm46.361-5.27946V47.9466h-4.60773V25.3921Zm-66.61479,5.09113a7.39258,7.39258,0,0,1,1.77283.64918l.152.08121v5.24809l-.00328-.0032c-.00876-.00849-.03515-.03348-.08007-.07141l-.03717-.03081a6.86826,6.86826,0,0,0-2.74311-1.22377,5.05493,5.05493,0,0,0-6.02634,3.4513l-.00061.02372v9.3244h-4.62726V30.70551h4.12795l.493,3.01851s.01636.15679.16182.15992c.17568.00443.17757-.056.22857-.15992C163.41467,33.51245,165.92,29.56647,169.89182,30.48323ZM144.189,25.38305c6.838,0,12.02433,1.25489,12.02433,11.26,0,9.90932-5.49364,11.26054-12.40841,11.26054h-5.26319V25.38305Zm76.7155,9.465a4.61687,4.61687,0,1,0,4.61655,4.6159A4.61685,4.61685,0,0,0,220.90454,34.84806ZM200.90922,34.848a4.61687,4.61687,0,1,0,4.26621,2.84962A4.61724,4.61724,0,0,0,200.90922,34.848Zm-55.72079-5.561-1.9873-.00018V43.996l1.91034.04911c3.91828,0,6.4419-.35636,6.4419-7.40208C151.55337,29.95447,149.37,29.29946,145.18843,29.287ZM112.93974,24.7559l-.00172.00172-.03968.03965-.14693.14685-.37462.37445-.37852.37839-.66034.66022-.3534.35343-.2708.27091-.05039.05041-.2675.26776-.07354.07365-.025.025c-.54208.53972-1.63445,1.5481-.31926,2.96925.68336.73847,2.7033,2.86289,4.80329,5.10182l.28036.29909c2.47878,2.646,4.99113,5.37244,5.48421,6.10211.42375.62715.485.92091,1.05833.9.32164-.01171.55994-.39526.665-.625.49208-1.07612,1.3266-4.33712-1.0949-8.10568a58.07761,58.07761,0,0,0-6.8329-7.91025l-.15954-.15933C113.42862,25.21975,112.93974,24.7559,112.93974,24.7559Zm-6.27439,6.56557c-5.94948,5.88562-2.74249,11.4133-1.87353,11.44281.09007.00308.24012.01392.34284-.27266.4977-1.38845,4.502-5.4039,5.44142-6.36744a.33653.33653,0,0,0,.02628-.50219h0Z"/></g></g></svg>