<svg xmlns="http://www.w3.org/2000/svg" viewBox="0 0 335.27493 70.23641"><defs><style>.cls-1{fill:none;}.cls-2{fill:#1f0047;}.cls-3{fill:#e2066f;}.cls-4{fill:#a0dbe8;}.cls-5{fill:#525353;}.cls-6{fill:#aa9678;}.cls-7{fill:#c0b098;}.cls-8{fill:#786453;}.cls-9{fill:#8b7460;}.cls-10{fill:#fff;}.cls-11{fill:#bbbcbd;}.cls-12{fill:#676a6a;}.cls-13{fill:#909393;}.cls-14{fill:#e2dddb;}.cls-15{fill:#fbb040;}.cls-16{fill:#9f2255;}</style></defs><g id="Capa_2" data-name="Capa 2"><g id="Capa_1-2" data-name="Capa 1"><rect class="cls-1" width="335.27493" height="70.23641"/><g id="Calque_2" data-name="Calque 2"><path class="cls-2" d="M135.36032,37.959a4.236,4.236,0,0,1-.03341-.63368,5.28359,5.28359,0,0,1,1.818-4.26931,6.08838,6.08838,0,0,1,4.01915-1.5344,4.14023,4.14023,0,0,1,4.0357,2.20181Zm14.07531-2.60156a6.63327,6.63327,0,0,0-2.43448-5.2531,9.06554,9.06554,0,0,0-6.03732-2.01785,9.77168,9.77168,0,0,0-4.36894,1.0172,8.72871,8.72871,0,0,0-3.46886,3.169,8.93336,8.93336,0,0,0-1.40135,4.98639A8.57451,8.57451,0,0,0,134.4265,43.863a9.19226,9.19226,0,0,0,6.47081,2.50162,10.06931,10.06931,0,0,0,7.47145-3.26866l-2.2018-2.4351A6.11139,6.11139,0,0,1,141.2471,42.996a5.7559,5.7559,0,0,1-4.71935-2.13465l12.9413-5.43674Z"/><path class="cls-2" d="M127.44007,29.18679a7.73093,7.73093,0,0,0-2.45165,2.73492V28.35323h-3.73557v17.744h3.73557V38.49246a7.66959,7.66959,0,0,1,1.40134-4.83616,4.95529,4.95529,0,0,1,4.16907-1.80111h.20019l-.03342-3.7693a5.91179,5.91179,0,0,0-3.28553,1.1009"/><path class="cls-2" d="M162.82416,37.05863a10.48888,10.48888,0,0,0-1.6843-.93381q-.78421-.33355-1.61746-.60058-.83434-.26608-1.91823-.53343a8.35772,8.35772,0,0,1-1.684-.56716,1.3242,1.3242,0,0,1-.867-1.26705,1.573,1.573,0,0,1,.83357-1.451,4.29051,4.29051,0,0,1,2.16776-.48346,8.362,8.362,0,0,1,4.70312,1.43413l1.40072-2.76834a10.37627,10.37627,0,0,0-5.8034-1.80142,7.91866,7.91866,0,0,0-4.9867,1.48474,4.74625,4.74625,0,0,0-1.91791,3.95232q0,3.50226,5.537,5.00262.13259.03373.40008.13367,3.5346,1.06764,3.53538,2.40168a1.818,1.818,0,0,1-.73394,1.48411,3.129,3.129,0,0,1-2.001.5834,10.06447,10.06447,0,0,1-6.00358-2.33485l-1.80111,2.9017a12.06777,12.06777,0,0,0,3.68529,1.96788,12.59849,12.59849,0,0,0,4.01884.70052,7.13356,7.13356,0,0,0,4.70343-1.51752,4.99356,4.99356,0,0,0,1.83421-4.05257,4.17266,4.17266,0,0,0-1.8008-3.73558"/><path class="cls-2" d="M113.39568,34.4402q-1.18476,1.25036-4.45264,1.25082h-4.56945v-9.3394h4.00229a8.64536,8.64536,0,0,1,4.70281,1.001,3.80143,3.80143,0,0,1,1.501,3.41889,5.14531,5.14531,0,0,1-1.184,3.66873m2.7849-9.62235q-2.4351-2.03409-7.73817-2.03472h-8.00458V46.09759h3.93577V39.26013h4.13564q5.13676,0,7.62137-1.96789,2.48382-1.9671,2.48476-6.20377,0-4.23543-2.43479-6.27062"/><path class="cls-2" d="M173.36627,43.12874a2.36913,2.36913,0,0,1-1.86763-.75048,2.92411,2.92411,0,0,1-.66741-2.01786V31.35487h4.67V28.35323h-4.67v-5.5701h-3.73557V40.26046A5.94909,5.94909,0,0,0,168.78,44.7131a5.5982,5.5982,0,0,0,4.0688,1.65089,6.36649,6.36649,0,0,0,4.35271-1.76769L175.66708,41.961a3.174,3.174,0,0,1-2.30081,1.16773"/><path class="cls-2" d="M190.46352,41.44444a4.95332,4.95332,0,0,1-3.73557,1.61747,5.30559,5.30559,0,0,1-3.83583-1.60061,5.557,5.557,0,0,1-1.634-4.15282,5.964,5.964,0,0,1,1.60092-4.25276,5.08373,5.08373,0,0,1,3.83583-1.70085,4.8798,4.8798,0,0,1,3.76867,1.70085,6.09065,6.09065,0,0,1,1.53439,4.23621,5.79151,5.79151,0,0,1-1.53439,4.15251M191.93108,31.422a6.76476,6.76476,0,0,0-5.77029-3.33581,8.46751,8.46751,0,0,0-6.07011,2.46821,8.73253,8.73253,0,0,0-2.56846,6.60385,9.08591,9.08591,0,0,0,2.50131,6.671,7.9869,7.9869,0,0,0,5.87054,2.53473,7.41059,7.41059,0,0,0,3.31832-.81732,7.10006,7.10006,0,0,0,2.71838-2.35109v2.90169h3.73557v-17.744h-3.73557V31.422Z"/><path class="cls-3" d="M251.03968,41.41134a5.80143,5.80143,0,0,1-8.03766,0,5.72735,5.72735,0,0,1-1.58437-4.18593,5.72834,5.72834,0,0,1,1.58437-4.18593,5.80061,5.80061,0,0,1,8.03766,0,5.73038,5.73038,0,0,1,1.58436,4.18593,5.72989,5.72989,0,0,1-1.58436,4.18593M247.02085,28.0862a9.079,9.079,0,0,0-6.67037,2.65185,9.22055,9.22055,0,0,0,0,12.975,9.71676,9.71676,0,0,0,13.34136,0,9.22209,9.22209,0,0,0,0-12.975,9.08237,9.08237,0,0,0-6.671-2.65185"/><path class="cls-3" d="M271.33063,41.42757a5.30493,5.30493,0,0,1-3.83582,1.60123,4.95283,4.95283,0,0,1-3.73557-1.61747,5.78827,5.78827,0,0,1-1.5344-4.15282,6.02738,6.02738,0,0,1,1.5344-4.219,4.89991,4.89991,0,0,1,3.769-1.68461,5.10731,5.10731,0,0,1,3.83582,1.68461,5.90287,5.90287,0,0,1,1.6006,4.23559,5.55641,5.55641,0,0,1-1.634,4.1525m2.83517-10.87316a8.43666,8.43666,0,0,0-6.10414-2.46821,6.64519,6.64519,0,0,0-5.7703,3.36923V28.35354h-3.73557V52.56808h3.73557V43.4295a7.80846,7.80846,0,0,0,11.89036.36666,9.12368,9.12368,0,0,0,2.5188-6.671,8.7548,8.7548,0,0,0-2.53472-6.57075"/><path class="cls-3" d="M228.9851,28.0862a6.86237,6.86237,0,0,0-3.48573.93382,5.92082,5.92082,0,0,0-2.41792,2.56877V21.38241h-3.73588V46.09759h3.73588V36.49147A4.77461,4.77461,0,0,1,224.5159,32.739a4.88735,4.88735,0,0,1,3.36861-1.28392q4.06866,0,4.06912,4.90268v9.73979h3.73588V35.2238a7.14179,7.14179,0,0,0-1.85139-5.30307,6.59837,6.59837,0,0,0-4.853-1.83453"/><path class="cls-3" d="M214.87887,34.89056a12.889,12.889,0,0,0-5.40332-2.43479A16.61363,16.61363,0,0,1,204.7893,30.838a2.46242,2.46242,0,0,1-1.10058-2.16808,2.34035,2.34035,0,0,1,1.10058-2.11747,5.16415,5.16415,0,0,1,2.81862-.70083,10.79411,10.79411,0,0,1,3.48541.60057,7.95069,7.95069,0,0,1,2.80176,1.5344L215.9957,25.018a11.59728,11.59728,0,0,0-3.8021-2.06782,13.9535,13.9535,0,0,0-4.43578-.73393,9.47547,9.47547,0,0,0-5.82056,1.75082,5.84678,5.84678,0,0,0-2.35109,4.98638,5.641,5.641,0,0,0,2.06751,4.80306,8.80721,8.80721,0,0,0,2.36795,1.35044,32.38168,32.38168,0,0,0,3.903,1.134,11.06212,11.06212,0,0,1,3.61845,1.36762,2.43443,2.43443,0,0,1,1.05093,2.10123,2.55726,2.55726,0,0,1-1.11777,2.16808,5.00714,5.00714,0,0,1-3.0185.81732,11.11117,11.11117,0,0,1-7.33779-3.06878L198.652,42.595a14.17792,14.17792,0,0,0,9.70573,3.7693,9.17224,9.17224,0,0,0,6.037-1.90136,6.11939,6.11939,0,0,0,2.30144-4.953,5.76663,5.76663,0,0,0-1.81734-4.61941"/><path class="cls-4" d="M66.46259,44.12939c.28951-.129.58277-.24735.87884-.35853.33418-.12555.67116-.24361,1.01252-.34667.42506-.12805.85355-.24392,1.288-.33605a16.0183,16.0183,0,0,1,1.77518-.27452q-.50218,1.57922-1.10589,3.13968c.01717.20144.02654.40413.03185.60713a12.85734,12.85734,0,0,1,4.99138,0c.00531-.20331.01437-.406.03186-.60713q-.60152-1.56-1.1059-3.13968a15.94536,15.94536,0,0,1,1.77518.27452c.43412.09213.86292.208,1.288.33605.34167.10275.67834.22112,1.01252.34667.29607.11118.58964.22986.87916.35853a15.72707,15.72707,0,0,1,5.46235,4.03227,18.12757,18.12757,0,1,0-23.677,0A15.719,15.719,0,0,1,66.46259,44.12939Z"/><path class="cls-5" d="M67.6575,47.409a12.72361,12.72361,0,0,1,2.68557-.84856c-.00531-.20331-.01437-.406-.03185-.60713q.6015-1.56,1.10589-3.13968a15.94572,15.94572,0,0,0-1.77518.27452c-.43411.09213-.86292.208-1.288.33605-.34136.10275-.67834.2208-1.01252.34666l1.3214.32012Z"/><path class="cls-5" d="M64.54218,49.36344c.0331-.33792.0534-.67865.0534-1.02282a.37521.37521,0,0,1,.37509-.37509h.32949l1.16243-3.83582A15.73081,15.73081,0,0,0,60.99993,48.162a18.16986,18.16986,0,0,0,2.73336,1.951Q64.12164,49.72087,64.54218,49.36344Z"/><path class="cls-5" d="M79.21494,44.12939l1.16243,3.83582h.32917a.375.375,0,0,1,.37509.37509c0,.34448.0203.68522.0534,1.02283q.42069.357.80889.74923a18.16986,18.16986,0,0,0,2.73336-1.951A15.72993,15.72993,0,0,0,79.21494,44.12939Z"/><path class="cls-5" d="M77.0147,44.091l1.32108-.32012c-.33418-.12555-.67116-.24361-1.01252-.34667-.42506-.12805-.85355-.24392-1.288-.33605a16.01794,16.01794,0,0,0-1.77518-.27452q.5022,1.57922,1.1059,3.13968c-.01718.20144-.02655.40413-.03186.60713A12.72055,12.72055,0,0,1,78.02,47.409Z"/><path d="M72.83876,47.96522h2.55441a10.20174,10.20174,0,0,1-.05872-1.40479,12.85734,12.85734,0,0,0-4.99138,0,10.30176,10.30176,0,0,1-.05871,1.40479Z"/><path d="M63.73329,50.11268c.21081.12274.42318.24235.639.35666a10.39045,10.39045,0,0,0,.1699-1.1059Q64.122,49.72041,63.73329,50.11268Z"/><path d="M67.48885,47.96522h2.79551a10.20329,10.20329,0,0,0,.05871-1.40479,12.71775,12.71775,0,0,0-2.68557.84856Z"/><path d="M81.135,49.36344a10.39043,10.39043,0,0,0,.16989,1.1059c.21581-.11431.4285-.23392.639-.35666Q81.55557,49.721,81.135,49.36344Z"/><path d="M78.18868,47.96522,78.02,47.4093a12.72013,12.72013,0,0,0-2.68589-.84855,10.30009,10.30009,0,0,0,.05872,1.40478l2.79582-.00031Z"/><path class="cls-6" d="M67.48885,47.96522l.16865-.55623,1.00564-3.31832-1.32139-.32012c-.29608.11118-.58965.22986-.87885.35853l-1.16243,3.83583h1.248l.94038.00031Z"/><path class="cls-6" d="M78.02034,47.4093l.16865.55591h2.18869l-1.16243-3.83582c-.28951-.129-.58309-.24735-.87916-.35853L77.015,44.091Z"/><path class="cls-7" d="M65.33826,48.74006l.03436-.02436h-.0328Z"/><path class="cls-7" d="M72.83876,48.71539H65.37293l-.03436.02436a11.1154,11.1154,0,0,1-.2739,2.07876,18.05531,18.05531,0,0,0,7.77409,1.74926Z"/><path class="cls-6" d="M80.3377,48.71539h-.03279l.03435.02436Z"/><path class="cls-6" d="M80.3046,48.71539H72.83907v3.85238a18.0508,18.0508,0,0,0,7.77409-1.74926,11.13861,11.13861,0,0,1-.2739-2.07876Z"/><rect class="cls-8" x="72.83876" y="48.3403" height="0.37509"/><path class="cls-9" d="M81.135,49.36344c-.03311-.33792-.05341-.67865-.05341-1.02282a.3752.3752,0,0,0-.37508-.37509H64.97067a.375.375,0,0,0-.37509.37509c0,.34448-.0203.68521-.0534,1.02282a10.3879,10.3879,0,0,1-.1699,1.1059c.2283.12086.45847.23829.69209.34948a11.13777,11.13777,0,0,0,.27389-2.07875l.00156-.02437H80.33677l.00156.02437a11.1154,11.1154,0,0,0,.2739,2.07875c.23392-.11119.46409-.22862.69208-.34948A10.55987,10.55987,0,0,1,81.135,49.36344Z"/><path class="cls-1" d="M78.93948,31.68561h0L78.941,31.69a14.70569,14.70569,0,0,1,.61619,1.99037q-.007.07074-.014.14616c-.01187.07308-.02405.13773-.03623.19582q.02857-.134.0559-.31981a14.54115,14.54115,0,0,0-.62337-2.01691l-.0025.005.0025-.005Z"/><path class="cls-1" d="M84.2185,35.78377,84.1882,35.8Z"/><path class="cls-1" d="M84.3353,35.69508c-.01311.01249-.02592.02592-.03966.03685C84.30938,35.721,84.32219,35.70757,84.3353,35.69508Z"/><path class="cls-1" d="M78.39418,31.2087a10.92765,10.92765,0,0,0-1.31452-.95536h0A10.91918,10.91918,0,0,1,78.39418,31.2087Z"/><path class="cls-1" d="M82.59822,35.553l.00968.01156Z"/><path class="cls-1" d="M83.3662,36.51053l.03685.04653Z"/><path class="cls-1" d="M79.50133,34.04794a1.451,1.451,0,0,1-.03685.14054C79.477,34.15132,79.48915,34.10228,79.50133,34.04794Z"/><path class="cls-1" d="M77.72427,40.66054a4.823,4.823,0,0,0-.55779,1.3114,4.823,4.823,0,0,1,.55779-1.3114q.13678-.22815.26734-.44817-.1293.21831-.26515.44411Z"/><path class="cls-1" d="M78.94135,31.68248c.01624-.03248.0328-.06371.049-.09619L78.986,31.59c-.015.03-.03.06152-.04466.09244.109.09432.21737.19051.32387.288Q79.10547,31.82427,78.94135,31.68248Z"/><path class="cls-1" d="M75.3432,34.062l.00125.00375Z"/><path class="cls-1" d="M76.435,29.8845c-.025-.014-.04466-.02467-.0559-.03029C76.39038,29.85983,76.41006,29.87045,76.435,29.8845Z"/><path class="cls-1" d="M76.52717,29.936l-.07683-.0431Z"/><path class="cls-1" d="M77.12182,31.39672c.00031.04278-.00063.08526-.00032.12805C77.12119,31.482,77.12244,31.4395,77.12182,31.39672Z"/><path class="cls-1" d="M75.282,33.90521l.00156.00312Z"/><path class="cls-1" d="M84.10606,37.46776c.02249.02967.04529.059.06778.08839C84.15135,37.52648,84.12855,37.49712,84.10606,37.46776Z"/><path class="cls-1" d="M77.11963,31.96794q-.00562.2853-.02.57059Q77.11416,32.25323,77.11963,31.96794Z"/><path class="cls-1" d="M75.3888,34.22627l.00093.00437Z"/><path class="cls-1" d="M77.04624,30.23179c-.06621-.0381-.23986-.13742-.39633-.22642C76.8042,30.09312,76.97628,30.19181,77.04624,30.23179Z"/><path class="cls-1" d="M76.63992,30.00006l-.11087-.06278C76.56309,29.95633,76.60088,29.97757,76.63992,30.00006Z"/><path class="cls-1" d="M77.07528,30.24834h0l-.01186-.00687Z"/><path class="cls-1" d="M84.712,34.65226c.00031-.01436.0025-.02779.0025-.04216l.00031-.00531-.00031-.005c0-.01343-.00219-.02592-.0025-.03935.00031.015.0025.029.0025.04434C84.71476,34.621,84.71226,34.63634,84.712,34.65226Z"/><path class="cls-1" d="M81.74405,34.53983l.05184.06-.00094-.00094h.00438c-.0075-.00875-.02718-.02967-.05528-.059Z"/><path class="cls-1" d="M79.26522,31.97044c.24142.2208.47721.44754.7102.67709Q79.62642,32.30274,79.26522,31.97044Z"/><path class="cls-1" d="M83.9852,33.35461a.43815.43815,0,0,1,.12992.02248A.43644.43644,0,0,0,83.9852,33.35461Z"/><path class="cls-1" d="M83.28812,34.25532c-.00375.02154-.00843.04216-.01156.06433C83.27969,34.29748,83.28437,34.27686,83.28812,34.25532Z"/><path class="cls-1" d="M84.15385,33.39146a.55783.55783,0,0,1,.08714.04622A.55744.55744,0,0,0,84.15385,33.39146Z"/><path class="cls-1" d="M84.4315,33.62226l.02842.04029Z"/><path class="cls-1" d="M84.69852,34.345l-.00156-.00843-.0025-.01406.00438.02374Z"/><path class="cls-1" d="M84.697,34.874l.00188-.01031v-.00094l-.005.02718Z"/><path class="cls-1" d="M83.51049,33.66286c.00936-.01406.019-.02749.02873-.0406C83.52954,33.63537,83.51985,33.6488,83.51049,33.66286Z"/><path class="cls-1" d="M83.85528,33.37709a.43644.43644,0,0,1,.12992-.02248A.43644.43644,0,0,0,83.85528,33.37709Z"/><path class="cls-1" d="M80.63565,33.32056c-.1115-.11711-.22518-.23236-.33824-.3476C80.41078,33.0882,80.52384,33.20345,80.63565,33.32056Z"/><path class="cls-1" d="M83.9852,29.39105h0V31.0716l-.64555,2.95666-.005.0228L83.34,34.0342h0l.64555-2.95667V29.392h0l-.00031-.00093Z"/><path class="cls-1" d="M81.23935,33.97174c-.05872-.065-.118-.12993-.17708-.19458C81.12161,33.84181,81.18032,33.90677,81.23935,33.97174Z"/><path class="cls-1" d="M84.63075,34.03389c.00718.02342.01593.04528.02217.06964l-.00031-.00094c-.00624-.024-.01468-.04528-.02186-.0687Z"/><path class="cls-1" d="M83.25564,34.59886h.00062c0-.01187.00187-.0228.00187-.03436C83.25782,34.57637,83.25564,34.587,83.25564,34.59886Z"/><path class="cls-1" d="M83.72942,33.438a.54425.54425,0,0,1,.08713-.04622A.50926.50926,0,0,0,83.72942,33.438Z"/><path class="cls-1" d="M83.59762,33.54949a.71626.71626,0,0,1,.0937-.08714A.69709.69709,0,0,0,83.59762,33.54949Z"/><path class="cls-1" d="M84.65293,35.10574l.00031-.00093a1.65691,1.65691,0,0,1-.05809.18332,1.66493,1.66493,0,0,0,.06028-.18488l-.0025.00249Z"/><path class="cls-1" d="M62.56086,34.0445c.02655-.04216.05435-.08338.08121-.12523C62.61521,33.96112,62.58741,34.00234,62.56086,34.0445Z"/><path class="cls-1" d="M84.27909,33.46235a.71683.71683,0,0,1,.09369.08714A.69763.69763,0,0,0,84.27909,33.46235Z"/><path class="cls-1" d="M63.07493,33.28933c.01312-.0178.0253-.03654.03873-.05434C63.10054,33.25279,63.08805,33.27153,63.07493,33.28933Z"/><path class="cls-1" d="M75.431,34.59011l.00062-.00031V34.587h.00313l-.00438-.00968C75.43033,34.58168,75.431,34.58574,75.431,34.59011Z"/><path class="cls-1" d="M61.77321,35.489c-.03123.06621-.06215.13242-.09213.19926C61.71106,35.62137,61.742,35.55516,61.77321,35.489Z"/><path class="cls-1" d="M61.37658,36.415l-.01281.03248Z"/><polygon class="cls-1" points="84.434 29.821 84.433 29.819 84.433 29.819 84.434 29.821"/><path class="cls-1" d="M64.95818,31.25618l-.00125.00125Z"/><path class="cls-1" d="M64.24891,31.91578c.03592-.03592.07246-.07089.10869-.1065C64.32137,31.84489,64.28452,31.87987,64.24891,31.91578Z"/><path class="cls-1" d="M63.60961,32.61442c.03654-.0431.07277-.08651.10993-.129C63.68238,32.52791,63.64615,32.571,63.60961,32.61442Z"/><path class="cls-1" d="M84.63106,34.0342l-.64586-2.95667Z"/><path class="cls-1" d="M73.37344,36.27348c-.01218-.0025-.02373-.00625-.03592-.00906C73.34971,36.26723,73.36126,36.271,73.37344,36.27348Z"/><path class="cls-1" d="M73.54615,36.30065c-.01374-.00156-.02686-.00437-.04029-.00625C73.51929,36.296,73.53241,36.29909,73.54615,36.30065Z"/><path class="cls-1" d="M62.17079,34.70754c-.04092.074-.07933.14929-.11868.22393C62.09146,34.85683,62.12987,34.78156,62.17079,34.70754Z"/><path class="cls-1" d="M72.89092,36.09234l-.00219-.00125Z"/><path class="cls-1" d="M73.20573,36.22913l-.02342-.00874Z"/><path class="cls-1" d="M73.04426,36.16854l-.01186-.00562Z"/><path class="cls-1" d="M72.14262,35.2466l.00156.00406Z"/><path class="cls-1" d="M72.062,34.21253l-.00968.03748Z"/><path class="cls-1" d="M72.2385,33.76l-.00313.005Z"/><path class="cls-1" d="M72.805,33.16347l-.00093.00031Z"/><path class="cls-1" d="M72.1067,34.05512l-.00968.02655Z"/><path class="cls-1" d="M72.16573,33.90459l-.00718.015Z"/><path class="cls-1" d="M74.05928,32.92736l-.00781-.00125Z"/><path class="cls-1" d="M74.36972,33.02137l-.005-.00188Z"/><path class="cls-1" d="M73.0908,33.01637l-.00781.00281Z"/><path class="cls-1" d="M73.40186,32.92518l-.01124.00156Z"/><path class="cls-1" d="M75.41847,34.399l.00031.0025Z"/><path class="cls-1" d="M73.73323,29.10559v0Z"/><path class="cls-1" d="M73.73323,28.98691v0Z"/><path class="cls-1" d="M73.73323,28.91789v0Z"/><path class="cls-1" d="M73.73323,29.33389v0Z"/><path class="cls-1" d="M84.48553,35.51081a.96886.96886,0,0,1-.05841.08245A.96886.96886,0,0,0,84.48553,35.51081Z"/><path class="cls-1" d="M72.03112,34.38305c-.00156.01374-.00468.02686-.00624.0406C72.02644,34.40991,72.02956,34.39679,72.03112,34.38305Z"/><path class="cls-1" d="M72.0483,34.93178l.00093.00688Z"/><path class="cls-1" d="M84.5761,35.33279c-.01749.04154-.03685.08089-.05716.11868A1.30679,1.30679,0,0,0,84.5761,35.33279Z"/><path class="cls-5" d="M78.02909,45.37833c-.05466-.06277-.11119-.13023-.16959-.20675.0584.07683.11493.144.16959.20675Z"/><path class="cls-6" d="M78.446,45.79246l.00375.01187-.00375-.01187a3.50686,3.50686,0,0,1-.41693-.41413h0A3.47814,3.47814,0,0,0,78.446,45.79246Z"/><circle class="cls-10" cx="83.97992" cy="29.39177" r="0.00031"/><path class="cls-10" d="M84.71445,34.6101l.00031-.00531h0Z"/><path class="cls-11" d="M84.9084,30.40606h0l-.00906-.01187h.00031a6.18205,6.18205,0,0,0-.46534-.5734l-.00156-.00156.00156.00156-.00406-.005h0c-.07246-.07839-.14554-.15366-.21956-.22455-.02811-.02686-.05684-.05028-.085-.07589-.04654-.04217-.09307-.08589-.14023-.12493v1.68649l.64555,2.95666h0c.00687.02311.01562.04435.02155.0684l.44723.50126.00438-.005h.46815c.00063-.04341.00313-.08619.00313-.12961V34.468a12.68277,12.68277,0,0,0-.64431-3.98979h0C84.92339,30.45447,84.91652,30.43011,84.9084,30.40606Z"/><path class="cls-11" d="M84.71476,34.60479l-.00031-.005.00031.005Z"/><path class="cls-12" d="M84.69446,34.32246l.0025.01406.00156.00843v.00125c.00844.06933.01187.14148.01343.21456.00031.01343.0025.02592.0025.03935l.00031.005-.00031.0053c0,.01437-.00219.0278-.0025.04217a2.098,2.098,0,0,1-.01311.21049V34.864l-.00188.01031-.00312.01592a1.88984,1.88984,0,0,1-.0406.21456l-.00031.00094h0l.0025-.00281.00093-.00344h0l.44349-.496-.44724-.50126.00032.00094A1.96,1.96,0,0,1,84.69446,34.32246Z"/><path d="M84.69384,34.89025l.005-.02717a2.09833,2.09833,0,0,0,.01311-.2105c.00031-.01624.00281-.03123.00281-.04747,0-.01531-.00218-.02936-.0025-.04435-.00156-.07308-.005-.14523-.01342-.21456l-.00438-.02374a1.96559,1.96559,0,0,0-.04154-.21893c-.00624-.02436-.015-.04591-.02217-.06964a1.4006,1.4006,0,0,0-.17083-.37134c-.00937-.01375-.01874-.02749-.02843-.04029a.92813.92813,0,0,0-.0584-.07277.71683.71683,0,0,0-.09369-.08714c-.01249-.00937-.02561-.01592-.03842-.02436a.531.531,0,0,0-.08713-.04622c-.01281-.00531-.02561-.01031-.03873-.01437a.38667.38667,0,0,0-.25984,0c-.01312.00406-.02592.00906-.03873.01437a.54383.54383,0,0,0-.08713.04622c-.0125.00844-.02593.01468-.03811.02436a.71683.71683,0,0,0-.09369.08714.92813.92813,0,0,0-.0584.07277l-.02874.0406a1.40486,1.40486,0,0,0-.17083.37134l-.00531.01686a1.99313,1.99313,0,0,0-.04622.20426c-.00375.02154-.00875.04216-.01156.06433a1.94139,1.94139,0,0,0-.01843.24486c-.00031.01155-.00187.02279-.00187.03435h.00281c0,.69052.32668,1.25019.72957,1.25019a.44974.44974,0,0,0,.19956-.04935l.0303-.01624a.60337.60337,0,0,0,.07714-.05153c.01374-.01093.02655-.02436.03966-.03685a.83123.83123,0,0,0,.09182-.10182c.02-.02623.04-.05278.0584-.08245.01187-.01874.02249-.03935.03342-.05934a1.30284,1.30284,0,0,0,.05715-.11868c.00625-.015.01312-.02935.01905-.045a1.6317,1.6317,0,0,0,.05809-.18333A1.86911,1.86911,0,0,0,84.69384,34.89025Zm-.6824-.45192c-.15116,0-.27359-.20987-.27359-.46878s.12243-.46878.27359-.46878.27358.20987.27358.46878S84.1626,34.43833,84.01144,34.43833Z"/><ellipse class="cls-10" cx="84.01144" cy="33.96955" rx="0.27359" ry="0.46878"/><path class="cls-13" d="M83.33965,34.0342h0a1.39561,1.39561,0,0,1,.17084-.37134c.00936-.01406.019-.02749.02873-.0406a.91609.91609,0,0,1,.0584-.07277.73652.73652,0,0,1,.0937-.08714c.01249-.00937.0256-.01592.0381-.02436a.50834.50834,0,0,1,.08713-.04622c.01281-.00531.02561-.01031.03873-.01437a.43676.43676,0,0,1,.12992-.02248.42679.42679,0,0,1,.12992.02248c.01312.00406.02593.00906.03873.01437a.53287.53287,0,0,1,.08714.04622c.0128.00844.02592.015.03841.02436a.71753.71753,0,0,1,.0937.08714.86167.86167,0,0,1,.0584.07277l.02842.04029a1.41506,1.41506,0,0,1,.17083.37134v.00031h0l-.64555-2.95667-.64555,2.95667Z"/><path d="M75.43033,34.57731a1.72992,1.72992,0,0,0-.01155-.17615l-.00032-.00249q-.0103-.08526-.02842-.16834l-.00093-.00437a1.62542,1.62542,0,0,0-.04435-.16053l-.00125-.00375c-.01749-.05247-.03748-.104-.05965-.154l-.00156-.00312c-.02249-.05028-.04748-.09963-.07465-.1471h0a1.72074,1.72074,0,0,0-.83762-.73675l-.005-.00187a1.67853,1.67853,0,0,0-.30575-.09213l-.00781-.00125a1.68,1.68,0,0,0-.64961-.00094l-.01124.00156a1.67,1.67,0,0,0-.29982.08963l-.00781.00281a1.69911,1.69911,0,0,0-.278.14429l-.00093.00032a1.72457,1.72457,0,0,0-.24736.193l-.00187.00593-.00625.00156a1.72005,1.72005,0,0,0-.31012.3957l-.00313.005c-.02561.045-.0484.09182-.07.13929l-.00719.015c-.01936.044-.03591.08963-.05153.13554l-.00968.02655c-.01374.04279-.02467.08682-.035.13117l-.00968.03748c-.00906.04372-.0153.08807-.02124.133-.00156.01374-.00468.02686-.00624.0406a1.67649,1.67649,0,0,0-.00937.178,1.71457,1.71457,0,0,0,.03248.33012l.00093.00687a1.68068,1.68068,0,0,0,.09339.30794l.00156.00406a1.7135,1.7135,0,0,0,.34791.53249,1.73777,1.73777,0,0,0,.39664.30794l.00219.00125c.04591.02561.09338.049.14147.07058l.01187.00562c.04466.01968.09089.03623.13773.05216l.02343.00874c.0431.01374.08744.02468.1321.035.01219.00281.02374.00656.03592.00906.04341.00905.08776.015.13242.02092.01343.00188.02686.00469.04029.00625a1.753,1.753,0,0,0,.17739.00937,1.70673,1.70673,0,0,0,1.708-1.708l-.00062-.01187h0l-.00032-.01217Zm-1.70679-.20019a.64149.64149,0,1,1,.64149-.64149A.64145.64145,0,0,1,73.72354,34.37712Z"/><circle class="cls-10" cx="73.72354" cy="33.73531" r="0.64149"/><path class="cls-11" d="M72.54862,33.3646h0l.00625-.00156.00187-.00594h0l1.17617-3.59721v-.85137a10.03038,10.03038,0,0,0-2.01816-.208c-.23018,0-.45848.00968-.68521.0253-.03311.00219-.06622.00437-.09932.00687a10.107,10.107,0,0,0-3.41982.88884,10.93709,10.93709,0,0,0-2.55222,1.63527h0l-.00125.00125c-.20707.17583-.40539.36166-.59933.55186-.03623.0356-.07308.07058-.10869.1065q-.27358.27593-.52937.56934c-.03716.04248-.07339.08589-.10993.129-.17115.20206-.33792.40788-.496.62087-.01312.0178-.02561.03654-.03873.05435-.15085.20519-.2942.41568-.43255.62993-.02686.04185-.05466.08307-.0812.12524-.11181.17739-.21612.35978-.31919.54248h5.35835Z"/><path class="cls-14" d="M77.07247,32.95953q.0164-.21035.02717-.421.01452-.2853.02-.57059c.00281-.14773.0025-.29545.00187-.44317-.00031-.04279.00094-.08527.00032-.12805q-.00609-.57106-.04217-1.14338h0l-.00312-.00219-.00156-.00281-.01187-.00687-.01718-.00968c-.06995-.04029-.242-.13866-.39632-.22642l-.00968-.00563-.11087-.06277-.00188-.00125-.07683-.0431-.015-.00843c-.025-.01406-.04466-.02467-.0559-.0303q-.36962-.19159-.7533-.35416a13.35984,13.35984,0,0,0-1.89261-.59183v.85136l1.16586,3.60315.00125.00313a1.72524,1.72524,0,0,1,.307.39195h0q.04075.07167.07464.1471l.00156.00312a1.63408,1.63408,0,0,1,.05966.154l.00124.00375c.01718.05247.03217.10587.04435.16053l.00094.00437a1.646,1.646,0,0,1,.02842.16834l.00031.00249a1.72092,1.72092,0,0,1,.01156.17615h0l.00437.00968h1.42758a15.623,15.623,0,0,0,.20644-1.58342Z"/><path class="cls-15" d="M78.93948,31.68561l-.0025.005.0025-.005Z"/><path class="cls-15" d="M75.44251,39.72141c.32387-.3223.62962-.63087.92132-.9335.17334-.17958.34261-.3576.50439-.53312a11.15465,11.15465,0,0,0,2.59594-4.06631,1.38516,1.38516,0,0,0,.03685-.14054l.00562-.0253c.0125-.05809.02437-.12274.03623-.19582.00469-.05028.00968-.099.01406-.14616a14.76558,14.76558,0,0,0-.6162-1.99037l.0025.00656-.00656-.00625c-.04341-.04122-.089-.07964-.133-.12024q-.20145-.1855-.40976-.36166a10.95232,10.95232,0,0,0-1.31452-.95536h0q.03513.572.04216,1.14338c.00063.04278-.00062.08526-.00031.128.00062.14773.00094.29545-.00187.44318q-.00562.28529-.02.57059-.01078.21081-.02717.421l-.00375.04372a15.52381,15.52381,0,0,1-.20644,1.58343l-.16771.793a25.25328,25.25328,0,0,1-1.64652,4.03758c-.15522.3526-.30232.70926-.4313,1.07248l-.03654.10275c.1827-.19207.34448-.35791.46753-.47971Q75.24888,39.91365,75.44251,39.72141Z"/><path class="cls-13" d="M72.55674,33.3571h0a1.72528,1.72528,0,0,1,.24736-.193l.00093-.00031a1.69911,1.69911,0,0,1,.278-.14429l.00781-.00281a1.67,1.67,0,0,1,.29982-.08963l.01124-.00156a1.68,1.68,0,0,1,.64961.00094l.00781.00125a1.70333,1.70333,0,0,1,.30575.09213l.005.00187a1.71464,1.71464,0,0,1,.53062.34479l-.00125-.00312L73.73354,29.7602Z"/><path class="cls-12" d="M72.14262,35.2466a1.70512,1.70512,0,0,1-.09338-.30794l-.00094-.00688a1.71438,1.71438,0,0,1-.03248-.33011,1.67189,1.67189,0,0,1,.00937-.178c.00156-.01374.00437-.02686.00624-.0406.00594-.04466.01187-.08932.02124-.133l.00968-.03748c.01031-.04435.02124-.08839.035-.13117l.00968-.02655c.01562-.04591.03217-.09151.05153-.13554l.00719-.015c.02155-.04747.04435-.09432.07-.13929l.00312-.005a1.71984,1.71984,0,0,1,.31012-.3957h0l-4.94859,1.22239H67.591l4.90144,1.19616a1.71335,1.71335,0,0,1-.34792-.53249Z"/><path class="cls-14" d="M83.27656,34.31934c.00313-.02218.00781-.04279.01156-.06434a1.94973,1.94973,0,0,1,.04622-.20425l.005-.0228.64555-2.95666V29.38542a2.63539,2.63539,0,0,0-1.68087-.674,2.90579,2.90579,0,0,0-1.95414.91726,7.32758,7.32758,0,0,0-1.3595,1.957c-.01624.03248-.03279.06339-.049.09619q.164.14194.32387.28795.36213.33122.7102.67709c.10869.10713.21487.21644.32168.32543.11337.11525.22674.23049.33824.34761q.215.22626.42662.4566.089.097.17708.19457c.16958.188.33854.37665.50469.5681l.00032.00031c.02779.02936.04747.05.055.05871h1.456c0-.01186.0025-.02248.0025-.03435A2.13011,2.13011,0,0,1,83.27656,34.31934Z"/><path class="cls-14" d="M78.941,31.69l-.00156-.00437h0l-.0025.005.00656.00625Z"/><path class="cls-5" d="M61.36377,36.44744l.01281-.03248c.09369-.24517.19644-.48721.3045-.72675.03-.06684.06121-.13274.09213-.19926.08839-.188.18177-.37353.27859-.55748.03935-.07495.07776-.14991.11867-.22393.02249-.04091.0481-.08.0709-.12086.10337-.1827.20737-.36509.31918-.54249.02655-.04216.05434-.08338.0812-.12524.13836-.21393.282-.42474.43256-.62993.01311-.0178.02529-.03654.03872-.05434.158-.21269.32481-.41881.496-.62088.03654-.0431.07276-.08651.10993-.129q.25578-.29326.52937-.56935c.03592-.03592.07246-.0709.10868-.1065.194-.1902.39227-.37571.59933-.55185l.00125-.00125a6.48311,6.48311,0,0,1,9.63329-3.75369,6.62132,6.62132,0,0,1,2.43229,2.6481l.00812.01624c.01374.02748.02936.05372.0431.08151h0l.00156.00281.00312.00219a10.94283,10.94283,0,0,1,1.31453.95536q.20847.17568.40975.36166c.044.0406.08963.079.133.12024l.00249-.005.00157-.00313c.015-.03092.02967-.06215.045-.09213.41537-2.62249,1.57218-4.51167,2.93667-4.51167,1.02845,0,1.93946,1.07249,2.50413,2.72306l.00562.0178.00156.00187a6.1806,6.1806,0,0,1,.46534.57341H84.8984l.00906.01186v0c.00812.02405.015.04841.0228.07246h0l-.02155-.08589A12.71581,12.71581,0,0,0,60.147,34.46363a12.5758,12.5758,0,0,0,.63181,3.957l.00156-.00719q.12134-.56123.29014-1.1137Q61.204,36.86921,61.36377,36.44744Z"/><path class="cls-10" d="M85.09985,34.60386l-.44349.496h0l-.00093.00344a1.66493,1.66493,0,0,1-.06028.18488c-.00593.01562-.01249.03-.01905.045-.0178.04153-.03654.0812-.05715.11868-.01094.02-.02187.0406-.03342.05934a.97038.97038,0,0,1-.0584.08245.832.832,0,0,1-.09182.10181c-.01312.01249-.02592.02592-.03967.03685a.59135.59135,0,0,1-.07714.05153L84.18821,35.8a.454.454,0,0,1-.19957.04935c-.40288,0-.72956-.55966-.72956-1.25019H81.79527l.00093.00094q.40758.4708.80234.95318l.00968.01155q.38414.46895.75829.94569l.03685.04653q.35511.453.703.91039c.02249.02967.04528.059.06777.08839q.36822.48439.72988.971l.005.00687a12.69371,12.69371,0,0,0,.66679-3.93483h-.47128Z"/><path d="M70.93022,28.73207c.0331-.0025.06621-.00469.09932-.00688.22673-.0153.455-.02529.68521-.02529a10.05682,10.05682,0,0,1,2.01816.208v0a13.35953,13.35953,0,0,1,1.89262.59183q.38367.16209.7533.35416l.0559.0303.015.00843.07683.0431.00187.00125.11087.06277.00969.00563c.15678.089.33011.18832.39632.22642l.01718.00968.01187.00687h0c-.01375-.02748-.02936-.054-.0431-.08151l-.00812-.01624a6.61914,6.61914,0,0,0-2.4323-2.6481,6.4831,6.4831,0,0,0-9.63328,3.75369,10.93033,10.93033,0,0,1,2.55222-1.63527A10.10888,10.10888,0,0,1,70.93022,28.73207Z"/><line class="cls-1" x1="73.73323" y1="29.23208" x2="73.73323" y2="29.30797"/><path d="M80.34988,29.62934a2.90579,2.90579,0,0,1,1.95414-.91726,2.63534,2.63534,0,0,1,1.68087.674v.005c.04716.03872.09338.08245.14023.12492.0281.02561.05715.049.085.07589q.111.10635.21955.22456h0l.00406.005-.00156-.00156h0l-.00593-.0178c-.56466-1.65057-1.47568-2.72305-2.50412-2.72305-1.3645,0-2.5213,1.88918-2.93668,4.51166l.00437-.00374A7.34427,7.34427,0,0,1,80.34988,29.62934Z"/><path class="cls-10" d="M68.3096,46.32276c.11619.04466.23424.08495.352.12618a12.708,12.708,0,0,0,8.9487-.2055c.07776-.03123.15365-.06559.23048-.09838q.18691-.07963.37072-.16459c.10962-.05091.21924-.1015.327-.15522-.02593.00312-.05216.00812-.07808.01124h0a5.3283,5.3283,0,0,1-1.35138-.009c-2.61593-.376-3.19558-1.63746-3.11251-2.951a6.52932,6.52932,0,0,1-.575-.37228,16.9597,16.9597,0,0,1-3.20588-3.01444,16.96261,16.96261,0,0,0,3.87017,2.09468c.04966.01936.09619.03591.14523.05434.10837-.37446.23642-.7305.34916-1.04593h0l.03654-.10276c.129-.36322.27609-.71956.43131-1.07248A25.28216,25.28216,0,0,0,76.69457,35.38l.16771-.793h-1.4307v.00281l-.00063.00032h0l.00063.01186a1.7026,1.7026,0,0,1-.1343.66492,1.7333,1.7333,0,0,1-.1574.29014,1.71505,1.71505,0,0,1-.46129.46128,1.70165,1.70165,0,0,1-.955.2917,1.66449,1.66449,0,0,1-.17739-.00937c-.01374-.00156-.02686-.00437-.04029-.00624-.04466-.00562-.089-.01187-.13242-.02093-.01218-.0025-.02374-.00624-.03592-.00906-.04466-.0103-.089-.02123-.13211-.035L73.182,36.2207c-.04654-.01562-.09307-.03248-.13773-.05216l-.01187-.00562c-.04841-.02155-.09588-.04466-.14148-.07058l-.00218-.00125a1.70728,1.70728,0,0,1-.39664-.30794L67.59066,34.587h-5.349c-.02311.04061-.04841.08-.07089.12087-.04092.074-.07933.14929-.11868.22393-.09682.18364-.19051.36915-.27858.55748-.03124.06621-.06215.13242-.09214.19925-.10774.23955-.2105.48159-.3045.72675l-.01281.03248q-.15975.42163-.292.852-.16864.55187-.29014,1.11371a12.74582,12.74582,0,0,0,4.62223,6.33089c.06215.04528.12805.08557.19113.12961a12.607,12.607,0,0,0,2.71431,1.44881Z"/><path class="cls-16" d="M77.08746,42.37388a3.59674,3.59674,0,0,0-.03654.39945,3.4722,3.4722,0,0,0,.0431.6696,3.5459,3.5459,0,0,0,.09026.40538,3.69806,3.69806,0,0,0,.20238.54342,4.0719,4.0719,0,0,0,.25141.4616q.044.06981.0887.13492c.04466.065.08932.12617.13336.18364.0584.07652.11493.14366.16958.20675a3.53713,3.53713,0,0,0,.41694.41413l.00375.01186.01061.03217h0c.02593-.00281.05216-.00781.07808-.01124a7.99636,7.99636,0,0,0,1.70148-.42725c.28733-.10337.57341-.21549.85511-.34385.08589-.03935.1699-.08276.25516-.124a22.17275,22.17275,0,0,0,5.35085-3.89891A15.98709,15.98709,0,0,1,77.08746,42.37388Z"/><path class="cls-3" d="M84.10606,37.46776q-.34806-.45721-.703-.91039l-.03685-.04654q-.37431-.47643-.7583-.94568l-.00968-.01155q-.39538-.48159-.80233-.95318l-.05184-.06c-.16615-.19113-.33512-.38008-.5047-.56809-.059-.065-.11774-.12992-.17708-.19457q-.21128-.23049-.42662-.4566c-.11181-.11712-.22487-.23237-.33824-.34761-.10681-.10868-.2133-.21831-.32168-.32543-.2333-.22955-.46909-.45629-.7102-.67709q-.16021-.14616-.32418-.28827l-.00156.00313a14.50342,14.50342,0,0,1,.62307,2.01722q.05106.26844.08526.52375c.32012,2.38326-.44349,3.9392-1.65651,5.9861-.08682.14679-.17614.29576-.26734.44817a4.81933,4.81933,0,0,0-.55779,1.3114,3.962,3.962,0,0,0-.079.40194,15.98284,15.98284,0,0,0,9.61361-1.34263s-.71738-1.05468-1.79736-2.50443q-.36212-.48629-.72987-.971C84.15135,37.52648,84.12855,37.49712,84.10606,37.46776Z"/><path d="M78.446,45.79246a3.50686,3.50686,0,0,1-.41693-.41413c-.05466-.06309-.11087-.13023-.16959-.20675-.044-.05746-.08869-.11868-.13336-.18364q-.04451-.06511-.08869-.13492a4.019,4.019,0,0,1-.25141-.46159,3.77057,3.77057,0,0,1-.20238-.54343,3.57566,3.57566,0,0,1-.09026-.40538,3.52147,3.52147,0,0,1-.0431-.6696,3.67245,3.67245,0,0,1,.03654-.39944,3.94821,3.94821,0,0,1,.079-.40195,4.82752,4.82752,0,0,1,.55779-1.3114l.00219-.00375q.13585-.22628.26515-.44411c1.21272-2.04689,1.97632-3.60284,1.65651-5.98609q-.0342-.25532-.08526-.52375-.02716.1855-.05591.31981l-.00562.02529c-.01218.05435-.02436.10369-.03685.14054a11.15477,11.15477,0,0,1-2.59594,4.06632c-.16178.17551-.331.35354-.50438.53311-.2917.30232-.59746.6112-.92133.93351q-.19347.19254-.39476.39164c-.123.1218-.28483.288-.46753.47971h0c-.11275.31575-.24111.67178-.34917,1.04593-.04872-.01842-.09525-.035-.14522-.05434a16.97122,16.97122,0,0,1-3.87018-2.09468,16.95959,16.95959,0,0,0,3.20589,3.01444,6.52637,6.52637,0,0,0,.575.37228c-.08308,1.31359.49657,2.575,3.1125,2.951a5.29977,5.29977,0,0,0,1.35138.00906l-.01061-.03217Z"/></g></g></g></svg>