<svg xmlns="http://www.w3.org/2000/svg" viewBox="0 0 335.27493 70.23641"><defs><style>.cls-1{fill:none;}.cls-2{fill:#95bf47;}.cls-3{fill:#5e8e3e;}.cls-4{fill:#fff;}</style></defs><g id="Capa_2" data-name="Capa 2"><g id="Capa_1-2" data-name="Capa 1"><rect class="cls-1" width="335.27493" height="70.23641"/><path class="cls-2" d="M138.93527,21.55589a.438.438,0,0,0-.39174-.3667c-.15644-.025-3.59192-.26282-3.59192-.26282l-2.61947-2.61948c-.23529-.26282-.75843-.18523-.95618-.13016-.025,0-.52314.15644-1.33539.42052-.791-2.28531-2.19019-4.38289-4.65323-4.38289h-.21025a3.05236,3.05236,0,0,0-2.30284-1.3354c-5.73706.025-8.47293,7.18134-9.33649,10.83834l-4.00993,1.23026c-1.23027.39174-1.27658.42052-1.43928,1.59322l-3.3804,26.07333,25.34118,4.74334,13.7344-2.96115c0-.025-4.82218-32.5901-4.84721-32.83791Zm-10.30018-2.5181c-.63829.21026-1.37669.42052-2.14764.65706V19.223a10.40249,10.40249,0,0,0-.52315-3.47428C127.24839,15.94649,128.112,17.38826,128.63509,19.03779Zm-4.21769-2.98617a10.63524,10.63524,0,0,1,.57321,3.84222v.23529l-4.43046,1.3767c.86732-3.23774,2.46554-4.83846,3.85475-5.44045Zm-1.70209-1.59321a1.35664,1.35664,0,0,1,.7334.23529c-1.84853.86105-3.80218,3.03373-4.64071,7.38408l-3.50431,1.07382c.98871-3.30156,3.2953-8.7007,7.40911-8.7007Z"/><path class="cls-3" d="M138.54478,21.18794c-.15644-.025-3.59191-.26282-3.59191-.26282l-2.61948-2.61948a.5124.5124,0,0,0-.3667-.15644l-1.91235,39.20324,13.7344-2.96114-4.851-32.81289a.473.473,0,0,0-.39173-.39173Z"/><path class="cls-4" d="M125.38609,28.78729l-1.70459,5.03119a7.88781,7.88781,0,0,0-3.30157-.78847c-2.67454,0-2.80345,1.67707-2.80345,2.09758,0,2.29032,6.00114,3.1714,6.00114,8.57055,0,4.24522-2.69957,6.97108-6.31652,6.97108a8.8049,8.8049,0,0,1-6.5781-2.69957l1.15642-3.85474s2.27781,1.96491,4.2202,1.96491a1.7146,1.7146,0,0,0,1.78094-1.6456q.00168-.04262.00125-.08528c0-3.01621-4.92732-3.14637-4.92732-8.07243,0-4.1426,2.98618-8.17882,8.98857-8.17882a7.70248,7.70248,0,0,1,3.48679.68835Z"/><path d="M155.70841,36.28151c-.98-.52564-1.48683-.97995-1.48683-1.602,0-.78847.68834-1.29785,1.806-1.29785a6.40789,6.40789,0,0,1,2.40922.5269l.90361-2.74588s-.82852-.64079-3.25651-.64079c-3.38667,0-5.73956,1.93989-5.73956,4.66575,0,1.54189,1.09134,2.72835,2.55814,3.57439,1.18521.68835,1.602,1.14391,1.602,1.86229s-.58321,1.31788-1.69333,1.31788a7.56252,7.56252,0,0,1-3.17891-.846l-.95868,2.74588a7.31833,7.31833,0,0,0,3.8197.95868c3.47928,0,5.98236-1.71211,5.98236-4.80592.01877-1.67456-1.24278-2.841-2.75339-3.72583ZM169.593,30.50565a5.21112,5.21112,0,0,0-4.10255,2.06l-.05757-.01877,1.48683-7.77958h-3.87352l-3.76338,19.81189h3.876l1.29785-6.77334c.50812-2.55815,1.831-4.14009,3.06627-4.14009.86356,0,1.204.58321,1.204,1.43051a8.83415,8.83415,0,0,1-.169,1.7121l-1.46681,7.752h3.876l1.52438-8.00985a14.4296,14.4296,0,0,0,.28159-2.5156c-.01877-2.18269-1.16643-3.49931-3.17891-3.49931Zm11.92717,0c-4.66573,0-7.752,4.21519-7.752,8.88594a5.0624,5.0624,0,0,0,5.34408,5.41917c4.57688,0,7.677-4.10255,7.677-8.88593,0-2.78468-1.63576-5.41917-5.26273-5.41917Zm-1.90233,11.34522c-1.31788,0-1.88107-1.12639-1.88107-2.5156,0-2.22023,1.14391-5.851,3.25651-5.851,1.37294,0,1.831,1.18521,1.831,2.33413-.005,2.38418-1.15142,6.03242-3.20394,6.03242Zm17.08352-11.34521a5.2846,5.2846,0,0,0-4.10255,2.28781h-.05756l.229-2.06h-3.433l-.78847,5.13757L185.858,50.05847h3.8585l1.07382-5.73956h.07509a4.47124,4.47124,0,0,0,2.2778.50812c4.5531,0,7.52551-4.66574,7.52551-9.38154.01878-2.59695-1.14391-4.92857-3.96988-4.92857ZM192.9943,41.90719a2.41551,2.41551,0,0,1-1.602-.5657l.64079-3.632c.45806-2.40921,1.71212-4.02745,3.06627-4.02745,1.18521,0,1.5419,1.09134,1.5419,2.12762.00626,2.52435-1.47681,6.09875-3.642,6.09875ZM206.22308,24.9363a2.20318,2.20318,0,0,0-1.58069.65331,2.14535,2.14535,0,0,0-.62577,1.58695,1.79508,1.79508,0,0,0,1.831,1.93988h.05757a2.19019,2.19019,0,0,0,2.27543-2.1015q.00276-.06933.00112-.13875a1.84052,1.84052,0,0,0-1.93989-1.93989Zm-5.41416,19.60538h3.876l2.63323-13.7294h-3.88979m13.76694-.01877h-2.70707l.13267-.64079c.229-1.31787,1.01624-2.50308,2.28782-2.50308a4.21741,4.21741,0,0,1,1.24277.18773l.74842-3.03248a5.18935,5.18935,0,0,0-2.10759-.33792,5.79459,5.79459,0,0,0-3.80093,1.29785,7.39216,7.39216,0,0,0-2.25278,4.38414l-.12515.64079h-1.806l-.5657,2.91609h1.806l-2.06,10.83834h3.88979l2.06-10.83834h2.67329l.52565-2.91609Zm9.334.01877L223.01,40.25765h-.05756l-.95868-9.44537h-4.085l2.33412,12.60551a.8886.8886,0,0,1-.07509.64079,6.67836,6.67836,0,0,1-2.10759,2.33412,8.79947,8.79947,0,0,1-2.18269,1.09135l1.07382,3.29155a8.88593,8.88593,0,0,0,3.79342-2.11385,26.04853,26.04853,0,0,0,5.08125-7.697l4.74084-10.16h-4.03872Z"/></g></g></svg>