<svg xmlns="http://www.w3.org/2000/svg" viewBox="0 0 335.27493 70.23641"><defs><style>.cls-1{fill:none;}.cls-2{fill:#00749a;}.cls-3{fill:#464342;}</style></defs><g id="Capa_2" data-name="Capa 2"><g id="Capa_1-2" data-name="Capa 1"><rect class="cls-1" width="335.27493" height="70.23641"/><path class="cls-2" d="M184.664,29.97969h-8.38v.889c2.62119,0,3.04262.56177,3.04262,3.88588v5.9926c0,3.32371-.421,3.93239-3.04262,3.93239-2.01253-.28068-3.37063-1.35771-5.2432-3.41753l-2.15324-2.34051c2.90227-.51565,4.44685-2.34091,4.44685-4.40112,0-2.57429-2.19978-4.54068-6.31982-4.54068h-8.2393v.889c2.6212,0,3.04263.56177,3.04263,3.88588v5.9926c0,3.32371-.42143,3.93239-3.04263,3.93239v.88938h9.31593v-.88938c-2.6212,0-3.04263-.60868-3.04263-3.93239V39.06223h.79555l5.19666,6.50668H184.664c6.69434,0,9.597-3.55749,9.597-7.81827,0-4.26-2.90228-7.77095-9.597-7.77095ZM165.049,37.6099V31.38431h1.91908a2.8711,2.8711,0,0,1,3.043,3.13645,2.85742,2.85742,0,0,1-3.043,3.08954H165.049v-.0004Zm19.75578,6.50787h-.328c-1.68492,0-1.91909-.421-1.91909-2.57469V31.38431h2.24708c4.86867,0,5.75765,3.55748,5.75765,6.31981,0,2.85537-.88937,6.41365-5.75765,6.41365Zm-52.10428-4.77485,3.23027-9.55089c.93668-2.76193.51526-3.55748-2.48085-3.55748v-.93668H142.251v.93668c-2.94919,0-3.65131.70212-4.82176,4.11965l-5.3374,16.01065h-.6083l-4.77563-14.65334L121.8396,46.36485h-.60869L116.03464,30.3542c-1.12354-3.41753-1.87257-4.11965-4.588-4.11965v-.93668H121.8396v.93668c-2.76234,0-3.51175.6552-2.52817,3.55748l3.13646,9.55089,4.72833-14.045h.88976l4.63451,14.04505Zm15.91643,6.83428c-5.14937,0-9.36284-3.79166-9.36284-8.42695,0-4.58759,4.21386-8.38,9.36284-8.38,5.14975,0,9.36283,3.79245,9.36283,8.38,0,4.63529-4.21308,8.42695-9.36283,8.42695Zm0-15.35466c-4.30652,0-5.805,3.88508-5.805,6.9281,0,3.09033,1.49845,6.92889,5.805,6.92889,4.35421,0,5.85226-3.83856,5.85226-6.92889,0-3.043-1.49805-6.9281-5.85226-6.9281Z"/><path class="cls-3" d="M205.82364,44.63262v.93629H195.10309v-.93629c3.13685,0,3.69862-.79554,3.69862-5.47775V31.665c0-4.68221-.56177-5.43084-3.69862-5.43084v-.93668h9.69044c4.82177,0,7.49107,2.48125,7.49107,5.80575,0,3.23027-2.6693,5.758-7.49107,5.758H202.125v2.2932c0,4.68261.56177,5.47815,3.69862,5.47815Zm-1.03011-17.64983H202.125v8.14626h2.66851c2.622,0,3.839-1.82566,3.839-4.02582,0-2.24708-1.217-4.12044-3.839-4.12044Zm39.6519,14.18578-.23417.84246c-.421,1.545-.93667,2.10674-4.26037,2.10674h-.65561c-2.43394,0-2.85536-.56177-2.85536-3.88548V38.079c3.6517,0,3.93278.32721,3.93278,2.76194h.88938V33.86516h-.88938c0,2.43434-.28108,2.76194-3.93278,2.76194V31.38431h2.57428c3.32451,0,3.839.56177,4.26039,2.10673l.23457.889h.74862l-.3272-4.40033h-13.764v.889c2.6212,0,3.043.56177,3.043,3.88588v5.9926c0,3.04066-.358,3.80664-2.42487,3.91584-1.96443-.3-3.31308-1.37151-5.15844-3.401l-2.15365-2.34051c2.90268-.51565,4.44765-2.34091,4.44765-4.40112,0-2.57429-2.20017-4.54068-6.31981-4.54068h-8.23931v.889c2.62121,0,3.04264.56177,3.04264,3.88588v5.9926c0,3.32371-.421,3.93239-3.04264,3.93239v.88938h9.31633v-.88938c-2.62121,0-3.043-.60868-3.043-3.93239V39.06223h.79594l5.19627,6.50668h19.24054l.28108-4.4h-.70291v-.00039ZM219.63412,37.6099V31.38431h1.91908a2.87121,2.87121,0,0,1,3.04343,3.13645,2.85753,2.85753,0,0,1-3.04343,3.08954h-1.91908v-.0004Zm34.3145,8.5673a6.92106,6.92106,0,0,1-4.21347-1.59189,3.36354,3.36354,0,0,0-.74864,1.59189h-.88976V39.71743h.93628a5.19478,5.19478,0,0,0,5.2901,4.91519c1.49806,0,2.71542-.84246,2.71542-2.24668,0-1.217-1.07663-2.15365-2.99611-3.043l-2.6685-1.26389a5.09433,5.09433,0,0,1-3.27719-4.49455c0-2.24708,2.10673-4.16617,5.00941-4.16617a5.86278,5.86278,0,0,1,3.6517,1.217,2.64588,2.64588,0,0,0,.60869-1.26467h.88937v5.52466h-.9832c-.328-2.20056-1.545-4.02621-4.02582-4.02621-1.3108,0-2.52856.749-2.52856,1.91987,0,1.217.9832,1.87217,3.23067,2.90228l2.57428,1.26389c2.24749,1.07662,3.13646,2.80963,3.13646,4.21386,0,2.94881-2.57467,5.00824-5.71113,5.00824Zm14.41877,0a6.919,6.919,0,0,1-4.21348-1.59189,3.36354,3.36354,0,0,0-.74863,1.59189h-.88977V39.71743h.93629a5.19452,5.19452,0,0,0,5.29009,4.91519c1.49807,0,2.71542-.84246,2.71542-2.24668,0-1.217-1.07662-2.15365-2.9965-3.043L265.7923,38.079a5.095,5.095,0,0,1-3.27718-4.49455c0-2.24708,2.10674-4.16617,5.00942-4.16617a5.86277,5.86277,0,0,1,3.65169,1.217,2.63888,2.63888,0,0,0,.6079-1.26467h.88977v5.52466h-.98281c-.328-2.20056-1.545-4.02621-4.02582-4.02621-1.3108,0-2.52856.749-2.52856,1.91987,0,1.217.98321,1.87217,3.23068,2.90228l2.57428,1.26389c2.24748,1.07662,3.13646,2.80963,3.13646,4.21386,0,2.94881-2.57469,5.00824-5.71074,5.00824Z"/><path class="cls-3" d="M64.62971,35.11762a20.72175,20.72175,0,0,0,11.67654,18.646L66.42344,26.68594a20.6393,20.6393,0,0,0-1.79373,8.43168ZM99.3341,34.07213a10.90808,10.90808,0,0,0-1.70857-5.71389c-1.05022-1.7066-2.03459-3.15183-2.03459-4.85843a3.58769,3.58769,0,0,1,3.479-3.67732c.09185,0,.179.01143.26847.01655a20.71363,20.71363,0,0,0-31.30105,3.89967c.48608.01459.94417.02484,1.33327.02484,2.16705,0,5.52151-.26295,5.52151-.26295a.856.856,0,0,1,.13285,1.7066s-1.12235.13207-2.37126.19751L80.19843,47.846l4.534-13.598-3.22791-8.844c-1.11565-.06544-2.17257-.19751-2.17257-.19751a.856.856,0,0,1,.13088-1.7066s3.42148.263,5.45725.263c2.16666,0,5.52151-.26295,5.52151-.26295a.856.856,0,0,1,.13286,1.7066s-1.12473.13207-2.37126.19751l7.48711,22.27133,2.06653-6.90564c.89568-2.86562,1.57729-4.92386,1.57729-6.69748ZM85.71127,36.92987l-6.21613,18.063a20.728,20.728,0,0,0,12.73267-.33036,1.8195,1.8195,0,0,1-.14744-.28542l-6.3691-17.4472Zm17.8158-11.75224a15.89544,15.89544,0,0,1,.13956,2.13039,19.54365,19.54365,0,0,1-1.57532,7.42089L95.76282,53.02606a20.72161,20.72161,0,0,0,7.76425-27.84843ZM85.3478,10.96741A24.1508,24.1508,0,1,0,109.5,35.11762,24.17817,24.17817,0,0,0,85.3478,10.96741Zm0,47.19461a23.04362,23.04362,0,1,1,23.04243-23.0444A23.07044,23.07044,0,0,1,85.3478,58.162Z"/></g></g></svg>