<svg xmlns="http://www.w3.org/2000/svg" viewBox="0 0 335.27492 70.23641"><defs><style>.cls-1{fill:#b42e31;}.cls-1,.cls-2,.cls-3{fill-rule:evenodd;}.cls-2{fill:#e13237;}.cls-3{fill:#fff;}.cls-4{fill:none;}</style></defs><g id="Capa_2" data-name="Capa 2"><g id="Contenido"><path class="cls-1" d="M133.77688,45.88035V25.6411h2.60219L148.7475,41.92887V25.6411h2.47368V45.88035H148.619L136.25057,29.43194V45.88035Z"/><path class="cls-1" d="M171.36405,45.0772a15.02059,15.02059,0,0,1-5.26863.93165q-10.987,0-10.987-10.53726,0-9.97506,10.60151-9.99112a18.78822,18.78822,0,0,1,5.65414.83527v2.24881a14.70358,14.70358,0,0,0-5.365-.9959c-5.52564,0-8.28846,2.63431-8.28846,7.83869,0,5.622,2.73069,8.417,8.16,8.417a14.14563,14.14563,0,0,0,2.89132-.35339V36.69237h2.60219V45.0772Z"/><path class="cls-1" d="M175.54041,38.07378V25.6411h2.60218V38.07378c0,3.88722,1.92755,5.84689,5.81477,5.84689,3.8551,0,5.81477-1.95967,5.81477-5.84689V25.6411h2.60219V38.07378c0,5.30075-2.79494,7.9672-8.417,7.9672s-8.41695-2.66645-8.41695-7.9672Z"/><path class="cls-1" d="M199.63475,25.6411V43.76h10.60151v2.12031h-13.2037V25.6411Z"/><path class="cls-1" d="M213.995,45.88035h-2.7307l10.05538-22.90569L231.375,45.88035H228.4837l-2.60219-6.36091h-6.68216l.70677-2.1203h5.108l-3.79085-9.15585L213.995,45.88035Z"/><path class="cls-1" d="M234.17,45.88035V25.6411h8.64184c3.85509,0,5.78264,1.60629,5.78264,4.851,0,2.63432-1.89542,4.594-5.65414,5.8469l6.93917,9.54136H246.442l-6.42516-9.0916V35.08608c3.85509-.61039,5.81477-2.08818,5.81477-4.46548,0-1.8633-1.06015-2.79495-3.21258-2.79495h-5.78264v18.0547Z"/><path class="cls-2" d="M85.39544,20.244,106.11658,12.855l21.26727,7.26043-3.43746,27.4033-17.82981,9.86262L88.5759,47.64726,85.39544,20.244Z"/><path class="cls-1" d="M127.38385,20.11546,106.11658,12.855V57.38138l17.82981-9.86262,3.43746-27.4033Z"/><path class="cls-3" d="M106.1487,18.05941h0L93.23414,46.77987l4.81886-.09638,2.60219-6.48941h11.53316l2.82707,6.55366,4.594.09638L106.1487,18.05941Zm.03213,9.2201,4.36911,9.12373h-8.19208l3.823-9.12373Z"/><rect class="cls-4" width="335.27492" height="70.23641"/></g></g></svg>