<?xml version="1.0" encoding="utf-8"?>
<!-- Generator: Adobe Illustrator 24.0.1, SVG Export Plug-In . SVG Version: 6.00 Build 0)  -->
<svg version="1.1" id="Capa_1" xmlns="http://www.w3.org/2000/svg" xmlns:xlink="http://www.w3.org/1999/xlink" x="0px" y="0px"
	 viewBox="0 0 335.3 70.2" style="enable-background:new 0 0 335.3 70.2;" xml:space="preserve">
<style type="text/css">
	.st0{fill:none;}
	.st1{fill-rule:evenodd;clip-rule:evenodd;fill:url(#SVGID_1_);}
	.st2{fill-rule:evenodd;clip-rule:evenodd;fill:#24292E;}
</style>
<g id="Capa_2_1_">
	<g id="Capa_1-2">
		<rect y="0" class="st0" width="335.3" height="70.2"/>
	</g>
</g>
<g>
	
		<linearGradient id="SVGID_1_" gradientUnits="userSpaceOnUse" x1="54.0968" y1="98.3662" x2="130.4099" y2="-28.8215" gradientTransform="matrix(1 0 0 -1 1.333 69.8898)">
		<stop  offset="0" style="stop-color:#2383AE"/>
		<stop  offset="1" style="stop-color:#6DD7B9"/>
	</linearGradient>
	<path class="st1" d="M74.5,27.5c2.5-10.2,8.9-15.3,19.1-15.3c15.3,0,17.2,11.4,24.8,13.4c5.1,1.3,9.5-0.6,13.4-5.7
		c-2.5,10.2-8.9,15.3-19.1,15.3c-15.3,0-17.2-11.4-24.8-13.4C82.8,20.5,78.3,22.4,74.5,27.5L74.5,27.5z M55.4,50.4
		c2.5-10.2,8.9-15.3,19.1-15.3c15.3,0,17.2,11.4,24.8,13.4c5.1,1.3,9.5-0.6,13.4-5.7C110.1,52.9,103.8,58,93.6,58
		c-15.3,0-17.2-11.4-24.8-13.4C63.7,43.4,59.2,45.3,55.4,50.4z"/>
	<path class="st2" d="M145.6,29.8h-5v-3h13.5v3h-5v13.6h-3.5V29.8z M160.6,41.9c-0.5,0.5-1,1-1.6,1.3c-0.6,0.3-1.4,0.5-2.3,0.5
		c-0.5,0-1-0.1-1.5-0.2c-0.5-0.1-0.9-0.4-1.3-0.6s-0.7-0.7-0.9-1.1c-0.2-0.5-0.3-1-0.3-1.6c0-0.8,0.2-1.5,0.6-2
		c0.4-0.5,0.9-1,1.5-1.2c0.6-0.3,1.3-0.5,2-0.6c0.8-0.1,1.5-0.2,2.3-0.2l1.6-0.1v-0.6c0-0.7-0.2-1.3-0.6-1.5
		c-0.4-0.3-0.9-0.4-1.5-0.4c-1.3,0-2,0.5-2.2,1.5l-3-0.3c0.2-1.3,0.8-2.2,1.7-2.8c0.9-0.6,2.1-0.8,3.6-0.8c0.9,0,1.7,0.1,2.4,0.3
		c0.7,0.2,1.2,0.5,1.6,1c0.4,0.4,0.7,1,0.9,1.5c0.2,0.6,0.3,1.3,0.3,2v7.7h-3.1V41.9L160.6,41.9z M160.6,38l-1.4,0.1
		c-0.7,0-1.2,0.1-1.6,0.2c-0.4,0.1-0.7,0.2-1,0.4c-0.2,0.2-0.4,0.3-0.5,0.6c-0.1,0.2-0.1,0.5-0.1,0.7c0,0.4,0.1,0.7,0.4,1
		s0.7,0.3,1.2,0.3c0.8,0,1.5-0.2,2-0.6c0.3-0.2,0.5-0.5,0.7-0.8c0.2-0.3,0.3-0.7,0.3-1.2L160.6,38L160.6,38z M166.3,31.3h3.3v12.1
		h-3.3V31.3z M166.3,26.8h3.3v2.9h-3.3V26.8z M172.4,26.8h3.3v16.6h-3.3V26.8z M177.1,31.3h3.5l1.7,8l2.3-7.9h2.8l2.2,7.9l1.7-8h3.4
		l-3.5,12.1h-3.2l-2.2-8l-2.2,8h-3.1L177.1,31.3L177.1,31.3z M196.2,31.3h3.3v12.1h-3.3V31.3z M196.2,26.8h3.3v2.9h-3.3V26.8z
		 M202.2,31.3h3.2V33c0.5-0.7,1-1.2,1.7-1.6c0.7-0.3,1.3-0.5,2.1-0.5c1.4,0,2.4,0.4,3.1,1.1c0.7,0.7,1,1.9,1,3.4v8H210v-7.6
		c0-0.9-0.2-1.4-0.5-1.7c-0.3-0.3-0.8-0.5-1.3-0.5c-0.4,0-0.8,0.1-1.1,0.2c-0.3,0.1-0.6,0.3-0.8,0.5c-0.2,0.2-0.4,0.5-0.5,0.8
		c-0.1,0.3-0.2,0.6-0.2,1v7.3h-3.3L202.2,31.3L202.2,31.3z M224.3,41.8c-0.8,1.3-2.3,2-3.8,2c-1.7,0-3-0.6-3.8-1.7
		c-0.8-1.1-1.3-2.7-1.3-4.8c0-0.9,0.1-1.7,0.4-2.6c0.2-0.8,0.6-1.5,1-2c0.4-0.6,1-1,1.6-1.3c0.7-0.3,1.4-0.5,2.2-0.5
		c0.6,0,1.2,0.1,1.8,0.3s1.2,0.7,1.7,1.3v-5.7h3.3v16.6h-3.2L224.3,41.8L224.3,41.8z M224.2,37.2c0-0.8-0.1-1.4-0.2-1.9
		s-0.3-0.8-0.6-1.1c-0.3-0.3-0.6-0.4-0.9-0.5c-0.3-0.1-0.7-0.1-1-0.1c-0.3,0-0.7,0.1-1,0.2c-0.3,0.1-0.6,0.4-0.8,0.6
		s-0.4,0.7-0.6,1.2c-0.1,0.5-0.2,1-0.2,1.7c0,0.7,0.1,1.3,0.2,1.8c0.2,0.5,0.3,0.9,0.5,1.2s0.5,0.5,0.8,0.6s0.6,0.2,1,0.2
		c0.8,0,1.4-0.2,1.9-0.7c0.3-0.3,0.5-0.7,0.7-1.1c0.1-0.4,0.2-1,0.2-1.7L224.2,37.2L224.2,37.2z M249.6,37.7
		c-0.1,0.9-0.3,1.7-0.6,2.4c-0.3,0.7-0.8,1.4-1.4,1.9c-0.6,0.6-1.3,1-2.1,1.3c-0.8,0.3-1.8,0.5-2.9,0.5c-1.3,0-2.4-0.2-3.3-0.6
		c-0.9-0.4-1.7-1-2.4-1.8c-0.6-0.8-1.1-1.7-1.5-2.8c-0.3-1.1-0.5-2.3-0.5-3.6c0-1.3,0.2-2.6,0.5-3.6c0.4-1.1,0.9-2,1.5-2.7
		c0.7-0.8,1.5-1.3,2.4-1.7c0.9-0.4,2-0.6,3.2-0.6c1.1,0,2,0.1,2.8,0.4c0.8,0.3,1.4,0.6,2,1.1c0.5,0.5,1,1.1,1.3,1.8
		c0.3,0.7,0.6,1.5,0.7,2.3l-3.4,0.4c-0.2-1-0.5-1.7-1-2.3c-0.5-0.6-1.3-0.8-2.3-0.8c-1.3,0-2.3,0.5-3,1.5s-1,2.4-1,4.2
		c0,1.8,0.4,3.3,1.1,4.2c0.7,1,1.8,1.5,3,1.5c1.1,0,1.9-0.3,2.4-0.8c0.5-0.5,0.8-1.3,0.9-2.4L249.6,37.7z M254.7,38
		c0.1,1,0.4,1.8,1,2.2s1.4,0.7,2.6,0.7c0.5,0,1-0.1,1.4-0.2c0.4-0.1,0.7-0.3,0.9-0.5c0.2-0.2,0.4-0.4,0.5-0.7
		c0.1-0.3,0.2-0.6,0.2-0.9c0-0.4-0.2-0.8-0.5-1.2c-0.3-0.4-0.9-0.7-1.8-0.8l-2.2-0.4c-0.9-0.2-1.6-0.4-2.3-0.6
		c-0.7-0.2-1.2-0.6-1.6-1s-0.8-0.9-1-1.5c-0.2-0.6-0.3-1.3-0.3-2c0-0.7,0.1-1.4,0.5-2.1c0.3-0.6,0.8-1.1,1.3-1.5
		c0.6-0.4,1.2-0.7,2-0.9c0.8-0.2,1.7-0.3,2.6-0.3c1.2,0,2.2,0.1,3,0.4c0.8,0.3,1.5,0.6,2,1.1c0.5,0.5,0.9,1,1.1,1.6s0.4,1.2,0.5,1.9
		l-3.3,0.4c-0.2-0.9-0.5-1.6-1-2c-0.5-0.4-1.2-0.6-2.2-0.6c-0.6,0-1.1,0.1-1.5,0.2c-0.4,0.1-0.7,0.2-0.9,0.4
		c-0.2,0.1-0.4,0.3-0.5,0.6c-0.1,0.2-0.1,0.4-0.1,0.7c0,0.6,0.2,1.1,0.5,1.4c0.3,0.3,0.9,0.6,1.8,0.7l2.3,0.4c1.8,0.4,3.1,0.9,4,1.7
		c0.8,0.8,1.3,2,1.3,3.4c0,0.7-0.1,1.4-0.4,2c-0.3,0.6-0.7,1.2-1.2,1.6c-0.6,0.5-1.3,0.9-2,1.1c-0.8,0.3-1.7,0.4-2.8,0.4
		c-2.3,0-4-0.5-5.2-1.5c-1.2-1-1.8-2.4-2-4.4L254.7,38L254.7,38z M269.7,38c0.1,1,0.4,1.8,1,2.2c0.6,0.5,1.4,0.7,2.6,0.7
		c0.5,0,1-0.1,1.4-0.2c0.4-0.1,0.7-0.3,0.9-0.5c0.2-0.2,0.4-0.4,0.5-0.7c0.1-0.3,0.2-0.6,0.2-0.9c0-0.5-0.2-0.9-0.5-1.2
		c-0.3-0.4-0.9-0.7-1.8-0.8l-2.2-0.4c-0.9-0.2-1.6-0.4-2.3-0.6c-0.7-0.2-1.2-0.6-1.6-1s-0.8-0.9-1-1.5c-0.2-0.6-0.3-1.3-0.3-2
		c0-0.7,0.1-1.4,0.5-2.1c0.3-0.6,0.8-1.1,1.3-1.5c0.6-0.4,1.2-0.7,2-0.9c0.8-0.2,1.7-0.3,2.6-0.3c1.2,0,2.2,0.1,3,0.4
		c0.8,0.3,1.5,0.6,2,1.1s0.9,1,1.1,1.6c0.2,0.6,0.4,1.2,0.5,1.9l-3.3,0.4c-0.2-0.9-0.5-1.6-1-2s-1.2-0.6-2.2-0.6
		c-0.6,0-1.1,0.1-1.5,0.2s-0.7,0.2-0.9,0.4c-0.2,0.1-0.4,0.3-0.5,0.6c-0.1,0.2-0.1,0.4-0.1,0.7c0,0.6,0.2,1.1,0.5,1.4
		c0.3,0.3,0.9,0.6,1.8,0.7l2.3,0.5c1.8,0.4,3.1,0.9,4,1.7c0.8,0.8,1.3,2,1.3,3.4c0,0.7-0.1,1.4-0.4,2c-0.3,0.6-0.7,1.2-1.2,1.6
		c-0.5,0.5-1.2,0.8-2,1.1c-0.8,0.3-1.7,0.4-2.8,0.4c-2.3,0-4-0.5-5.2-1.5c-1.2-1-1.8-2.4-1.9-4.4L269.7,38z"/>
</g>
</svg>
