<svg xmlns="http://www.w3.org/2000/svg" viewBox="0 0 335.27493 70.23641"><defs><style>.cls-1{fill:none;}.cls-2{fill:#1d1d1b;}</style></defs><g id="Capa_2" data-name="Capa 2"><g id="Capa_1-2" data-name="Capa 1"><g id="Capa_2-2" data-name="Capa 2"><g id="Capa_1-2-2" data-name="Capa 1-2"><rect class="cls-1" width="335.27493" height="70.23641"/><path class="cls-2" d="M184.82411,24.61248h18.16856v3.35344h-7.20728v17.642h-3.6039v-17.642h-7.35738Z"/><path class="cls-2" d="M154.94372,24.61248v3.35344H140.38041v5.39465h11.7118V36.714h-11.7118v5.54048h14.56331v3.35343h-18.167v-17.642h-.00151V24.61248Z"/><path class="cls-2" d="M164.01583,24.62123h-4.71608l16.892,20.99544h4.72984l-8.44705-10.4905,8.43355-10.48892-4.71634.00729-6.07843,7.54919Z"/><path class="cls-2" d="M168.85527,39.61839l-2.36174-2.93647-7.20728,8.95077h4.72958Z"/><path class="cls-2" d="M136.903,45.60791,119.9883,24.60372h-4.50457V45.59915h3.60366V29.09148L132.3759,45.60791Z"/><path class="cls-2" d="M203.80277,45.47967a.934.934,0,0,1-.6764-.27427.88192.88192,0,0,1-.27851-.66648.87215.87215,0,0,1,.27851-.65687.934.934,0,0,1,.6764-.2743.92228.92228,0,0,1,.664.2743.89049.89049,0,0,1,.28831.65687.91052.91052,0,0,1-.13449.474.973.973,0,0,1-.34919.33929A.90076.90076,0,0,1,203.80277,45.47967Z"/><path class="cls-2" d="M209.95347,36.6349h1.59692v6.15237a2.843,2.843,0,0,1-.36376,1.45569,2.42081,2.42081,0,0,1-1.006.93594,3.27544,3.27544,0,0,1-1.49684.32724,3.439,3.439,0,0,1-1.40153-.2767,2.25573,2.25573,0,0,1-.98642-.81807,2.35347,2.35347,0,0,1-.364-1.3498h1.59956a1.193,1.193,0,0,0,.15858.61112,1.02048,1.02048,0,0,0,.4249.39218,1.391,1.391,0,0,0,.62982.13717,1.24191,1.24191,0,0,0,.65444-.16123,1.023,1.023,0,0,0,.41034-.4764,1.95951,1.95951,0,0,0,.144-.77714Z"/><path class="cls-2" d="M218.121,39.041a1.16008,1.16008,0,0,0-.50777-.871,1.994,1.994,0,0,0-1.16486-.31279,2.2597,2.2597,0,0,0-.86172.14918,1.2958,1.2958,0,0,0-.552.40662.99329.99329,0,0,0-.19537.5847.85671.85671,0,0,0,.12945.474,1.06252,1.06252,0,0,0,.3492.33927,2.331,2.331,0,0,0,.48844.23336q.27084.09384.54192.15882l.83261.20451a5.75648,5.75648,0,0,1,.96948.31279,3.4328,3.4328,0,0,1,.83737.49565,2.21938,2.21938,0,0,1,.58613.72184,2.14711,2.14711,0,0,1,.21735.99129,2.33606,2.33606,0,0,1-.39816,1.35221,2.62324,2.62324,0,0,1-1.15241.90952,4.56725,4.56725,0,0,1-1.819.32721,4.63468,4.63468,0,0,1-1.79467-.31758,2.546,2.546,0,0,1-1.65066-2.39888h1.58235a1.32722,1.32722,0,0,0,.28566.76033,1.53831,1.53831,0,0,0,.65682.45233,2.64046,2.64046,0,0,0,.90832.14918,2.53507,2.53507,0,0,0,.92288-.15641,1.44284,1.44284,0,0,0,.62029-.43547,1.01915,1.01915,0,0,0,.22953-.65446.84228.84228,0,0,0-.20279-.56786,1.55629,1.55629,0,0,0-.55675-.37533,5.71955,5.71955,0,0,0-.835-.27188l-1.01078-.25506a4.05382,4.05382,0,0,1-1.7314-.84451,1.91321,1.91321,0,0,1-.63484-1.50622,2.22012,2.22012,0,0,1,.42755-1.35462,2.77793,2.77793,0,0,1,1.16221-.90228,4.11373,4.11373,0,0,1,1.67-.32243,3.96763,3.96763,0,0,1,1.65806.32243,2.70145,2.70145,0,0,1,1.12065.89265,2.25856,2.25856,0,0,1,.42014,1.3089Z"/></g></g></g></g></svg>