<svg xmlns="http://www.w3.org/2000/svg" viewBox="0 0 335.27493 70.23641"><defs><style>.cls-1{fill:none;}.cls-2,.cls-3{fill:#00d8ff;}.cls-3{fill-rule:evenodd;}</style></defs><g id="Capa_2" data-name="Capa 2"><g id="Capa_1-2" data-name="Capa 1"><rect class="cls-1" width="335.27493" height="70.23641"/><circle class="cls-2" cx="120.29886" cy="35.07024" r="5.15902"/><path class="cls-2" d="M120.29921,46.89695c-7.2457,0-13.5818-.8567-18.32409-2.47732-6.51584-2.22727-10.5645-5.8099-10.5645-9.349,0-3.41085,3.74715-6.75357,10.02381-8.94171a59.32786,59.32786,0,0,1,18.86333-2.78246h.00145a59.18241,59.18241,0,0,1,18.61473,2.73173c6.43249,2.21495,10.27241,5.57652,10.27241,8.99244,0,3.54494-4.18927,7.13554-10.9327,9.37006A59.445,59.445,0,0,1,120.29921,46.89695Zm0-21.0819a57.655,57.655,0,0,0-18.05229,2.64475c-5.78091,2.01491-8.36768,4.772-8.36768,6.61079,0,1.91344,2.78319,4.92493,8.8946,7.01377,4.48789,1.53365,10.54784,2.344,17.52537,2.344a56.975,56.975,0,0,0,17.1782-2.3302c6.34841-2.10406,9.24032-5.11772,9.24032-7.02754,0-1.77935-2.69332-4.6227-8.60686-6.65863A56.67122,56.67122,0,0,0,120.29921,25.81505Z"/><path class="cls-2" d="M108.59968,60.80418A5.48551,5.48551,0,0,1,105.823,60.12c-2.95423-1.70252-3.97836-6.618-2.73825-13.14982a59.33029,59.33029,0,0,1,7.013-17.73049l.00073-.00072A59.19181,59.19181,0,0,1,121.764,14.47864c5.13222-4.46542,9.96365-6.11431,12.92151-4.40671,3.07093,1.77138,4.08853,7.19352,2.65563,14.15221a59.41179,59.41179,0,0,1-6.842,16.78029c-3.62032,6.27739-7.52765,11.33785-11.29872,14.63419C115.36413,58.99149,111.56044,60.80418,108.59968,60.80418Zm3.637-30.33164h0a57.64423,57.64423,0,0,0-6.72676,16.95858c-1.14226,6.015-.04638,9.63316,1.546,10.55074,1.65686.95382,5.657.05146,10.51957-4.2016,3.56958-3.12021,7.29934-7.964,10.78556-14.00942a56.89181,56.89181,0,0,0,6.56223-16.04463c1.35028-6.55136.1841-10.56233-1.47059-11.51615-1.5409-.88714-5.34821.02247-10.068,4.12984A56.6708,56.6708,0,0,0,112.23667,30.47254Z"/><path class="cls-2" d="M132.01106,60.8252c-2.79551,0-6.347-1.69093-10.04411-4.872A59.36233,59.36233,0,0,1,110.10869,41.0211h0a59.15967,59.15967,0,0,1-6.96231-17.47826c-1.30607-6.67675-.32108-11.68358,2.63533-13.39553,3.07165-1.77428,8.2749.05,13.58687,4.76693a59.44792,59.44792,0,0,1,11.12115,14.308c3.63046,6.27159,6.06357,12.18441,7.03551,17.09847,1.338,6.7543.26527,12.05249-2.7984,13.82677A5.34971,5.34971,0,0,1,132.01106,60.8252ZM112.24392,39.78461a57.68172,57.68172,0,0,0,11.3335,14.29717c4.63937,3.99358,8.31912,4.8481,9.91293,3.9298,1.65686-.95962,2.86871-4.8771,1.6141-11.21175-.92048-4.651-3.255-10.30141-6.7514-16.34106a56.93213,56.93213,0,0,0-10.62321-13.69922c-5.001-4.44077-9.05913-5.433-10.71164-4.47629-1.54018.89221-2.65055,4.64734-1.44958,10.78557a56.66711,56.66711,0,0,0,6.6753,16.71578Z"/><path class="cls-3" d="M177.56514,48.25111l-6.3234-9.55338a6.47711,6.47711,0,0,0,6.07551-6.82808c0-4.30466-3.05482-7.05964-7.34018-7.05964h-9.41088V48.2333h2.91529v-9.307h4.6713l5.97012,9.307Zm-7.9369-11.87047H163.483V27.42547h6.14527a4.483,4.483,0,1,1,0,8.95814Zm18.78909,12.29055a9.2176,9.2176,0,0,0,6.74348-2.59764l-1.26468-1.72186a7.4146,7.4146,0,0,1-5.23239,2.14194,5.97751,5.97751,0,0,1-6.11113-5.86325H196.283v-.668c0-5.09138-3.02069-9.0962-8.14916-9.0962-4.84645,0-8.357,3.9692-8.357,8.88542,0,5.30363,3.6174,8.90619,8.639,8.90619Zm5.26951-9.97494H182.55409c.141-2.59764,1.92968-5.65543,5.54856-5.65543A5.49893,5.49893,0,0,1,193.68684,38.69625Zm20.08939,9.55338V36.58994c0-4.10873-2.98357-5.7252-6.56682-5.7252a8.8742,8.8742,0,0,0-6.77762,2.8099l1.22906,1.82577a6.74,6.74,0,0,1,5.19825-2.35272c2.4581,0,4.28536,1.29882,4.28536,3.58178v3.05482a7.0922,7.0922,0,0,0-5.61981-2.31858c-2.87967,0-5.93746,1.79163-5.93746,5.58419,0,3.68716,3.05482,5.61981,5.93746,5.61981a7.33759,7.33759,0,0,0,5.61981-2.35272v1.92967Zm-7.30307-1.47546c-2.45811,0-4.18-1.54374-4.18-3.68717,0-2.17756,1.72187-3.72278,4.18-3.72278a5.68082,5.68082,0,0,1,4.6713,2.10779v3.19584a5.683,5.683,0,0,1-4.6713,2.1078Zm20.03893,1.897a7.26448,7.26448,0,0,0,6.21653-2.94943l-1.756-1.615a5.10733,5.10733,0,0,1-4.30466,2.21171c-3.6174,0-5.86324-2.80991-5.86324-6.56683s2.24733-6.53121,5.86324-6.53121a4.98946,4.98946,0,0,1,4.30466,2.2117l1.756-1.615a7.25886,7.25886,0,0,0-6.21653-2.94944c-5.05723,0-8.46385,3.86381-8.46385,8.88541,0,5.05724,3.40661,8.90619,8.46385,8.90619Zm14.19053,0a4.31677,4.31677,0,0,0,3.1617-1.088l-.77187-1.96679a2.51773,2.51773,0,0,1-1.79163.70211c-1.1578,0-1.72187-.91289-1.72187-2.17757v-10.536h3.44373v-2.3171H239.579V26.65211H236.9442v4.63567h-2.8099v2.31858h2.8099V44.705c0,2.52936,1.26468,3.9692,3.75841,3.9692Z"/></g></g></svg>