<svg xmlns="http://www.w3.org/2000/svg" viewBox="0 0 335.27493 70.23641"><defs><style>.cls-1{fill:none;}.cls-2{fill:#007acc;}</style></defs><g id="Capa_2" data-name="Capa 2"><g id="Capa_1-2" data-name="Capa 1"><rect class="cls-1" width="335.27493" height="70.23641"/><path class="cls-2" d="M108.7494,20.06962h-8.043V44.97733h-3.28V20.06962h-8.0088V17.11338H108.7494Zm12.68915,5.01263-9.1525,23.07806q-2.445,6.17559-6.88078,6.17916a7.19247,7.19247,0,0,1-2.07778-.25385V51.22778a5.90864,5.90864,0,0,0,1.88241.348q2.4129,0,3.61365-2.87353l1.5915-3.7691L102.643,25.08224h3.53665L111.563,40.39108c.067.194.19965.70163.40928,1.51449h.11409l.385-1.476,5.65293-15.34735ZM126.6494,42.1038h-.077v12.026h-3.18869v-29.049h3.18869V28.579h.077a7.538,7.538,0,0,1,6.88078-3.96448,7.29241,7.29241,0,0,1,6.00375,2.6696,11.04812,11.04812,0,0,1,2.15336,7.16172A12.35055,12.35055,0,0,1,139.263,42.4432a8.08517,8.08517,0,0,1-6.64263,3.00044,6.6859,6.6859,0,0,1-5.96809-3.34413Zm-.077-8.02591v2.78083a5.93707,5.93707,0,0,0,1.6029,4.18979,5.7223,5.7223,0,0,0,8.6106-.4977,10.15188,10.15188,0,0,0,1.64-6.15633A8.01555,8.01555,0,0,0,136.89,29.18933a5.09975,5.09975,0,0,0-4.15557-1.88241,5.65479,5.65479,0,0,0-4.47072,1.93375A7.07015,7.07015,0,0,0,126.5724,34.07789Zm34.44668,1.74693H146.97231a7.43172,7.43172,0,0,0,1.78544,5.12814,6.15934,6.15934,0,0,0,4.70317,1.80683,9.79724,9.79724,0,0,0,6.17916-2.21611v2.99046a11.54719,11.54719,0,0,1-6.9364,1.90666,8.40485,8.40485,0,0,1-6.62694-2.70953c-1.60717-1.80826-2.42431-4.34951-2.42431-7.62662a10.88079,10.88079,0,0,1,2.63109-7.56529,8.449,8.449,0,0,1,6.53853-2.92344,7.48166,7.48166,0,0,1,6.04082,2.52414,10.52139,10.52139,0,0,1,2.1391,7.01341V35.822Zm-3.28-2.7024A6.44833,6.44833,0,0,0,156.40718,28.83a4.54013,4.54013,0,0,0-3.64218-1.53588,5.14349,5.14349,0,0,0-3.83042,1.61431,7.25394,7.25394,0,0,0-1.94516,4.21689Zm6.05223,10.72689v-3.8461a6.84728,6.84728,0,0,0,1.44746,1.04958,10.48292,10.48292,0,0,0,1.77973.78434,14.84265,14.84265,0,0,0,1.87386.49912,9.44317,9.44317,0,0,0,1.7398.17683,6.38735,6.38735,0,0,0,4.11706-1.11661,3.9293,3.9293,0,0,0,1.359-3.21579,4.04081,4.04081,0,0,0-.45349-1.96226,5.40465,5.40465,0,0,0-1.25493-1.5259,12.40315,12.40315,0,0,0-1.89668-1.32054L170.1502,32.04l-2.48706-1.49738a10.76612,10.76612,0,0,1-2.00648-1.6685,6.58241,6.58241,0,0,1-1.82823-4.77732,6.82585,6.82585,0,0,1,.76295-3.30848,6.92756,6.92756,0,0,1,2.01076-2.32164,8.74719,8.74719,0,0,1,2.835-1.359,11.93635,11.93635,0,0,1,3.24431-.44779,11.54045,11.54045,0,0,1,5.49321.98969v3.66928a9.315,9.315,0,0,0-5.797-1.707,9.05623,9.05623,0,0,0-1.95657.221,5.10043,5.10043,0,0,0-1.73981.73015,4.047,4.047,0,0,0-1.24353,1.30485,3.69826,3.69826,0,0,0-.48059,1.94516,4.29869,4.29869,0,0,0,.36508,1.84534,4.48317,4.48317,0,0,0,1.0781,1.42036,10.45587,10.45587,0,0,0,1.73553,1.24353l2.353,1.32054,2.59545,1.55442a11.7777,11.7777,0,0,1,2.15052,1.80682,8.06582,8.06582,0,0,1,1.46457,2.19615,6.69826,6.69826,0,0,1,.5419,2.758A7.59737,7.59737,0,0,1,178.507,41.445a6.44582,6.44582,0,0,1-1.98936,2.32164A8.23964,8.23964,0,0,1,173.627,45.06a14.48593,14.48593,0,0,1-3.44824.39929,12.45173,12.45173,0,0,1-1.49166-.10553l-1.81111-.30945a14.37163,14.37163,0,0,1-1.75121-.50341,5.38477,5.38477,0,0,1-1.332-.68451Zm32.41454.21391a10.38712,10.38712,0,0,1-5.43761,1.38329,9.00759,9.00759,0,0,1-6.86937-2.76943,10.03869,10.03869,0,0,1-2.614-7.17882,11.03775,11.03775,0,0,1,2.8179-7.89757,9.849,9.849,0,0,1,7.52109-2.98476,10.534,10.534,0,0,1,4.62617.97258v3.27995a8.06574,8.06574,0,0,0-4.74167-1.55441,6.39634,6.39634,0,0,0-5.00122,2.189,8.30913,8.30913,0,0,0-1.95085,5.74135,7.89462,7.89462,0,0,0,1.83535,5.516,6.33952,6.33952,0,0,0,4.92422,2.02216,7.982,7.982,0,0,0,4.89711-1.72982v3.02326Zm12.32978-15.7609a3.92748,3.92748,0,0,0-2.42432-.64174,4.06,4.06,0,0,0-3.4083,1.9252,8.91463,8.91463,0,0,0-1.369,5.24507V44.9702h-3.18869V25.07655H201.334v4.10137h.077a6.90954,6.90954,0,0,1,2.07778-3.2714A4.76408,4.76408,0,0,1,206.6162,24.73a4.88086,4.88086,0,0,1,1.90665.28521Zm3.65786-8.2712a2.03179,2.03179,0,0,1-1.45887-.58041,1.95221,1.95221,0,0,1-.60179-1.476,2.03845,2.03845,0,0,1,2.06066-2.07778,2.07179,2.07179,0,0,1,1.486.59182,2.07425,2.07425,0,0,1,0,2.94483,2.083,2.083,0,0,1-1.486.599ZM213.748,44.97733h-3.18869V25.08368H213.748Zm5.13956-2.87353h-.077v12.026h-3.18869v-29.049h3.18869V28.579h.077a7.538,7.538,0,0,1,6.88077-3.96447,7.29241,7.29241,0,0,1,6.00375,2.6696,11.048,11.048,0,0,1,2.15337,7.16171,12.35056,12.35056,0,0,1-2.42432,7.9974,8.104,8.104,0,0,1-6.64262,3.00044,6.68589,6.68589,0,0,1-5.96809-3.34413Zm-.077-8.02448v2.78083a5.93707,5.93707,0,0,0,1.6029,4.18979,5.7223,5.7223,0,0,0,8.6106-.4977,10.15188,10.15188,0,0,0,1.64-6.15633,8.0155,8.0155,0,0,0-1.53588-5.20515,5.09973,5.09973,0,0,0-4.15556-1.88241,5.65484,5.65484,0,0,0-4.47073,1.93375,7.07623,7.07623,0,0,0-1.69131,4.8415Zm27.04681,10.70549a6.15128,6.15128,0,0,1-2.97335.61891q-5.21942,0-5.228-5.82976V27.80319h-3.42257V25.08368H237.656V20.22649l3.18869-1.02677V25.0851h5.01262v2.71951h-5.01262v11.2089a4.66755,4.66755,0,0,0,.68023,2.85784,2.71071,2.71071,0,0,0,2.25319.85564,3.33636,3.33636,0,0,0,2.07778-.66312Z"/></g></g></svg>