<svg width="183" height="40" viewBox="0 0 183 40" fill="none" xmlns="http://www.w3.org/2000/svg">
<g clip-path="url(#clip0_3678_293)">
<path d="M5.97656 8.31152V13.2466L26.8857 21.1037C29.8077 20.1297 48.4441 13.2466 48.4441 13.2466V8.31152L26.8857 16.1037L5.97656 8.31152Z" fill="white"/>
<path d="M14.1546 9.67532L26.817 4.93506L39.9988 9.67532L46.752 7.20779L26.8819 0L7.53125 7.20779L14.1546 9.67532Z" fill="white"/>
<path d="M46.8178 26.1038L42.4671 24.4805L35.8438 27.0129L40.1944 28.5714L46.8178 26.1038Z" fill="white"/>
<path d="M27.4051 34.9997L5.97656 27.1426V32.0776C5.97656 32.0776 24.4831 38.8958 27.4701 39.9997L48.4441 32.0776V27.1426C48.3792 27.1426 28.6389 34.4802 27.4051 34.9997Z" fill="white"/>
<path d="M0 17.6621V22.727L20.9091 30.5193C23.8961 29.4803 42.4026 22.727 42.4026 22.727V17.727L20.9091 25.5193C19.6753 25.0647 0 17.6621 0 17.6621Z" fill="white"/>
<path d="M1.55469 16.6229L8.243 19.1554L12.5287 17.5969L5.90534 15.0645L1.55469 16.6229Z" fill="white"/>
</g>
<path d="M64.96 31.075L59.32 8.875H63.685L68.005 28.48H67.81L72.085 8.875H76.45L70.855 31.075H64.96ZM77.3737 31V15.07H81.2737V31H77.3737ZM79.3387 12.13C78.6987 12.13 78.1387 11.96 77.6587 11.62C77.1887 11.27 76.9537 10.785 76.9537 10.165C76.9537 9.555 77.1887 9.08 77.6587 8.74C78.1387 8.4 78.6987 8.23 79.3387 8.23C79.9687 8.23 80.5187 8.4 80.9887 8.74C81.4587 9.08 81.6937 9.555 81.6937 10.165C81.6937 10.785 81.4587 11.27 80.9887 11.62C80.5187 11.96 79.9687 12.13 79.3387 12.13ZM92.233 31.33C90.993 31.33 89.843 31.01 88.783 30.37C87.733 29.72 86.883 28.835 86.233 27.715C85.593 26.595 85.273 25.335 85.273 23.935C85.273 23.895 85.273 23.86 85.273 23.83C85.273 23.79 85.273 23.755 85.273 23.725L87.223 23.68C87.223 23.7 87.223 23.725 87.223 23.755C87.223 23.785 87.223 23.81 87.223 23.83C87.223 24.61 87.418 25.305 87.808 25.915C88.198 26.515 88.703 26.99 89.323 27.34C89.953 27.68 90.623 27.85 91.333 27.85C92.483 27.85 93.463 27.455 94.273 26.665C95.083 25.875 95.488 24.65 95.488 22.99C95.488 21.32 95.083 20.1 94.273 19.33C93.473 18.55 92.493 18.16 91.333 18.16C90.633 18.16 89.968 18.33 89.338 18.67C88.718 19 88.208 19.46 87.808 20.05C87.418 20.64 87.223 21.33 87.223 22.12L85.273 22.03C85.273 20.62 85.593 19.37 86.233 18.28C86.883 17.19 87.733 16.34 88.783 15.73C89.843 15.11 90.993 14.8 92.233 14.8C93.523 14.8 94.723 15.12 95.833 15.76C96.953 16.39 97.853 17.315 98.533 18.535C99.223 19.745 99.568 21.23 99.568 22.99C99.568 24.8 99.233 26.325 98.563 27.565C97.893 28.805 97.003 29.745 95.893 30.385C94.783 31.015 93.563 31.33 92.233 31.33ZM83.263 31V7.555H87.223V31H83.263ZM102.383 24.31V21.505H113.528L113.078 22.255C113.078 22.195 113.078 22.13 113.078 22.06C113.078 21.98 113.078 21.915 113.078 21.865C113.078 21.175 112.923 20.53 112.613 19.93C112.303 19.32 111.833 18.83 111.203 18.46C110.573 18.08 109.773 17.89 108.803 17.89C107.843 17.89 107.008 18.095 106.298 18.505C105.598 18.905 105.053 19.485 104.663 20.245C104.283 21.005 104.093 21.915 104.093 22.975C104.093 24.065 104.278 25.005 104.648 25.795C105.018 26.575 105.558 27.175 106.268 27.595C106.988 28.005 107.863 28.21 108.893 28.21C109.593 28.21 110.198 28.145 110.708 28.015C111.218 27.885 111.633 27.71 111.953 27.49C112.283 27.26 112.528 27.015 112.688 26.755C112.858 26.495 112.958 26.235 112.988 25.975H116.918C116.858 26.645 116.633 27.3 116.243 27.94C115.863 28.57 115.328 29.145 114.638 29.665C113.948 30.175 113.108 30.585 112.118 30.895C111.138 31.195 110.018 31.345 108.758 31.345C107.048 31.345 105.553 30.995 104.273 30.295C102.993 29.595 101.993 28.62 101.273 27.37C100.563 26.12 100.208 24.69 100.208 23.08C100.208 21.43 100.568 19.985 101.288 18.745C102.018 17.505 103.028 16.54 104.318 15.85C105.608 15.15 107.088 14.8 108.758 14.8C110.478 14.8 111.963 15.15 113.213 15.85C114.473 16.55 115.443 17.525 116.123 18.775C116.803 20.015 117.143 21.46 117.143 23.11C117.143 23.32 117.138 23.545 117.128 23.785C117.118 24.025 117.103 24.2 117.083 24.31H102.383ZM125.62 31.3C125.05 31.3 124.47 31.245 123.88 31.135C123.29 31.025 122.75 30.82 122.26 30.52C121.77 30.22 121.375 29.78 121.075 29.2C120.775 28.62 120.625 27.855 120.625 26.905C120.625 26.685 120.625 26.465 120.625 26.245C120.625 26.015 120.625 25.78 120.625 25.54V18.22H116.86V15.07H118.39C118.91 15.07 119.32 15.05 119.62 15.01C119.92 14.96 120.14 14.85 120.28 14.68C120.42 14.51 120.51 14.245 120.55 13.885C120.6 13.515 120.625 13.005 120.625 12.355V9.82H124.585V15.07H129.325V18.22H124.585V24.61C124.585 24.8 124.585 24.99 124.585 25.18C124.585 25.36 124.585 25.535 124.585 25.705C124.585 26.445 124.675 27.04 124.855 27.49C125.035 27.94 125.46 28.165 126.13 28.165C126.45 28.165 126.75 28.135 127.03 28.075C127.32 28.015 127.535 27.955 127.675 27.895V30.985C127.485 31.055 127.21 31.125 126.85 31.195C126.49 31.265 126.08 31.3 125.62 31.3ZM131.414 24.31V21.505H142.559L142.109 22.255C142.109 22.195 142.109 22.13 142.109 22.06C142.109 21.98 142.109 21.915 142.109 21.865C142.109 21.175 141.954 20.53 141.644 19.93C141.334 19.32 140.864 18.83 140.234 18.46C139.604 18.08 138.804 17.89 137.834 17.89C136.874 17.89 136.039 18.095 135.329 18.505C134.629 18.905 134.084 19.485 133.694 20.245C133.314 21.005 133.124 21.915 133.124 22.975C133.124 24.065 133.309 25.005 133.679 25.795C134.049 26.575 134.589 27.175 135.299 27.595C136.019 28.005 136.894 28.21 137.924 28.21C138.624 28.21 139.229 28.145 139.739 28.015C140.249 27.885 140.664 27.71 140.984 27.49C141.314 27.26 141.559 27.015 141.719 26.755C141.889 26.495 141.989 26.235 142.019 25.975H145.949C145.889 26.645 145.664 27.3 145.274 27.94C144.894 28.57 144.359 29.145 143.669 29.665C142.979 30.175 142.139 30.585 141.149 30.895C140.169 31.195 139.049 31.345 137.789 31.345C136.079 31.345 134.584 30.995 133.304 30.295C132.024 29.595 131.024 28.62 130.304 27.37C129.594 26.12 129.239 24.69 129.239 23.08C129.239 21.43 129.599 19.985 130.319 18.745C131.049 17.505 132.059 16.54 133.349 15.85C134.639 15.15 136.119 14.8 137.789 14.8C139.509 14.8 140.994 15.15 142.244 15.85C143.504 16.55 144.474 17.525 145.154 18.775C145.834 20.015 146.174 21.46 146.174 23.11C146.174 23.32 146.169 23.545 146.159 23.785C146.149 24.025 146.134 24.2 146.114 24.31H131.414ZM155.382 31.33C153.702 31.33 152.217 30.985 150.927 30.295C149.637 29.605 148.627 28.635 147.897 27.385C147.167 26.135 146.802 24.67 146.802 22.99C146.802 21.32 147.167 19.87 147.897 18.64C148.627 17.41 149.637 16.465 150.927 15.805C152.217 15.135 153.702 14.8 155.382 14.8C156.642 14.8 157.757 14.985 158.727 15.355C159.697 15.725 160.512 16.22 161.172 16.84C161.842 17.45 162.352 18.125 162.702 18.865C163.052 19.595 163.227 20.325 163.227 21.055C163.227 21.075 163.227 21.095 163.227 21.115C163.227 21.135 163.227 21.155 163.227 21.175H159.312C159.312 21.125 159.307 21.07 159.297 21.01C159.287 20.95 159.277 20.89 159.267 20.83C159.187 20.32 158.982 19.86 158.652 19.45C158.322 19.03 157.882 18.695 157.332 18.445C156.782 18.195 156.117 18.07 155.337 18.07C154.507 18.07 153.747 18.255 153.057 18.625C152.377 18.985 151.832 19.53 151.422 20.26C151.022 20.99 150.822 21.9 150.822 22.99C150.822 24.07 151.022 24.99 151.422 25.75C151.822 26.5 152.362 27.075 153.042 27.475C153.732 27.865 154.497 28.06 155.337 28.06C156.227 28.06 156.952 27.925 157.512 27.655C158.082 27.375 158.512 27.005 158.802 26.545C159.092 26.075 159.257 25.565 159.297 25.015H163.227C163.227 25.755 163.057 26.5 162.717 27.25C162.377 27.99 161.877 28.67 161.217 29.29C160.557 29.91 159.737 30.405 158.757 30.775C157.787 31.145 156.662 31.33 155.382 31.33ZM175.851 31V25.255C175.851 25.015 175.851 24.715 175.851 24.355C175.851 23.995 175.851 23.63 175.851 23.26C175.851 22.89 175.851 22.585 175.851 22.345C175.851 21.025 175.591 20.015 175.071 19.315C174.561 18.605 173.686 18.25 172.446 18.25C171.616 18.25 170.906 18.415 170.316 18.745C169.736 19.065 169.291 19.515 168.981 20.095C168.671 20.675 168.516 21.345 168.516 22.105L167.076 21.34C167.076 20.07 167.361 18.945 167.931 17.965C168.511 16.975 169.311 16.2 170.331 15.64C171.351 15.08 172.521 14.8 173.841 14.8C175.771 14.8 177.246 15.375 178.266 16.525C179.286 17.665 179.796 19.255 179.796 21.295C179.796 21.815 179.796 22.435 179.796 23.155C179.796 23.865 179.796 24.665 179.796 25.555V31H175.851ZM164.571 31V7.555H168.516V31H164.571Z" fill="white"/>
<defs>
<clipPath id="clip0_3678_293">
<rect width="48.3766" height="40" fill="white"/>
</clipPath>
</defs>
</svg>
