<svg xmlns="http://www.w3.org/2000/svg" viewBox="0 0 335.27493 70.23641"><defs><style>.cls-1{fill:none;}.cls-2{fill:#327dc5;}.cls-3{fill:#5b9dd8;}.cls-4{fill:#2066a6;}.cls-5{fill:#317dc4;}.cls-6{fill:#1a517e;}</style></defs><g id="Capa_2" data-name="Capa 2"><g id="Capa_1-2" data-name="Capa 1"><rect class="cls-1" width="335.27493" height="70.23641"/><path class="cls-2" d="M242.57317,41.306V27.23256a2.83308,2.83308,0,0,1,.31817-.03626c2.40958.00275,4.81944-.01126,7.2286.02335a4.41907,4.41907,0,0,1,2.26771.7239,3.68,3.68,0,0,1,1.37961,3.52225,2.91217,2.91217,0,0,1-1.6076,2.265,3.17383,3.17383,0,0,1,1.88988,1.99253,4.11016,4.11016,0,0,1-3.54935,5.50547c-2.5903.17859-5.19859.09628-7.799.12732C242.66981,41.35654,242.63807,41.33222,242.57317,41.306Zm2.857-2.47666c1.383,0,2.70175.03175,4.0182-.01019a1.72437,1.72437,0,0,0,1.75506-1.67514,1.57356,1.57356,0,0,0-1.47008-1.916c-.784-.06758-1.57389-.07468-2.36153-.09178-.64134-.01393-1.28324-.00284-1.94165-.00284Zm.00415-6.1319c1.3901,0,2.74016.01512,4.08934-.013a1.73914,1.73914,0,0,0,.781-.28188,1.35471,1.35471,0,0,0,.627-1.4038,1.103,1.103,0,0,0-.9768-1.13527c-1.49-.14453-2.988-.20609-4.52054-.30333Z"/><path class="cls-2" d="M150.84493,27.27232c2.47084,0,4.92294-.13952,7.35144.04005,2.33318.17252,3.6758,1.75036,4.23689,3.93563a9.889,9.889,0,0,1-.74824,7.43684,4.99177,4.99177,0,0,1-4.627,2.67435c-2.0578.0314-4.11644.00694-6.21309.00694Zm2.89869,11.56584c.92589,0,1.82216-.00352,2.71839.00085a2.71965,2.71965,0,0,0,2.673-1.69733,7.68567,7.68567,0,0,0,.11116-5.9841,1.859,1.859,0,0,0-1.49191-1.28456c-1.31446-.16567-2.64356-.21522-4.01062-.31644Z"/><path class="cls-2" d="M228.26675,41.36612V27.21705c.124-.00847.22483-.0214.32572-.02136,2.02464.00067,4.04939.01576,6.07392.00164a5.06727,5.06727,0,0,1,5.21689,4.07584,9.975,9.975,0,0,1-.80028,7.48371,4.97454,4.97454,0,0,1-4.56615,2.60254c-1.91855.03093-3.838.0067-5.757.0067Zm2.91643-11.81184v9.28455c.91921,0,1.79814-.00591,2.677.0014a2.73947,2.73947,0,0,0,2.71525-1.71362,7.68629,7.68629,0,0,0,.09946-5.98417,1.85648,1.85648,0,0,0-1.50192-1.27315C233.87276,29.709,232.55926,29.65673,231.18318,29.55428Z"/><path class="cls-2" d="M213.53347,41.34083h-2.84088v-.58905c0-2.00648.00882-4.013-.00316-6.01941a1.56043,1.56043,0,0,0-2.38477-1.53565,1.75612,1.75612,0,0,0-.87555,1.68255c-.005,1.95365-.00033,3.90732.00049,5.861.00008.18884,0,.37767,0,.59584h-2.852v-.56042c0-2.05928.0048-4.11857-.00248-6.17782a1.4346,1.4346,0,0,0-1.13039-1.55678,1.70505,1.70505,0,0,0-1.93114.81581A2.78221,2.78221,0,0,0,201.313,34.872c-.01875,1.95349-.00973,3.90725-.01013,5.86092,0,.19018,0,.38037,0,.60167h-2.78342V30.941h2.64868v1.17657l.09246.09487a3.149,3.149,0,0,1,2.93582-1.59855,2.78038,2.78038,0,0,1,2.83132,1.71842,3.61534,3.61534,0,0,1,2.13618-1.58655,3.29959,3.29959,0,0,1,4.23031,2.24242,4.74129,4.74129,0,0,1,.15545,1.14232c.014,2.30561.007,4.61134.00587,6.917C213.55546,41.13246,213.54309,41.21741,213.53347,41.34083Z"/><path class="cls-2" d="M196.80212,41.3649c-.98338,0-1.89626.00887-2.80846-.012a.44939.44939,0,0,1-.29989-.26551,6.596,6.596,0,0,1-.19371-.84312c-.23846.19771-.43174.358-.6251.51828a4.10637,4.10637,0,0,1-4.62071.39363,3.23871,3.23871,0,0,1,.28862-5.44447,13.13584,13.13584,0,0,1,2.62033-.68014,13.87414,13.87414,0,0,0,1.68566-.35521,1.16064,1.16064,0,0,0,.54417-.73408.74.74,0,0,0-.50066-.88521,2.33309,2.33309,0,0,0-2.08491-.01521A5.50027,5.50027,0,0,0,189.7457,34.26h-2.42541a3.3917,3.3917,0,0,1,3.07164-3.548,7.171,7.171,0,0,1,3.73293.27038,2.70017,2.70017,0,0,1,2.104,2.937c.01073,1.9361.00245,3.87231-.00069,5.80847a1.2076,1.2076,0,0,0,.42421,1.12652C196.75376,40.92744,196.74511,41.15328,196.80212,41.3649Zm-3.42822-4.90932c-.6609.13469-1.29314.24758-1.91669.39681a6.48444,6.48444,0,0,0-1.03807.35129,1.182,1.182,0,0,0-.67961,1.20448,1.15235,1.15235,0,0,0,.76023,1.14567,2.2505,2.2505,0,0,0,2.86513-1.69776A11.78976,11.78976,0,0,0,193.3739,36.45558Z"/><path class="cls-2" d="M220.77985,41.70008c-3.65927.14451-5.24657-2.61755-5.3299-5.22314a6.64658,6.64658,0,0,1,.45794-2.88457c1.03607-2.41308,2.88275-3.2109,5.43978-3.05805a4.82935,4.82935,0,0,1,2.74855.9239,5.27157,5.27157,0,0,1,1.99663,3.63544,6.56073,6.56073,0,0,1-.71732,4.22872A4.72707,4.72707,0,0,1,220.77985,41.70008ZM218.193,36.10164a13.2837,13.2837,0,0,0,.54729,2.01734,2.252,2.252,0,0,0,3.79686.45284,4.33768,4.33768,0,0,0,.3712-4.29845,2.31149,2.31149,0,0,0-4.18567-.10658A16.46984,16.46984,0,0,0,218.193,36.10164Z"/><path class="cls-2" d="M165.19889,45.62025V43.36246c.23128,0,.4379.00651.644-.00111a1.37049,1.37049,0,0,0,1.55116-1.19433,1.31389,1.31389,0,0,0-.04269-.74636q-1.77945-5.1228-3.58608-10.23615c-.02753-.07843-.045-.16039-.0874-.31392.98754,0,1.93181-.01367,2.87452.01836.11023.00375.26245.2443.30992.40092.67729,2.23516,1.33955,4.47489,2.007,6.713.0336.11267.08164.221.15356.41317l2.10626-7.51444h2.95467c-.23126.67291-.44379,1.30833-.66762,1.93975q-1.84346,5.20035-3.694,10.39819c-.08764.246-.22006.4757-.31493.71949a2.17539,2.17539,0,0,1-2.03263,1.55445C166.66213,45.54808,165.94961,45.58339,165.19889,45.62025Z"/><path class="cls-2" d="M175.65807,41.33447V30.93965h2.65073v1.31289c.15758-.185.232-.26186.29459-.34733,1.53305-2.09212,5.10613-1.419,5.93914.05786a4,4,0,0,1,.5687,1.768c.06229,2.51531.02636,5.03305.02636,7.59247h-2.85022V40.778q0-2.90463-.00011-5.80927c-.0003-1.30149-.5011-1.96843-1.53822-2.05064a2.01158,2.01158,0,0,0-2.25115,1.80517,18.62178,18.62178,0,0,0-.10938,2.25995c-.01562,1.43984-.00453,2.88-.00453,4.35124Z"/><path class="cls-3" d="M113.05673,63.07915h.68l11.09925-5.5503.18473-.26109V12.96536l-.18473-.26245L113.73671,7.15726h-.68831l.00833,55.92189"/><path class="cls-4" d="M98.61265,63.07915h-.68948l-11.08975-5.5503-.225-.38709L86.49421,13.191l.33921-.48807L97.92317,7.15726h.698l-.00853,55.92189"/><path class="cls-5" d="M97.94275,7.15726h15.7833V63.07915H97.94275Z"/><path class="cls-6" d="M130.6458,33.86186l-.37507-.08316-5.3553-.49932-.07948.03954-11.10913-.44427H97.94275l-11.10933.44427V24.84751l-.01163.0062.01163-.02481,11.10933-2.57414h15.78407L124.836,24.8289l4.08393,2.17077V25.60405l1.72592-.18879-.17872-.34852-5.46462-3.90754-.16651.05408L113.72682,17.771H97.94275L86.83343,21.21328V12.70291l-5.80966,6.80616v5.94418l.045-.03257,1.68095.18337v1.42431l-1.72592.92363v5.91452l.045-.00465,1.68095.02481v2.48246l-1.45028.02171-.27564-.02637v5.91685l1.72592.92808v1.44079l-1.65362.18259-.0723-.05427v5.9432l5.80966,6.80714v-8.5096l11.10932,3.44233h15.78407l11.14189-3.45241.14809.06494,5.39272-3.85.23628-.3836-1.72592-.19034v-1.4119l-.2262-.09033-3.69122,1.98972-.13375.27913L113.72682,47.976v.0031H97.94275V47.976L86.83342,45.406V36.90353l11.10933.44272v.01085h15.78407l11.10913-.45357.25295.1163,5.19074-.447.36616-.17892-1.72592-.02481V33.88666l1.72592-.02481"/><path class="cls-5" d="M124.836,49.01926v8.50959l5.80985-6.80713V44.81728l-5.77631,4.1919-.03354.01008m0-3.59469.03354-.00776L130.6458,42.31V36.36913l-5.80985.53441v8.521m.03354-20.58791-.03354-.00776v8.49l5.80985.54294v-5.938l-5.77631-3.08723m0-3.59,5.77631,4.16864V19.51062L124.836,12.70291v8.51037l.03354.01163v.02171"/></g></g></svg>