<svg xmlns="http://www.w3.org/2000/svg" viewBox="0 0 335.27493 70.23641"><defs><style>.cls-1{fill:none;}.cls-2{fill:#599636;}.cls-3{fill:#6cac48;}.cls-4{fill:#c2bfbf;}.cls-5{fill:#47474a;}</style></defs><g id="Capa_2" data-name="Capa 2"><g id="Capa_1-2" data-name="Capa 1"><rect class="cls-1" width="335.27493" height="70.23641"/><path class="cls-2" d="M96.44824,2.11258l1.76944,3.32786a9.98386,9.98386,0,0,0,1.33764,1.6623,46.14777,46.14777,0,0,1,4.15576,4.69958A40.844,40.844,0,0,1,110.18173,24.854a32.11993,32.11993,0,0,1,1.37335,8.857,31.19354,31.19354,0,0,1-9.14592,23.06448,26.4606,26.4606,0,0,1-3.25318,2.784c-.61687,0-.9042-.487-1.15745-.9042a7.22443,7.22443,0,0,1-.9042-2.60222,12.47913,12.47913,0,0,1-.28895-3.29052v-.50648c-.03572-.10877-.57792-49.88863-.362-50.14187Z"/><path class="cls-3" d="M96.44824,2.00544c-.073-.1461-.14611-.03571-.21753.03571a3.3144,3.3144,0,0,1-.61687,1.9886A9.39617,9.39617,0,0,1,94.023,5.62063a34.61077,34.61077,0,0,0-7.77258,9.90565A40.15763,40.15763,0,0,0,81.77,31.72239a53.75944,53.75944,0,0,0,1.30192,11.42348A34.45324,34.45324,0,0,0,92.1626,57.4248a39.5237,39.5237,0,0,0,3.21747,2.74671c.32467,0,.362-.289.43344-.50649a9.91855,9.91855,0,0,0,.32467-1.41068c.32466-1.80679.50648-3.61519.72239-5.422L96.46284,2.00544Z"/><path class="cls-4" d="M98.22255,61.764a5.14047,5.14047,0,0,1,.9042-2.2045,2.29493,2.29493,0,0,1-1.013-.94154,7.69244,7.69244,0,0,1-.5422-1.19316,20.46591,20.46591,0,0,1-.75973-4.66387v-.94155a4.55531,4.55531,0,0,0-.21753,1.55517,36.15908,36.15908,0,0,1-.64933,4.87977,4.37166,4.37166,0,0,1-.57791,1.87984.70917.70917,0,0,0,.03571.25324,21.67651,21.67651,0,0,1,.94154,5.857v.72238c0,.86687-.03571.68668.68668.974a3.17629,3.17629,0,0,1,.9042.362c.21753,0,.25324-.17856.25324-.32467L98.0797,66.785V63.45714a8.72515,8.72515,0,0,1,.1461-1.69964Z"/><path class="cls-5" d="M125.67452,46.64475v3.44291a2.40239,2.40239,0,0,0,.0232.40777.87144.87144,0,0,0,.66306.77081,8.23972,8.23972,0,0,0,1.04431.20389c.20389.0232.27186.11272.29506.33153.02321.7708-.04475.862-.79235.81555a44.81068,44.81068,0,0,0-5.23316,0h-.16576c-.5437.02321-.58846-.0232-.58846-.56691,0-.09117.02321-.20389.02321-.29506a.24.24,0,0,1,.27185-.24865c.36468-.04475.70284-.13592,1.04432-.20389a.94069.94069,0,0,0,.79235-.88352,12.68461,12.68461,0,0,0,.0663-1.58636l.02321-6.07026a.92826.92826,0,0,0-.49729-.862,6.4486,6.4486,0,0,0-1.29295-.54371,1.783,1.783,0,0,1-.38457-.13592c-.33153-.15914-.33982-.45254-.02321-.63488a1.15542,1.15542,0,0,1,.38457-.13593,20.58715,20.58715,0,0,0,4.03137-1.01944c.27185-.09117.33982-.06631.36468.20389a1.94122,1.94122,0,0,1-.02321.52049,5.705,5.705,0,0,0-.04475.862.31311.31311,0,0,0,.13593.29506c.11272.068.22709,0,.33152-.0663a12.32165,12.32165,0,0,1,1.472-.99459,6.95552,6.95552,0,0,1,2.40357-.88352,3.35713,3.35713,0,0,1,2.74173.81556,5.13889,5.13889,0,0,1,.86031.99624c.2271.33153.24865.33982.54371.11272a13.36157,13.36157,0,0,1,2.74173-1.6079,4.20628,4.20628,0,0,1,3.10309-.13593A3.72359,3.72359,0,0,1,142.21112,41.7a6.10983,6.10983,0,0,1,.52049,2.53618v6.07026a.87222.87222,0,0,0,.56691.862,8.44831,8.44831,0,0,0,1.35926.33981c.29507.06631.29507.06631.29507.36469-.04476.74593-.11273.79235-.83877.74593a48.77021,48.77021,0,0,0-5.45859,0c-.36469.02321-.36469.02321-.38457-.33981v-.11273c-.02321-.61332-.02321-.61332.56691-.74593l.58846-.15914a.91168.91168,0,0,0,.70283-.88352l.06631-1.69908-.04476-4.43915a3.53087,3.53087,0,0,0-.24864-1.15537,2.77779,2.77779,0,0,0-3.01359-1.74384,5.12024,5.12024,0,0,0-2.44667.97469.48764.48764,0,0,0-.24865.47574,35.28933,35.28933,0,0,1,.09117,4.34964v3.14951a.872.872,0,0,0,.7708.9747l1.04431.22709c.15914.02321.24865.09118.24865.27186v.16576c-.0232.63487-.0663.66306-.70283.65642-1.8118-.09117-3.62526-.0663-5.41384,0-.61333.02321-.66306-.04475-.63488-.66305.02321-.36468.06631-.38457.40778-.45254l.74594-.13592a.987.987,0,0,0,.95148-1.08741l.06631-1.51839-.04476-4.55353a3.64538,3.64538,0,0,0-.47574-1.63112,2.38506,2.38506,0,0,0-2.13006-1.3145,4.78246,4.78246,0,0,0-2.65221.74594,1.33458,1.33458,0,0,0-.77081,1.38246v3.307Zm42.67915.13758V49.9766q.00546.34072.04476.67963a.69621.69621,0,0,0,.5437.63488,5.28812,5.28812,0,0,0,1.20013.20389c.2271.0232.27186.11272.29507.29506v.15913c-.02321.79235-.11272.88352-.88352.83877a43.65536,43.65536,0,0,0-5.1652,0l-.663.0232c-.13593,0-.16576-.0663-.20389-.15913a2.30411,2.30411,0,0,1,0-.95149c.0232-.13592.11272-.16576.24864-.20389.33153-.04475.61333-.11272.92828-.16576a.85489.85489,0,0,0,.79235-.95148l.06631-1.903v-5.573a.84247.84247,0,0,0-.5205-.83876,8.14571,8.14571,0,0,0-1.293-.54371,1.909,1.909,0,0,1-.38457-.15913.41074.41074,0,0,1-.04476-.72439.81225.81225,0,0,1,.45254-.18234,19.22814,19.22814,0,0,0,4.21371-1.08741c.15913-.06631.2271-.02321.29506.11272a.752.752,0,0,1,.06631.45254l-.06631,1.0642c0,.13593-.06631.33153.04476.38457.13592.09117.22709-.11272.33981-.16576a10.0948,10.0948,0,0,1,2.198-1.404,4.5412,4.5412,0,0,1,2.24278-.49729,3.80867,3.80867,0,0,1,3.307,2.198,5.94964,5.94964,0,0,1,.58847,2.266l.0663,1.65763.02321,5.00606a.75841.75841,0,0,0,.54371.7708,7.4087,7.4087,0,0,0,1.22333.29506c.36468.04476.38458.11272.40779.45254v.11272c-.04476.7708-.09118.79235-.862.74593a47.39542,47.39542,0,0,0-5.074,0c-.2271.02321-.45254,0-.66306.02321-.13592,0-.22709-.02321-.24864-.15913a2.44147,2.44147,0,0,1-.02321-.90673.24968.24968,0,0,1,.24865-.2271l1.0443-.16576a.75905.75905,0,0,0,.61333-.66306l.04476-.63487-.02321-4.73421a7.9707,7.9707,0,0,0-.13592-1.63111,2.64274,2.64274,0,0,0-2.35384-2.1052,4.25431,4.25431,0,0,0-2.85445.72439,1.24989,1.24989,0,0,0-.61333,1.13216V46.8934c0-.0663,0-.0663.02321-.0663Z"/><path class="cls-4" d="M234.70222,40.37059A8.8399,8.8399,0,0,0,232.776,35.953a8.73565,8.73565,0,0,0-3.48933-2.58259,12.579,12.579,0,0,0-4.48556-.81556c-.63488-.02321-9.28774.11272-9.92262,0a.33847.33847,0,0,0-.36468.15913,2.58655,2.58655,0,0,0-.29506.5205c-.27185.61333-.27185.56691.38458.65642a12.2789,12.2789,0,0,1,1.58636.29506,1.246,1.246,0,0,1,.92827.95148c.04475.24865.09117,8.22188.09117,11.9383L217.118,49.728a2.485,2.485,0,0,1-.11272.58846.94878.94878,0,0,1-.52051.61332,2.68528,2.68528,0,0,1-.95147.24865c-.61333.06631-.70285.09117-.90673.7708l-.0663.24865c-.04476.29506-.02321.33982.27185.33982l6.7731.0663,2.65222-.04475,1.835-.2271a11.41369,11.41369,0,0,0,5.52656-2.62735,9.2,9.2,0,0,0,2.17481-2.85445,10.05868,10.05868,0,0,0,.97469-4.05458,8.05449,8.05449,0,0,0-.06631-2.42346Zm-3.28544,3.21582a9.07051,9.07051,0,0,1-1.13216,4.12254,6.27125,6.27125,0,0,1-4.19051,3.21581,7.428,7.428,0,0,1-2.48645.13593,7.52855,7.52855,0,0,1-1.76705-.33982,1.89723,1.89723,0,0,1-1.404-1.98916l-.02321-13.65893c0-.81555.36468-.99458.95148-1.01944a15.3289,15.3289,0,0,1,2.67376.04475,10.04551,10.04551,0,0,1,2.74173.66306,6.59731,6.59731,0,0,1,1.79025,1.11061,7.89838,7.89838,0,0,1,2.48646,3.89545,11.24825,11.24825,0,0,1,.36468,3.78273Zm22.11286,2.22123a2.13989,2.13989,0,0,0-.02321-.38457,4.34332,4.34332,0,0,0-1.87976-2.92241,7.07808,7.07808,0,0,0-2.17481-1.01945,2.40847,2.40847,0,0,0-.38458-.11272.194.194,0,0,1,.15914-.15913,5.78417,5.78417,0,0,0,1.26809-.81556,4.25681,4.25681,0,0,0,1.404-2.198,4.293,4.293,0,0,0-1.56315-4.39605,6.00858,6.00858,0,0,0-3.53408-1.11061c-2.44667-.04476-4.91489,0-7.35991,0a13.7464,13.7464,0,0,1-2.13007-.06631c-.13593-.02321-.33152-.06631-.431.09117a3.22218,3.22218,0,0,0-.431.92828c-.02321.15913.02321.24864.20389.27185l1.56315.22709a1.12215,1.12215,0,0,1,1.08741.97469,9.58122,9.58122,0,0,1,.06631,1.13217l-.04476,4.23526-.02321,8.381a7.93415,7.93415,0,0,1-.15913,1.472.82881.82881,0,0,1-.58847.67963,4.67243,4.67243,0,0,1-1.35926.27186.56361.56361,0,0,0-.58847.38457,2.94338,2.94338,0,0,0-.20389.63487c-.04475.27185.02321.36468.29507.33153.20389-.02321,7.67983.15913,9.08385.0232a13.74488,13.74488,0,0,0,2.49142-.45253A8.55816,8.55816,0,0,0,252.056,49.9882,4.87316,4.87316,0,0,0,253.46,46.726a4.07392,4.07392,0,0,0,.06631-.90673Zm-10.98681-9.28276.06631-1.8118a.502.502,0,0,1,.47574-.56691,6.63759,6.63759,0,0,1,1.63112-.04476,7.88038,7.88038,0,0,1,1.60791.27186,3.38524,3.38524,0,0,1,2.22122,1.81179,3.249,3.249,0,0,1,.31662,1.38247,4.35629,4.35629,0,0,1-.27186,1.85655,2.49471,2.49471,0,0,1-1.87976,1.54161,32.16456,32.16456,0,0,1-3.78272.09117c-.33982,0-.36469-.04476-.36469-.38457V38.53891a14.57157,14.57157,0,0,1-.0232-1.99414Zm7.35991,12.18694a3.47508,3.47508,0,0,1-2.08364,2.1052,3.9613,3.9613,0,0,1-1.65764.29506,13.1962,13.1962,0,0,1-2.10519-.13593,1.97074,1.97074,0,0,1-1.45043-1.767c-.11272-1.15537-.04476-2.334-.06631-3.19427V43.02446c0-.36468.04476-.47574.431-.47574l2.13007.02321,1.45043.16576a4.90375,4.90375,0,0,1,2.67376,1.404,3.67283,3.67283,0,0,1,.97469,2.24278,5.02385,5.02385,0,0,1-.27186,2.31075Z"/><path class="cls-5" d="M192.34464,41.88733l.58846.09117a1.46073,1.46073,0,0,0,1.60791-1.08741,2.28759,2.28759,0,0,0,0-1.29295c-.13592,0-.20389.11272-.27185.15913a2.17657,2.17657,0,0,1-1.13216.47574,5.21147,5.21147,0,0,1-2.42346-.24864l-1.11062-.38457a6.5476,6.5476,0,0,0-2.40357-.315,8.33,8.33,0,0,0-3.26223,1.01945,4.42694,4.42694,0,0,0-2.22122,2.67377,5.29073,5.29073,0,0,0-.13593,2.15161,4.01462,4.01462,0,0,0,2.62735,3.42136c.09117.0232.15913.0663.24865.09117.20389.11272.2271.2271.04476.38457l-.56692.38457-1.35926.83876a.50675.50675,0,0,0-.27186.72439,2.37044,2.37044,0,0,0,.72438,1.0874,3.77947,3.77947,0,0,0,1.04265.63488c.24865.11272.24865.16576.02321.36468L182.8,53.98973a7.7451,7.7451,0,0,0-1.22334,1.0874,2.23783,2.23783,0,0,0-.54371,2.0389,3.82923,3.82923,0,0,0,1.17692,2.03889,4.80709,4.80709,0,0,0,2.08366,1.13216,8.88757,8.88757,0,0,0,8.63131-2.42346,4.93818,4.93818,0,0,0,1.45043-3.31527,3.18266,3.18266,0,0,0-2.44666-3.307l-1.22334-.2271-3.738-.33153a2.50571,2.50571,0,0,1-1.15537-.29506.77565.77565,0,0,1-.27186-1.13217,1.07651,1.07651,0,0,1,.7708-.431l.72438-.0663a6.56431,6.56431,0,0,0,3.82748-1.74384,4.01156,4.01156,0,0,0,1.15537-1.92617,6.03966,6.03966,0,0,0,.04475-2.98375c-.0663-.24864-.04475-.27185.27186-.22709Zm-5.55308,11.28353a2.39247,2.39247,0,0,0,.40778,0,13.27913,13.27913,0,0,1,2.85445.36469,5.935,5.935,0,0,1,.88352.33981,2.16968,2.16968,0,0,1,1.13216,2.28754,2.86263,2.86263,0,0,1-1.58636,2.22124,4.848,4.848,0,0,1-1.92618.5437c-.24864.02321-.47574,0-.72438,0a5.37888,5.37888,0,0,1-2.31074-.38457,3.57306,3.57306,0,0,1-1.33605-.90673,2.33713,2.33713,0,0,1,.0232-3.42136A3.32746,3.32746,0,0,1,186.79156,53.17086Zm2.58259-7.06816a2.21283,2.21283,0,0,1-2.55938,1.404,2.71237,2.71237,0,0,1-2.1052-1.51839,4.8787,4.8787,0,0,1-.40778-3.602,2.21733,2.21733,0,0,1,1.8118-1.79025,2.77439,2.77439,0,0,1,3.12631,1.49519,4.94706,4.94706,0,0,1,.47574,2.42347,5.13212,5.13212,0,0,1-.33982,1.58636ZM160.833,44.5611a6.26277,6.26277,0,0,0-1.49519-3.26223,5.98257,5.98257,0,0,0-4.62149-1.99413,7.969,7.969,0,0,0-4.34964,1.24654,5.90117,5.90117,0,0,0-2.65056,3.46612,7.8846,7.8846,0,0,0-.0663,3.98661c.79235,3.58049,3.55728,5.11878,6.86261,4.89334a7.534,7.534,0,0,0,2.78483-.81556,6.11179,6.11179,0,0,0,2.92241-2.87765,7.44242,7.44242,0,0,0,.72439-3.48933l-.11272-1.15537Zm-3.2158,5.02927a2.75169,2.75169,0,0,1-2.334,1.903,3.789,3.789,0,0,1-2.76328-.70283,4.70769,4.70769,0,0,1-1.42722-1.69908,8.685,8.685,0,0,1-.61333-5.93434,3.39816,3.39816,0,0,1,.95149-1.65432,3.08938,3.08938,0,0,1,2.90086-.72439,4.12414,4.12414,0,0,1,2.48646,1.65432,6.49715,6.49715,0,0,1,1.13216,2.90087,11.93046,11.93046,0,0,1,.11272,1.404,7.57983,7.57983,0,0,1-.431,2.85445ZM210.33,44.74344a6.13448,6.13448,0,0,0-1.58636-3.51087,6.04939,6.04939,0,0,0-4.57508-1.92618,8.07107,8.07107,0,0,0-4.21371,1.15538,5.76792,5.76792,0,0,0-2.83124,3.738,7.9069,7.9069,0,0,0,.54371,5.39063,5.49813,5.49813,0,0,0,3.69321,3.05834,7.425,7.425,0,0,0,5.34587-.56691,6.209,6.209,0,0,0,3.17106-3.39815,8.367,8.367,0,0,0,.5205-3.01359,5.17777,5.17777,0,0,0-.0663-.92828ZM207.2037,49.297a2.8217,2.8217,0,0,1-2.42346,2.198,3.76606,3.76606,0,0,1-2.67377-.63488,4.60551,4.60551,0,0,1-1.56315-1.85655,6.97362,6.97362,0,0,1-.72438-2.49142,8.80548,8.80548,0,0,1,.11272-3.17106,3.23342,3.23342,0,0,1,.20389-.61167,3.05409,3.05409,0,0,1,3.69321-1.94772,4.1233,4.1233,0,0,1,2.58259,1.79025,6.67128,6.67128,0,0,1,1.04431,2.98374,6.076,6.076,0,0,1,.06631,1.26809,7.70861,7.70861,0,0,1-.33153,2.49143Z"/></g></g></svg>