<svg xmlns="http://www.w3.org/2000/svg" viewBox="0 0 335.27493 70.23641"><defs><style>.cls-1{fill:none;}.cls-2{fill:#00678c;}.cls-2,.cls-3{fill-rule:evenodd;}.cls-3{fill:#ce8b2c;}</style></defs><g id="Capa_2" data-name="Capa 2"><g id="Capa_1-2" data-name="Capa 1"><rect class="cls-1" width="335.27493" height="70.23641"/><path class="cls-2" d="M101.82045,39.24342a8.229,8.229,0,0,0-3.43628.49847c-.26515.10606-.68938.10606-.7212.44545.13788.13787.15909.3712.28636.5621a4.13638,4.13638,0,0,0,.9227,1.0818l1.13482.81664c.68938.42423,1.4636.66817,2.14237,1.0924a7.36192,7.36192,0,0,1,1.06058.82725c.19091.13788.31818.37121.56211.45605v-.053c-.12727-.15909-.15909-.39241-.28635-.56211l-.53029-.50908a8.37877,8.37877,0,0,0-1.83481-1.78177c-.56211-.39241-1.803-.9227-2.03631-1.56966l-.03182-.03182a6.79945,6.79945,0,0,0,1.21967-.28635c.60453-.15909,1.14542-.12727,1.77117-.28636l.84846-.24393v-.15909c-.31817-.31818-.5515-.74241-.88028-1.03937a23.67363,23.67363,0,0,0-2.9166-2.17419c-.5515-.35-1.25148-.58332-1.8348-.88028-.21212-.10606-.56211-.15909-.68938-.33939a6.92157,6.92157,0,0,1-.7212-1.35754l-1.453-3.07568a18.182,18.182,0,0,0-.9015-2.01511,17.81771,17.81771,0,0,0-6.84074-6.618,8.42461,8.42461,0,0,0-2.259-.7212l-1.32573-.07424a7.82977,7.82977,0,0,1-.81664-.61513c-1.00755-.63635-3.606-2.01511-4.24232-.19091-.47727,1.14543.71058,2.28025,1.11361,2.86357a8.58828,8.58828,0,0,1,.90149,1.32573c.12727.297.15909.61513.28636.93331l.9227,2.36509a8.48589,8.48589,0,0,0,.65756,1.0924c.13788.1909.39242.28636.44545.60453a4.971,4.971,0,0,0-.403,1.32573,7.787,7.787,0,0,0,.50908,5.93925c.28636.44544,1.06058,1.41057,1.856,1.03937.79543-.31818.61514-1.32573.84846-2.206.053-.21212.02122-.35.12727-.49847v.03181l.7212,1.46361A9.95615,9.95615,0,0,0,88.298,39.08433c.42423.31818.76362.86968,1.29391,1.06058v-.053h-.07424a1.80519,1.80519,0,0,0-.403-.35,8.59094,8.59094,0,0,1-.92271-1.06058,22.80375,22.80375,0,0,1-1.98328-3.21356c-.28636-.5515-.53029-1.14543-.76362-1.69693-.10606-.21211-.10606-.53029-.28636-.63635a6.57629,6.57629,0,0,0-.84846,1.19846,9.98326,9.98326,0,0,0-.49847,2.67266c-.63635-.10606-.82726-.68938-1.03937-1.18785a7.67638,7.67638,0,0,1-.15909-4.71958c.12727-.3712.65756-1.53784.44544-1.88783-.106-.33939-.456-.53029-.65756-.79544a7.04012,7.04012,0,0,1-.63634-1.13482,24.84715,24.84715,0,0,0-1.0818-3.08629,8.96345,8.96345,0,0,0-.89088-1.34693,10.6694,10.6694,0,0,1-.96513-1.37876c-.09545-.21212-.21212-.53029-.07424-.74241a.29349.29349,0,0,1,.24393-.23332c.23333-.19091.88028.053,1.11361.15908a9.00614,9.00614,0,0,1,1.75.88028,3.13693,3.13693,0,0,0,.82725.60454h.3712c.56211.12727,1.19846.03181,1.72875.1909a11.29568,11.29568,0,0,1,2.54539,1.21967,15.69659,15.69659,0,0,1,5.515,6.04531c.21212.403.297.77422.49847,1.19845L94.54486,33.389a11.67329,11.67329,0,0,0,1.25148,2.36509c.26515.37121,1.32573.56211,1.803.76362a11.2883,11.2883,0,0,1,1.21967.49847l1.77117,1.19846c.28636.21211,1.06058.65756,1.21967,1.00755Z"/><path class="cls-2" d="M83.79058,23.87561a2.80288,2.80288,0,0,0-.7212.08484v.03182h.03182a5.45409,5.45409,0,0,0,.56211.7212l.403.84846.03181-.03182a1.00322,1.00322,0,0,0,.37121-.88028,3.31088,3.31088,0,0,1-.21212-.3712c-.10606-.1803-.33938-.26514-.47726-.403Z"/><path class="cls-3" d="M177.58832,43.84634h15.20873a11.58448,11.58448,0,0,0,4.85746-1.00755c2.30146-1.06058,3.39385-2.47116,3.39385-4.32717V34.62989c0-1.48481-1.25148-2.91659-3.75445-3.88172a13.25716,13.25716,0,0,0-4.48626-.76362h-6.3847c-2.14237,0-3.14992-.63635-3.43628-2.05752a1.85924,1.85924,0,0,1-.04242-.48787V25.05285a1.7033,1.7033,0,0,1,.04242-.44544c.28636-1.0924.84846-1.37876,2.71508-1.59087h15.56933V19.49541H186.45477a13.78352,13.78352,0,0,0-4.28475.44544c-3.1181.95453-4.48626,2.503-4.48626,5.21806v3.07568c0,2.38631,2.67266,4.412,7.212,4.87867.48787.04243,1.00756.04243,1.53785.04243h5.462a2.287,2.287,0,0,1,.56212.04242c1.6545.15909,2.38631.44544,2.86357,1.06058a1.238,1.238,0,0,1,.403.97573v3.07569a1.77457,1.77457,0,0,1-.7424,1.25148,3.88523,3.88523,0,0,1-2.26964.74241c-.21212,0-.31817.04242-.53029.04242h-14.5936Zm56.36986-6.10894q0,5.409,8.13465,6.02409l1.53785.08485H257.3758V40.34642H243.514c-3.18175,0-4.24232-.76361-4.24232-2.63023V19.506h-5.3029V37.748Zm-29.55838.15908V25.371c0-3.18174,2.259-5.13321,6.68166-5.72714l1.41057-.08484h10.0331c.53029,0,.97573.04242,1.48481.08484,4.412.60453,6.62863,2.5454,6.62863,5.72714V37.90709c0,2.58782-.93331,3.96657-3.1181,4.87867l5.17563,4.68777h-6.10895l-4.2105-3.79688-4.24232.24393h-5.66351a13.10678,13.10678,0,0,1-3.18174-.403c-3.35143-.93331-5.01654-2.71509-5.01654-5.62108Zm5.70592-.27575a3.41419,3.41419,0,0,0,.12727.53029c.28637,1.453,1.65451,2.259,3.75446,2.259h4.77261l-4.36959-3.96657h6.10895l3.83929,3.4787a2.52277,2.52277,0,0,0,1.33634-1.69693,2.19505,2.19505,0,0,0,.04242-.53029V25.71041a1.94038,1.94038,0,0,0-.04242-.48786c-.28636-1.37876-1.65451-2.14238-3.712-2.14238h-7.95435c-2.33328,0-3.88173,1.00755-3.88173,2.63024Z"/><path class="cls-2" d="M107.38849,43.86755H112.649V23.03775l8.2089,18.15714c.93331,2.1848,2.26964,2.99084,4.85746,2.99084s3.8393-.806,4.815-2.99084l8.16648-18.15714v20.8298h5.3029V23.03775a3.19057,3.19057,0,0,0-2.503-3.52113c-3.99839-1.20906-6.68166-.15908-7.89072,2.5454l-8.06041,17.95563L117.78219,22.062c-1.16664-2.70448-3.88173-3.75446-7.92254-2.5454a3.19042,3.19042,0,0,0-2.47115,3.52113Zm40.97023-16.94808h5.3029V38.37374c-.04243.63635.21212,2.09995,3.18174,2.14238h11.36943V26.83463h5.30291V45.55387c0,4.61353-5.70593,5.62108-8.37859,5.6635H148.486V47.69625h16.70415c3.39385-.3606,2.99083-2.05753,2.99083-2.63024V43.68725H156.97063c-5.21805-.04242-8.56949-2.33328-8.61191-4.98473Z"/></g></g></svg>