<svg xmlns="http://www.w3.org/2000/svg" viewBox="0 0 335.27492 70.23641"><defs><style>.cls-1,.cls-3{fill:#231f20;}.cls-2{fill:#367fae;}.cls-3{stroke:#231f20;stroke-width:4.108px;}.cls-4{fill:#417ba1;}.cls-10,.cls-5,.cls-6,.cls-7{fill:none;}.cls-5,.cls-6,.cls-7,.cls-8,.cls-9{stroke:#fff;}.cls-5,.cls-6{stroke-linecap:round;}.cls-5,.cls-7{stroke-linejoin:round;}.cls-5,.cls-6,.cls-7{stroke-width:1.369px;}.cls-6{stroke-linejoin:bevel;}.cls-8,.cls-9{fill:#fff;}.cls-8{stroke-width:0.456px;}.cls-9{stroke-width:0.228px;}</style></defs><g id="Capa_2" data-name="Capa 2"><g id="Contenido"><path class="cls-1" d="M110.54289,34.96491h-8.81843V26.09632h9.2972q5.10456,0,5.10457,4.50345,0,4.3659-5.58333,4.36666m6.338-8.97346a7.35207,7.35207,0,0,0-5.07189-1.62325l-12.6288.06992V45.65737h2.5443l-.02279-9.03274h9.39749a8.67827,8.67827,0,0,0,5.5651-1.62324,5.44673,5.44673,0,0,0,2.03058-4.50421,5.73728,5.73728,0,0,0-1.81248-4.50421ZM133.35044,41.2018a4.3469,4.3469,0,0,1-1.20756,1.80488q-1.70988,1.66884-5.21779,1.66808a6.72493,6.72493,0,0,1-4.86367-1.62173,5.73927,5.73927,0,0,1-1.697-4.34158,6.6638,6.6638,0,0,1,.4438-2.51314,4.91884,4.91884,0,0,1,1.28736-1.85124,6.90392,6.90392,0,0,1,4.83022-1.59969q6.81217,0,6.81294,5.96407a7.51993,7.51993,0,0,1-.38,2.49035m.46129-7.82746c-1.55029-1.4135-3.84533-2.12785-6.88664-2.12785a9.4659,9.4659,0,0,0-6.65867,2.16585,6.85992,6.85992,0,0,0-2.12785,5.29075,6.93321,6.93321,0,0,0,2.18865,5.33484,7.31571,7.31571,0,0,0,2.81636,1.58525,12.9969,12.9969,0,0,0,3.7739.49016c3.0246,0,5.31964-.69915,6.90945-2.09745a6.78865,6.78865,0,0,0,2.12786-5.31355,6.79062,6.79062,0,0,0-2.14306-5.33636Zm19.24036,8.44074q0,4.28382-7.67548,4.28382a22.07664,22.07664,0,0,1-3.95172-.29789,6.77257,6.77257,0,0,1-2.60814-.98642,3.81485,3.81485,0,0,1-1.23036-1.3679,5.7358,5.7358,0,0,1-.59276-2.12785l2.38092-.0228a2.73421,2.73421,0,0,0,1.25011,2.48351q1.34169.95753,4.752.95753,5.36446,0,5.36523-2.68869a2.22511,2.22511,0,0,0-1.79955-2.16585q-.36478-.114-4.3317-.6034a27.5199,27.5199,0,0,1-4.95334-.87774,3.04107,3.04107,0,0,1-2.118-3.03067,3.41271,3.41271,0,0,1,1.89986-3.19026,9.37867,9.37867,0,0,1,2.3376-.67255,19.43536,19.43536,0,0,1,3.24954-.23939q7.389,0,7.389,4.63568H150.159c0-2.17345-1.73268-3.26777-5.19425-3.26777a9.14849,9.14849,0,0,0-3.94108.66116,2.14359,2.14359,0,0,0-1.298,2.02906q0,1.27671,1.754,1.84667a35.89321,35.89321,0,0,0,4.71623.684,16.65237,16.65237,0,0,1,4.53385.83594,3.18435,3.18435,0,0,1,2.34671,3.09831Zm9.35191,3.87041-.96893.13679-.60415.0456a6.34294,6.34294,0,0,1-3.35365-.67408,2.58612,2.58612,0,0,1-1.0282-2.35583V33.14484H153.641V31.72069H156.443l.02279-4.57488h2.17042v4.57488h3.78v1.44694l-3.78-.0228v9.42108a1.64505,1.64505,0,0,0,.55856,1.4439,3.67807,3.67807,0,0,0,1.99409.39973,1.7372,1.7372,0,0,0,.456-.0152q.38009-.06771.75235-.17175l.0228,1.4439Zm15.01277-3.21458a6.45779,6.45779,0,0,1-2.02679,1.11713,8.08518,8.08518,0,0,1-2.61877.38q-6.8099,0-6.80914-5.62361a5.08993,5.08993,0,0,1,1.74256-4.09916,7.3567,7.3567,0,0,1,4.90774-1.48038,6.997,6.997,0,0,1,4.83934,1.49178,5.12281,5.12281,0,0,1,1.65137,3.99732,5.30884,5.30884,0,0,1-1.68557,4.21239m3.85673-10.74186h-2.17041l-.0228,2.39383a14.48159,14.48159,0,0,0-2.05185-1.84439,9.73974,9.73974,0,0,0-4.717-1.00161q-4.23822,0-6.47172,1.93635a6.33815,6.33815,0,0,0-2.11873,5.14788,7.71418,7.71418,0,0,0,.53577,2.9638,5.98513,5.98513,0,0,0,1.56322,2.22057,9.59928,9.59928,0,0,0,6.32275,1.868q4.90623,0,6.96113-2.68414v2.47743a4.60406,4.60406,0,0,1-1.49254,3.669c-.99478.86634-2.6317,1.29191-4.91079,1.29191a8.90383,8.90383,0,0,1-4.5802-.88458,3.66829,3.66829,0,0,1-1.4135-2.35964h-2.23425a4.68384,4.68384,0,0,0,1.97587,3.39165c1.24631.804,3.34376,1.206,6.30757,1.206q8.50382,0,8.51141-6.32276V31.73057Zm11.74119,1.40818a11.31883,11.31883,0,0,0-1.82083-.152q-5.35194,0-5.35154,5.86908v6.80457H183.7038l-.0228-13.92376,2.17117.02128v2.485h.114a4.35368,4.35368,0,0,1,1.73116-2.22665,8.05516,8.05516,0,0,1,3.87117-.73411h1.45682v1.86947Zm2.01918,4.67976a6.2157,6.2157,0,0,1,1.84439-3.67511,6.47878,6.47878,0,0,1,2.11873-1.13,8.7553,8.7553,0,0,1,2.6659-.37693,6.98026,6.98026,0,0,1,4.72687,1.58677,4.65067,4.65067,0,0,1,1.833,3.59455H195.043m13.40015-4.29522a6.959,6.959,0,0,0-2.827-1.69165,12.74538,12.74538,0,0,0-3.95173-.54868,9.86873,9.86873,0,0,0-6.54466,1.96067,6.60783,6.60783,0,0,0-2.32544,5.33635,6.812,6.812,0,0,0,2.23425,5.35763,9.78423,9.78423,0,0,0,6.81521,2.18865A12.61313,12.61313,0,0,0,205.091,45.722a8.95857,8.95857,0,0,0,2.60966-1.12472,6.0784,6.0784,0,0,0,2.485-3.473H207.839q-1.20831,3.57138-6.01423,3.57176a7.24358,7.24358,0,0,1-5.217-1.74636,5.11128,5.11128,0,0,1-1.57157-3.87878H210.511a7.32094,7.32094,0,0,0-2.07465-5.54761Z"/><path class="cls-2" d="M233.45074,39.96765q0,6.20116-10.00243,6.20117-5.99257,0-8.74928-2.12785a6.36064,6.36064,0,0,1-2.25553-5.35612h2.68414q0,5.78853,8.3199,5.78853,3.98973,0,5.77561-1.184a3.71578,3.71578,0,0,0,1.50469-3.27842,3.13427,3.13427,0,0,0-2.05186-3.09754,33.9273,33.9273,0,0,0-5.6768-1.2068q-5.67681-.86634-7.36238-1.7304a4.4818,4.4818,0,0,1-2.43183-4.32714,4.732,4.732,0,0,1,2.07465-4.236q2.23426-1.52521,7.65876-1.526,9.80333,0,9.80332,6.51123H230.034q0-4.87887-7.27878-4.87734a10.95333,10.95333,0,0,0-5.33939.98793,3.44645,3.44645,0,0,0-1.5959,3.07778,3.03344,3.03344,0,0,0,2.05186,2.9866,37.55334,37.55334,0,0,0,6.42916,1.3907q5.01566.75235,6.76353,1.74788a4.38733,4.38733,0,0,1,2.39383,4.25571Zm21.8105,2.10961a10.48691,10.48691,0,0,1-3.39924,1.80868,13.92742,13.92742,0,0,1-4.24355.60263,11.35033,11.35033,0,0,1-7.74691-2.5823,8.68019,8.68019,0,0,1-2.95391-6.88284,8.68926,8.68926,0,0,1,2.93111-6.98544,11.55543,11.55543,0,0,1,7.76894-2.50251,10.867,10.867,0,0,1,7.712,2.6165,7.90758,7.90758,0,0,1,2.19016,2.98128,10.06654,10.06654,0,0,1,.70674,3.89093,8.88556,8.88556,0,0,1-2.96683,7.05231m1.42718,1.40743a9.23757,9.23757,0,0,0,3.10287-3.58544,11.17272,11.17272,0,0,0,1.00464-4.86214,10.20192,10.20192,0,0,0-3.283-7.92473,11.06438,11.06438,0,0,0-4.24049-2.4364,18.57869,18.57869,0,0,0-5.67681-.79794q-6.20118,0-9.72733,3.00559a10.143,10.143,0,0,0-3.53376,8.152,10.15126,10.15126,0,0,0,3.56643,8.0828q3.56681,3.07323,9.74253,3.074a23.84074,23.84074,0,0,0,4.21542-.32678,10.324,10.324,0,0,0,3.055-1.00313l3.9654,2.74873,1.65668-1.52141-3.84-2.60434Zm24.20433,2.17116H262.54153V24.407l2.5215-.0456V43.87454h15.84338l-.02279,1.77371Z"/><path class="cls-3" d="M81.77812,42.08866c.25534-1.80108.17858-2.06554,1.76156-1.77372l.40277.0304a10.63375,10.63375,0,0,0,3.745-.53424c2.01386-.79187,3.207-2.11418,1.222-1.76688-4.52929.79186-4.84087-.50916-4.84087-.50916,4.78235-6.015,6.78177-13.65094,5.05669-15.52041-4.71547-5.097-12.85451-2.68642-12.9989-2.62335l-.04332.0076a18.944,18.944,0,0,0-3.02155-.266,8.42581,8.42581,0,0,0-4.78463,1.21364s-14.53476-5.07645-13.85841,6.38356c.14439,2.43791,4.12272,18.4462,8.86707,13.61066,1.7342-1.7684,3.41065-3.26322,3.41065-3.26322a5.01556,5.01556,0,0,0,2.87336.62164l.08055-.05851a2.2332,2.2332,0,0,0,.03268.68851c-1.222,1.1574-.8633,1.3603-3.3073,1.78739-2.4721.43166-1.01984,1.20072-.07143,1.40211,1.1498.24318,3.80962.589,5.60689-1.54269l-.07143.24318c.47876.32526.44685,2.33684.51524,3.77466a11.68083,11.68083,0,0,0,.52741,3.57023c.345.79111.75386,2.827,3.9654,2.24489,2.68414-.48789,4.73676-1.18932,4.92446-7.71727"/><path class="cls-4" d="M88.9087,38.04346c-4.52928.79186-4.84086-.50917-4.84086-.50917,4.78235-6.01574,6.78177-13.6517,5.05669-15.52041-4.70712-5.097-12.85375-2.68565-12.99814-2.62258l-.04408.0076a18.94589,18.94589,0,0,0-3.02231-.266,8.42745,8.42745,0,0,0-4.78387,1.21364S53.74061,15.27011,54.417,26.73012c.14439,2.43791,4.122,18.447,8.86707,13.61066,1.7342-1.7684,3.40989-3.26322,3.40989-3.26322a5.01556,5.01556,0,0,0,2.87336.62164l.08131-.05851a2.28128,2.28128,0,0,0,.03268.68851c-1.222,1.1574-.8633,1.3603-3.30577,1.78739-2.47287.43166-1.01985,1.20072-.07144,1.40211,1.1498.24318,3.80962.589,5.60689-1.54269l-.07143.24318c.47876.32526.81542,2.11493.75994,3.73894a8.78837,8.78837,0,0,0,.28347,3.60671c.37769.8709.75386,2.827,3.96692,2.24488,2.68414-.48788,4.0756-1.75092,4.26863-3.859.13679-1.49862.44837-1.27671.46737-2.6165l.24926-.6338c.28726-2.03134.0456-2.68641,1.69924-2.38167l.40277.0304a10.63115,10.63115,0,0,0,3.745-.53424c2.01386-.79187,3.207-2.11418,1.222-1.76688Z"/><path class="cls-5" d="M72.11234,39.20846c-.12463,3.77922.0304,7.5858.46737,8.51141s1.37095,2.72441,4.584,2.14077c2.68413-.48788,3.66067-1.43174,4.084-3.51551.304-1.53282.91421-5.7908.991-6.66246M68.26093,20.25992s-14.553-5.03845-13.869,6.42688c.152,2.43791,4.122,18.447,8.86858,13.60306,1.7342-1.7684,3.302-3.1553,3.302-3.1553m9.564-17.79417c-.50385.13375,8.09116-2.66286,12.97534,2.62714C90.82681,23.837,88.82815,31.473,84.045,37.4887"/><path class="cls-6" d="M84.03744,37.48794s.304,1.29951,4.84087.50764c1.985-.3473.79034.975-1.22352,1.76764-1.65213.64975-5.35611.81618-5.41615-.08131-.15579-2.31784,1.94927-1.61337,1.79728-2.194-.13679-.52285-1.07912-1.03581-1.70228-2.31556-.54337-1.11713-7.45509-9.68326,1.91658-8.4111.3435-.0608-2.44475-7.55692-11.21682-7.67852s-8.481,9.14217-8.481,9.14217"/><path class="cls-7" d="M69.65771,38.28056c-1.22351,1.1574-.8633,1.36031-3.30729,1.7874-2.47287.43317-1.01985,1.20072-.07144,1.4021,1.1498.24319,3.80962.589,5.6069-1.54421.54716-.64976-.003-1.68709-.75463-1.95a1.2447,1.2447,0,0,0-1.4743.304Z"/><path class="cls-5" d="M69.57792,38.2608a4.79809,4.79809,0,0,1,.67863-2.43791c.62316-1.4211,2.061-2.84372.91194-7.354-.85722-3.36125-6.60926-.69915-6.61155-.24319a19.32937,19.32937,0,0,1-.09651,4.4685c-.46509,2.81788,2.11493,5.20032,5.08557,4.95713"/><path class="cls-8" d="M68.20925,28.15578c-.02584.15579.33666.57.80859.6262a.8981.8981,0,0,0,.90054-.42406c.02659-.155-.3359-.32677-.80859-.383S68.23433,28.00075,68.20925,28.15578Z"/><path class="cls-9" d="M82.56542,27.83888c.02584.15579-.3359.57-.80858.6262a.89575.89575,0,0,1-.9013-.42557c-.02584-.15655.33666-.32678.80858-.383s.87394.02508.90054.18087Z"/><path class="cls-5" d="M84.25251,26.76128a32.21729,32.21729,0,0,1-.35946,3.35289c-.07219,1.88923,1.06241,4.05052-.64748,6.21637"/><rect class="cls-10" width="335.27492" height="70.23641"/></g></g></svg>