<svg xmlns="http://www.w3.org/2000/svg" xmlns:xlink="http://www.w3.org/1999/xlink" viewBox="0 0 335.27493 70.23641"><defs><style>.cls-1{fill:none;}.cls-2{fill:#003b57;}.cls-3{fill:#0f80cc;}.cls-4{fill:url(#Degradado_sin_nombre_2);}</style><linearGradient id="Degradado_sin_nombre_2" x1="-1163.28085" y1="389.26752" x2="-1163.28085" y2="389.2165" gradientTransform="matrix(721.36554, 0, 0, -761.67767, 839270.6346, 296505.77328)" gradientUnits="userSpaceOnUse"><stop offset="0" stop-color="#97d9f6"/><stop offset="0.92024" stop-color="#0f80cc"/><stop offset="1" stop-color="#0f80cc"/></linearGradient></defs><g id="Capa_2" data-name="Capa 2"><g id="Capa_1-2" data-name="Capa 1"><rect class="cls-1" width="335.27493" height="70.23641"/><path class="cls-2" d="M151.09338,34.707a6.24522,6.24522,0,0,0-4.48045,1.63232,5.631,5.631,0,0,0-1.72748,4.26586,7.016,7.016,0,0,0,.42863,2.49012,6.298,6.298,0,0,0,1.32284,2.09735A19.33241,19.33241,0,0,0,150.19944,47.79a18.0573,18.0573,0,0,1,4.28958,3.25277,4.13984,4.13984,0,0,1,1.02468,2.64513,3.74358,3.74358,0,0,1-1.23926,2.95488,4.85388,4.85388,0,0,1-3.33608,1.108,5.4531,5.4531,0,0,1-5.48113-5.61188h-.67935v6.16021h.67935c.20758-.58337.49441-.88153.86994-.88153a5.58857,5.58857,0,0,1,1.263.35719,12.31014,12.31014,0,0,0,3.95584.84595,6.48842,6.48842,0,0,0,6.48182-6.48182,5.89532,5.89532,0,0,0-1.25086-3.69354,17.92585,17.92585,0,0,0-4.84977-3.76524,16.029,16.029,0,0,1-4.03914-3.05032,4.14544,4.14544,0,0,1-.94138-2.62141,3.07485,3.07485,0,0,1,1.132-2.49039,4.49451,4.49451,0,0,1,2.967-.92925,4.9569,4.9569,0,0,1,3.45522,1.23927,5.19848,5.19848,0,0,1,1.59674,3.45522h.67934V34.94555h-.63163a1.6164,1.6164,0,0,1-.21459.52406.46347.46347,0,0,1-.36932.11916,4.565,4.565,0,0,1-1.16783-.27416,10.41454,10.41454,0,0,0-3.30049-.60764Zm22.19788,0a12.03589,12.03589,0,0,0-6.11249,1.58487,12.01564,12.01564,0,0,0-5.98147,10.3425,11.40712,11.40712,0,0,0,2.80014,7.57794,11.738,11.738,0,0,0,6.72013,4.12271,10.85259,10.85259,0,0,1,2.56183,2.40682,20.17458,20.17458,0,0,0,3.19319,3.14548,9.59511,9.59511,0,0,0,2.81174,1.39428,11.07384,11.07384,0,0,0,3.24118.45289,9.07535,9.07535,0,0,0,3.789-.75079l-.25018-.61976a6.033,6.033,0,0,1-2.06122.3456,5.42287,5.42287,0,0,1-2.97887-.977,18.52661,18.52661,0,0,1-3.72939-3.74152,12.8194,12.8194,0,0,0-1.45385-1.656,11.76254,11.76254,0,0,0,7.01828-4.14671,11.53128,11.53128,0,0,0,2.7403-7.55422,11.34266,11.34266,0,0,0-3.56252-8.4716,12.0901,12.0901,0,0,0-8.74577-3.4555Zm13.85731,0,.03585.72679c1.4916,0,2.3273.43942,2.51412,1.32257a10.0486,10.0486,0,0,1,.107,1.73961l-.01186,16.0738a3.59506,3.59506,0,0,1-.5122,2.29954,2.7437,2.7437,0,0,1-1.6919.61949l-.03585.72707h14.87012l.38146-3.64609H202.126a2.91257,2.91257,0,0,1-1.34629,2.10893,8.23113,8.23113,0,0,1-3.7771.60764h-1.40614q-2.44646,0-2.82387-1.77546a3.72873,3.72873,0,0,1-.07144-.76238l.05931-16.25253a4.17746,4.17746,0,0,1,.465-2.395,2.3196,2.3196,0,0,1,1.71562-.66721l-.03559-.72679h-7.75693Zm-13.61926.88153a7.53221,7.53221,0,0,1,6.1842,3.00287q2.38984,3.01217,2.3831,8.24543a12.25429,12.25429,0,0,1-2.40682,7.9354,7.81419,7.81419,0,0,1-6.39853,2.97888,7.48065,7.48065,0,0,1-6.20792-3.074,12.705,12.705,0,0,1-2.371-7.99525,12.62767,12.62767,0,0,1,2.395-8.07855,7.78022,7.78022,0,0,1,6.42224-3.01446Zm34.197,3.45577a1.03654,1.03654,0,0,0-.84594.36932,1,1,0,0,0-.20273.90553,1.596,1.596,0,0,0,.58391.91738,1.5641,1.5641,0,0,0,1.01281.39332.9508.9508,0,0,0,.8101-.39332,1.10234,1.10234,0,0,0,.17873-.91738,1.56543,1.56543,0,0,0-.55992-.9058,1.50474,1.50474,0,0,0-.977-.36932Zm9.806,2.4664q-.92439,3.556-4.00328,3.86041l.02372.67935h2.395L215.9,54.08126a17.00313,17.00313,0,0,0,.14288,2.75243,1.98245,1.98245,0,0,0,2.18064,1.68q2.64175,0,5.54044-3.21719l-.58364-.50034q-2.09263,2.11811-3.70567,2.1208c-.66209,0-1.0724-.38065-1.22741-1.132a2.88613,2.88613,0,0,1-.05931-.64349l.02373-9.0911h3.65795l-.03585-1.08452h-3.61024V41.51067ZM231.67563,44.537a5.80091,5.80091,0,0,0-5.00424,2.967,8.4264,8.4264,0,0,0-1.17969,6.57725,5.66766,5.66766,0,0,0,1.79919,3.2765,5.12315,5.12315,0,0,0,3.43178,1.156,6.87328,6.87328,0,0,0,3.81269-.97723,8.95149,8.95149,0,0,0,2.08521-3.15734l-.5122-.53647a5.54889,5.54889,0,0,1-4.63519,2.82413c-2.13617,0-3.44444-1.17214-3.93212-3.50321a8.52614,8.52614,0,0,1-.14287-.95324,12.39137,12.39137,0,0,0,5.76689-2.14452c1.29884-1.03061,2.60281-2.123,2.35938-3.27676a2.65559,2.65559,0,0,0-1.04868-1.63232,6.1426,6.1426,0,0,0-2.80014-.61977Zm-22.36449.08357-4.40873,1.01282v.78637l1.525-.19059a1.18012,1.18012,0,0,1,1.31071,1.00069,5.38263,5.38263,0,0,1,.08357.92952l-.048,7.20861c-.01214.99745-.12293,1.57732-.34534,1.75147a3.56935,3.56935,0,0,1-1.77546.2623l-.02373.67908h6.994l-.01187-.67935a4.86714,4.86714,0,0,1-1.88248-.22645,1.12556,1.12556,0,0,1-.54806-.83381,8.8367,8.8367,0,0,1-.09543-1.525l.024-10.17563h-.79851ZM230.55579,45.955a2.0148,2.0148,0,0,1,1.25086.48848,1.88516,1.88516,0,0,1,.73893,1.0724c.399,1.91672-1.3002,3.24145-5.12367,3.97956a6.752,6.752,0,0,1,.75078-3.81269,2.73055,2.73055,0,0,1,2.3831-1.72775Z"/><path class="cls-3" d="M141.21806,7.18485H103.27769a4.63692,4.63692,0,0,0-4.62333,4.62332V53.64939a4.63692,4.63692,0,0,0,4.62333,4.62333H128.266c-.2836-12.43365,3.96231-36.56336,12.95205-51.08787Z"/><path class="cls-4" d="M139.83969,8.53356h-36.562a3.27856,3.27856,0,0,0-3.27488,3.27488V50.59665c8.28047-3.17783,20.70845-5.92,29.30163-5.79547A266.824,266.824,0,0,1,139.83969,8.53356Z"/><path class="cls-2" d="M150.06762,5.81537c-2.5985-2.317-5.74479-1.38646-8.84956,1.36948-.461.40922-.92089.86347-1.37837,1.34871-5.31184,5.63507-10.24248,16.07246-11.77425,24.044a21.95392,21.95392,0,0,1,1.36975,3.934c.07872.30247.14962.58661.2065.82816.13479.57205.20731.94272.20731.94272s-.04772-.18008-.24317-.74674c-.0372-.10864-.07871-.22725-.12778-.3669q-.03835-.10239-.082-.20272c-.34641-.80551-1.30478-2.50549-1.72667-3.24576q-.50159,1.47118-.9465,2.96081a26.199,26.199,0,0,1,1.95985,6.04645s-.06442-.24748-.3704-1.11121a41.14825,41.14825,0,0,0-1.9453-3.689c-.54833,2.02429-.76615,3.3908-.56963,3.72346a12.98153,12.98153,0,0,1,1.06377,2.98724c.72059,2.77129,1.22121,6.14538,1.22121,6.14538s.01617.22375.04367.56774a56.378,56.378,0,0,0,.14018,6.92124,24.52984,24.52984,0,0,0,1.26083,6.69479l.389-.21189a29.93222,29.93222,0,0,1-1.03331-9.995,76.1688,76.1688,0,0,1,4.18553-20.92115C137.4086,22.37578,143.43,13.17819,148.941,8.78563c-5.02311,4.53652-11.82142,19.22036-13.85649,24.65782a98.584,98.584,0,0,0-4.86676,17.278c1.67922-5.13257,7.10833-7.33855,7.10833-7.33855s2.66266-3.28405,5.77444-7.97584a56.61566,56.61566,0,0,0-5.94994,1.58379c-1.51235.63432-1.91969.8508-1.91969.8508a51.68028,51.68028,0,0,1,9.10107-4.3338c5.77983-9.10323,12.077-22.0356,5.73562-27.6925"/></g></g></svg>