<svg width="56" height="56" viewBox="0 0 56 56" fill="none" xmlns="http://www.w3.org/2000/svg">
<circle cx="27.7027" cy="28.23" r="27.7027" fill="#F44730"/>
<path d="M21.5123 20.9824C24.0034 20.9824 26.0245 23.0035 26.0245 25.4946V30.0069C26.0245 33.3441 23.2984 36.0233 20.0082 36.0233C19.1621 36.0233 18.5041 35.3652 18.5041 34.5192C18.5041 33.7201 19.1621 33.0151 20.0082 33.0151C21.6533 33.0151 23.0163 31.699 23.0163 30.0069V29.7719C22.4993 29.9129 22.0293 30.0069 21.5123 30.0069C18.9741 30.0069 17 28.0328 17 25.4946C17 23.0035 18.9741 20.9824 21.5123 20.9824ZM38.0572 25.4946V30.0069C38.0572 33.3441 35.3311 36.0233 32.0409 36.0233C31.1948 36.0233 30.5368 35.3652 30.5368 34.5192C30.5368 33.7201 31.1948 33.0151 32.0409 33.0151C33.686 33.0151 35.049 31.699 35.049 30.0069V29.7719C34.532 29.9129 34.062 30.0069 33.545 30.0069C31.0068 30.0069 29.0327 28.0328 29.0327 25.4946C29.0327 23.0035 31.0068 20.9824 33.545 20.9824C36.0361 20.9824 38.0572 23.0035 38.0572 25.4946Z" fill="white"/>
</svg>
