<svg width="75" height="75" viewBox="0 0 75 75" fill="none" xmlns="http://www.w3.org/2000/svg">
<rect width="75" height="75" rx="37.5" fill="#F44730"/>
<g clip-path="url(#clip0_3909_58247)">
<path d="M46.1691 58C46.0596 58.0001 45.9512 57.9786 45.8501 57.9367C45.7489 57.8949 45.657 57.8335 45.5797 57.7561C45.5023 57.6786 45.4409 57.5867 45.3991 57.4856C45.3573 57.3844 45.3358 57.276 45.3359 57.1666C45.3358 57.0571 45.3573 56.9487 45.3991 56.8476C45.441 56.7465 45.5023 56.6546 45.5797 56.5772C45.6571 56.4998 45.749 56.4385 45.8501 56.3966C45.9512 56.3548 46.0596 56.3333 46.1691 56.3334C46.8368 56.3334 47.4652 56.0725 47.9366 55.6007C48.4085 55.1292 48.6691 54.5009 48.6691 53.8334V22.1666C48.6691 21.2535 48.9617 20.3841 49.5016 19.6666H24.5025C23.8357 19.6666 23.2077 19.9266 22.7343 20.3993C22.2634 20.8717 22.0025 21.5 22.0025 22.1666V49.6666C22.0025 50.1273 21.6293 50.5 21.1691 50.5C20.7091 50.5 20.3359 50.1273 20.3359 49.6666V22.1666C20.3359 21.0551 20.7693 20.0084 21.5557 19.2201C22.3449 18.4334 23.3908 18 24.5025 18H52.8359C53.2967 18 53.6691 18.3732 53.6691 18.8334C53.6691 19.2934 53.2967 19.6666 52.8359 19.6666C52.1682 19.6666 51.5408 19.9266 51.0674 20.3993C50.5966 20.8708 50.3359 21.4991 50.3359 22.1666V53.8334C50.3359 54.9458 49.9016 55.9926 49.1149 56.7793C48.3283 57.5657 47.2817 58 46.1691 58Z" fill="white"/>
<path d="M46.1666 58H21.1666C18.8692 58 17 56.1308 17 53.8334V53C17 52.5392 17.3732 52.1666 17.8334 52.1666H42.8334C43.2942 52.1666 43.6666 52.5392 43.6666 53V53.8334C43.6666 55.2116 44.7884 56.3334 46.1666 56.3334C46.276 56.3333 46.3844 56.3548 46.4856 56.3966C46.5867 56.4384 46.6786 56.4998 46.7561 56.5772C46.8335 56.6545 46.8949 56.7464 46.9367 56.8476C46.9786 56.9487 47.0001 57.0571 47 57.1666C47.0001 57.276 46.9786 57.3844 46.9367 57.4856C46.8949 57.5868 46.8335 57.6787 46.7561 57.7561C46.6787 57.8335 46.5868 57.8949 46.4856 57.9367C46.3844 57.9786 46.276 58.0001 46.1666 58ZM18.6666 53.8334C18.6666 55.2116 19.7884 56.3334 21.1666 56.3334H42.835C42.2921 55.6131 41.999 54.7354 42 53.8334H18.6666ZM56.1666 23.8334H52.8334C52.3727 23.8334 52 23.4599 52 23C52 22.5401 52.3727 22.1666 52.8334 22.1666H55.3334C55.3334 20.7884 54.2116 19.6666 52.8334 19.6666C52.3727 19.6666 52 19.2934 52 18.8334C52 18.3733 52.3727 18 52.8334 18C55.1308 18 57 19.8692 57 22.1666V23C57 23.4599 56.6273 23.8334 56.1666 23.8334ZM31.1666 30.5C29.3282 30.5 27.8334 29.0049 27.8334 27.1666V25.5C27.8334 23.6616 29.3282 22.1666 31.1666 22.1666C33.0049 22.1666 34.5 23.6616 34.5 25.5V27.1666C34.5 29.0049 33.0049 30.5 31.1666 30.5ZM31.1666 23.8334C30.2473 23.8334 29.5 24.5808 29.5 25.5V27.1666C29.5 28.0858 30.2473 28.8334 31.1666 28.8334C32.0858 28.8334 32.8334 28.0858 32.8334 27.1666V25.5C32.8334 24.5808 32.0858 23.8334 31.1666 23.8334ZM37 38.8334C36.5401 38.8334 36.1666 38.4599 36.1666 38V36.3334C36.1666 35.6657 35.9066 35.0383 35.4341 34.5659C34.9627 34.0934 34.3343 33.8334 33.6666 33.8334H28.6666C27.9991 33.8334 27.3717 34.0934 26.8993 34.5659C26.4266 35.0383 26.1666 35.6657 26.1666 36.3334V37.1666H33.6666C34.1267 37.1666 34.5 37.5401 34.5 38C34.5 38.4599 34.1268 38.8334 33.6666 38.8334H25.3334C24.8733 38.8334 24.5 38.4599 24.5 38V36.3334C24.5 35.2217 24.9334 34.1749 25.7201 33.3876C26.5084 32.5999 27.5551 32.1666 28.6666 32.1666H33.6666C34.7802 32.1666 35.8257 32.6009 36.6134 33.3876C37.4001 34.1749 37.8334 35.2216 37.8334 36.3334V38C37.8334 38.4599 37.4599 38.8334 37 38.8334ZM24.5 48.8334H26.1666V50.5H24.5V48.8334ZM27.8334 43.8334H29.5V50.5H27.8334V43.8334ZM31.1666 45.5H32.8334V50.5H31.1666V45.5ZM34.5 42.1666H36.1666V50.5H34.5V42.1666ZM37.8334 47.1666H39.5V50.5H37.8334V47.1666ZM41.1666 43H42.8334V50.5H41.1666V43ZM44.5 41.3334H46.1666V50.5H44.5V41.3334ZM44.5 22.1666H46.1666V23.8334H44.5V22.1666ZM41.1666 22.1666H42.8334V23.8334H41.1666V22.1666ZM37.8334 22.1666H39.5V23.8334H37.8334V22.1666ZM37.8334 25.5H46.1666V27.1666H37.8334V25.5ZM37.8334 28.8334H42.8334V30.5H37.8334V28.8334Z" fill="white"/>
</g>
<defs>
<clipPath id="clip0_3909_58247">
<rect width="40" height="40" fill="white" transform="translate(17 18)"/>
</clipPath>
</defs>
</svg>
