<svg width="75" height="75" viewBox="0 0 75 75" fill="none" xmlns="http://www.w3.org/2000/svg">
<rect width="75" height="75" rx="37.5" fill="#F44730"/>
<g clip-path="url(#clip0_3909_58270)">
<path d="M27.8359 41.3334C27.3758 41.3334 27.0025 40.9608 27.0025 40.5V32.1666C27.0025 31.7066 27.3757 31.3334 27.8359 31.3334C28.2959 31.3334 28.6691 31.7066 28.6691 32.1666V40.5C28.6691 40.9608 28.2959 41.3334 27.8359 41.3334ZM24.5025 26.3334C22.2052 26.3334 20.3359 24.4642 20.3359 22.1666C20.3359 19.8692 22.2052 18 24.5025 18C26.7998 18 28.6691 19.8692 28.6691 22.1666C28.6691 24.4642 26.7998 26.3334 24.5025 26.3334ZM24.5025 19.6666C23.124 19.6666 22.0025 20.7884 22.0025 22.1666C22.0025 23.5451 23.124 24.6666 24.5025 24.6666C25.881 24.6666 27.0025 23.5451 27.0025 22.1666C27.0025 20.7884 25.881 19.6666 24.5025 19.6666ZM23.6691 31.3334H25.3359V33H23.6691V31.3334Z" fill="white"/>
<path d="M17.8334 41.3334C17.3733 41.3334 17 40.9608 17 40.5V33C17 30.2424 19.2424 28 22 28H40.3334C40.7942 28 41.1666 28.3732 41.1666 28.8334V32.1666C41.1666 32.6267 40.7942 33 40.3334 33H27.8334C27.3733 33 27 32.6268 27 32.1666C27 31.7066 27.3732 31.3334 27.8334 31.3334H39.5V29.6666H22C20.1616 29.6666 18.6666 31.1616 18.6666 33V40.5C18.6666 40.9608 18.2934 41.3334 17.8334 41.3334Z" fill="white"/>
<path d="M21.1666 41.3334C20.7066 41.3334 20.3334 40.9608 20.3334 40.5V38C20.3334 37.5401 20.7066 37.1666 21.1666 37.1666C21.6267 37.1666 22 37.5401 22 38V40.5C22 40.9608 21.6268 41.3334 21.1666 41.3334ZM23.6666 49.6666C21.8282 49.6666 20.3334 48.1718 20.3334 46.3334C20.3334 44.4951 21.8282 43 23.6666 43C25.5049 43 27 44.4951 27 46.3334C27 48.1718 25.5049 49.6666 23.6666 49.6666ZM23.6666 44.6666C22.7473 44.6666 22 45.4142 22 46.3334C22 47.2527 22.7473 48 23.6666 48C24.5858 48 25.3334 47.2527 25.3334 46.3334C25.3334 45.4142 24.5858 44.6666 23.6666 44.6666ZM27.8334 58H17.8334C17.3733 58 17 57.6273 17 57.1666V55.5C17 54.3877 17.4334 53.3418 18.2201 52.5541C19.0074 51.7674 20.0542 51.3334 21.1666 51.3334H26.1666C27.2802 51.3334 28.3266 51.7674 29.1134 52.5541C29.4384 52.881 29.4384 53.4074 29.1124 53.7334C28.7868 54.0584 28.2591 54.0574 27.9341 53.7324C27.4627 53.26 26.8349 53 26.1666 53H21.1666C20.4991 53 19.8717 53.2609 19.3993 53.7324C18.9266 54.2051 18.6666 54.8326 18.6666 55.5V56.3334H27.8334C28.2934 56.3334 28.6666 56.7058 28.6666 57.1666C28.6666 57.6273 28.2934 58 27.8334 58ZM37 49.6666C35.1616 49.6666 33.6666 48.1718 33.6666 46.3334C33.6666 44.4951 35.1616 43 37 43C38.8384 43 40.3334 44.4951 40.3334 46.3334C40.3334 48.1718 38.8384 49.6666 37 49.6666ZM37 44.6666C36.0808 44.6666 35.3334 45.4142 35.3334 46.3334C35.3334 47.2527 36.0808 48 37 48C37.9192 48 38.6666 47.2527 38.6666 46.3334C38.6666 45.4142 37.9192 44.6666 37 44.6666ZM42.8334 58H31.1666C30.7066 58 30.3334 57.6273 30.3334 57.1666V55.5C30.3334 54.3877 30.7668 53.3418 31.5532 52.5541C32.3409 51.7674 33.3876 51.3334 34.5 51.3334H39.5C40.6133 51.3334 41.66 51.7674 42.4468 52.5541C43.2326 53.3409 43.6666 54.3877 43.6666 55.5V57.1666C43.6667 57.276 43.6452 57.3844 43.6034 57.4856C43.5616 57.5867 43.5002 57.6786 43.4228 57.7561C43.3455 57.8335 43.2536 57.8949 43.1524 57.9367C43.0513 57.9786 42.9429 58.0001 42.8334 58ZM32 56.3334H42V55.5C42 54.8326 41.7391 54.2042 41.2676 53.7324C40.7957 53.26 40.1684 53 39.5 53H34.5C33.8326 53 33.2052 53.2609 32.7324 53.7324C32.26 54.2051 32 54.8326 32 55.5V56.3334ZM50.3334 49.6666C48.4951 49.6666 47 48.1718 47 46.3334C47 44.4951 48.4951 43 50.3334 43C52.1718 43 53.6666 44.4951 53.6666 46.3334C53.6666 48.1718 52.1718 49.6666 50.3334 49.6666ZM50.3334 44.6666C49.4142 44.6666 48.6666 45.4142 48.6666 46.3334C48.6666 47.2527 49.4142 48 50.3334 48C51.2527 48 52 47.2527 52 46.3334C52 45.4142 51.2527 44.6666 50.3334 44.6666ZM56.1666 58H46.1666C46.0571 58.0001 45.9487 57.9786 45.8476 57.9367C45.7464 57.8949 45.6545 57.8335 45.5772 57.7561C45.4998 57.6786 45.4384 57.5867 45.3966 57.4856C45.3548 57.3844 45.3333 57.276 45.3334 57.1666C45.3333 57.0571 45.3548 56.9487 45.3966 56.8476C45.4385 56.7465 45.4998 56.6546 45.5772 56.5772C45.6546 56.4998 45.7465 56.4385 45.8476 56.3966C45.9487 56.3548 46.0571 56.3333 46.1666 56.3334H55.3334V55.5C55.3334 54.8326 55.0725 54.2042 54.6007 53.7324C54.1292 53.26 53.5018 53 52.8334 53H47.8334C47.1657 53 46.5373 53.2609 46.0659 53.7324C45.9886 53.8099 45.8967 53.8714 45.7956 53.9133C45.6945 53.9553 45.5862 53.9769 45.4767 53.9769C45.3673 53.9769 45.2589 53.9553 45.1578 53.9133C45.0567 53.8714 44.9649 53.8099 44.8876 53.7324C44.8101 53.6551 44.7486 53.5633 44.7067 53.4622C44.6647 53.3611 44.6431 53.2527 44.6431 53.1433C44.6431 53.0338 44.6647 52.9255 44.7067 52.8244C44.7486 52.7233 44.8101 52.6314 44.8876 52.5541C45.6743 51.7674 46.7208 51.3334 47.8334 51.3334H52.8334C53.9467 51.3334 54.9934 51.7674 55.7799 52.5541C56.5656 53.3409 57 54.3877 57 55.5V57.1666C57.0001 57.276 56.9786 57.3844 56.9367 57.4856C56.8949 57.5868 56.8335 57.6787 56.7561 57.7561C56.6787 57.8335 56.5868 57.8949 56.4856 57.9367C56.3844 57.9786 56.276 58.0001 56.1666 58ZM54.5 41.3334H31.1666C30.7066 41.3334 30.3334 40.9608 30.3334 40.5C30.3334 40.0392 30.7066 39.6666 31.1666 39.6666H54.5C54.9599 39.6666 55.3334 39.2934 55.3334 38.8334V20.5C55.3334 20.0407 54.9599 19.6666 54.5 19.6666H31.1666C30.7066 19.6666 30.3334 19.2934 30.3334 18.8334C30.3334 18.3733 30.7066 18 31.1666 18H54.5C55.8785 18 57 19.1215 57 20.5V38.8334C57 40.2116 55.8785 41.3334 54.5 41.3334Z" fill="white"/>
<path d="M52.8359 37.9986H31.1691C30.7091 37.9986 30.3359 37.6254 30.3359 37.1652C30.3359 36.7052 30.7091 36.332 31.1691 36.332H52.8359C53.2967 36.332 53.6691 36.7052 53.6691 37.1652C53.6691 37.6253 53.2967 37.9986 52.8359 37.9986ZM37.0025 21.332H38.6691V22.9986H37.0025V21.332ZM33.6691 21.332H35.3359V22.9986H33.6691V21.332ZM30.3359 21.332H32.0025V22.9986H30.3359V21.332Z" fill="white"/>
</g>
<defs>
<clipPath id="clip0_3909_58270">
<rect width="40" height="40" fill="white" transform="translate(17 18)"/>
</clipPath>
</defs>
</svg>
