<svg width="75" height="75" viewBox="0 0 75 75" fill="none" xmlns="http://www.w3.org/2000/svg">
<rect width="75" height="75" rx="37.5" fill="#F44730"/>
<g clip-path="url(#clip0_3909_58232)">
<path d="M27.0025 39.666H28.6691V56.3329H27.0025V39.666ZM20.3359 39.666H22.0025V56.3329H20.3359V39.666ZM23.6691 42.9995H25.3359V56.3329H23.6691V42.9995Z" fill="white"/>
<path d="M31.1666 43H27.8334V41.3334H30.3334V33C30.3334 31.1616 28.8384 29.6666 27 29.6666H22C20.1616 29.6666 18.6666 31.1616 18.6666 33V41.3334H21.1666V43H17.8334C17.3733 43 17 42.6273 17 42.1666V33C17 30.2424 19.2424 28 22 28H27C29.7576 28 32 30.2424 32 33V42.1666C32 42.6273 31.6268 43 31.1666 43ZM24.5 26.3334C22.2027 26.3334 20.3334 24.4642 20.3334 22.1666C20.3334 19.8692 22.2027 18 24.5 18C26.7973 18 28.6666 19.8692 28.6666 22.1666C28.6666 24.4642 26.7973 26.3334 24.5 26.3334ZM24.5 19.6666C23.1215 19.6666 22 20.7884 22 22.1666C22 23.5451 23.1215 24.6666 24.5 24.6666C25.8785 24.6666 27 23.5451 27 22.1666C27 20.7884 25.8785 19.6666 24.5 19.6666Z" fill="white"/>
<path d="M23.6641 31.334H25.3309V33.0005H23.6641V31.334ZM33.6641 33.0005H35.3309V34.6671H33.6641V33.0005ZM33.6641 36.334H35.3309V38.0005H33.6641V36.334ZM33.6641 39.6671H35.3309V41.334H33.6641V39.6671ZM49.4966 51.334C49.3192 51.334 49.1408 51.2781 48.9891 51.1606C47.9634 50.3705 46.5383 49.5515 44.8702 48.7922C42.5584 47.7289 40.1249 47.1671 37.8309 47.1671H36.1641C35.7041 47.1671 35.3309 46.7948 35.3309 46.334C35.3309 45.8732 35.7041 45.5005 36.1641 45.5005H37.8309C40.3642 45.5005 43.0376 46.1148 45.5626 47.2773C47.3673 48.0979 48.8634 48.9613 50.0059 49.8405C50.3709 50.1215 50.4384 50.644 50.1576 51.009C49.994 51.2223 49.7466 51.334 49.4966 51.334H49.4966Z" fill="white"/>
<path d="M37.8334 56.3334C37.3733 56.3334 37 55.9608 37 55.5C37 55.0392 37.3732 54.6666 37.8334 54.6666C40.3709 54.6666 42.8383 52.0798 44.435 47.7448C44.5177 47.5114 44.5983 47.2772 44.6767 47.0423C45.6517 44.1441 46.1666 40.7283 46.1666 37.1666C46.1666 33.3101 45.5675 29.6516 44.4359 26.5892C42.8392 22.2541 40.3709 19.6666 37.8334 19.6666C37.3733 19.6666 37 19.2934 37 18.8334C37 18.3733 37.3732 18 37.8334 18C41.1477 18 44.1234 20.9199 45.9991 26.0117C47.1984 29.2567 47.8334 33.1151 47.8334 37.1666C47.8334 40.9074 47.2884 44.5066 46.2566 47.5734C46.1738 47.8205 46.0888 48.0669 46.0018 48.3125C44.1234 53.4133 41.1477 56.3334 37.8334 56.3334Z" fill="white"/>
<path d="M37 18.834H38.6666V55.5005H37V18.834Z" fill="white"/>
<path d="M52.8334 38.0005H37.8334C37.3733 38.0005 37 37.6273 37 37.1671C37 36.7072 37.3732 36.334 37.8334 36.334H52.8334C53.2942 36.334 53.6666 36.7072 53.6666 37.1671C53.6666 37.6273 53.2942 38.0005 52.8334 38.0005Z" fill="white"/>
<path d="M37.8359 56.3334H36.1691C35.7091 56.3334 35.3359 55.9608 35.3359 55.5C35.3359 55.0392 35.7091 54.6666 36.1691 54.6666H37.8359C47.485 54.6666 55.3359 46.8159 55.3359 37.1666C55.3359 27.5166 47.485 19.6666 37.8359 19.6666H36.1691C35.7091 19.6666 35.3359 19.2934 35.3359 18.8334C35.3359 18.3733 35.7091 18 36.1691 18H37.8359C48.4051 18 57.0025 26.5984 57.0025 37.1666C57.0025 47.7357 48.4051 56.3334 37.8359 56.3334Z" fill="white"/>
<path d="M37.8359 28.8333H36.1691C35.7091 28.8333 35.3359 28.4598 35.3359 27.9999C35.3359 27.54 35.7091 27.1665 36.1691 27.1665H37.8359C40.1291 27.1665 42.5625 26.605 44.8709 25.5423C46.5691 24.769 47.9549 23.9725 48.9935 23.1723C49.3584 22.8925 49.8816 22.9608 50.1616 23.324C50.2285 23.4107 50.2775 23.5097 50.3061 23.6154C50.3346 23.7211 50.3421 23.8314 50.328 23.9399C50.3139 24.0485 50.2786 24.1532 50.2241 24.2481C50.1695 24.343 50.0968 24.4263 50.0101 24.4931C48.8708 25.3708 47.3752 26.2333 45.5633 27.0581C43.0416 28.219 40.3683 28.8333 37.8359 28.8333Z" fill="white"/>
</g>
<defs>
<clipPath id="clip0_3909_58232">
<rect width="40" height="40" fill="white" transform="translate(17 18)"/>
</clipPath>
</defs>
</svg>
