<svg width="75" height="75" viewBox="0 0 75 75" fill="none" xmlns="http://www.w3.org/2000/svg">
<rect width="75" height="75" rx="37.5" fill="#F44730"/>
<g clip-path="url(#clip0_3909_58256)">
<path d="M36.1666 44.668H37.8334V56.3348H36.1666V44.668ZM24.5 41.3348H49.5V43.0014H24.5V41.3348ZM52.8334 30.5014C50.5358 30.5014 48.6666 28.6322 48.6666 26.3348C48.6666 24.0372 50.5358 22.168 52.8334 22.168C55.1308 22.168 57 24.0372 57 26.3348C57 28.6322 55.1308 30.5014 52.8334 30.5014ZM52.8334 23.8348C51.4549 23.8348 50.3334 24.9563 50.3334 26.3348C50.3334 27.713 51.4549 28.8348 52.8334 28.8348C54.2116 28.8348 55.3334 27.713 55.3334 26.3348C55.3334 24.9563 54.2116 23.8348 52.8334 23.8348Z" fill="white"/>
<path d="M44.5025 56.3348C44.3927 56.3348 44.2809 56.3137 44.1741 56.2671C43.7509 56.0855 43.5549 55.5957 43.7368 55.173L46.2368 49.3396C46.3009 49.1897 46.4077 49.0619 46.5438 48.9722C46.68 48.8825 46.8395 48.8347 47.0025 48.8348H52.8359C54.2141 48.8348 55.3359 47.713 55.3359 46.3348V35.5014C55.3359 34.5822 54.5883 33.8348 53.6691 33.8348H52.8359C52.2509 33.8348 51.7184 34.2216 51.0009 35.1716C50.1959 36.2348 47.7527 39.2346 47.6491 39.3613C47.5708 39.4571 47.4722 39.5344 47.3604 39.5874C47.2485 39.6405 47.1263 39.668 47.0025 39.668H42.8359C42.3758 39.668 42.0025 40.0415 42.0025 40.5014V42.168C42.0026 42.2774 41.9811 42.3859 41.9392 42.487C41.8974 42.5882 41.836 42.6801 41.7586 42.7575C41.6812 42.8349 41.5893 42.8963 41.4881 42.9381C41.3869 42.98 41.2785 43.0015 41.1691 43.0014C41.0596 43.0015 40.9512 42.98 40.8501 42.9381C40.7489 42.8963 40.657 42.8349 40.5797 42.7575C40.5023 42.6801 40.4409 42.5881 40.3991 42.487C40.3573 42.3858 40.3358 42.2774 40.3359 42.168V40.5014C40.3359 39.1229 41.4574 38.0014 42.8359 38.0014H46.6058C47.2625 37.193 49.0325 35.0098 49.6709 34.1656C50.375 33.2355 51.3698 32.168 52.8359 32.168H53.6691C55.5074 32.168 57.0025 33.663 57.0025 35.5014V46.3348C57.0025 48.6322 55.1333 50.5014 52.8359 50.5014H47.5518L45.2682 55.8298C45.1333 56.1456 44.8257 56.3348 44.5025 56.3348Z" fill="white"/>
<path d="M41.1688 56.332C41.0821 56.332 40.9931 56.3177 40.9055 56.2887C40.4697 56.1438 40.2331 55.672 40.3791 55.2343L43.1423 46.9437C43.5947 45.582 44.8663 44.6652 46.3041 44.6652H48.6688V42.1652C48.6688 41.7044 49.0415 41.332 49.5023 41.332C49.9631 41.332 50.3357 41.7044 50.3357 42.1652V45.4986C50.3358 45.6081 50.3143 45.7165 50.2724 45.8176C50.2306 45.9188 50.1692 46.0107 50.0918 46.0881C50.0144 46.1655 49.9225 46.2269 49.8213 46.2688C49.7202 46.3106 49.6117 46.3321 49.5023 46.332H46.304C45.5856 46.332 44.9497 46.7895 44.7238 47.4703L41.9598 55.762C41.9044 55.9279 41.7982 56.0722 41.6562 56.1745C41.5143 56.2768 41.3438 56.3319 41.1688 56.332Z" fill="white"/>
<path d="M49.4991 43.0014C49.3252 43.0014 49.15 42.9474 49.0002 42.8348C48.6318 42.5589 48.5567 42.0364 48.8332 41.669L51.3332 38.3355C51.6091 37.9672 52.1316 37.893 52.4993 38.169C52.8676 38.4448 52.9423 38.9673 52.6659 39.3347L50.1659 42.6681C50.0032 42.8863 49.7534 43.0014 49.4991 43.0014ZM21.1666 30.5014C18.8692 30.5014 17 28.6322 17 26.3348C17 24.0372 18.8692 22.168 21.1666 22.168C23.4642 22.168 25.3334 24.0372 25.3334 26.3348C25.3334 28.6322 23.4642 30.5014 21.1666 30.5014ZM21.1666 23.8348C19.7884 23.8348 18.6666 24.9563 18.6666 26.3348C18.6666 27.713 19.7884 28.8348 21.1666 28.8348C22.5451 28.8348 23.6666 27.713 23.6666 26.3348C23.6666 24.9563 22.5451 23.8348 21.1666 23.8348ZM29.5 56.3348C29.1768 56.3348 28.8692 56.1456 28.7344 55.8298L26.4506 50.5014H21.1666C18.8692 50.5014 17 48.6322 17 46.3348V35.5014C17 33.663 18.4951 32.168 20.3334 32.168H21.1666C22.6327 32.168 23.6284 33.2355 24.3309 34.1656C24.97 35.0098 26.7391 37.193 27.3958 38.0014H31.1666C32.5451 38.0014 33.6666 39.1229 33.6666 40.5014V42.168C33.6666 42.6287 33.2934 43.0014 32.8334 43.0014C32.3733 43.0014 32 42.6287 32 42.168V40.5014C32 40.0415 31.6258 39.668 31.1666 39.668H27C26.7492 39.668 26.5127 39.5557 26.3542 39.3612C26.2508 39.2347 23.8066 36.2347 23.0025 35.1706C22.2841 34.2215 21.7525 33.8348 21.1666 33.8348H20.3334C19.4142 33.8348 18.6666 34.5822 18.6666 35.5014V46.3348C18.6666 47.713 19.7884 48.8348 21.1666 48.8348H27C27.163 48.8347 27.3225 48.8825 27.4586 48.9722C27.5947 49.0619 27.7015 49.1896 27.7656 49.3395L30.2656 55.173C30.4476 55.5957 30.2508 56.0855 29.8284 56.2671C29.7248 56.3121 29.613 56.3352 29.5 56.3348Z" fill="white"/>
<path d="M32.8309 56.332C32.656 56.3319 32.4855 56.2768 32.3435 56.1745C32.2016 56.0722 32.0954 55.9279 32.0399 55.762L29.2766 47.4709C29.1662 47.1391 28.954 46.8504 28.6702 46.646C28.3865 46.4416 28.0455 46.3317 27.6958 46.332H24.4975C24.0376 46.332 23.6641 45.9594 23.6641 45.4986V42.1652C23.6641 41.7044 24.0376 41.332 24.4975 41.332C24.9574 41.332 25.3309 41.7044 25.3309 42.1652V44.6652H27.6958C28.3955 44.6643 29.0777 44.8841 29.6454 45.2931C30.2131 45.7021 30.6375 46.2796 30.8583 46.9436L33.6216 55.2343C33.7675 55.671 33.5316 56.1437 33.0949 56.2887C33.0098 56.317 32.9207 56.3317 32.8309 56.332Z" fill="white"/>
<path d="M24.4986 43C24.3691 43.0001 24.2413 42.9701 24.1254 42.9123C24.0095 42.8544 23.9087 42.7703 23.8309 42.6667L21.3309 39.3333C21.0543 38.9659 21.1295 38.4434 21.4979 38.1676C21.8677 37.8916 22.3893 37.9659 22.6645 38.3341L25.1645 41.6676C25.4411 42.035 25.3659 42.5574 24.9975 42.8334C24.8538 42.9416 24.6786 43.0001 24.4986 43ZM43.6643 39.6666C43.5548 39.6667 43.4464 39.6452 43.3453 39.6034C43.2442 39.5615 43.1523 39.5002 43.0749 39.4228C42.9975 39.3454 42.9362 39.2535 42.8943 39.1524C42.8525 39.0513 42.831 38.9429 42.8311 38.8334V33C42.8311 31.1616 41.3361 29.6666 39.4977 29.6666H34.4977C32.6593 29.6666 31.1643 31.1616 31.1643 33V35.5C31.1643 35.9599 30.7911 36.3334 30.3311 36.3334C29.871 36.3334 29.4977 35.9599 29.4977 35.5V33C29.4977 30.2424 31.7401 28 34.4977 28H39.4977C42.2553 28 44.4977 30.2424 44.4977 33V38.8334C44.4977 39.2942 44.125 39.6666 43.6643 39.6666ZM36.9977 26.3334C34.7004 26.3334 32.8311 24.4642 32.8311 22.1666C32.8311 19.8692 34.7004 18 36.9977 18C39.295 18 41.1643 19.8692 41.1643 22.1666C41.1643 24.4642 39.295 26.3334 36.9977 26.3334ZM36.9977 19.6666C35.6192 19.6666 34.4977 20.7884 34.4977 22.1666C34.4977 23.5451 35.6192 24.6666 36.9977 24.6666C38.3762 24.6666 39.4977 23.5451 39.4977 22.1666C39.4977 20.7884 38.3762 19.6666 36.9977 19.6666Z" fill="white"/>
<path d="M36.1641 31.332H37.8309V32.9986H36.1641V31.332Z" fill="white"/>
</g>
<defs>
<clipPath id="clip0_3909_58256">
<rect width="40" height="40" fill="white" transform="translate(17 18)"/>
</clipPath>
</defs>
</svg>
