<svg xmlns="http://www.w3.org/2000/svg" viewBox="0 0 335.27493 70.23641"><defs><style>.cls-1{fill:none;}.cls-2{fill:#ff9f37;}.cls-3,.cls-4{fill:#12100b;}.cls-4{fill-rule:evenodd;}.cls-5{fill:#2b2422;}</style></defs><g id="Capa_2" data-name="Capa 2"><g id="Capa_1-2" data-name="Capa 1"><rect class="cls-1" width="335.27493" height="70.23641"/><polygon class="cls-2" points="104.223 23.498 97.726 21.326 97.726 11.906 104.231 13.84 104.223 23.498"/><polygon class="cls-2" points="105.918 13.84 112.425 11.907 112.401 21.319 105.918 23.498 105.918 13.84"/><polygon class="cls-2" points="111.098 10.888 105.034 9.01 99.052 10.888 105.044 12.498 111.098 10.888"/><polygon class="cls-2" points="120.607 23.498 114.11 21.326 114.11 11.906 120.615 13.84 120.607 23.498"/><polygon class="cls-2" points="122.302 13.84 128.807 11.907 128.785 21.319 122.302 23.498 122.302 13.84"/><polygon class="cls-2" points="127.483 10.888 121.421 9.01 115.434 10.888 121.43 12.498 127.483 10.888"/><polygon class="cls-2" points="79.655 27.603 73.15 25.672 73.15 35.09 79.647 37.264 79.655 27.603"/><polygon class="cls-2" points="81.342 27.603 87.848 25.672 87.827 35.084 81.342 37.264 81.342 27.603"/><polygon class="cls-2" points="86.525 24.653 80.46 22.773 74.477 24.653 80.467 26.263 86.525 24.653"/><polygon class="cls-2" points="96.032 37.263 89.536 35.09 89.536 25.671 96.042 27.603 96.032 37.263"/><polygon class="cls-2" points="97.728 27.603 104.233 25.672 104.21 35.084 97.728 37.264 97.728 27.603"/><polygon class="cls-2" points="102.907 24.653 96.844 22.773 90.86 24.653 96.854 26.263 102.907 24.653"/><polygon class="cls-2" points="87.839 51.028 81.342 48.856 81.342 39.438 87.848 41.37 87.839 51.028"/><polygon class="cls-2" points="89.536 41.369 96.042 39.438 96.018 48.849 89.536 51.028 89.536 41.369"/><polygon class="cls-2" points="94.714 38.417 88.653 36.538 82.668 38.417 88.662 40.026 94.714 38.417"/><path class="cls-3" d="M116.61549,42.70253l-.478.00186a.48667.48667,0,0,0-.45514.31137l-1.44907,5.12059L112.797,43.02628a.42942.42942,0,0,0-.39811-.32189h-.56541a.42038.42038,0,0,0-.393.3256l-1.33494,5.05684-1.38066-5.07107a.50228.50228,0,0,0-.46272-.31137l-.68836-.00186a.44313.44313,0,0,0-.355.16528.24117.24117,0,0,0-.04055.21666l2.1286,7.55708a.41967.41967,0,0,0,.38535.31818h.68464a.41436.41436,0,0,0,.39425-.3256l1.31086-5.03455,1.42624,5.04074a.41857.41857,0,0,0,.38287.31941h.672a.40324.40324,0,0,0,.39045-.32065l2.05254-7.55214a.25411.25411,0,0,0-.04187-.22037.431.431,0,0,0-.34859-.164"/><path class="cls-3" d="M120.76886,42.64867c-2.44052,0-3.55229,2.16288-3.55229,4.17225,0,2.50891,1.38182,4.12891,3.51933,4.12891a3.225,3.225,0,0,0,3.20362-2.13069.2955.2955,0,0,0-.02407-.23709.40047.40047,0,0,0-.2637-.18509l-.6783-.13061a.44879.44879,0,0,0-.45762.23708,1.85083,1.85083,0,0,1-1.6836,1.20154,1.95086,1.95086,0,0,1-1.69373-1.0994,3.5911,3.5911,0,0,1-.28909-1.57171l4.90626-.00124a.40988.40988,0,0,0,.284-.12071.31876.31876,0,0,0,.09766-.22285c-.01269-1.95365-.90518-4.04039-3.36844-4.04039m1.75966,3.2629H118.9141a2.12148,2.12148,0,0,1,1.85855-2.11027,1.926,1.926,0,0,1,1.75587,2.11027"/><path class="cls-3" d="M128.70672,42.57934h-.13061a2.24238,2.24238,0,0,0-1.9333,1.02821l-.00132-3.18552a.38236.38236,0,0,0-.39169-.34232h-.70112a.38773.38773,0,0,0-.393.34232v9.94529a.38586.38586,0,0,0,.39053.3448l.204-.00247a.41752.41752,0,0,0,.38287-.304l.2206-.70259a2.5947,2.5947,0,0,0,2.11336,1.16006h.12683c2.17673,0,3.14914-2.122,3.14914-4.22548a5.232,5.232,0,0,0-.70492-2.746,2.8155,2.8155,0,0,0-2.33141-1.31234m1.46431,4.25334c0,.463-.07993,2.77448-1.72043,2.83267a1.82382,1.82382,0,0,1-1.41479-.82269,3.10254,3.10254,0,0,1-.393-1.48071V46.00628a2.19045,2.19045,0,0,1,1.80276-2.231c1.64553.06562,1.72546,2.55968,1.72546,3.05738"/><path class="cls-3" d="M139.46882,46.608a3.9129,3.9129,0,0,0-1.562-.54969l-1.05985-.19686c-.76063-.12566-1.20184-.32932-1.20184-1.00158,0-.71.73533-.9824,1.35783-.99911a1.70908,1.70908,0,0,1,1.61133.95763.41339.41339,0,0,0,.36639.23585.30705.30705,0,0,0,.0773-.00928l.6605-.14671a.40114.40114,0,0,0,.26247-.19438.26839.26839,0,0,0,.0253-.23275,2.81449,2.81449,0,0,0-2.98433-1.80694c-1.40209.00371-2.9044.63017-2.9044,2.37706,0,1.19411.7505,1.95242,2.22618,2.2545l1.18915.22533c.64913.1269,1.316.34727,1.316,1.04863,0,1.03811-1.2044,1.14334-1.56955,1.15077a1.99891,1.99891,0,0,1-1.965-1.15448.39349.39349,0,0,0-.44624-.25257l-.69347.143a.403.403,0,0,0-.25357.18013.31263.31263,0,0,0-.038.242c.35749,1.282,1.59229,2.05641,3.3063,2.06941h.03676c1.53023,0,3.16686-.65679,3.16686-2.50025a2.23069,2.23069,0,0,0-.92413-1.83975"/><path class="cls-3" d="M144.70417,42.6561c-2.443,0-3.55484,2.16288-3.55484,4.171,0,2.50892,1.38182,4.12891,3.52188,4.12891a3.22125,3.22125,0,0,0,3.20106-2.13069.28119.28119,0,0,0-.02282-.23709.39191.39191,0,0,0-.26371-.18385l-.67567-.13062a.45064.45064,0,0,0-.46272.23585,1.85094,1.85094,0,0,1-1.67981,1.20277,1.95532,1.95532,0,0,1-1.69505-1.09753,3.60313,3.60313,0,0,1-.28646-1.57481l4.90371-.00124a.41155.41155,0,0,0,.28266-.12071.31728.31728,0,0,0,.09641-.22285c-.01013-1.95241-.90014-4.03915-3.36464-4.03915m1.75966,3.26289h-3.617a2.11764,2.11764,0,0,1,1.85856-2.109,1.9272,1.9272,0,0,1,1.75842,2.109"/><path class="cls-3" d="M152.70115,42.74772a2.40377,2.40377,0,0,0-.2764-.01734,2.18581,2.18581,0,0,0-1.95488,1.30677l.00247-.75026a.37929.37929,0,0,0-.3879-.34108h-.61616a.372.372,0,0,0-.37652.34356l-.00256,7.29214a.37272.37272,0,0,0,.37908.34356h.71761a.39121.39121,0,0,0,.39548-.34356l.00131-3.67641a3.081,3.081,0,0,1,.3448-1.60266,1.92685,1.92685,0,0,1,1.76346-1.15324.37434.37434,0,0,0,.36135-.364v-.67969a.38217.38217,0,0,0-.35114-.3578"/><path class="cls-3" d="M160.20624,42.6041h-.56293a.50512.50512,0,0,0-.46017.31447l-1.82938,5.765L155.485,42.92414a.49978.49978,0,0,0-.46017-.32h-.80628a.45019.45019,0,0,0-.36259.169.2439.2439,0,0,0-.03931.2179l2.55836,7.60413a.43555.43555,0,0,0,.38542.32684h.97489a.4207.4207,0,0,0,.39177-.32684l2.47975-7.60166a.23111.23111,0,0,0-.03428-.2179.45977.45977,0,0,0-.36631-.17147"/><path class="cls-3" d="M162.06208,39.68168a.94774.94774,0,1,0,.94317.94835.94775.94775,0,0,0-.94317-.94835"/><path class="cls-3" d="M162.45075,42.55768h-.77463a.3988.3988,0,0,0-.40314.35779l-.00256,7.74218a.32976.32976,0,0,0,.13062.255.43384.43384,0,0,0,.27252.10028l.77967.00124h.00131a.39431.39431,0,0,0,.40059-.35532V42.91547a.39369.39369,0,0,0-.40438-.35779"/><path class="cls-3" d="M169.6861,47.80827l-.64658.00185a.41645.41645,0,0,0-.39811.29652c-.23832,1.02139-.77332,1.55-1.58347,1.57418-1.57836-.04642-1.70256-2.25388-1.70256-2.928,0-1.34824.464-2.79924,1.76346-2.83762a1.6303,1.6303,0,0,1,1.52636,1.5061.42271.42271,0,0,0,.37274.35222l.69222.00929a.396.396,0,0,0,.36639-.37637,2.94271,2.94271,0,0,0-2.9273-2.73115l-.052.00124-.05827-.00124c-2.23,0-3.229,2.0855-3.229,4.15182,0,1.89546.8418,4.10786,3.21631,4.10786h.11027a3.02761,3.02761,0,0,0,2.94881-2.75219.29975.29975,0,0,0-.0773-.22719.46086.46086,0,0,0-.322-.14732"/><path class="cls-3" d="M174.30845,42.6561c-2.4392,0-3.55229,2.16288-3.55229,4.171,0,2.50892,1.38191,4.12891,3.52188,4.12891a3.22136,3.22136,0,0,0,3.20115-2.13069.2912.2912,0,0,0-.02414-.23709.39424.39424,0,0,0-.26239-.18385l-.67954-.13062a.44559.44559,0,0,0-.45769.23585,1.85676,1.85676,0,0,1-1.68229,1.20277,1.9538,1.9538,0,0,1-1.69505-1.09753,3.5492,3.5492,0,0,1-.28646-1.57481l4.90371-.00124a.40886.40886,0,0,0,.28521-.12194.29735.29735,0,0,0,.09634-.22162c-.01261-1.95241-.90138-4.03915-3.36844-4.03915m1.761,3.26289H172.455a2.11232,2.11232,0,0,1,1.856-2.109,1.92381,1.92381,0,0,1,1.75842,2.109"/><path class="cls-3" d="M183.8246,46.608a3.96269,3.96269,0,0,0-1.567-.54969l-1.05861-.19686c-.75808-.12566-1.19805-.32932-1.19805-1.00158,0-.9174,1.13344-.99354,1.35784-.99911a1.70829,1.70829,0,0,1,1.61.95763.409.409,0,0,0,.36391.23585.30953.30953,0,0,0,.07854-.00928l.6605-.14671a.39575.39575,0,0,0,.26115-.19438.2742.2742,0,0,0,.02918-.23275,2.81943,2.81943,0,0,0-2.98813-1.80694c-1.40209.00371-2.90316.63017-2.90316,2.37706,0,1.19411.74926,1.95242,2.22873,2.2545l1.18536.22533c.65037.1269,1.316.34727,1.316,1.04863,0,1.03811-1.20316,1.14334-1.567,1.15077a1.99054,1.99054,0,0,1-1.96634-1.15448.39045.39045,0,0,0-.44748-.25257l-.68844.143a.38721.38721,0,0,0-.25736.18261.29235.29235,0,0,0-.03675.23956c.35625,1.282,1.59237,2.05641,3.30382,2.06941h.038c1.53023,0,3.16562-.65679,3.16562-2.50025a2.22735,2.22735,0,0,0-.92034-1.83975"/><path class="cls-4" d="M152.3507,27.65274v-1.758a.4352.4352,0,0,1,.44748-.44508h7.85763a.43663.43663,0,0,1,.45134.44384v1.50609a2.47534,2.47534,0,0,1-.5921,1.10806l-4.0708,5.825a8.721,8.721,0,0,1,4.4854.96259.81364.81364,0,0,1,.41459.68712v1.87379c0,.26-.28274.559-.57941.40175a9.02791,9.02791,0,0,0-8.30262.01548c-.27253.14671-.5603-.14733-.5603-.40608V36.08513a2.11246,2.11246,0,0,1,.29535-1.20834l4.71614-6.78021-4.10632-.00248a.43731.43731,0,0,1-.45638-.44136"/><path class="cls-4" d="M123.68742,38.62747h-2.39231a.44952.44952,0,0,1-.42728-.40546l.00255-12.297a.4511.4511,0,0,1,.46148-.4426l2.22494-.00124a.45475.45475,0,0,1,.43611.41289v1.60761h.0431a3.28163,3.28163,0,0,1,6.24885,0,3.52713,3.52713,0,0,1,6.06878-.93411c.7594,1.03563.60472,2.53678.60472,3.85654l-.00124,7.76013a.45125.45125,0,0,1-.46149.44322h-2.3872a.44785.44785,0,0,1-.43107-.43951V31.66775a15.62329,15.62329,0,0,0-.06717-2.30464,1.2444,1.2444,0,0,0-1.40465-1.05978,1.58579,1.58579,0,0,0-1.42879,1.00778,7.45,7.45,0,0,0-.22316,2.35664v6.5165a.45088.45088,0,0,1-.46017.44322h-2.38975a.44846.44846,0,0,1-.42976-.43951l-.00132-6.52021c0-1.373.2244-3.3898-1.47181-3.3898-1.71788,0-1.65064,1.9648-1.65064,3.3898l-.00131,6.5165a.452.452,0,0,1-.46141.44322"/><path class="cls-4" d="M167.873,25.22305c3.54849,0,5.47042,3.05429,5.47042,6.935,0,3.75378-2.1235,6.72821-5.47042,6.72821-3.48257,0-5.37912-3.05429-5.37912-6.85759,0-3.82868,1.91937-6.80559,5.37912-6.80559m.02159,2.51016c-1.76222,0-1.875,2.40554-1.875,3.90854,0,1.4999-.02159,4.70894,1.85345,4.70894,1.85344,0,1.94475-2.58753,1.94475-4.16729a11.376,11.376,0,0,0-.36-3.25918,1.49517,1.49517,0,0,0-1.56312-1.191"/><path class="cls-4" d="M177.94268,38.62747h-2.38093a.44867.44867,0,0,1-.431-.43951l-.00255-12.30378a.45315.45315,0,0,1,.45893-.40175l2.21983-.00124a.45755.45755,0,0,1,.42473.34356v1.8837h.0431c.66809-1.68252,1.60754-2.48478,3.25818-2.48478a3.12738,3.12738,0,0,1,2.7891,1.44791,7.83987,7.83987,0,0,1,.625,3.82992V38.24a.45165.45165,0,0,1-.45638.38751h-2.39734a.44768.44768,0,0,1-.426-.38751V31.56375c0-1.34638.15592-3.31365-1.49595-3.31365a1.56823,1.56823,0,0,0-1.38314.98487,5.45236,5.45236,0,0,0-.3804,2.32878v6.6205a.45694.45694,0,0,1-.4652.44322"/><path class="cls-4" d="M146.08916,32.75476a4.701,4.701,0,0,1-.45,2.54111,1.93736,1.93736,0,0,1-1.65574,1.0901c-.91531,0-1.45286-.70012-1.45286-1.73822,0-2.04094,1.82814-2.41112,3.55863-2.41112v.51813m2.40879,5.84176a.49514.49514,0,0,1-.56548.05633,5.781,5.781,0,0,1-1.36789-1.59647,4.73852,4.73852,0,0,1-3.94406,1.74071,3.39565,3.39565,0,0,1-3.57759-3.7346,4.07225,4.07225,0,0,1,2.54815-3.91658,16.6202,16.6202,0,0,1,4.49808-.83012v-.30951a3.07981,3.07981,0,0,0-.29156-1.73823,1.59561,1.59561,0,0,0-1.34135-.62336,1.8231,1.8231,0,0,0-1.92317,1.43986.50347.50347,0,0,1-.41459.44136L139.801,29.274a.421.421,0,0,1-.35749-.49956c.53376-2.81967,3.07308-3.67021,5.34615-3.67021a5.41807,5.41807,0,0,1,3.60173,1.19287c1.1613,1.08887,1.04972,2.54048,1.04972,4.124v3.73211a3.28325,3.28325,0,0,0,.90517,2.22231.45436.45436,0,0,1-.01013.63636c-.48811.4098-1.35652,1.16563-1.83194,1.59152Z"/><path class="cls-4" d="M114.74657,32.75476a4.699,4.699,0,0,1-.44755,2.54111,1.94177,1.94177,0,0,1-1.65567,1.0901c-.91662,0-1.45286-.70012-1.45286-1.73822,0-2.04094,1.82428-2.41112,3.55608-2.41112v.51813m2.40879,5.84176a.49092.49092,0,0,1-.56292.05633,5.84536,5.84536,0,0,1-1.37169-1.59647,4.73,4.73,0,0,1-3.94026,1.74071,3.39691,3.39691,0,0,1-3.58015-3.7346,4.07429,4.07429,0,0,1,2.5507-3.91658,16.63777,16.63777,0,0,1,4.49553-.83012v-.30951a3.059,3.059,0,0,0-.29287-1.73823,1.59159,1.59159,0,0,0-1.34-.62336,1.82437,1.82437,0,0,0-1.92193,1.43986.50221.50221,0,0,1-.412.44136l-2.31748-.25194a.421.421,0,0,1-.36-.49956c.53252-2.81967,3.07053-3.67021,5.34623-3.67021a5.41168,5.41168,0,0,1,3.60173,1.19287c1.16253,1.08887,1.051,2.54048,1.051,4.124v3.73211a3.28165,3.28165,0,0,0,.90138,2.22231.45214.45214,0,0,1-.00758.63636c-.4881.4098-1.35652,1.16563-1.83325,1.59152Z"/><polygon class="cls-5" points="204.21 40.639 205.159 40.639 212.933 51.181 212.966 51.181 212.966 40.639 213.725 40.639 213.725 52.13 212.83 52.13 205.003 41.508 204.97 41.508 204.97 52.13 204.21 52.13 204.21 40.639"/><path class="cls-5" d="M215.77879,48.07507c-.033,1.94808,1.07,3.71787,3.25818,3.71787a3.01264,3.01264,0,0,0,3.172-2.46311h.6554a3.508,3.508,0,0,1-3.82737,2.993,3.79923,3.79923,0,0,1-3.91357-4.18338c-.03428-2.2706,1.24239-4.47495,3.91357-4.47495,2.77517,0,4.01632,2.04464,3.89585,4.41057Zm6.49863-.53175a3.228,3.228,0,0,0-3.24045-3.34646,3.4235,3.4235,0,0,0-3.25818,3.34646Z"/><path class="cls-5" d="M227.64183,44.38938H225.711v5.77738c0,1.33648.67188,1.46462,1.913,1.43243v.53174c-1.34383.07986-2.637-.09656-2.5685-1.96417V44.38938h-1.63671v-.52989h1.63671v-2.577h.65547v2.577h1.93082Z"/><polygon class="cls-5" points="231.124 51.423 231.159 51.423 233.573 43.858 234.451 43.858 236.88 51.423 236.916 51.423 239.398 43.858 240.123 43.858 237.278 52.13 236.468 52.13 234.037 44.631 234.004 44.631 231.555 52.13 230.729 52.13 227.918 43.858 228.624 43.858 231.124 51.423"/><path class="cls-5" d="M244.4174,43.6645a4.01263,4.01263,0,0,1,4.06824,4.32947,4.07547,4.07547,0,1,1-8.13525,0,4.01306,4.01306,0,0,1,4.067-4.32947m0,8.12721c2.22486,0,3.41409-1.81747,3.41409-3.79774,0-1.979-1.18923-3.79835-3.41409-3.79835-2.22247,0-3.41162,1.81932-3.41162,3.79835,0,1.98027,1.18915,3.79774,3.41162,3.79774"/><path class="cls-5" d="M250.59157,45.69243h.05069A3.39624,3.39624,0,0,1,254.03987,43.81v.61222a3.132,3.132,0,0,0-2.44934.80411,2.9835,2.9835,0,0,0-.999,2.382v4.522h-.65547V43.85825h.65547Z"/><polygon class="cls-5" points="254.781 40.639 255.438 40.639 255.438 48.252 260.901 43.859 261.848 43.859 257.971 46.95 262.125 52.13 261.228 52.13 257.452 47.415 255.438 49.009 255.438 52.13 254.781 52.13 254.781 40.639"/><path class="cls-5" d="M204.30048,25.62914h5.15727c1.373,0,3.52946.45993,3.52946,3.16942,0,1.979-1.39327,3.10566-3.79943,3.10566h-4.14052v5.037h-.74678Zm.74678,5.67152h4.25713c2.18818,0,2.93612-1.34576,2.93612-2.51882,0-.8394-.40693-2.55039-2.83468-2.55039h-4.35857Z"/><path class="cls-5" d="M220.67429,35.437c0,.47541,0,.98115.57686.98115a3.1793,3.1793,0,0,0,.4741-.0458v.507a3.30791,3.30791,0,0,1-.52486.06252c-1.01923,0-1.17135-.5237-1.17135-1.18791V35.3262h-.033a3.38442,3.38442,0,0,1-3.24045,1.8057c-1.64685,0-2.9184-.58684-2.9184-2.29721,0-1.90165,1.76476-2.29721,3.20749-2.40863,2.88288-.18881,3.002-.364,3.002-1.69552,0-.36461-.44122-1.6008-2.42528-1.6008-1.56188,0-2.59767.762-2.68255,2.17154h-.64278c.08364-1.79022,1.27156-2.69277,3.32533-2.69277,1.52645,0,3.05281.44385,3.05281,2.122Zm-.64525-3.12176c-.50838.53917-1.89918.47541-3.15426.63388-1.52636.15848-2.39354.66608-2.39354,1.88556,0,.9824.76449,1.77475,2.29086,1.77475a2.92553,2.92553,0,0,0,3.25694-2.77262Z"/><path class="cls-5" d="M223.40645,30.60364h.05192a3.3428,3.3428,0,0,1,3.34182-1.85337v.60232a3.08523,3.08523,0,0,0-2.41.79235,2.94841,2.94841,0,0,0-.98371,2.3455v4.4508h-.6441V28.79732h.6441Z"/><path class="cls-5" d="M231.14305,29.321h-1.89917v5.68886c0,1.31481.6605,1.43985,1.88393,1.40828v.5237c-1.3248.07985-2.59643-.09533-2.528-1.932V29.321h-1.61133v-.52308h1.61133v-2.5343h.644v2.5343h1.89917Z"/><path class="cls-5" d="M232.36625,28.79794h.64526v1.74318h.033a3.24382,3.24382,0,0,1,3.12121-1.93322c3.07054,0,3.10481,2.29721,3.10481,3.29632v5.03826h-.644V31.79279c0-.8394-.10144-2.66244-2.476-2.66244a3.08717,3.08717,0,0,0-3.139,3.40651v4.40562h-.64526Z"/><path class="cls-5" d="M241.46084,32.94975c-.033,1.91589,1.05351,3.65907,3.20618,3.65907a2.96555,2.96555,0,0,0,3.12253-2.42411h.64526a3.45237,3.45237,0,0,1-3.76779,2.94657,3.74053,3.74053,0,0,1-3.8502-4.11777c-.033-2.2353,1.22088-4.40561,3.8502-4.40561,2.73331,0,3.95419,2.01183,3.835,4.34185Zm6.39719-.52369a3.18031,3.18031,0,0,0-3.191-3.29447,3.37046,3.37046,0,0,0-3.20618,3.29447Z"/><path class="cls-5" d="M250.69317,30.60364h.05069a3.34387,3.34387,0,0,1,3.34181-1.85337v.60232a3.0852,3.0852,0,0,0-2.41.79235,2.94337,2.94337,0,0,0-.98248,2.3455v4.4508h-.64657V28.79732h.64657Z"/><rect class="cls-5" x="194.82549" y="16.9609" width="0.7125" height="44.2654"/></g></g></svg>