<svg xmlns="http://www.w3.org/2000/svg" viewBox="0 0 335.27492 70.23641"><defs><style>.cls-1{fill:#0dace9;}.cls-2{fill:#00acee;}.cls-3{fill:none;}</style></defs><g id="Capa_2" data-name="Capa 2"><g id="Contenido"><path class="cls-1" d="M36.98776,21.93228l14.921-2.051V34.27953H36.98914Zm14.921,14.18979V50.35755L36.98982,48.30963l-.00034-12.18687h14.9196v-.00069ZM53.55861,19.655l19.8541-2.7293V34.27953H53.55861Zm19.8541,16.46712V53.31076l-19.8541-2.72723V36.12207Z"/><path class="cls-2" d="M107.11867,45.87363h-3.44914v-13.336q0-1.63974.20469-4.01032h-.0577a14.00124,14.00124,0,0,1-.5701,1.94111L96.99174,45.87363H94.59489L88.3251,30.5838a14.18257,14.18257,0,0,1-.555-2.05478h-.05769q.118,1.23637.11711,4.03779V45.87363H84.61391V25.266h4.8957l5.50977,13.72444a20.00686,20.00686,0,0,1,.81772,2.35667h.07281q.54092-1.62429.87679-2.41505l5.61245-13.666h4.72055l-.00138,20.6076Zm6.47448-17.80585a2.05385,2.05385,0,0,1-1.42458-.53129,1.73615,1.73615,0,0,1-.59208-1.35109,1.7821,1.7821,0,0,1,.59208-1.36585,2.03069,2.03069,0,0,1,1.42458-.54606,2.09518,2.09518,0,0,1,1.46167.54606,1.77238,1.77238,0,0,1,.59964,1.36585,1.74877,1.74877,0,0,1-.59964,1.32911A2.07639,2.07639,0,0,1,113.59315,28.06778Zm1.67975,17.80585h-3.38938V31.15734h3.38972V45.87363Zm15.15588-.67554a8.47557,8.47557,0,0,1-4.25312,1.02,7.27124,7.27124,0,0,1-5.37823-2.04723,7.18794,7.18794,0,0,1-2.0462-5.31023,7.57809,7.57809,0,0,1,8.08177-8.0481,8.69706,8.69706,0,0,1,3.60918.70507v3.10364a5.532,5.532,0,0,0-3.33135-1.14982,4.67079,4.67079,0,0,0-3.5216,1.43007,5.17766,5.17766,0,0,0-1.37444,3.74312,4.93492,4.93492,0,0,0,1.2927,3.60712,4.63322,4.63322,0,0,0,3.47112,1.32224,5.478,5.478,0,0,0,3.44845-1.27828ZM142.48446,34.3338a2.84368,2.84368,0,0,0-1.7687-.47395,3.03979,3.03979,0,0,0-2.514,1.33632,5.89976,5.89976,0,0,0-1.009,3.63528v7.04218h-3.39109V31.15734h3.39109v3.03221h.0577a5.11122,5.11122,0,0,1,1.52693-2.42123,3.48391,3.48391,0,0,1,2.30171-.86958,2.91512,2.91512,0,0,1,1.404.273l.00137,3.162Zm9.06091,11.8843a7.49072,7.49072,0,0,1-5.53209-2.062,7.37941,7.37941,0,0,1-2.06852-5.46752,7.67617,7.67617,0,0,1,2.15609-5.79207,8.00508,8.00508,0,0,1,5.80959-2.084,7.24458,7.24458,0,0,1,5.46546,2.027,7.7453,7.7453,0,0,1,1.9576,5.61829,7.28506,7.28506,0,0,1-7.78813,7.76031Zm.16039-12.74667a3.899,3.899,0,0,0-3.14142,1.36447,5.64858,5.64858,0,0,0-1.15464,3.76476,5.32394,5.32394,0,0,0,1.16941,3.6425,3.95866,3.95866,0,0,0,3.128,1.3291,3.75382,3.75382,0,0,0,3.07652-1.30712,5.73033,5.73033,0,0,0,1.07427-3.72286,5.80346,5.80346,0,0,0-1.07427-3.75034,3.7417,3.7417,0,0,0-3.07789-1.32051Zm10.15783,11.94268V42.32489a6.83834,6.83834,0,0,0,4.19337,1.42252q3.07032,0,3.069-1.78176a1.38988,1.38988,0,0,0-.26239-.85515,2.46,2.46,0,0,0-.70954-.62437,5.77834,5.77834,0,0,0-1.05194-.48871q-.60789-.21688-1.35212-.48906a14.36243,14.36243,0,0,1-1.6588-.76174,5.00064,5.00064,0,0,1-1.22744-.91183,3.41267,3.41267,0,0,1-.73736-1.15738,4.17973,4.17973,0,0,1-.248-1.50872,3.44188,3.44188,0,0,1,.51172-1.87517,4.39877,4.39877,0,0,1,1.373-1.36447,6.63738,6.63738,0,0,1,1.95863-.83318,9.10333,9.10333,0,0,1,2.26462-.28025,10.46478,10.46478,0,0,1,3.71153.61716v2.91716a6.33133,6.33133,0,0,0-3.624-1.064,4.89677,4.89677,0,0,0-1.16185.12844,3.0326,3.0326,0,0,0-.88469.35924,1.78281,1.78281,0,0,0-.56976.55293,1.30263,1.30263,0,0,0-.20469.71092,1.503,1.503,0,0,0,.20469.80536,1.847,1.847,0,0,0,.60685.58212,5.19505,5.19505,0,0,0,.96472.45952c.37537.13875.8057.29055,1.29407.45265a18.99066,18.99066,0,0,1,1.73161.79094,5.8492,5.8492,0,0,1,1.30884.91183,3.55785,3.55785,0,0,1,.83249,1.179,3.94336,3.94336,0,0,1,.29261,1.58771,3.57684,3.57684,0,0,1-.52683,1.95416,4.3442,4.3442,0,0,1-1.40226,1.3789,6.60513,6.60513,0,0,1-2.02422.81119,10.6387,10.6387,0,0,1-2.41883.26583,10.309,10.309,0,0,1-4.25313-.80262Zm20.48913.804a7.4899,7.4899,0,0,1-5.53243-2.062,7.37849,7.37849,0,0,1-2.06715-5.46752,7.67632,7.67632,0,0,1,2.15644-5.79207,8.00111,8.00111,0,0,1,5.8082-2.084,7.2451,7.2451,0,0,1,5.46546,2.027,7.74725,7.74725,0,0,1,1.95862,5.61829,7.28471,7.28471,0,0,1-7.78916,7.76031Zm.16039-12.74667A3.90389,3.90389,0,0,0,179.37,34.8359a5.64858,5.64858,0,0,0-1.15464,3.76476,5.32568,5.32568,0,0,0,1.16941,3.6425,3.9594,3.9594,0,0,0,3.12837,1.3291,3.75768,3.75768,0,0,0,3.07617-1.30712,5.72046,5.72046,0,0,0,1.07427-3.72286,5.80346,5.80346,0,0,0-1.07427-3.75034,3.74049,3.74049,0,0,0-3.07617-1.32051ZM202.067,26.80394a3.125,3.125,0,0,0-1.564-.38809q-2.47068,0-2.46931,2.74475v1.99778H201.512v2.61527h-3.46356v12.1h-3.39075v-12.1h-2.5569V31.15838h2.5569V28.77252a4.607,4.607,0,0,1,1.54924-3.67134,5.69789,5.69789,0,0,1,3.87328-1.34422,5.82386,5.82386,0,0,1,1.98678.273v2.77394Zm9.77663,18.912a5.962,5.962,0,0,1-2.6163.48906q-4.3541,0-4.3541-4.10923V33.775h-2.49885V31.16009h2.49885V27.75388l3.39109-.94823v4.35444H211.845V33.775h-3.58068v7.35712a2.86,2.86,0,0,0,.48218,1.868,2.022,2.022,0,0,0,1.60729.56049,2.34759,2.34759,0,0,0,1.48983-.489V45.716Zm28.76082.15764h-3.81387l-1.88477-5.246h-8.2418l-1.812,5.246H221.0516L228.8988,25.266H232.815l7.78915,20.60761Zm-6.6201-8.033-2.9072-8.22017a9.47357,9.47357,0,0,1-.2775-1.293h-.0577a8.24842,8.24842,0,0,1-.29261,1.293l-2.8787,8.22017h6.41371Zm20.18174-5.2886L246.0847,43.27175h8.05189v2.60188h-12.8023V44.62317l8.25692-10.86429h-7.46735V31.157h12.04229v1.395Zm15.9142,13.32159h-3.38939V43.54478h-.05771a4.89226,4.89226,0,0,1-4.58832,2.67332q-5.305,0-5.30541-6.266V31.157h3.39075v8.45062q0,3.96669,3.11359,3.96635a3.16872,3.16872,0,0,0,2.47653-1.09144,4.13876,4.13876,0,0,0,.97193-2.86015V31.157h3.39111ZM283.18965,34.3338a2.843,2.843,0,0,0-1.76871-.47395,3.04025,3.04025,0,0,0-2.514,1.33632,5.90211,5.90211,0,0,0-1.009,3.63528v7.04218h-3.38973V31.15734H277.898v3.03221h.0577a5.11129,5.11129,0,0,1,1.52692-2.42123,3.48457,3.48457,0,0,1,2.30173-.86958,2.90659,2.90659,0,0,1,1.40225.273l.00344,3.162Zm15.09648,5.087H288.085a4.20131,4.20131,0,0,0,1.279,3.1476,4.80968,4.80968,0,0,0,3.354,1.10621,7.4816,7.4816,0,0,0,4.3984-1.40809v2.68637A10.1807,10.1807,0,0,1,291.709,46.2181a6.75253,6.75253,0,0,1-5.18076-2.005,7.93055,7.93055,0,0,1-1.87723-5.63992,7.76048,7.76048,0,0,1,2.06886-5.598,6.81944,6.81944,0,0,1,5.13747-2.16262,5.9457,5.9457,0,0,1,4.74872,1.93939,7.96425,7.96425,0,0,1,1.68113,5.38921l-.00138,1.27965Zm-3.27363-2.35667a4.27071,4.27071,0,0,0-.862-2.79455,2.90544,2.90544,0,0,0-2.33881-.998,3.31834,3.31834,0,0,0-2.47686,1.0492,4.7584,4.7584,0,0,0-1.24943,2.74475h6.92713Z"/><rect class="cls-3" width="335.27492" height="70.23641"/></g></g></svg>