<svg xmlns="http://www.w3.org/2000/svg" viewBox="0 0 335.27492 70.23641"><defs><style>.cls-1{fill:#e94335;}.cls-2{fill:#4284f3;}.cls-3{fill:#34a753;}.cls-4{fill:#fabb05;}.cls-5{fill:#5f6368;}.cls-6{fill:none;}</style></defs><g id="Capa_2" data-name="Capa 2"><g id="Contenido"><path class="cls-1" d="M70.51391,25.66008h.1492l-.09-.07476,5.65722-5.65724.01158-.102a18.39289,18.39289,0,0,0-29.924,8.97359,2.25718,2.25718,0,0,1,.30278-.09875,13.19682,13.19682,0,0,1,9.83122-1.94967.17579.17579,0,0,1,.11961-.03079,10.20308,10.20308,0,0,1,13.9712-1.0604Z"/><path class="cls-2" d="M81.874,28.79969a18.4736,18.4736,0,0,0-5.55682-8.95843l-5.744,5.74406a10.21026,10.21026,0,0,1,3.74721,8.09918v1.01678c6.81441,0,6.81441,10.22445,0,10.22445H64.09588l-.016.01641v8.1136H64.0371l.05878.05917H74.32032A13.29887,13.29887,0,0,0,81.874,28.79969Z"/><path class="cls-3" d="M53.85788,53.05574h10.222V44.8741h-10.222a5.01419,5.01419,0,0,1-2.0992-.45915l-5.912,5.91-.01522.06162a13.23084,13.23084,0,0,0,8.02641,2.66918Z"/><path class="cls-4" d="M53.85788,26.50448a13.29565,13.29565,0,0,0-8.02641,23.83566l5.93242-5.93005a5.11112,5.11112,0,1,1,6.76041-6.76274l5.93121-5.92923a13.2859,13.2859,0,0,0-10.59763-5.21364Z"/><path class="cls-5" d="M114.9484,47.34174a13.1165,13.1165,0,0,1-9.48359-3.88844,13.02284,13.02284,0,0,1,0-18.72964,13.08209,13.08209,0,0,1,9.48359-3.96359,12.67537,12.67537,0,0,1,9.0868,3.66524l-2.558,2.596a9.19243,9.19243,0,0,0-6.52881-2.58081,9.07828,9.07828,0,0,0-6.7552,2.87167,9.68138,9.68138,0,0,0,0,13.55195,9.63217,9.63217,0,0,0,13.44076.15765,7.6216,7.6216,0,0,0,1.96724-4.46523h-8.61641V32.87688h12.19845a11.97549,11.97549,0,0,1,.144,2.24323,11.5142,11.5142,0,0,1-3.1496,8.47478,12.20737,12.20737,0,0,1-9.22921,3.74685Zm28.34482-2.43918a8.79225,8.79225,0,0,1-12.16,0,8.19279,8.19279,0,0,1-2.49038-6.10248,8.19936,8.19936,0,0,1,2.49038-6.10316,8.79621,8.79621,0,0,1,12.16,0,8.18386,8.18386,0,0,1,2.48323,6.10316,8.194,8.194,0,0,1-2.49679,6.10248Zm-9.476-2.4008a4.65678,4.65678,0,0,0,6.79167,0,5.51671,5.51671,0,0,0,0-7.42484,4.72566,4.72566,0,0,0-6.81966,0,5.4965,5.4965,0,0,0,.01361,7.42484Zm28.17572,2.4008a8.80278,8.80278,0,0,1-12.16849,0,8.20284,8.20284,0,0,1-2.48314-6.10248,8.18238,8.18238,0,0,1,2.48314-6.10316,8.79111,8.79111,0,0,1,12.16849,0,8.19635,8.19635,0,0,1,2.48318,6.10316,8.21688,8.21688,0,0,1-2.48318,6.10248Zm-9.484-2.4008a4.66594,4.66594,0,0,0,6.7996,0,5.51674,5.51674,0,0,0,0-7.42484,4.7294,4.7294,0,0,0-6.82285,0,5.50419,5.50419,0,0,0,.008,7.42484Zm21.77282,12.50679a7.487,7.487,0,0,1-4.7796-1.518,8.83921,8.83921,0,0,1-2.79-3.53881l3.27638-1.3612a5.47859,5.47859,0,0,0,1.624,2.13841,4.05519,4.05519,0,0,0,2.68361.906,4.30461,4.30461,0,0,0,3.3436-1.29484A5.23268,5.23268,0,0,0,178.8365,46.609V45.37372h-.13405a5.46705,5.46705,0,0,1-4.48837,1.93805,7.78073,7.78073,0,0,1-5.7444-2.49882,8.64345,8.64345,0,0,1,0-12.078,7.8106,7.8106,0,0,1,5.7444-2.51406,6.22372,6.22372,0,0,1,2.64119.59165,5.32454,5.32454,0,0,1,1.86083,1.3612h.13595v-1.3612h3.55888V46.107a8.935,8.935,0,0,1-2.28045,6.68,8.04973,8.04973,0,0,1-5.84879,2.22161Zm.262-11.02522a4.20407,4.20407,0,0,0,3.24563-1.436,5.31388,5.31388,0,0,0,1.30238-3.68,5.44635,5.44635,0,0,0-1.30238-3.7472,4.15484,4.15484,0,0,0-3.24563-1.43561,4.45121,4.45121,0,0,0-3.366,1.43561,5.23889,5.23889,0,0,0-1.43639,3.71641,5.17076,5.17076,0,0,0,1.43639,3.68,4.46671,4.46671,0,0,0,3.366,1.4668ZM188.74651,46.825h-3.754V21.72491h3.754V46.825Zm10.276.51677a8.15559,8.15559,0,0,1-6.0424-2.45283,8.35948,8.35948,0,0,1-2.43164-6.08883,8.43586,8.43586,0,0,1,2.342-6.14756,7.72434,7.72434,0,0,1,5.74406-2.40081,7.28322,7.28322,0,0,1,2.8724.56082,6.64576,6.64576,0,0,1,2.1972,1.436,9.20329,9.20329,0,0,1,2.28281,3.41763l.38917.98-11.48886,4.72039a4.30578,4.30578,0,0,0,4.13524,2.586,4.91875,4.91875,0,0,0,4.21078-2.37l2.87248,1.938a9.6223,9.6223,0,0,1-2.75888,2.61677,7.8109,7.8109,0,0,1-4.32438,1.20445Zm-4.794-8.80361,7.63563-3.17079a2.60569,2.60569,0,0,0-1.18843-1.30922,3.86725,3.86725,0,0,0-1.96724-.5,4.41415,4.41415,0,0,0-3.088,1.36121,4.55527,4.55527,0,0,0-1.392,3.61882Z"/><path class="cls-5" d="M226.00859,47.34174A11.8408,11.8408,0,0,1,213.975,35.23333a11.831,11.831,0,0,1,12.0336-12.10247,10.71852,10.71852,0,0,1,8.5184,3.79323l-2.07166,2.00445a7.8211,7.8211,0,0,0-6.43317-2.94087,8.78093,8.78093,0,0,0-6.39325,2.55764,8.95551,8.95551,0,0,0-2.59554,6.688,8.97092,8.97092,0,0,0,2.59554,6.69357,8.77953,8.77953,0,0,0,6.39325,2.558,9.13116,9.13116,0,0,0,7.18-3.358l2.066,2.06361a11.18768,11.18768,0,0,1-3.97324,3.02924,12.19506,12.19506,0,0,1-5.28638,1.122Z"/><polygon class="cls-5" points="237.855 46.825 240.824 46.825 240.824 23.632 237.855 23.632 237.855 46.825 237.855 46.825"/><path class="cls-5" d="M245.67861,32.86852a8.16258,8.16258,0,0,1,14.01519,6.02923,8.16272,8.16272,0,1,1-16.31083,0,8.41863,8.41863,0,0,1,2.29564-6.02923Zm2.21357,10.194a5.01258,5.01258,0,0,0,7.27764,0,5.72462,5.72462,0,0,0,1.54156-4.16474,5.72749,5.72749,0,0,0-1.54156-4.166,5.01267,5.01267,0,0,0-7.27764,0,5.74269,5.74269,0,0,0-1.53195,4.166,5.723,5.723,0,0,0,1.54719,4.15113l-.01524.01361Z"/><path class="cls-5" d="M276.17185,46.825h-2.87162V44.62653h-.09A5.51886,5.51886,0,0,1,271.115,46.609a5.90756,5.90756,0,0,1-2.94676.79233,5.6155,5.6155,0,0,1-4.50925-1.80916,7.19735,7.19735,0,0,1-1.53325-4.8544v-9.768h2.96968V40.191q0,4.431,3.91919,4.43557a3.66874,3.66874,0,0,0,3.02157-1.436,5.44508,5.44508,0,0,0,1.1588-3.43278v-8.788h2.97683V46.825Z"/><path class="cls-5" d="M286.26061,47.34174a6.96335,6.96335,0,0,1-5.30916-2.4316,8.61389,8.61389,0,0,1-2.22924-6.01239,8.63162,8.63162,0,0,1,2.22924-6.02087,6.98879,6.98879,0,0,1,5.30916-2.4244,6.72435,6.72435,0,0,1,3.24727.77966,5.43206,5.43206,0,0,1,2.15435,1.936h.12643l-.12643-2.19841V23.63208h2.97523V46.825h-2.87158V44.62653h-.134a5.44438,5.44438,0,0,1-2.15444,1.938,6.68719,6.68719,0,0,1-3.21682.77717Zm.494-2.71521a4.75,4.75,0,0,0,3.57524-1.54879,5.82065,5.82065,0,0,0,1.436-4.18,5.825,5.825,0,0,0-1.436-4.18084,4.85452,4.85452,0,0,0-7.18041,0,5.72138,5.72138,0,0,0-1.43605,4.16517,5.72384,5.72384,0,0,0,1.43605,4.1668,4.72106,4.72106,0,0,0,3.60517,1.57765Z"/><rect class="cls-6" width="335.27492" height="70.23641"/></g></g></svg>