<svg xmlns="http://www.w3.org/2000/svg" viewBox="0 0 285.88178 84.02035"><defs><style>.cls-1{fill:#673acc;}.cls-2{fill:none;}</style></defs><g id="Capa_2" data-name="Capa 2"><g id="Contenido"><g id="UBkQtZ"><path class="cls-1" d="M63.42011,65.99686a10.20883,10.20883,0,0,0-.95372-.653c-3.14619-1.68361-6.28681-3.37846-9.459-5.01217A1.58282,1.58282,0,0,1,51.979,58.66486c.0655-2.92226.0249-5.84688.0249-8.89533H50.85338c-4.34466,0-8.68944.01522-13.03383-.01847a3.83137,3.83137,0,0,1-1.704-.41545c-3.32931-1.766-6.63169-3.58242-9.94138-5.38506-.22256-.12122-.43326-.26406-.71395-.43644H63.61013c.03171.35731.06876.58072.06886.80414q.00474,10.44158.00023,20.88316c-.00012.26516-.03816.5303-.05854.79545Z"/><path class="cls-1" d="M22.50318,18.02348c3.50481,1.86008,7.00015,3.7383,10.523,5.56388a1.388,1.388,0,0,1,.88756,1.45027c-.04593,2.66343-.01805,5.32813-.018,7.99235v1.16914c.475,0,.83372-.00019,1.19245,0,4.34415.00271,8.68842-.00878,13.0323.02651a3.606,3.606,0,0,1,1.5977.41217c3.093,1.64106,6.16215,3.327,9.23746,5.00122.3686.20067.72733.41933,1.30978.7565-.52313.0398-.80053.07928-1.07793.07935q-17.89466.00459-35.78931-.00018c-.29832-.00009-.59662-.04152-.89493-.06366Z"/><path class="cls-1" d="M22.50318,45.2084c1.567.87441,3.14141,1.73606,4.69926,2.62643,1.99716,1.14145,3.99416,2.2846,5.95783,3.48143a1.522,1.522,0,0,1,.70361,1.02828c.04645,4.29385.02829,8.58839.02345,12.88275a2.31942,2.31942,0,0,1-.09342.39317L22.50318,59.8003Z"/><path class="cls-1" d="M193.409,43.614V32.31688h4.45V52.18275c-1.12661,0-2.28142.04436-3.42774-.03417-.256-.01754-.542-.43152-.71314-.72212A83.66067,83.66067,0,0,0,185.727,39.83227c-.125-.14831-.26162-.28685-.52735-.57664V52.1093h-4.42417V32.24445c1.09109,0,2.18549-.04285,3.2725.02761a1.46122,1.46122,0,0,1,.86593.58319q3.6474,4.63352,7.25068,9.30148c.37722.487.70537,1.01183,1.05621,1.51917Z"/><path class="cls-1" d="M125.21026,42.21644c-.00365,3.50054-.93681,6.65876-4.01786,8.66062a10.47532,10.47532,0,0,1-10.86832.53182c-3.45461-1.70893-4.818-4.79923-5.00013-8.50207-.16081-3.26908.55973-6.28126,3.075-8.52939,3.3236-2.97062,7.23159-3.32615,11.22454-1.69159,3.764,1.54085,5.328,4.723,5.5842,8.6325C125.22723,41.61648,125.21026,41.917,125.21026,42.21644Zm-4.46-.06326a26.59194,26.59194,0,0,0-.76185-3.20221,4.67774,4.67774,0,0,0-4.69826-3.198,4.78,4.78,0,0,0-4.73506,3.17044,8.69664,8.69664,0,0,0-.05382,6.42574,4.76305,4.76305,0,0,0,4.754,3.27893,4.70735,4.70735,0,0,0,4.75843-3.25991A26.16482,26.16482,0,0,0,120.75026,42.15318Z"/><path class="cls-1" d="M258.40809,43.99326l4.97051,8.1918c-1.86973,0-3.385.03306-4.89593-.03218-.25527-.011-.55089-.40894-.72793-.69052-1.098-1.74608-2.22479-3.47823-3.22724-5.27849-.74-1.329-1.7868-1.5142-3.20068-1.15824v7.09211h-4.50219c-.02-.315-.05424-.60477-.05438-.89458-.00316-5.891.012-11.782-.01971-17.67285-.00421-.78557.19286-1.0843,1.01711-1.18245,3.19784-.38077,6.387-.65381,9.54028.24369,3.63436,1.03444,5.27457,3.81089,4.50553,7.49741a5.06209,5.06209,0,0,1-2.55107,3.40848C258.95147,43.70257,258.63,43.87013,258.40809,43.99326Zm-7.02623-8.04572v5.54865c1.50193-.19348,2.92793-.2854,4.3087-.58462A2.137,2.137,0,0,0,257.32,38.6588a2.20514,2.20514,0,0,0-1.40074-2.31171A8.88594,8.88594,0,0,0,251.38186,35.94754Z"/><path class="cls-1" d="M82.85868,32.29873h4.42838V39.8014h7.60375V32.292h4.436v19.8387H94.926V43.81651H87.35125V52.1159H82.85868Z"/><path class="cls-1" d="M220.61207,33.05807l-1.41014,3.83914a10.47742,10.47742,0,0,0-5.89938-1.1163,4.78006,4.78006,0,0,0-4.37518,3.529,9.38818,9.38818,0,0,0-.01864,5.70234,4.81481,4.81481,0,0,0,4.49233,3.6639c.919.0726,1.84862.01191,2.8648.01191v-6.9697h4.555c0,1.36242,0,2.68364,0,4.00487-.00006,1.69743.02665,3.39568-.02548,5.09152a1.10572,1.10572,0,0,1-.54217.85445,18.2054,18.2054,0,0,1-9.77764.43912c-3.8851-1.03935-6.27937-4.202-6.61356-8.67586-.25832-3.45793.44568-6.64492,3.11063-9.11254,2.45994-2.27778,5.47943-2.81382,8.674-2.41151A48.58509,48.58509,0,0,1,220.61207,33.05807Z"/><path class="cls-1" d="M227.19421,32.29353h13.408v3.71365h-8.87955V39.9361h7.88185v3.64776h-7.87622v4.815h9.54659v3.72277H227.19421Z"/><path class="cls-1" d="M143.50987,33.279,142.35674,36.41c-1.63693-.27613-3.15444-.56693-4.68373-.76951a2.49973,2.49973,0,0,0-1.4644.20979c-.50321.28376-1.14525.76259-1.22293,1.23889a2.43315,2.43315,0,0,0,.662,1.70566,4.22987,4.22987,0,0,0,1.561.84586c1.1976.50557,2.43473.92242,3.61492,1.46384,2.89467,1.32793,3.97171,3.30762,3.62369,6.51861-.26042,2.40255-1.98456,4.09623-4.90211,4.68249a15.44729,15.44729,0,0,1-8.19725-.58516c-.46545-.16049-.90077-.40767-1.43956-.6561l1.18236-3.34956c1.47113.34115,2.86989.75013,4.298.96536a9.85062,9.85062,0,0,0,2.68629-.0856,1.80273,1.80273,0,0,0,1.7255-1.42976,1.85418,1.85418,0,0,0-1.04114-2.17236c-1.10076-.54657-2.256-.98451-3.38937-1.46534-.5522-.23427-1.11828-.43824-1.66074-.69267a5.38132,5.38132,0,0,1-3.46472-5.43747,5.6275,5.6275,0,0,1,4.10681-5.12172C137.11445,31.35346,141.37245,31.79906,143.50987,33.279Z"/><path class="cls-1" d="M63.57418,39.021c-3.79406-2.19575-7.48625-4.32482-11.1625-6.48086a.95633.95633,0,0,1-.38992-.701c-.01979-4.49328-.01073-8.98668-.00345-13.48.00008-.05315.05579-.10621.118-.21727.23384.09574.48028.17769.70957.29337,3.39194,1.71116,6.78812,3.41431,10.16074,5.16258a1.32254,1.32254,0,0,1,.6462.93111c.03911,4.6928.02422,9.386.01864,14.07918A2.46746,2.46746,0,0,1,63.57418,39.021Z"/><path class="cls-1" d="M158.35949,52.14921h-4.4963V36.09552h-5.97457V32.30717h16.44v3.723h-5.96908Z"/><path class="cls-1" d="M173.8496,52.16407h-4.34706V32.30563h4.34706Z"/></g><rect class="cls-2" width="285.88178" height="84.02035"/></g></g></svg>