<svg xmlns="http://www.w3.org/2000/svg" viewBox="0 0 335.27493 70.23641"><defs><style>.cls-1{fill:none;}.cls-2{fill:#33d9dd;}.cls-3{fill:#373737;}.cls-4{fill:#0062fe;}.cls-5{fill:#0c9eef;}.cls-6{fill:#0676fc;}.cls-7{fill:#0080f9;}.cls-8{fill:#20bce6;}.cls-9{fill:#0290f3;}.cls-10{fill:#0185f7;}.cls-11{fill:#018af5;}.cls-12{fill:#2fd5dd;}.cls-13{fill:#0166fe;}.cls-14{fill:#0797f1;}.cls-15{fill:#24c3e4;}.cls-16{fill:#016afe;}.cls-17{fill:#067cfa;}.cls-18{fill:#17adeb;}.cls-19{fill:#28c7e3;}.cls-20{fill:#24c1e5;}.cls-21{fill:#36e3da;}.cls-22{fill:#32dcdc;}.cls-23{fill:#2dd3de;}.cls-24{fill:#2ed0e0;}.cls-25{fill:#21bce6;}.cls-26{fill:#22bfe5;}.cls-27{fill:#1cb4e8;}.cls-28{fill:#24b1ec;}.cls-29{fill:#32d7dd;}.cls-30{fill:#31c8e4;}.cls-31{fill:#10a3ee;}.cls-32{fill:#35bdea;}.cls-33{fill:#14a7ed;}.cls-34{fill:#0677fd;}.cls-35{fill:#39aff1;}.cls-36{fill:#1eb7e7;}.cls-37{fill:#46c8e9;}.cls-38{fill:#33b4ed;}.cls-39{fill:#3cc2e9;}.cls-40{fill:#e1f7fa;}.cls-41{fill:#34dbdc;}.cls-42{fill:#2bcfe0;}.cls-43{fill:#40aff2;}.cls-44{fill:#e5f1fe;}.cls-45{fill:#3dcbe6;}.cls-46{fill:#4fccea;}.cls-47{fill:#59d0ea;}.cls-48{fill:#d1e8fd;}.cls-49{fill:#79d8ee;}.cls-50{fill:#47aff4;}.cls-51{fill:#2aadef;}.cls-52{fill:#d8f4f9;}.cls-53{fill:#30adf0;}.cls-54{fill:#1e86fd;}.cls-55{fill:#aed6fc;}.cls-56{fill:#d9ebfe;}.cls-57{fill:#52b2f5;}.cls-58{fill:#7fdced;}.cls-59{fill:#98ccfb;}.cls-60{fill:#63d3eb;}.cls-61{fill:#4acee7;}.cls-62{fill:#9ee0f3;}.cls-63{fill:#2dbae9;}.cls-64{fill:#d8f0fb;}.cls-65{fill:#e2f4fc;}.cls-66{fill:#65d4eb;}.cls-67{fill:#84daf0;}.cls-68{fill:#28b8e9;}.cls-69{fill:#93ddf2;}.cls-70{fill:#8ce0ef;}.cls-71{fill:#5ad1ea;}.cls-72{fill:#71d6ed;}.cls-73{fill:#bee8f8;}.cls-74{fill:#5ab4f6;}.cls-75{fill:#2e8efc;}.cls-76{fill:#71bcf8;}.cls-77{fill:#67b9f8;}.cls-78{fill:#ccf1f7;}.cls-79{fill:#c5ebf9;}.cls-80{fill:#8bdbf0;}.cls-81{fill:#52cfe8;}.cls-82{fill:#c3e0fc;}.cls-83{fill:#9ccdfc;}.cls-84{fill:#59a7fc;}.cls-85{fill:#ceedfa;}.cls-86{fill:#a4e1f4;}.cls-87{fill:#73d9ec;}.cls-88{fill:#9de5f1;}.cls-89{fill:#aed5fc;}.cls-90{fill:#ade4f6;}.cls-91{fill:#b4e5f6;}.cls-92{fill:#79bff8;}.cls-93{fill:#499efb;}.cls-94{fill:#c9e4fc;}.cls-95{fill:#b8ecf5;}.cls-96{fill:#3d97fb;}.cls-97{fill:#d7ebfd;}.cls-98{fill:#a7e7f2;}.cls-99{fill:#c1eef6;}.cls-100{fill:#93e2f0;}.cls-101{fill:#70b4fc;}.cls-102{fill:#afeaf3;}.cls-103{fill:#82c3f9;}.cls-104{fill:#bbddfc;}.cls-105{fill:#e5f2fe;}.cls-106{fill:#b6dafc;}.cls-107{fill:#eefafc;}.cls-108{fill:#63acfc;}.cls-109{fill:#7abafc;}.cls-110{fill:#8dc5fb;}.cls-111{fill:#f1f9fd;}.cls-112{fill:#86c0fb;}.cls-113{fill:#1e82fe;}.cls-114{fill:#006afe;}.cls-115{fill:#0167fe;}.cls-116{fill:#2ab3eb;}.cls-117{fill:#69d4ec;}.cls-118{fill:#90c8fa;}.cls-119{fill:#69d5eb;}</style></defs><g id="Capa_2" data-name="Capa 2"><g id="Capa_1-2" data-name="Capa 1"><rect class="cls-1" width="335.27493" height="70.23641"/><g id="Layer_2" data-name="Layer 2"><g id="Layer_1-2" data-name="Layer 1-2"><g id="pkI8Hz.tif"><path class="cls-2" d="M100.60161,18.72626c0-1.10575,0-2.21149-.02989-3.34712a1.2616,1.2616,0,0,1,.65747-1.046h.44828a1.31611,1.31611,0,0,1,.65747,1.28506c-.02989,1.34483,0,2.68965,0,4.03448a1.10266,1.10266,0,0,1-.14943.8069c-.44827-.508-.14942-1.10575-.23908-1.64368a8.9433,8.9433,0,0,1,.14943-2.1816c-.02989.53792-.11954.5977-1.07586.269-.05977.3885.02988.777-.02989,1.16552C100.93034,18.30787,101.04988,18.6665,100.60161,18.72626Z"/><path class="cls-3" d="M253.52332,29.963a17.905,17.905,0,0,1,2.83908-.11954c.29885-.02989.62757-.02989.92642-.02989V49.02969c-1.01609,0-2.03217-.02988-3.01838-.02988-.23907,0-.508.11953-.74712-.11954.508-.41839,1.10575-.23908,1.64367-.269,1.85288-.02988,1.70346.14943,1.70346-1.76321V30.91936c.02987-.53793-.269-.74713-.74713-.74713h-1.64368C254.121,30.20212,253.76241,30.26189,253.52332,29.963Z"/><path d="M257.13942,30.59062c0-.44827-.11955-.5977-.56783-.5977-1.01609.02989-2.03217,0-3.04827-.02988-.2092.20919-.08965.508-.08965.74712,0,2.092,0,4.18391-.02988,6.27586,0,.2092.11955.44827-.14943.62759a3.43607,3.43607,0,0,0-2.0023-2.12184,4.69233,4.69233,0,0,0-5.88735,2.09195,8.1468,8.1468,0,0,0-.83678,2.74943,10.96293,10.96293,0,0,0,.86667,6.54482,4.56011,4.56011,0,0,0,6.87356,1.4046,4.7227,4.7227,0,0,0,1.046-1.58391c.1793.8069-.05978,1.52414.1793,2.18161,1.0161,0,2.03218-.02989,3.04828-.02989.44827,0,.5977-.14943.56782-.56781C257.10952,42.39521,257.10952,36.478,257.13942,30.59062Zm-3.73563,13.1793a2.18809,2.18809,0,0,1-2.62988,2.39081,2.37417,2.37417,0,0,1-2.30115-2.06207,12.03906,12.03906,0,0,1-.02988-3.73563,2.58208,2.58208,0,0,1,4.1839-1.64367,1.62735,1.62735,0,0,1,.74713,1.37471V42.186h0C253.40379,42.724,253.40379,43.26188,253.40379,43.76992Z"/><path d="M194.14176,40.0343a15.2233,15.2233,0,0,0,.11954,2.57011,3.72649,3.72649,0,0,0,6.9931,1.1954c.29885-.56781.47816-.62759.9862-.29885a20.89666,20.89666,0,0,0,2.09195,1.1954c.35862.17931.35862.35863.17931.71724a7.41337,7.41337,0,0,1-8.12873,3.76552,6.78292,6.78292,0,0,1-5.73793-4.78161,12.74848,12.74848,0,0,1,.35862-9.50344,7.27526,7.27526,0,0,1,7.14252-4.21379,6.73682,6.73682,0,0,1,6.21609,3.61609c.23907.41839.29885.68736-.269.92644-.80689.35863-1.554.8069-2.36091,1.22529-.23908.11954-.44828.269-.5977-.11954-.68735-2.03218-2.68965-2.3908-4.36322-1.97241a3.70453,3.70453,0,0,0-2.68965,3.85517C194.11187,38.74923,194.14176,39.34693,194.14176,40.0343Z"/><path d="M178.93028,33.878c-1.7931,3.61609-3.7954,7.11263-5.79769,10.75861-1.97242-3.646-3.97471-7.14252-5.94712-10.72873V48.163c0,.56781-.05978.83678-.74713.8069-1.4046-.05978-1.4046,0-1.4046-1.43448v-15.869c0-.56781.11954-.74712.71724-.74712,2.12184.02989,2.12184,0,3.13793,1.88275l4.12413,7.71034.05977.05977c.269,0,.269-.269.35863-.41839l4.5724-8.51723c.269-.47816.53793-.777,1.13563-.68735.65748.08965,1.52414-.269,1.94253.14942s.11954,1.285.11954,1.94253c0,5.02068,0,10.04137.02988,15.09194,0,.65747-.11954.89655-.83677.86666-1.31494-.05977-1.31494,0-1.31494-1.31494V33.96765Z"/><path d="M158.16018,39.67567c-.05977-.14942-.41839.02989-.29885-.29885a3.60154,3.60154,0,0,0,1.73333-1.13563,4.7954,4.7954,0,0,0-.9862-6.42528,5.7285,5.7285,0,0,0-3.1977-.86666c-2.18161,0-4.36322.02988-6.57471-.02989-.56782,0-.68736.17931-.68736.71724.02989,3.40689,0,6.81378,0,10.22068v6.48506c0,.32874-.05977.62759.44828.62759,2.71954-.02989,5.469.02988,8.1885-.08965a4.56976,4.56976,0,0,0,4.12413-4.2138A4.14223,4.14223,0,0,0,158.16018,39.67567Zm-7.8-6.33562c0-.32874.11954-.44828.44827-.44828,1.67357.02989,3.31724-.02988,4.99081.02989a2.22,2.22,0,0,1,2.27126,2.12184,9.00118,9.00118,0,0,1,.02989,1.554,2.2743,2.2743,0,0,1-2.24138,2.092c-.86666.05977-1.70345,0-2.57011,0v.02988h-2.42069c-.35863,0-.508-.08965-.508-.47816Zm8.33792,11.23676a2.36082,2.36082,0,0,1-2.36092,2.42069c-1.85287.08966-3.67585.02989-5.52873.05978-.35862,0-.44827-.14943-.41839-.47816.02989-.92644,0-1.88276,0-2.8092,0-.89655.02989-1.76321,0-2.65976,0-.3885.08966-.53793.508-.53793,1.67357.02989,3.377-.02989,5.08046.02989A2.55644,2.55644,0,0,1,158.728,43.232c0,.44826,0,.89654-.0299,1.34481Z"/><path d="M226.50726,39.19751a5.76719,5.76719,0,0,0-5.58851-4.06437c-2.9885-.08965-5.11034,1.22529-6.09654,3.79541a9.70974,9.70974,0,0,0-.35863,5.3793,6.29581,6.29581,0,0,0,7.41149,4.931,6.46641,6.46641,0,0,0,2.331-.9862c2.15171-1.46437,2.65976-3.646,2.74942-6.06666A9.29892,9.29892,0,0,0,226.50726,39.19751Zm-3.58621,5.17012a2.19391,2.19391,0,0,1-2.36091,1.91264,2.10131,2.10131,0,0,1-2.24138-1.94253,17.04233,17.04233,0,0,1,0-4.27356,2.3343,2.3343,0,0,1,4.60229.05978,16.218,16.218,0,0,1,.08966,2.51034A8.64965,8.64965,0,0,1,222.92105,44.36763Z"/><path d="M237.71415,46.78831a4.30249,4.30249,0,0,1-2.6,2.30116,4.02536,4.02536,0,0,1-5.31953-3.04828,9.53251,9.53251,0,0,1-.23907-2.24138V36.05959c0-.47816.05977-.68735.62757-.65747a18.44154,18.44154,0,0,0,2.57011,0c.508-.02989.65747.14942.62758.65747-.02988,2.36092,0,4.69195,0,7.023,0,.29885,0,.62759.02988.92644.05977,1.4046.777,2.21149,2.03217,2.15173a2.196,2.196,0,0,0,2.331-2.27127c-.05977-2.6,0-5.22988-.02987-7.8,0-.56782.14942-.71724.68735-.68736a26.31463,26.31463,0,0,0,2.65977,0c.3885,0,.47816.11954.47816.47817v12.5816c0,.41839-.14943.50805-.53793.50805-.89655-.02989-1.823-.02989-2.71953,0-.3885,0-.56782-.11954-.53793-.50805C237.744,47.89406,237.71415,47.35613,237.71415,46.78831Z"/><path d="M211.11647,37.97223c0,2.45058.02988,4.90114-.02989,7.35172,0,.5977.17931.8069.74712.71724.83678-.14943,1.13563.2092.98621.9862v.3885c0,1.61379,0,1.61379-1.58391,1.554a7.43211,7.43211,0,0,1-1.4046-.11954,2.9172,2.9172,0,0,1-2.42069-2.45058,8.83775,8.83775,0,0,1-.14942-1.554c0-4.72183,0-9.47356-.02989-14.19539,0-.5977.11954-.83678.74713-.777a16.35938,16.35938,0,0,0,2.42069,0c.508-.02988.71724.11954.68735.68736C211.11647,33.0412,211.11647,35.49177,211.11647,37.97223Z"/><path d="M141.72341,40.00441v6.54482c0,.47816.11954.65747.62759.5977.29885-.02989.62759.02989.92644,0,.80689-.11954,1.046.17931,1.01609.9862-.02989.68735-.14943.89655-.86667.86667-1.88275-.05978-3.79539-.02989-5.708,0-.508,0-.777-.11954-.68736-.68736a1.62467,1.62467,0,0,0,0-.53792c-.05976-.44828.05977-.65748.56782-.62759.47816.05977.92644-.02989,1.40459.02989.47817.02988.56782-.14943.56782-.5977v-13.269c0-.3885-.08966-.56781-.508-.53792-.35862.02988-.74712-.02989-1.07586,0-.74713.11953-.95632-.11954-.95632-.89656s.17931-.95632.95632-.92643c1.88276.05977,3.73563.02988,5.61839,0,.53793,0,.777.11954.68735.68735a2.88065,2.88065,0,0,0,0,.71724c.02989.35862-.11953.44827-.44827.44827-.47816-.02988-.98621.02989-1.49425-.02988s-.62759.11953-.5977.5977C141.72341,35.58143,141.72341,37.79292,141.72341,40.00441Z"/><path class="cls-4" d="M87.12346,55.7837a9.68881,9.68881,0,0,1-7.8-5.25977c.05977-.508.41839-.23907.5977-.17931a6.3796,6.3796,0,0,1,1.25518.68735c-.02989-.17931-.35863-.41838.02988-.56781a9.41756,9.41756,0,0,0,5.61839,3.58621c.29885.23907.65747-.02989.95632.14942-.02989.3885-.35862.269-.5977.32874.02988-.02989.08965,0,.11954.02988a4.5219,4.5219,0,0,0,3.52643.86667,1.13719,1.13719,0,0,1,.53793.08965.34875.34875,0,0,1,.17931.17931.19283.19283,0,0,1-.17931.17931h0C89.99242,55.81359,88.55794,55.90325,87.12346,55.7837Z"/><path class="cls-5" d="M84.28438,30.91936a1.12817,1.12817,0,0,1-.68736-.23908l-3.73563-2.15172c-.53793-.32874-.95632-.74713-.56781-1.37472.35862-.65747.89655-.47816,1.4046-.17931,1.28505.74713,2.57011,1.46437,3.85516,2.21149a.92.92,0,0,1,.53793,1.10575A.75439.75439,0,0,1,84.28438,30.91936Z"/><path class="cls-6" d="M87.78093,54.22969c-.29885-.08966-.65747.11953-.92644-.17932,3.73563.14943,7.47126.02989,11.20689.08966a7.87385,7.87385,0,0,1,.83678.05977c.47816.23908.98621.02989,1.46437.11954a1.394,1.394,0,0,1,.5977.35862,2.81319,2.81319,0,0,0,2.3908.74713c.269.02988.56782-.02989.71724.29885-.17931.269-.47816.14942-.71724.14942h-3.31724a1.79323,1.79323,0,0,0-.68735-.05977,3.45079,3.45079,0,0,1-3.07816-.92644c-.269-.269-.62759-.2092-.95632-.23908-2.3908-.17931-4.78161-.14942-7.17241-.17931A1.50134,1.50134,0,0,1,87.78093,54.22969Z"/><path class="cls-7" d="M100.45218,54.34922c-.508-.08965-1.07586.2092-1.554-.17931q3.04829-.08966,6.09655,0a4.97621,4.97621,0,0,0,1.76322.08965,1.437,1.437,0,0,1,1.01609.32874,2.81149,2.81149,0,0,0,2.18161.8069c.20919-.02989.71724-.17931.5977.41839-1.94253,0-3.88506.05977-5.82758-.05977a.98243.98243,0,0,1-.65747-.14943h-.777A7.14209,7.14209,0,0,0,100.45218,54.34922Z"/><path class="cls-8" d="M90.94874,20.101c.41839.68736.83678,1.37472,1.22529,2.06207a.889.889,0,0,1-.269,1.34483c-.53793.29885-.9862.02988-1.28505-.47817-.59771-1.07586-1.19541-2.12184-1.79311-3.1977.14943-.62759.56782-.35862.86667-.23908C90.14185,19.77224,90.56024,19.95155,90.94874,20.101Z"/><path class="cls-9" d="M112.34643,54.1998a13.90287,13.90287,0,0,0,4.81149-.92644c.83678.02989,1.40459.47816,1.43448,1.07586a8.32034,8.32034,0,0,1-3.43678,1.31494.184.184,0,0,1,.02989-.20919c.08965-.05978.17931-.05978.44827-.05978a1.33268,1.33268,0,0,1-.9862-.44827,1.57642,1.57642,0,0,0-1.554-.44828C112.82459,54.55842,112.43608,54.70785,112.34643,54.1998Z"/><path class="cls-10" d="M110.61309,55.75382a.65124.65124,0,0,0-.65747-.11953,2.49022,2.49022,0,0,1-2.27126-.777,1.82065,1.82065,0,0,0-1.52414-.47816c-.3885,0-.83678.17931-1.16551-.14942,1.31494-.05978,2.6-.05978,3.91494,0a.22693.22693,0,0,0,.269.08965,3.30915,3.30915,0,0,1,2.95862.89655c.29885.32874.777.17931,1.1954.2092.32874.02988.74713-.14943.89655.35862l-.41839.02989A14.30872,14.30872,0,0,1,110.61309,55.75382Z"/><path class="cls-11" d="M114.22918,55.75382a.73817.73817,0,0,0-.65747-.14942,2.29494,2.29494,0,0,1-2.21149-.74713,1.80081,1.80081,0,0,0-1.67356-.508c-.269.02989-.56781.11954-.777-.17931a32.95827,32.95827,0,0,1,3.43678,0,.34826.34826,0,0,0,.47816.14943c1.046-.44828,1.67357.17931,2.42069.74712.44828.32874.05977.38851-.05977.53793A1.34189,1.34189,0,0,1,114.22918,55.75382Z"/><path class="cls-12" d="M122.95561,28.52856,120.774,29.78373c-.95632-.11954-1.31494-.3885-1.46436-1.10575a14.58488,14.58488,0,0,1,2.3908-1.37471A1.84437,1.84437,0,0,1,122.95561,28.52856Z"/><path class="cls-13" d="M81.23611,50.46417c-.2092.41839.32873.508.35862.9862-.47816-.269-.89655-.508-1.31494-.71724-.29886-.14942-.56782-.47816-.95633-.17931a5.6758,5.6758,0,0,1-.92643-2.24138c-.2092-.62758.14942-.62758.508-.3885a1.62521,1.62521,0,0,0,1.1954.35863C80.2499,49.11934,80.93726,49.68716,81.23611,50.46417Z"/><path class="cls-14" d="M118.5924,54.34922c-.20919-.71723-.98621-.68735-1.43448-1.07586l2.48046-1.554c.3885.3885,1.10574.508,1.13563,1.25517A6.59942,6.59942,0,0,1,118.5924,54.34922Z"/><path class="cls-15" d="M121.70044,38.15153l-.92644-1.25517c.08966-.74713.65747-.95633,1.25517-1.13563a10.18579,10.18579,0,0,1,1.85288,2.80919c-.2092.44828-.53794.269-.83679.14943C122.597,38.54,122.14872,38.301,121.70044,38.15153Z"/><path class="cls-16" d="M80.13036,48.25268c-.44828.56781-.777.11954-1.16552-.14943-.23908-.17931-.56781-.508-.56781.14943a5.04042,5.04042,0,0,1-.32874-2.0023c-.08965-.83678-.05977-.86667,1.046-.86667.44827,0,.62758.23908.5977.68736a1.26532,1.26532,0,0,0,.05977.74712Z"/><path class="cls-17" d="M110.61309,55.75382l3.1977.02989a2.20733,2.20733,0,0,1-1.07586.08965H88.289a3.085,3.085,0,0,1-1.16552-.08965l4.423-.02989c.47816-.32873.9862-.17931,1.49425-.17931.5977-.02988,1.1954,0,1.7931-.02988,1.73333-.08966,3.4069.20919,5.14023.20919,1.16552,0,2.36092,0,3.52643.02989.2092,0,.41839.02989.56782-.14942C106.24988,55.75382,108.43149,55.81359,110.61309,55.75382Z"/><path class="cls-18" d="M124.71883,46.28027a3.97805,3.97805,0,0,1-.65747,1.97241c-.5977-.08965-1.22529-.05977-1.46436-.8069a13.46125,13.46125,0,0,0,.68735-3.25747c.269,0,.29885.2092.29885.35863a1.2018,1.2018,0,0,0,.89656,1.25517.30255.30255,0,0,1,.23908.35863C124.74871,46.22049,124.74871,46.25038,124.71883,46.28027Z"/><path class="cls-19" d="M118.41309,32.95154a8.52117,8.52117,0,0,1,3.31724,2.48045c.14942.65748-.47816.68735-.8069.95633-.23908.17931-.44827-.14943-.5977-.32874-.65747-.777-1.285-1.61379-1.97241-2.3908C117.9947,33.2205,118.02458,33.101,118.41309,32.95154Z"/><path class="cls-20" d="M90.94874,20.101c-.44827.29885-.777-.05977-1.10574-.269s-.62759-.35862-.95633,0a9.58424,9.58424,0,0,1-.56781-.92644A.83871.83871,0,0,1,88.67748,17.77h0a.796.796,0,0,1,1.13563.29885C90.2315,18.75615,90.56024,19.44351,90.94874,20.101Z"/><path class="cls-21" d="M112.31654,19.47339c.269-.47817.508-.95633.8069-1.4046a.78026.78026,0,0,1,1.13563-.29885.83872.83872,0,0,1,.35862,1.13562c0,.02989-.02989.05978-.05977.08966-.269.44827-.508.89655-.777,1.31493A1.71922,1.71922,0,0,1,112.31654,19.47339Z"/><path class="cls-22" d="M112.31654,19.47339l1.46437.83677a14.60065,14.60065,0,0,1-1.07587,1.88276,1.44732,1.44732,0,0,1-1.46436-.83678Z"/><path class="cls-23" d="M100.60161,18.72626c.3885-.68735,0-1.46436.23908-2.24138.35862.08965.56782.53793.92644.44828.47816-.08965.11954-.5977.41839-.9862v2.74942a.50489.50489,0,0,0-.08966.29885c-.05977.62759-.20919.71724-.777.47817-.11954-.05978-.17931-.17932-.32874-.17932-.08965.41839.11955.89655-.23908,1.25518C100.39241,19.98144,100.63149,19.35385,100.60161,18.72626Z"/><path class="cls-24" d="M119.30964,28.678a2.58778,2.58778,0,0,0,1.46436,1.10575c-.508.32874-1.046.65748-1.5839.95633-.47817.23907-.95632.32873-1.28506-.269a.94132.94132,0,0,1,.35862-1.28505C118.62228,29.00672,118.9809,28.85729,119.30964,28.678Z"/><path class="cls-5" d="M120.774,52.94462c-.17931-.5977-1.01609-.5977-1.13563-1.25517l1.46437-1.554c.3885.41839.9862.5977,1.285,1.10575A7.28724,7.28724,0,0,1,120.774,52.94462Z"/><path class="cls-25" d="M124.36021,39.8251a10.78432,10.78432,0,0,1,.508,5.67815c-.35862-.32873-.23908-.777-.269-1.16551,0-.53793.02989-1.10575,0-1.64368-.14943-.508-.65747-.5977-1.01609-.8069-.20919.2092-.05977.53793-.32874.68735l-.44827-2.06206c-.17932-.44828-.02989-.5977.3885-.41839A.9388.9388,0,0,0,124.36021,39.8251Z"/><path class="cls-26" d="M124.36021,39.8251c-.11954.62758-.44828.777-1.01609.44827-.08966-.05977-.5977-.47816-.53793.17931-.35862-.777-.74713-1.554-1.10575-2.331.508-.17931.83678.17932,1.25517.35863.29885.11954.5977.35862.92644.08965A3.76715,3.76715,0,0,1,124.36021,39.8251Z"/><path class="cls-27" d="M124.83837,42.33544c0,1.046.02989,2.12184.02989,3.16781a1.3982,1.3982,0,0,1-.14943.777c0-.05978,0-.14943-.02988-.14943a1.87472,1.87472,0,0,1-1.37472-1.94253V44.009c.08966-.508.08966-1.10575.89655-.71724.269.11954.23908-.17931.269-.35862C124.56941,42.75384,124.42,42.39521,124.83837,42.33544Z"/><path class="cls-28" d="M89.335,29.60442a12.76879,12.76879,0,0,1,4.06437-3.40689c.3885-.14943.44827.02989.29885.32874a2.67914,2.67914,0,0,1-.5977.68735,17.27317,17.27317,0,0,1-2.12184,1.7931,5.52974,5.52974,0,0,1-1.10575.74713C89.60392,29.93315,89.60392,29.90327,89.335,29.60442Z"/><path class="cls-29" d="M111.21079,21.35615a4.77451,4.77451,0,0,0,1.46437.83678c-.17931.32873-.32874.68735-.53793,1.01609a.7892.7892,0,0,1-1.13564.32873.8032.8032,0,0,1-.35862-1.1954C110.82229,22.01361,111.03149,21.68489,111.21079,21.35615Z"/><path class="cls-30" d="M118.41309,32.95154c-.38851.269-.05977.41839.08965.56781.5977.71724,1.19541,1.4046,1.79311,2.12184.65747.777.95632.74713,1.43448-.23907a.47.47,0,0,1,.29885.32873c-.41839.35863-.98621.5977-1.25517,1.13563l-1.70345-1.554a18.62221,18.62221,0,0,0-1.823-2.45057c-.20919-.269-.44827-.508.17932-.41839C117.69585,32.74235,118.174,32.563,118.41309,32.95154Z"/><path class="cls-31" d="M122.35791,51.27107c-.44827-.32874-1.16551-.3885-1.28506-1.10575l.89656-1.43448a5.42071,5.42071,0,0,1,1.31493,1.16552A4.4626,4.4626,0,0,1,122.35791,51.27107Z"/><path class="cls-32" d="M95.73035,25.12167a4.88511,4.88511,0,0,1,1.40459-.47817c.41839-.08965.508.08965.2092.35863a17.23989,17.23989,0,0,0-1.88276,2.03218l-1.88276,1.07586c-.41839-.29885-.05977-.50805.08966-.71724a14.99753,14.99753,0,0,1,1.52413-1.554C95.40161,25.62971,95.76023,25.51017,95.73035,25.12167Z"/><path class="cls-33" d="M123.31423,49.86647a2.4,2.4,0,0,1-1.31494-1.16552l.62759-1.25517c.35862.47816.95632.50805,1.46436.8069A4.26762,4.26762,0,0,1,123.31423,49.86647Z"/><path class="cls-34" d="M78.09818,44.6067a5.32383,5.32383,0,0,1,.32873-1.823,3.85969,3.85969,0,0,1,1.31494,1.97242c.14943.50805-.02988.86666-.65747.74712H78.8453C77.97864,45.53314,77.97864,45.53314,78.09818,44.6067Z"/><path class="cls-35" d="M90.97863,30.29177,89.843,31.69637c-.86667.32874-1.37472,1.16552-2.18161,1.58391-.14943.08965-.269.269-.44828.269-.29885.02989-.29885-.11954-.17931-.32874a1.1261,1.1261,0,0,1,.29885-.62759,25.426,25.426,0,0,1,2.57012-2.1816c.23908-.14942.41839-.3885.71724-.3885A.43109.43109,0,0,1,90.97863,30.29177Z"/><path class="cls-36" d="M124.83837,42.33544c-.17931.14942-.14942.3885-.14942.56781,0,.62759.02988,1.07586-.8069.508-.5977-.3885-.269.47816-.56781.5977l-.05977-1.49425c.05977-1.07586.08965-1.10575,1.046-.508C124.47975,42.12625,124.74871,42.12625,124.83837,42.33544Z"/><path class="cls-37" d="M97.643,26.22741a.53723.53723,0,0,1-.47816.11953c-.38851-.11953-.38851-.32873-.17931-.5977a4.59694,4.59694,0,0,1,.35862-.3885,3.51947,3.51947,0,0,1,.80689-.68735c.11954.02989,0-.14943,0-.05977,0,.02988-.02988.02988-.05976.02988a.42816.42816,0,0,1-.32874-.14942,4.95059,4.95059,0,0,1,1.85287-.32874c.17931-.05977.35862-.14942.50805.02989.08965.08965,0,.2092-.08966.269A7.76361,7.76361,0,0,1,97.643,26.22741Z"/><path class="cls-38" d="M90.97863,30.29177,90.62,30.14235c-.11954-.2092-.02989-.41839.02988-.65748a1.21683,1.21683,0,0,1,.35862-.41839c.68736-.47816,1.31494-1.01609,1.97241-1.554.23908-.08965.508-.23908.74713-.02989-.08966.2092-.35862.35863-.14943.62759A25.76283,25.76283,0,0,0,90.97863,30.29177Z"/><path class="cls-39" d="M97.76253,24.49408h.68736c-.44828.47816-.83678.89655-1.25517,1.285-.2092.2092-.35862.35862-.05977.5977l-1.70345.65748a5.16475,5.16475,0,0,1,1.76322-2.15173c.269-.23908.02988-.17931-.08966-.23908A.89783.89783,0,0,1,97.76253,24.49408Z"/><path class="cls-40" d="M110.16482,26.70557a1.94445,1.94445,0,0,1,1.10574.777,1.35722,1.35722,0,0,1-1.40459.92644l-1.25517-.777A8.89826,8.89826,0,0,1,110.16482,26.70557Z"/><path class="cls-41" d="M122.95561,28.52856l-1.25517-1.22529c.2092-.11954.38851-.23908.5977-.35862a.83392.83392,0,0,1,1.34483.20919c.32874.56782.08965.95633-.38851,1.25518A3.10153,3.10153,0,0,1,122.95561,28.52856Z"/><path class="cls-42" d="M100.78092,20.57914V18.93546c.5977.41839,1.1954.92644,1.40459-.2092,0,.5977,0,1.16552.02989,1.76322C101.73724,21.11706,101.34873,21.147,100.78092,20.57914Z"/><path class="cls-43" d="M87.00392,33.25039c.02988.17931.08965.32874.269.14942.56782-.56781,1.34483-.86666,1.823-1.52413.17931-.269.41839-.38851.71724-.14943l-.777,1.25518a3.84434,3.84434,0,0,0-1.4046,1.07586,5.1064,5.1064,0,0,1-.777.62759c-.14942.08965-.35862.17931-.32873-.17932A2.76072,2.76072,0,0,1,87.00392,33.25039Z"/><path class="cls-44" d="M87.6315,43.56073c.38851,1.046.23908,1.43447-.74712,1.91264q-.269.13447-.35862-.08966a1.51762,1.51762,0,0,1-.29885-.86666C86.58553,43.68026,86.94415,43.44119,87.6315,43.56073Z"/><path class="cls-45" d="M117.397,32.4435c-.08966.05977-.35862-.02989-.11954.23908a23.625,23.625,0,0,1,1.554,1.88275c.14943.2092.44828.41839.2092.74712l-1.25517-.777c-.35862-.71724-1.01609-1.25517-1.4046-1.94253-.11954-.20919-.44828-.5977.20919-.44827A1.47216,1.47216,0,0,1,117.397,32.4435Z"/><path class="cls-46" d="M97.643,26.22741l2.45057-2.0023-.44827-.05978a2.94327,2.94327,0,0,1,1.43448-.11954.28519.28519,0,0,1-.08966.35863c-.62758.47816-1.01609,1.22529-1.7931,1.49425Z"/><path class="cls-47" d="M99.2269,25.89867l1.88276-1.85288h1.10574c.17931.269.02989.44828-.14942.5977-.56782.44828-1.046,1.10575-1.88276,1.13563A2.16567,2.16567,0,0,1,99.2269,25.89867Z"/><path class="cls-48" d="M85.92806,43.4113l-.14943-.777c.11954-.3885.44828-.56782.71724-.777a.96572.96572,0,0,0,.47816-.98621V39.76532c.05977-.32873-.11954-.74712.35862-.89655v2.98851a1.36608,1.36608,0,0,1-1.01609,1.73332A.34208.34208,0,0,1,85.92806,43.4113Z"/><path class="cls-49" d="M110.91194,31.81591a5.47119,5.47119,0,0,1,3.31724-.14942.43928.43928,0,0,1-.17931.14942,1.316,1.316,0,0,1-.47816.05977h-.8069c-.17931-.02988-.35862,0-.44827-.14942.23908.5977.86666.92644,1.13563,1.52414h-.92644A2.08339,2.08339,0,0,1,110.91194,31.81591Z"/><path class="cls-50" d="M86.52576,34.44579c.56781.08965.74712-.44828,1.10574-.71724a12.3135,12.3135,0,0,0,.92644-.83678c.17931-.17931.32873-.02988.508.02989l-.62758,1.25518a10.96512,10.96512,0,0,0-1.823,1.25517c-.23908.17931-.47816.3885-.35862-.17931A1.06337,1.06337,0,0,1,86.52576,34.44579Z"/><path class="cls-51" d="M91.09817,29.186l-.29885.29885a7.80927,7.80927,0,0,1-2.331,1.97242c-.20919.14942-.508.17931-.32873-.269a7.19,7.19,0,0,1,1.22529-1.61379c.269.38851.44827-.02988.62758-.11953a10.54715,10.54715,0,0,0,.95632-.62759A.62085.62085,0,0,1,91.09817,29.186Z"/><path class="cls-52" d="M110.16482,26.70557c-.44828.41839-.86667.92644-1.554.92644l-.777-.47817a3.29517,3.29517,0,0,1,1.40459-1.07586C109.62689,26.10787,109.866,26.4366,110.16482,26.70557Z"/><path class="cls-53" d="M88.10966,31.21821c.02989.2092.08966.269.269.11954.777-.62759,1.58391-1.22529,2.3908-1.823a1.14906,1.14906,0,0,1-.14942.62759A29.354,29.354,0,0,0,87.6315,32.563c-.08965.08965-.17931.2092-.29885.02988A3.71608,3.71608,0,0,1,88.10966,31.21821Z"/><path class="cls-54" d="M79.20392,45.44349c.74713-.08965.508-.53793.29885-.92644a12.90246,12.90246,0,0,1-1.07586-1.73333.703.703,0,0,1,.14943-.47816,2.21633,2.21633,0,0,1,1.25517,1.73333l-.02989,2.7793c-.269-.23907-.14942-.50805-.14942-.8069,0-.32873-.14943-.47816-.47816-.44827-.05977-.02989-.05977-.05978-.05977-.08965C79.174,45.47337,79.174,45.44349,79.20392,45.44349Z"/><path class="cls-55" d="M87.15334,39.8251v.62758c-.47816.41839-.777,1.046-1.554.95633a6.95355,6.95355,0,0,1,0-3.13793l.08966.05977a.80822.80822,0,0,1,.08965.44828v1.01609a2.57029,2.57029,0,0,0,.02989.47816C86.28668,40.15383,86.58553,39.46648,87.15334,39.8251Z"/><path class="cls-56" d="M85.92806,43.4113a1.44155,1.44155,0,0,0,1.40459-1.554c.269.53792.11954,1.16551.29885,1.73332-.68735-.02988-.95632.56782-1.40459.95633A2.573,2.573,0,0,1,85.92806,43.4113Z"/><path class="cls-57" d="M86.22691,35.28258c.02988.08965,0,.32873.17931.08965.41839-.50805,1.07586-.68735,1.49425-1.22529.14942-.17931.32873-.05977.47816.02989a1.18972,1.18972,0,0,1-.269.62758c-.44827.65748-1.22528.92644-1.7931,1.46437-.05977.05977-.17931.14942-.269.05977-.17931-.14942-.08965-.32873-.02988-.508A1.19409,1.19409,0,0,1,86.22691,35.28258Z"/><path class="cls-58" d="M102.63379,25.74924l-1.554-.02988c0-.29885.23908-.269.41839-.32874h.47816c.89655.14942,1.34483-.5977,2.03218-1.01609.05977,0-.02988-.05977-.05977-.02989-.20919.11954-.3885.14943-.3885-.17931.62758-.11954,1.10574.41839,1.70344.32874C104.51655,25.18143,103.85908,26.078,102.63379,25.74924Z"/><path class="cls-59" d="M87.15334,39.8251c-.62758,0-.9862.53792-1.554.92643V39.8251a2.94353,2.94353,0,0,1,.92644-.89655,1.10691,1.10691,0,0,0,.508-.74713c.05977-.14943.11954-.29885.29885-.23908,0,.29885,0,.62759-.02988.92644C87.06369,39.16763,87.21311,39.49636,87.15334,39.8251Z"/><path class="cls-60" d="M113.6016,31.69637h.47816a2.40746,2.40746,0,0,1,1.34482,1.07587c.17932.269.32874.53792.02989.83677l-.777-.17931c-.17931-.17931-.44828-.02989-.62759-.14942a.54461.54461,0,0,0-.02989-.5977C113.84068,32.38372,113.45217,32.14465,113.6016,31.69637Z"/><path class="cls-61" d="M116.5901,32.14465c-.29885.02989-.269.14942-.08966.32874.38851.47816.74713.9862,1.16552,1.46436.14942.17931.32873.35862.14942.5977l-.92644-.47816a4.42547,4.42547,0,0,0-1.22528-1.554c-.11954-.14942-.269-.29885-.14943-.47816s.32874-.11954.47816-.02989A.85976.85976,0,0,1,116.5901,32.14465Z"/><path class="cls-62" d="M110.31424,33.57913l-1.10574.29885a2.34634,2.34634,0,0,1-1.25517-1.25518,2.128,2.128,0,0,1,1.10574-.44827A3.35428,3.35428,0,0,0,110.31424,33.57913Z"/><path class="cls-63" d="M93.72805,27.48258l-.777.14943a.28667.28667,0,0,1,.08966-.29885c.65747-.62759,1.31494-1.25518,1.94252-1.91264l.74713-.32874c.23908.05977.44827.08965.11954.35862C95.13265,26.13775,94.44529,26.79522,93.72805,27.48258Z"/><path class="cls-64" d="M106.07057,35.76073c-.17931.23908-.508.32874-.62759.62759a1.45852,1.45852,0,0,1-1.25517-1.25518,1.107,1.107,0,0,1,.777-.62759A4.4616,4.4616,0,0,0,106.07057,35.76073Z"/><path class="cls-65" d="M104.2177,35.13315a3.87444,3.87444,0,0,0,1.25517,1.25518c-.11954.29885-.44828.3885-.62759.62758a1.46821,1.46821,0,0,1-1.10574-1.25517A.71385.71385,0,0,1,104.2177,35.13315Z"/><path class="cls-66" d="M101.55793,25.59982c-.17931,0-.35862-.02989-.47816.14942l-.92644.02989a4.57251,4.57251,0,0,0,2.03219-1.73333,3.00184,3.00184,0,0,1,1.25517.11954.2266.2266,0,0,1,.05977.11954c0,.05977-.02989.05977-.02989.05977C102.66368,24.55384,102.2154,25.21132,101.55793,25.59982Z"/><path class="cls-67" d="M110.91194,31.81591c.56782.44828.89655,1.13563,1.554,1.43448h-.44827c-.62759.17931-1.16552.11954-1.46437-.56781-.11954-.29886-.56781-.29886-.56781-.65748C110.28436,31.786,110.61309,31.87568,110.91194,31.81591Z"/><path class="cls-68" d="M94.98322,25.42052c.08966.02988.32874.08965.17931.17931-.777.50805-1.28506,1.31494-2.03218,1.85287-.11954-.05977-.23908-.14942-.14943-.29885.2092-.23907.41839-.44827.5977-.68735s0-.23908-.14942-.269A5.41082,5.41082,0,0,1,94.98322,25.42052Z"/><path class="cls-69" d="M110.31424,33.57913a1.4198,1.4198,0,0,1-1.25517-1.4046l.47816-.14943c.62759.29885.89655.9862,1.4046,1.4046C110.7924,33.609,110.55332,33.54924,110.31424,33.57913Z"/><path class="cls-70" d="M102.63379,25.74924a1.69042,1.69042,0,0,0,1.43448-.50805,5.499,5.499,0,0,1,1.22529-.71723c.23908,0,.44827,0,.508.29885-.5977.41838-1.046,1.16551-1.91264,1.10575C103.47057,25.86879,103.0223,26.01822,102.63379,25.74924Z"/><path class="cls-71" d="M115.45447,33.609c.02989-.9862-.83678-1.34482-1.37471-1.91264l.17931-.02988a.74271.74271,0,0,1,.5977.20919,2.66323,2.66323,0,0,1,1.554,2.03218A3.55888,3.55888,0,0,1,115.45447,33.609Z"/><path class="cls-72" d="M114.07976,33.25039c.20919.02989.47816-.05977.62759.17931a3.617,3.617,0,0,1-1.25517-.14942,3.65536,3.65536,0,0,1-1.31494-1.46437.64784.64784,0,0,1,.508-.08965C113.21309,32.14465,113.87056,32.47338,114.07976,33.25039Z"/><path class="cls-73" d="M107.50505,34.68488a.53237.53237,0,0,1-.47816.29885c-.777.05977-.95632-.5977-1.25517-1.10575a.96084.96084,0,0,1,.62759-.44828A1.79606,1.79606,0,0,1,107.50505,34.68488Z"/><path class="cls-74" d="M86.0476,35.85039l.05977.3885a10.44309,10.44309,0,0,1,2.03218-1.43448,2.45287,2.45287,0,0,1-.32874.92644,8.5895,8.5895,0,0,0-1.49425,1.07587c-.11954.08965-.269.269-.3885.14942-.11954-.08965-.08966-.32874-.02989-.47816A.98021.98021,0,0,1,86.0476,35.85039Z"/><path class="cls-75" d="M79.83151,44.06877a7.35429,7.35429,0,0,0-1.25517-1.73332,1.37713,1.37713,0,0,1,.29885-.777,2.60277,2.60277,0,0,1,1.10575,1.91264A.73206.73206,0,0,1,79.83151,44.06877Z"/><path class="cls-76" d="M87.78093,35.91016a2.62771,2.62771,0,0,1-.29885,1.07586c-.62759.3885-1.07586,1.07586-1.85287,1.22529l-.05977.02988c.05977-.32873-.05977-.65747.17931-.95632a16.76509,16.76509,0,0,0,1.64367-1.22529C87.54185,35.99982,87.60162,35.85039,87.78093,35.91016Z"/><path class="cls-77" d="M87.78093,35.91016c-.47816.71723-1.4046.92643-1.91264,1.67356-.08966.11954-.05977-.2092-.11954-.29885a1.18243,1.18243,0,0,1,.14942-.777c.11954.02988-.17931.56781.23908.20919.35862-.29885.74713-.56781,1.10575-.86666.17931-.14942.32873-.23908.56781-.08965A.224.224,0,0,1,87.78093,35.91016Z"/><path class="cls-78" d="M109.2085,26.078a4.60918,4.60918,0,0,1-1.4046,1.10575,1.40679,1.40679,0,0,1-.777-.32874,14.56358,14.56358,0,0,1,1.554-1.10575A.99431.99431,0,0,1,109.2085,26.078Z"/><path class="cls-79" d="M105.77172,33.878c.508.269.68735.92643,1.25517,1.10575-.11954.269-.41839.32873-.62759.47816a1.50366,1.50366,0,0,1-1.10574-1.25518A.51217.51217,0,0,1,105.77172,33.878Z"/><path class="cls-80" d="M110.94183,33.4297c-.777-.14942-.95632-.92644-1.4046-1.4046h.47816c.269.17931.68736.17931.777.56781.17932.71724.71724.71724,1.25517.68736C111.71884,33.48947,111.33034,33.36993,110.94183,33.4297Z"/><path class="cls-81" d="M116.41079,33.878a6.4663,6.4663,0,0,0-1.554-2.03218,1.55648,1.55648,0,0,1,1.10575.11954c-.29885,0-.56782,0-.2092.3885a8.4237,8.4237,0,0,1,.98621,1.07586c.11954.2092.29885.35863.11954.62759Z"/><path class="cls-82" d="M87.18323,40.901c.14942.56781-.2092.83678-.5977,1.13563-.269.2092-.53793.3885-.8069.5977a.93949.93949,0,0,1-.14942-.62759A1.85163,1.85163,0,0,1,87.18323,40.901Z"/><path class="cls-83" d="M80.87749,38.54c.05977-.269.29885-.32873.47816-.47816a1.46369,1.46369,0,0,1,.777,1.554.47.47,0,0,1-.32874.29885C81.20622,39.70556,81.0568,39.13774,80.87749,38.54Z"/><path class="cls-84" d="M80.63841,41.73774a1.61661,1.61661,0,0,1-.32874.777,3.64407,3.64407,0,0,1-.95632-1.91264.70454.70454,0,0,1,.269-.47816A2.11689,2.11689,0,0,1,80.63841,41.73774Z"/><path class="cls-85" d="M105.32344,34.20671c.269.508.777.777,1.10575,1.25518l-.32874.29885c-.74712-.08965-.9862-.5977-1.07586-1.25518Z"/><path class="cls-86" d="M107.95333,32.6228A6.24452,6.24452,0,0,1,109.2085,33.878a1.56557,1.56557,0,0,1-.777.29885,1.64264,1.64264,0,0,1-.8069-1.43448A.44944.44944,0,0,1,107.95333,32.6228Z"/><path class="cls-87" d="M103.44069,24.34465v-.17931h.14942c.08966.23908.38851.05977.53793.29885-.65747.44828-1.13563,1.25518-2.12183,1.10575-.17931-.269.02988-.35862.17931-.47816A8.69358,8.69358,0,0,1,103.44069,24.34465Z"/><path class="cls-88" d="M106.24988,24.82281a.52887.52887,0,0,1,.62759.29886,7.89238,7.89238,0,0,0-1.19541,1.046.27687.27687,0,0,1-.35862.08965l-.02988-.02988c-.20919-.02989-.44828.05977-.62759-.14943C104.87517,25.27109,105.62229,25.09178,106.24988,24.82281Z"/><path class="cls-89" d="M82.16254,39.64578a5.05671,5.05671,0,0,0-.777-1.554.99162.99162,0,0,1,.47816-.44828,1.6311,1.6311,0,0,1,.777,1.554A.87905.87905,0,0,1,82.16254,39.64578Z"/><path class="cls-90" d="M107.65448,32.77223l.80689,1.43447a.26194.26194,0,0,1-.29885.14943c-.5977-.05977-.92644-.41839-1.10574-1.25518A.857.857,0,0,1,107.65448,32.77223Z"/><path class="cls-91" d="M107.02689,33.07108c.44828.35862.44828,1.10575,1.10575,1.25517l-.62759.32874-1.10574-1.25518C106.6085,33.31016,106.75792,33.101,107.02689,33.07108Z"/><path class="cls-92" d="M85.62921,38.24119c.62758-.3885,1.01609-1.13562,1.85287-1.22528a1.39818,1.39818,0,0,1-.14943.777,4.1377,4.1377,0,0,0-.9862.5977c-.23908.14942-.38851.41839-.74713.32874Z"/><path class="cls-93" d="M79.35335,40.60211c.269.65747.86666,1.16551.95632,1.91264-.05977.11954-.08965.23908-.14943.35862a3.26981,3.26981,0,0,1-1.13563-1.61379A.99619.99619,0,0,1,79.35335,40.60211Z"/><path class="cls-94" d="M82.01312,37.46418l.47816-.32874c.65747.02989,1.01609.62759.95632,1.4046l-.47816.32874A6.47569,6.47569,0,0,1,82.01312,37.46418Z"/><path class="cls-95" d="M107.65448,25.301l.62758.29885a2.25952,2.25952,0,0,1-1.554,1.10575c-.17931,0-.35862.02989-.47816-.14943C106.45907,25.809,107.17632,25.68948,107.65448,25.301Z"/><path class="cls-96" d="M79.02461,41.19981c.35862.56781.92644.95632,1.13563,1.61379a.753.753,0,0,1-.17931.5977l-1.10574-1.91264A.47559.47559,0,0,1,79.02461,41.19981Z"/><path class="cls-97" d="M83.41771,38.56993c-.23908-.508-.29885-1.16551-.95632-1.4046l.47816-.29885a1.2654,1.2654,0,0,1,.92644,1.4046Z"/><path class="cls-98" d="M105.29356,26.22741c.3885-.17932.508-.62759.89655-.83678a1.50833,1.50833,0,0,1,.68736-.269l.29885.02988c-.11954.71724-.89656.86667-1.25517,1.37472Z"/><path class="cls-99" d="M106.69816,26.70557l1.554-1.10575a.36782.36782,0,0,1,.29885.14942,2.53354,2.53354,0,0,1-1.554,1.10575A.47557.47557,0,0,1,106.69816,26.70557Z"/><path class="cls-100" d="M106.24988,24.82281c-.47816.47817-1.13563.71724-1.554,1.25518-.269-.02989-.56782.05977-.777-.14943a2.86163,2.86163,0,0,0,1.1954-.777,1.73818,1.73818,0,0,1,.74713-.35862Z"/><path class="cls-101" d="M81.08668,40.93085c-.02988.11953-.02988.23907-.17931.269-.68735-.17931-.89655-.777-1.07586-1.37471.08965-.17932.11954-.35863.29885-.47817A1.92827,1.92827,0,0,1,81.08668,40.93085Z"/><path class="cls-102" d="M105.92114,26.52626c.11954-.71724.92644-.8069,1.25517-1.37472l.47816.14943c-.269.62759-1.01609.74712-1.40459,1.25517Z"/><path class="cls-103" d="M85.62921,38.71936l1.01609-.777c.20919-.14942.41839-.29885.68735-.14942v.14942a.26194.26194,0,0,0-.14942.29885c-.508.32874-.83678.98621-1.554.92644Z"/><path class="cls-104" d="M82.01312,37.46418a1.99073,1.99073,0,0,1,.92643,1.4046l-.32873.29885-.777-1.554Z"/><path class="cls-105" d="M83.89587,38.27108a2.98012,2.98012,0,0,0-.92643-1.4046c.20919-.14943.47816-.50805.65747-.05977C83.77633,37.2251,84.643,37.61361,83.89587,38.27108Z"/><path class="cls-106" d="M87.18323,40.901a8.00245,8.00245,0,0,0-1.554,1.07586,4.413,4.413,0,0,0-.02989-.62759c.62759-.14942.95632-.80689,1.554-.95632A3.25739,3.25739,0,0,1,87.18323,40.901Z"/><path class="cls-107" d="M109.83608,28.409a3.40113,3.40113,0,0,0,1.4046-.92644c.08966.08965.269.17931.23908.269C111.42,28.25959,110.31424,28.70787,109.83608,28.409Z"/><path class="cls-108" d="M79.83151,39.8251a7.77934,7.77934,0,0,0,1.07586,1.37471l-.269.53793L79.62231,40.124A2.5854,2.5854,0,0,1,79.83151,39.8251Z"/><path class="cls-109" d="M81.08668,40.93085l-.95632-1.58391c.08965-.11954.2092-.2092.29885-.32873.508.44827.98621.92643.777,1.73332Z"/><path class="cls-110" d="M80.87749,38.54l.95632,1.4046-.29885.35863c-.56782-.29885-.71724-.92644-.98621-1.43448Z"/><path class="cls-111" d="M103.73954,35.76073c.3885.3885.62758.92644,1.10574,1.25518-.56781.35862-.74712-.2092-.9862-.47817C103.73954,36.35843,103.17172,36.08947,103.73954,35.76073Z"/><path class="cls-112" d="M80.57864,38.86878a9.3954,9.3954,0,0,1,.9862,1.43448l-.32873.44827c.02988-.71723-.65747-1.07586-.777-1.73332Z"/><path class="cls-113" d="M79.20392,45.44349v.14942c-.47816.05978-1.16551-.269-1.10574.65748a3.06936,3.06936,0,0,1,0-1.64368C77.94875,45.563,78.60622,45.50325,79.20392,45.44349Z"/><path class="cls-114" d="M99.974,55.75382H94.8338a22.36806,22.36806,0,0,0-2.45058-.05977,2.64011,2.64011,0,0,1-.83678-.05977H91.397c-.17931-.17931-.47816-.23908-.62759-.41839a1.98156,1.98156,0,0,0-1.64367-.62759c-.32874,0-.777.17931-.98621-.32874,2.6-.08965,5.17011.02989,7.74022.11954a.75235.75235,0,0,1,.5977.269,2.59147,2.59147,0,0,0,2.39081.9862A1.33256,1.33256,0,0,1,99.974,55.75382Z"/><path class="cls-115" d="M88.13955,54.22969c.32873.269.71724.14942,1.046.11953,1.10574-.14942,1.67356.508,2.24137,1.25518a10.124,10.124,0,0,0-1.64368.02989c-1.13563.2092-1.88275-.47817-2.65976-1.10575.17931-.29885.53793-.02989.68735-.29885Z"/><path class="cls-115" d="M91.54644,55.6044a16.99993,16.99993,0,0,1,3.25747.14942H91.54644Z"/><path class="cls-17" d="M100.45218,54.34922a2.82156,2.82156,0,0,1,2.8092,1.25518A2.90113,2.90113,0,0,1,100.45218,54.34922Z"/><path class="cls-116" d="M92.951,27.15384l.14943.29885-.14943.14943a6.7105,6.7105,0,0,1-1.88276,1.554.26193.26193,0,0,1-.14942-.29885Z"/><path class="cls-117" d="M114.07976,33.25039a13.741,13.741,0,0,1-1.4046-1.554h.92644l.44828.68736C114.22918,32.68258,114.4085,32.95154,114.07976,33.25039Z"/><path class="cls-118" d="M85.59932,39.19751c.5977-.17931.89655-.89655,1.554-.92644.05977.68735-.62758.74713-.92643,1.13563a1.7801,1.7801,0,0,1-.62759.41839Z"/><path class="cls-119" d="M103.44069,24.34465c-.2092.41839-.65747.56782-1.01609.8069-.17931.11954-.38851.17931-.38851.44828h-.47816C102.066,25.00212,102.45448,24.255,103.44069,24.34465Z"/></g></g></g></g></g></svg>