<svg xmlns="http://www.w3.org/2000/svg" viewBox="0 0 335.27493 70.23641"><defs><style>.cls-1{fill:none;}.cls-2{fill:#333;}</style></defs><g id="Capa_2" data-name="Capa 2"><g id="Capa_1-2" data-name="Capa 1"><rect class="cls-1" width="335.27493" height="70.23641"/><path class="cls-2" d="M111.39579,24.52329h-5.00888l-7.235,18.77815h4.53478l1.17493-3.195h6.8434l-1.23676-3.50415h-4.51417l2.927-8.08017,5.215,14.77929h4.53479Zm76.1226,18.77815V24.52329h4.01948V39.77667h7.93588v3.52477Zm23.18927,0V24.52329h4.04007V39.77667h7.93588v3.52477ZM165.21548,27.88316a6.03951,6.03951,0,1,1-6.03951,6.03951,6.03475,6.03475,0,0,1,6.03951-6.03951m0-3.66906a9.70857,9.70857,0,1,0,9.70857,9.70857A9.7119,9.7119,0,0,0,165.21548,24.2141Zm75.97831,3.66906a6.03951,6.03951,0,1,1-6.03951,6.03951,6.03475,6.03475,0,0,1,6.03951-6.03951m0-3.66906a9.70857,9.70857,0,1,0,9.70857,9.70857A9.71189,9.71189,0,0,0,241.19379,24.2141Zm-102.09457.30919h-8.76038V43.30144h3.99886V36.82906h4.76152a6.15395,6.15395,0,0,0,0-12.30577Zm0,8.63671H134.3377V28.19235h4.76152a2.48653,2.48653,0,0,1,0,4.96765Z"/><path class="cls-2" d="M126.89652,48.99054a1.01662,1.01662,0,0,0-.84512.43286s-.90695,1.03064-1.38105,1.52534a22.4555,22.4555,0,0,1-7.11137,4.80275,22.11055,22.11055,0,0,1-8.71916,1.75208,22.48024,22.48024,0,0,1-8.71916-1.75208,22.22743,22.22743,0,0,1-7.11137-4.80275,22.45581,22.45581,0,0,1-4.80276-7.11137,22.11072,22.11072,0,0,1-1.75207-8.71916,22.48015,22.48015,0,0,1,1.75207-8.71916,21.84,21.84,0,0,1,4.78214-7.11138,22.45587,22.45587,0,0,1,7.11138-4.80275,22.11073,22.11073,0,0,1,8.71916-1.75208,22.2505,22.2505,0,0,1,14.07846,4.96766,2.65931,2.65931,0,0,0-.14429.8245,2.53536,2.53536,0,1,0,2.53535-2.53535,2.15124,2.15124,0,0,0-.96879.20612,24.45959,24.45959,0,1,0,3.31864,34.56745,1.0497,1.0497,0,0,0,.30919-.72144,1.08351,1.08351,0,0,0-1.05125-1.05125Z"/></g></g></svg>