<svg xmlns="http://www.w3.org/2000/svg" viewBox="0 0 335.27493 70.23641"><defs><style>.cls-1{fill:none;}.cls-2{fill:#092e20;}</style></defs><g id="Capa_2" data-name="Capa 2"><g id="Capa_1-2" data-name="Capa 1"><rect class="cls-1" width="335.27493" height="70.23641"/><path class="cls-2" d="M115.74142,11.3925h7.42748V45.7734a48.99506,48.99506,0,0,1-9.6463,1.01311c-9.06786-.00062-13.79455-4.09972-13.79455-11.96188,0-7.57247,5.01637-12.49177,12.78145-12.49177a11.87661,11.87661,0,0,1,3.23192.38552Zm0,17.3062a7.37907,7.37907,0,0,0-2.50819-.38552c-3.76212,0-5.93271,2.31527-5.93271,6.36646,0,3.95534,2.07413,6.12562,5.88449,6.12562a17.29578,17.29578,0,0,0,2.55641-.1926Z"/><path class="cls-2" d="M134.98516,22.86307V40.08152c0,5.93271-.43437,8.7785-1.73623,11.23814-1.206,2.36382-2.79786,3.85858-6.07739,5.499l-6.89728-3.27984c3.27984-1.54362,4.87138-2.8937,5.88417-4.96845,1.06134-2.12174,1.39925-4.582,1.39925-11.04492V22.86307ZM127.55768,11.432h7.42748v7.6207h-7.42748Zm11.914,13.11905a22.34772,22.34772,0,0,1,9.83952-2.2182c3.81035,0,6.31822,1.01249,7.42779,2.99016.62665,1.10926.81957,2.55611.81957,5.64334v15.0961a81.73706,81.73706,0,0,1-10.61087.82019c-6.22177,0-9.01963-2.1712-9.01963-6.994,0-5.2096,3.71389-7.621,12.82967-8.393V29.85586c0-1.35039-.67519-1.83236-2.55641-1.83236a19.45162,19.45162,0,0,0-8.73027,2.267l.00062-5.73948Zm11.62428,11.81688c-4.91992.48229-6.51176,1.25394-6.51176,3.18338,0,1.44654.91665,2.12174,2.94223,2.12174a20.48975,20.48975,0,0,0,3.56921-.33729Zm10.08035-12.34739a44.545,44.545,0,0,1,11.67188-1.68769c3.81035,0,6.55968.8678,8.20007,2.55611,1.5433,1.59122,2.02528,3.32744,2.02528,7.042V46.49651h-7.42779V32.2203c0-2.84547-.96457-3.90712-3.61713-3.90712a11.18956,11.18956,0,0,0-3.42484.53052V46.49652h-7.42747ZM185.961,50.548a16.90525,16.90525,0,0,0,7.9583,1.97705c4.87075,0,6.94489-1.97705,6.94489-6.70405v-.14468a10.16147,10.16147,0,0,1-4.82284,1.01279c-6.51145,0-10.66-4.29263-10.66-11.09283,0-8.44121,6.12593-13.21582,16.97762-13.21582a46.88533,46.88533,0,0,1,9.69483,1.06072l-2.54335,5.3577c-1.97736-.38583-.15837-.05165-1.65283-.19634v.772l.09614,3.13453.04791,4.05181c.04823,1.01248.04823,2.02559.09677,3.03838v2.02622c0,6.36645-.5305,9.35661-2.12173,11.81657-2.31528,3.61775-6.31885,5.40189-12.01011,5.40189a21.24721,21.24721,0,0,1-8.00621-1.44685l.00062-6.849Zm14.75912-22.1866h-.77134a8.11573,8.11573,0,0,0-4.29263,1.06071c-1.78414,1.01311-2.70142,2.8461-2.70142,5.45043,0,3.71421,1.83362,5.83626,5.11315,5.83626a9.21448,9.21448,0,0,0,2.79694-.48229v-2.5561c0-.86842-.04761-1.83361-.04761-2.84578l-.04792-3.42422-.04854-2.45995-.00063-.57905Zm22.86523-6.12531c7.42748,0,11.96156,4.67877,11.96156,12.25093,0,7.7657-4.72638,12.63708-12.25093,12.63708-7.42809,0-12.01042-4.67878-12.01042-12.20271.00063-7.81424,4.72763-12.6853,12.29979-12.6853ZM223.44,41.14286c2.84578,0,4.53408-2.3635,4.53408-6.46323,0-4.05118-1.64007-6.46291-4.48524-6.46291-2.94255,0-4.63116,2.36382-4.63116,6.46291.00062,4.1,1.68893,6.46323,4.58231,6.46323Z"/></g></g></svg>