<svg xmlns="http://www.w3.org/2000/svg" viewBox="0 0 335.27493 70.23641"><defs><style>.cls-1{fill:none;}.cls-2{fill:#ffc24a;}.cls-3{fill:#ffa712;}.cls-4{fill:#fbaf00;}.cls-5{fill:#f4bd62;}.cls-6{fill:#ffa50e;}.cls-7{fill:#f6820c;}.cls-8{fill:#fde068;}.cls-9{fill:#fcca3f;}.cls-10{fill:#eeab37;}.cls-11{fill:#63666a;}</style></defs><g id="Capa_2" data-name="Capa 2"><g id="Capa_1-2" data-name="Capa 1"><rect class="cls-1" width="335.27493" height="70.23641"/><path class="cls-2" d="M86.90779,51.24375l.31788-.44515,15.03388-28.52623.03174-.302L95.66422,9.52193A1.22993,1.22993,0,0,0,93.36341,9.91Z"/><path id="D" class="cls-3" d="M87.09541,50.90416l.24032-.46867,14.87485-28.22736L95.60163,9.7091a1.11774,1.11774,0,0,0-2.12622.38632Z"/><path id="D-2" data-name="D" class="cls-4" d="M87.09541,50.90416l.24032-.46867,14.87485-28.22736L95.60163,9.7091a1.11774,1.11774,0,0,0-2.12622.38632Z"/><path class="cls-5" d="M107.1226,31.38636l4.93448-5.05351-4.93583-9.42275a1.27157,1.27157,0,0,0-2.24046,0l-2.63727,5.03105v.42824Z"/><path id="C" class="cls-6" d="M107.03456,31.17584l4.79717-4.91307L107.03456,17.128a1.10507,1.10507,0,0,0-2.01287-.08984l-2.651,5.10592-.07936.26114Z"/><path id="C-2" data-name="C" class="cls-4" d="M107.03456,31.17584l4.79717-4.91307L107.03456,17.128a1.10507,1.10507,0,0,0-2.01287-.08984l-2.651,5.10592-.07936.26114Z"/><path class="cls-7" d="M102.25745,21.912,86.90779,51.24375l.144-.14494.52347-.21262,19.2375-19.16592.24347-.66332Z"/><path class="cls-8" d="M107.73875,60.90937l17.4103-9.70994-4.97041-30.62085a1.18976,1.18976,0,0,0-2.01647-.64985l-31.25438,31.315,17.31042,9.665a3.61308,3.61308,0,0,0,3.52069.00075"/><path class="cls-9" d="M124.99318,51.11828l-4.934-30.38727a1.04534,1.04534,0,0,0-1.81238-.66243L87.10244,51.18416l17.12027,9.568a3.58549,3.58549,0,0,0,3.49388.0009Z"/><path class="cls-10" d="M107.73875,60.62338a3.61223,3.61223,0,0,1-3.52069-.0009L87.047,51.09657l-.13925.14719,17.31042,9.665a3.61267,3.61267,0,0,0,3.52069.00075l17.4103-9.70994-.04268-.26234Z"/><path class="cls-11" d="M138.33141,46.747h-2.963V23.68679h13.44572v2.83356H138.33141v7.56944h9.4701v2.77214h-9.4701ZM154.02305,27.0034a2.09192,2.09192,0,1,1,.61419-1.48069A2.01786,2.01786,0,0,1,154.02305,27.0034Zm0,19.74362H151.06V30.96574h2.963Zm6.39585,0h-2.9647V30.96574h2.83356V33.542h.12781a4.032,4.032,0,0,1,1.85253-2.12475,5.267,5.267,0,0,1,2.72234-.83828,5.61288,5.61288,0,0,1,2.22435.38677L166.086,33.73788a4.13591,4.13591,0,0,0-1.577-.22576,3.86742,3.86742,0,0,0-2.85016,1.27154,4.57851,4.57851,0,0,0-1.24,3.33321v8.63182Zm14.58777.498a7.60635,7.60635,0,0,1-5.81319-2.38371,8.45207,8.45207,0,0,1-2.24095-6.02235,8.748,8.748,0,0,1,2.15795-5.92607,7.06285,7.06285,0,0,1,5.55589-2.48,7.30888,7.30888,0,0,1,5.62065,2.28743,8.66256,8.66256,0,0,1,2.10815,6.12029l-.0332.54779H169.91224a5.363,5.363,0,0,0,1.59356,3.76812,4.83053,4.83053,0,0,0,3.43115,1.38441,4.25117,4.25117,0,0,0,4.31591-2.70574l2.65594,1.09557a6.9655,6.9655,0,0,1-2.54472,3.07592,7.39452,7.39452,0,0,1-4.34911,1.24Zm4.24951-10.29178a4.21831,4.21831,0,0,0-1.24-2.57627,4.4271,4.4271,0,0,0-3.39794-1.22339,4.256,4.256,0,0,0-2.85016,1.02918,5.26678,5.26678,0,0,0-1.66,2.77214h9.1298ZM193.13846,47.245a6.69314,6.69314,0,0,1-3.23693-.77355,5.64515,5.64515,0,0,1-2.158-1.9322h-.11122v2.19116h-2.83356V23.68679h2.963v7.279l-.12948,2.19115h.12948a5.41093,5.41093,0,0,1,2.158-1.9322,6.76312,6.76312,0,0,1,3.23693-.77354,6.9141,6.9141,0,0,1,5.282,2.41525,8.583,8.583,0,0,1,2.22435,5.97587,8.4654,8.4654,0,0,1-2.22435,5.97587,7.0037,7.0037,0,0,1-5.282,2.41525Zm-.498-2.70575a4.71641,4.71641,0,0,0,3.54237-1.56036,5.76785,5.76785,0,0,0,1.48069-4.13829,5.77055,5.77055,0,0,0-1.48069-4.13829,4.71308,4.71308,0,0,0-3.54237-1.56037,4.6645,4.6645,0,0,0-3.559,1.54377,5.81969,5.81969,0,0,0-1.46575,4.15489,5.78792,5.78792,0,0,0,1.46575,4.15489,4.72217,4.72217,0,0,0,3.559,1.54708ZM208.43171,47.245a6.33587,6.33587,0,0,1-4.203-1.44915,5.11851,5.11851,0,0,1,.30378-7.85994,8.10449,8.10449,0,0,1,4.9301-1.46574,8.48373,8.48373,0,0,1,4.28271.9661v-.45151a3.52228,3.52228,0,0,0-1.19186-2.78542,4.28378,4.28378,0,0,0-2.93149-1.04578,4.52038,4.52038,0,0,0-2.33557.61419,3.154,3.154,0,0,0-1.43255,1.67491L203.14807,34.284a6.11331,6.11331,0,0,1,2.158-2.62274,6.91938,6.91938,0,0,1,4.2495-1.20846,7.29567,7.29567,0,0,1,5.02471,1.77118,6.3225,6.3225,0,0,1,1.99695,4.99152v9.53318h-2.817V44.55753h-.12948a5.81271,5.81271,0,0,1-5.18573,2.70575Zm.498-2.70575a4.82387,4.82387,0,0,0,3.33321-1.36947,4.25153,4.25153,0,0,0,1.49729-3.23693,5.83834,5.83834,0,0,0-3.76811-1.02918,4.9021,4.9021,0,0,0-3.25353.93456A2.80464,2.80464,0,0,0,205.643,42.0294a2.10639,2.10639,0,0,0,.99929,1.83591,3.98078,3.98078,0,0,0,2.28743.67727ZM225.19736,47.245a7.11379,7.11379,0,0,1-4.3657-1.28814,7.61906,7.61906,0,0,1-2.52813-3.22033l2.65594-1.09557a4.34553,4.34553,0,0,0,4.28271,2.963,3.89686,3.89686,0,0,0,2.27082-.61418,1.87816,1.87816,0,0,0,.88642-1.61017q0-1.54376-2.158-2.09155l-3.18713-.77354a7.59332,7.59332,0,0,1-2.86675-1.46575,3.47164,3.47164,0,0,1-1.34789-2.89664,3.98692,3.98692,0,0,1,1.85252-3.39795A7.95377,7.95377,0,0,1,228.826,31.399a5.36928,5.36928,0,0,1,2.35216,2.72234l-2.57626,1.06238a3.49841,3.49841,0,0,0-3.6071-2.09156,4.0718,4.0718,0,0,0-2.22435.54779,1.68246,1.68246,0,0,0-.90136,1.48069q0,1.352,2.09156,1.83592l3.12405.74034a5.9186,5.9186,0,0,1,3.28673,1.77119,4.261,4.261,0,0,1,1.06238,2.83356,4.39115,4.39115,0,0,1-1.73964,3.54236,6.861,6.861,0,0,1-4.47692,1.41761Zm15.78127,0a7.60389,7.60389,0,0,1-5.81319-2.38371,8.45928,8.45928,0,0,1-2.24095-6.02235,8.748,8.748,0,0,1,2.158-5.92607,7.06287,7.06287,0,0,1,5.5559-2.48,7.30887,7.30887,0,0,1,5.62064,2.28743,8.66256,8.66256,0,0,1,2.10815,6.12029v.54779H235.91741a5.34909,5.34909,0,0,0,1.59356,3.76812,4.83053,4.83053,0,0,0,3.42949,1.38441,4.25117,4.25117,0,0,0,4.31591-2.70574l2.65594,1.09557a6.96543,6.96543,0,0,1-2.54472,3.07592,7.39448,7.39448,0,0,1-4.34911,1.24Zm4.24951-10.29178a4.21821,4.21821,0,0,0-1.24-2.57627,4.42709,4.42709,0,0,0-3.39794-1.22339A4.24951,4.24951,0,0,0,237.74,34.18441a5.27317,5.27317,0,0,0-1.66,2.77213h9.12981Z"/></g></g></svg>