<svg xmlns="http://www.w3.org/2000/svg" viewBox="0 0 335.27493 70.23641"><defs><style>.cls-1{fill:none;}.cls-2{fill:#e10098;}</style></defs><g id="Capa_2" data-name="Capa 2"><g id="Capa_1-2" data-name="Capa 1"><rect class="cls-1" width="335.27493" height="70.23641"/><path class="cls-2" d="M149.92447,24.70708a7.09516,7.09516,0,0,0-2.18771.31917,4.139,4.139,0,0,0-1.68125.989,4.87267,4.87267,0,0,0-1.12083,1.73519,8.11487,8.11487,0,0,0-.454,2.54734q-.08391,2.402,0,4.804a8.01833,8.01833,0,0,0,.454,2.54734,5.18186,5.18186,0,0,0,1.12083,1.76216,4.58,4.58,0,0,0,1.68125.989,7.666,7.666,0,0,0,2.18771.29369,7.22425,7.22425,0,0,0,2.18771-.31917,4.90407,4.90407,0,0,0,1.73519-1.00994,4.786,4.786,0,0,0,1.17777-1.76216,6.72808,6.72808,0,0,0,.42705-2.50838V33.73365h-4.64964a.52454.52454,0,0,1-.58738-.59937v-.37461a.52454.52454,0,0,1,.58738-.59938h5.709a.52977.52977,0,0,1,.59937.59938v2.348a8.62561,8.62561,0,0,1-.47949,2.93693,6.36508,6.36508,0,0,1-1.41453,2.27163,6.16778,6.16778,0,0,1-2.27162,1.49394,8.60335,8.60335,0,0,1-3.04182.50647,8.388,8.388,0,0,1-3.04182-.50647,6.41,6.41,0,0,1-2.21469-1.46846,6.50859,6.50859,0,0,1-1.36058-2.21469,9.74412,9.74412,0,0,1-.50647-2.883q-.05394-1.19874-.054-2.53535,0-1.34859.054-2.53535a8.99553,8.99553,0,0,1,.53344-2.856,6.45873,6.45873,0,0,1,1.36058-2.24166,6.13388,6.13388,0,0,1,2.21468-1.44149,8.95927,8.95927,0,0,1,6.16457.027,7.12993,7.12993,0,0,1,2.13527,1.34859,5.40722,5.40722,0,0,1,1.22871,1.6288,3.97488,3.97488,0,0,1,.42706,1.41452.4617.4617,0,0,1-.13486.40008.64164.64164,0,0,1-.42706.13486H155.695a.48556.48556,0,0,1-.34764-.10489,1.65768,1.65768,0,0,1-.21277-.427,5.79125,5.79125,0,0,0-.59938-1.19875,3.8859,3.8859,0,0,0-1.00994-1.06688,5.3477,5.3477,0,0,0-1.52091-.77469,6.60571,6.60571,0,0,0-2.08283-.2937ZM162.52331,30.016a3.70738,3.70738,0,0,1,3.62921-1.84307h.989a.51918.51918,0,0,1,.58738.58739v.3746a.51918.51918,0,0,1-.58738.58739h-1.1478a3.22227,3.22227,0,0,0-3.46888,3.46888v8.27136a.534.534,0,0,1-.18731.427.57716.57716,0,0,1-.42705.16033h-.42705a.51918.51918,0,0,1-.58739-.58738V28.78582a.57716.57716,0,0,1,.16033-.42705.534.534,0,0,1,.42706-.18731h.42705a.64138.64138,0,0,1,.61436.61436v1.22872Zm16.48278,12.04142a.51917.51917,0,0,1-.58738-.58738V40.21588a3.985,3.985,0,0,1-.63983.74921,3.79185,3.79185,0,0,1-.93353.66681,5.75671,5.75671,0,0,1-1.34859.4795,6.8853,6.8853,0,0,1-1.81311.21277,5.80779,5.80779,0,0,1-1.84307-.29369,5.46958,5.46958,0,0,1-1.52091-.85411,4.40188,4.40188,0,0,1-1.03991-1.25419,3.35433,3.35433,0,0,1-.37461-1.57335,3.48471,3.48471,0,0,1,.37461-1.6288,4.08487,4.08487,0,0,1,1.09385-1.25419,5.66151,5.66151,0,0,1,1.65427-.90655,9.80107,9.80107,0,0,1,2.16225-.53345l4.21659-.58738v-.93353a2.87416,2.87416,0,0,0-.88108-2.24166,5.01069,5.01069,0,0,0-5.0707-.21277,2.45751,2.45751,0,0,0-1.01,1.22871.97669.97669,0,0,1-.26672.454.59661.59661,0,0,1-.37461.10489h-.37461a.55165.55165,0,0,1-.58738-.58739,2.2783,2.2783,0,0,1,.26672-.93352,3.59509,3.59509,0,0,1,.85411-1.09386,5.13132,5.13132,0,0,1,1.54788-.90655,5.7601,5.7601,0,0,1,2.27163-.40009,6.73331,6.73331,0,0,1,2.5893.42706,4.1585,4.1585,0,0,1,1.6288,1.12083,3.588,3.588,0,0,1,.80016,1.49394,5.831,5.831,0,0,1,.23976,1.62879v8.88572a.51918.51918,0,0,1-.58739.58738h-.454Zm-5.04373-1.28116a4.92653,4.92653,0,0,0,1.70821-.29369,4.103,4.103,0,0,0,1.4415-.93352,4.31568,4.31568,0,0,0,.959-1.54788,6.26033,6.26033,0,0,0,.34763-2.18772v-.90655l-3.4419.4795q-4.42938.59937-4.42938,2.829a2.16028,2.16028,0,0,0,.29369,1.14781,2.85215,2.85215,0,0,0,.80017.80016,3.59565,3.59565,0,0,0,1.09385.4795,5.58006,5.58006,0,0,0,1.22872.13486Zm16.41685,1.54789a5.57258,5.57258,0,0,1-2.74813-.59938,5.47634,5.47634,0,0,1-1.73519-1.49394v6.3234a.51917.51917,0,0,1-.58738.58738h-.454a.51918.51918,0,0,1-.58738-.58738V28.76035a.51918.51918,0,0,1,.58738-.58739h.454a.51917.51917,0,0,1,.58738.58739v1.25419a5.26293,5.26293,0,0,1,1.73519-1.49394,6.49092,6.49092,0,0,1,5.3629-.039,4.70093,4.70093,0,0,1,1.76216,1.44149,5.61736,5.61736,0,0,1,.959,2.02888,10.091,10.091,0,0,1,.37461,2.2956q.027.40009.027.88108,0,.47951-.027.88108a10.33835,10.33835,0,0,1-.37461,2.32257,5.9517,5.9517,0,0,1-.959,2.02889,5.04916,5.04916,0,0,1-1.76216,1.44149,5.80532,5.80532,0,0,1-2.61477.53344Zm-4.48332-8.16647q-.027.40008-.027,1.03991t.027,1.03991a6.65431,6.65431,0,0,0,.26673,1.6288,4.41889,4.41889,0,0,0,.80016,1.4415,4.36722,4.36722,0,0,0,1.34859,1.06688,4.25464,4.25464,0,0,0,1.921.40009,4.20553,4.20553,0,0,0,1.948-.40009,3.446,3.446,0,0,0,1.28117-1.06688,4.38782,4.38782,0,0,0,.71925-1.57336,9.33214,9.33214,0,0,0,.29369-1.86855q.027-.74921,0-1.49393a8.94159,8.94159,0,0,0-.29369-1.84308,4.12721,4.12721,0,0,0-.71925-1.54788,3.33367,3.33367,0,0,0-1.28117-1.09386,3.99849,3.99849,0,0,0-1.948-.42705,4.09119,4.09119,0,0,0-1.948.42705A4.246,4.246,0,0,0,186.9358,31.008a4.9979,4.9979,0,0,0-.77469,1.49394,6.70827,6.70827,0,0,0-.26673,1.65427ZM201.37922,30.016a5.8969,5.8969,0,0,1,1.73518-1.52091,5.46728,5.46728,0,0,1,2.74813-.58738,5.77,5.77,0,0,1,2.375.454A4.6425,4.6425,0,0,1,209.9188,29.616a5.28516,5.28516,0,0,1,1.03991,1.89552,7.80311,7.80311,0,0,1,.34764,2.375v7.57908a.51918.51918,0,0,1-.58738.58739h-.44954a.51918.51918,0,0,1-.58738-.58739V34.01835a4.92941,4.92941,0,0,0-1.03992-3.33551,3.76192,3.76192,0,0,0-3.04182-1.22872,4.05053,4.05053,0,0,0-3.06879,1.19875,4.67192,4.67192,0,0,0-1.1478,3.367v7.44722a.51917.51917,0,0,1-.58738.58738h-.454a.51917.51917,0,0,1-.58738-.58738V23.68814a.51917.51917,0,0,1,.58738-.58738h.454a.51917.51917,0,0,1,.58738.58738v6.3234Zm20.81326-6.91078a8.41963,8.41963,0,0,1,2.829.454,5.61646,5.61646,0,0,1,2.18772,1.38755,6.02532,6.02532,0,0,1,1.44149,2.2956,9.605,9.605,0,0,1,.58738,3.22913q.054,1.19874.05395,2.24166,0,1.0399-.05395,2.24166-.13484,3.81651-1.948,5.60414l1.70822,2.402q.027.05394.05394.10489a.45779.45779,0,0,1,.027.18731.54791.54791,0,0,1-.53494.53493H227.957a.6557.6557,0,0,1-.50647-.23975q-.21276-.21277-.34764-.3746L225.92507,41.545a8.4975,8.4975,0,0,1-3.7371.77469,7.02824,7.02824,0,0,1-5.15011-1.78763q-1.78764-1.78764-1.89552-5.57718-.054-1.19874-.05395-2.24165,0-1.03992.05395-2.24166a10.10765,10.10765,0,0,1,.56041-3.22913,6.48284,6.48284,0,0,1,1.4415-2.2956,5.891,5.891,0,0,1,2.18771-1.38755,8.50566,8.50566,0,0,1,2.856-.454Zm0,1.60333a6.08418,6.08418,0,0,0-2.08283.34764,4.25065,4.25065,0,0,0-1.68124,1.03991,5.1652,5.1652,0,0,0-1.1478,1.84307,8.88235,8.88235,0,0,0-.454,2.66722q-.027.59937-.054,1.12083,0,.50646,0,.989,0,.47951,0,1.01.027.50646.054,1.09385a9.0002,9.0002,0,0,0,.454,2.69719,5.40359,5.40359,0,0,0,1.12083,1.8131,4.52211,4.52211,0,0,0,1.68125,1.06689,7.09337,7.09337,0,0,0,4.2076,0,4.31266,4.31266,0,0,0,1.65426-1.06689,4.915,4.915,0,0,0,1.12084-1.8131,8.38113,8.38113,0,0,0,.47949-2.69718q.027-.58738.027-1.09386,0-.53344,0-1.00994,0-.47951,0-.989,0-.50647-.027-1.12083a8.33543,8.33543,0,0,0-.47949-2.66721,4.88877,4.88877,0,0,0-1.12084-1.84308,4.24542,4.24542,0,0,0-1.68124-1.03991,6.06774,6.06774,0,0,0-2.08283-.34764Zm13.02589,15.74255h9.20638a.5298.5298,0,0,1,.59938.59938v.40008a.52456.52456,0,0,1-.59938.58738H234.12451a.51918.51918,0,0,1-.58738-.58738V23.95786a.51917.51917,0,0,1,.58738-.58738h.50647a.51918.51918,0,0,1,.58738.58738V40.44964ZM94.21716,47.96279,92.419,46.92287,112.4651,12.20414l1.79812,1.03992Z"/><path class="cls-2" d="M92.01,44.15077h40.09211V46.2291H92.01Z"/><path class="cls-2" d="M112.85769,56.89645,92.80264,45.31805l1.03991-1.79812,20.05355,11.5754ZM130.27849,26.718,110.22494,15.14107l1.03991-1.79812L131.3184,24.92136Z"/><path class="cls-2" d="M93.84705,26.712l-1.03992-1.79812,20.07-11.56491,1.03991,1.79812Z"/><path class="cls-2" d="M129.90838,47.96279,109.86082,13.24405l1.79812-1.03991L131.705,46.92287ZM93.59981,23.5353h2.07533V46.69212H93.59981Zm34.84759,0h2.07833V46.69212h-2.07982Z"/><path class="cls-2" d="M112.50256,56.01687l-.90805-1.57335L129.03629,44.374l.90805,1.57335Z"/><path class="cls-2" d="M133.27986,47.36791a3.20068,3.20068,0,1,1,.0015,0M98.40828,27.229a3.20068,3.20068,0,1,1,.0015,0m-7.5611,20.139a4.37188,4.37188,0,1,1,5.97126,1.60332,4.37807,4.37807,0,0,1-5.97126-1.60332m34.87307-20.139a3.20068,3.20068,0,1,1,0,.0015M112.06052,59.6266a4.36794,4.36794,0,1,1,4.36794-4.36793,4.36393,4.36393,0,0,1-4.36794,4.36793m0-40.28092a4.36045,4.36045,0,1,1,.015,0h-.015"/></g></g></svg>