<svg xmlns="http://www.w3.org/2000/svg" xmlns:xlink="http://www.w3.org/1999/xlink" viewBox="0 0 335.27493 70.23641"><defs><style>.cls-1,.cls-6{fill:url(#linear-gradient);}.cls-1{clip-rule:evenodd;}.cls-2{fill:none;}.cls-3,.cls-5{fill:#679e63;}.cls-4{fill:#333;}.cls-4,.cls-5,.cls-6{fill-rule:evenodd;}.cls-7{clip-path:url(#clip-path);}.cls-8{fill:url(#linear-gradient-3);}.cls-9{fill:url(#linear-gradient-4);}.cls-10{fill:url(#linear-gradient-5);}.cls-11{fill:url(#linear-gradient-6);}.cls-12{fill:url(#linear-gradient-7);}.cls-13{fill:url(#linear-gradient-8);}</style><linearGradient id="linear-gradient" x1="157.16467" y1="21.05695" x2="147.39148" y2="40.99427" gradientUnits="userSpaceOnUse"><stop offset="0" stop-color="#3f873f"/><stop offset="0.3296" stop-color="#3f8b3d"/><stop offset="0.63676" stop-color="#3e9637"/><stop offset="0.93418" stop-color="#3da92e"/><stop offset="1" stop-color="#3dae2b"/></linearGradient><clipPath id="clip-path"><path class="cls-1" d="M153.42068,16.40788a1.30619,1.30619,0,0,0-1.30617,0l-10.81789,6.2427a1.30591,1.30591,0,0,0-.65356,1.13166v12.495a1.30748,1.30748,0,0,0,.65312,1.13166l10.8179,6.24773a1.30736,1.30736,0,0,0,1.307,0l10.81538-6.24773a1.30757,1.30757,0,0,0,.653-1.13166V23.78181a1.30583,1.30583,0,0,0-.65348-1.13123Z"/></clipPath><linearGradient id="linear-gradient-3" x1="151.11972" y1="31.49102" x2="178.54258" y2="11.22954" gradientUnits="userSpaceOnUse"><stop offset="0.13756" stop-color="#3f873f"/><stop offset="0.39741" stop-color="#529f44"/><stop offset="0.71128" stop-color="#63b649"/><stop offset="0.90808" stop-color="#6abf4b"/></linearGradient><linearGradient id="linear-gradient-4" x1="140.26034" y1="14.15542" x2="165.27225" y2="14.15542" gradientUnits="userSpaceOnUse"><stop offset="0.09192" stop-color="#6abf4b"/><stop offset="0.28872" stop-color="#63b649"/><stop offset="0.60259" stop-color="#529f44"/><stop offset="0.86244" stop-color="#3f873f"/></linearGradient><linearGradient id="linear-gradient-5" x1="140.26034" y1="30.02705" x2="165.27225" y2="30.02705" xlink:href="#linear-gradient-4"/><linearGradient id="linear-gradient-6" x1="140.26034" y1="37.16745" x2="165.27225" y2="37.16745" xlink:href="#linear-gradient-4"/><linearGradient id="linear-gradient-7" x1="140.26034" y1="40.39472" x2="165.27225" y2="40.39472" xlink:href="#linear-gradient-4"/><linearGradient id="linear-gradient-8" x1="168.91618" y1="20.46586" x2="153.49043" y2="51.93439" xlink:href="#linear-gradient"/></defs><g id="Capa_2" data-name="Capa 2"><g id="Capa_1-2" data-name="Capa 1"><rect class="cls-2" width="335.27493" height="70.23641"/><path class="cls-3" d="M166.98577,69.89865a2.14989,2.14989,0,0,1-1.07571-.2879l-3.42467-2.02618c-.51108-.28616-.26148-.3875-.09289-.44628a6.82867,6.82867,0,0,0,1.54842-.70435.263.263,0,0,1,.25467.01953l2.63093,1.562a.33807.33807,0,0,0,.31772,0l10.25712-5.92026a.32347.32347,0,0,0,.15672-.2776V49.98053a.331.331,0,0,0-.15925-.28275L167.1459,43.78267a.32125.32125,0,0,0-.316,0l-10.25031,5.91685a.32957.32957,0,0,0-.16266.281V61.81764a.31437.31437,0,0,0,.16179.2742l2.80981,1.62343c1.52452.76226,2.458-.13545,2.458-1.03743V50.99066a.29519.29519,0,0,1,.2981-.29549h1.30064a.296.296,0,0,1,.29723.29549V62.67784c0,2.03473-1.10807,3.20158-3.03717,3.20158a4.38812,4.38812,0,0,1-2.36266-.64216L155.653,63.68884a2.16645,2.16645,0,0,1-1.07572-1.8712V49.98053a2.1615,2.1615,0,0,1,1.07572-1.86946L165.91006,42.184a2.24751,2.24751,0,0,1,2.1557,0l10.25633,5.92705a2.16516,2.16516,0,0,1,1.07737,1.86946V61.81764a2.17118,2.17118,0,0,1-1.07737,1.8712l-10.25633,5.92191A2.15149,2.15149,0,0,1,166.98577,69.89865Z"/><path class="cls-3" d="M170.15413,61.7435c-4.48845,0-5.4288-2.06028-5.4288-3.78836a.29483.29483,0,0,1,.29644-.29557h1.32611a.29712.29712,0,0,1,.2947.25126c.20016,1.34992.79715,2.03133,3.51155,2.03133,2.16084,0,3.0807-.48884,3.0807-1.63528,0-.66092-.26069-1.1515-3.61891-1.48031-2.8064-.2776-4.54225-.8977-4.54225-3.14279,0-2.06962,1.7443-3.3038,4.66915-3.3038,3.28583,0,4.91178,1.14042,5.11787,3.58742a.2966.2966,0,0,1-.29548.32278H173.234a.29545.29545,0,0,1-.2879-.23164c-.31938-1.42065-1.09612-1.8746-3.20324-1.8746-2.35926,0-2.63355.82191-2.63355,1.43765,0,.74613.32366.96329,3.5091,1.38489,3.15213.41654,4.64944,1.00673,4.64944,3.22208C175.26781,60.46345,173.40429,61.7435,170.15413,61.7435Z"/><path class="cls-3" d="M184.94435,49.32937a1.97682,1.97682,0,1,1-1.97682-1.97725A1.98215,1.98215,0,0,1,184.94435,49.32937Zm-3.63425-.00549a1.65784,1.65784,0,1,0,1.65229-1.65238A1.65843,1.65843,0,0,0,181.3101,49.32388Zm.91472-1.10345h.764c.26147,0,.7742,0,.7742.586a.50949.50949,0,0,1-.41906.54379c.304.02093.32452.21978.36621.5021a2.18364,2.18364,0,0,0,.115.58556H183.355c-.01107-.10431-.08434-.66946-.08434-.70051-.03061-.12568-.07326-.18821-.22989-.18821h-.38672v.88872h-.42926Zm.41906.97271h.34494a.29819.29819,0,0,0,.33473-.31345c0-.30368-.20958-.30368-.32453-.30368h-.35514Z"/><path class="cls-4" d="M135.223,23.5866a1.31155,1.31155,0,0,0-.65673-1.1413l-10.8746-6.25838a1.28184,1.28184,0,0,0-.59874-.173h-.11242a1.30006,1.30006,0,0,0-.60047.173L111.50537,22.4453a1.31775,1.31775,0,0,0-.65751,1.1413l.02389,16.85189a.64542.64542,0,0,0,.32793.56725.63172.63172,0,0,0,.65237,0l6.46282-3.70071a1.32335,1.32335,0,0,0,.65752-1.13956V28.2923a1.30862,1.30862,0,0,1,.65577-1.137l2.7519-1.58505a1.30669,1.30669,0,0,1,.65839-.17635,1.28612,1.28612,0,0,1,.65324.17635l2.751,1.58505a1.30943,1.30943,0,0,1,.65664,1.137v7.87317a1.32638,1.32638,0,0,0,.65839,1.13956l6.46107,3.70071a.63942.63942,0,0,0,.65664,0,.65633.65633,0,0,0,.32628-.56725Z"/><path class="cls-4" d="M187.54826.42085a.65686.65686,0,0,0-.977.57362V17.68335a.45946.45946,0,0,1-.68944.39814l-2.72373-1.56926a1.31386,1.31386,0,0,0-1.3125.00044l-10.879,6.27835a1.31324,1.31324,0,0,0-.65708,1.13746V36.48782a1.31468,1.31468,0,0,0,.65673,1.1379l10.87844,6.28306a1.31439,1.31439,0,0,0,1.31415,0l10.88018-6.28306a1.31469,1.31469,0,0,0,.65674-1.1379V5.18071a1.31374,1.31374,0,0,0-.67374-1.14732Zm-1.00934,31.94047a.32753.32753,0,0,1-.1644.28406l-3.73517,2.15308a.32888.32888,0,0,1-.32784,0l-3.73525-2.15308a.32745.32745,0,0,1-.16431-.28406V28.04827a.3291.3291,0,0,1,.164-.2845l3.73517-2.15735a.32836.32836,0,0,1,.32871,0l3.73516,2.15735a.32928.32928,0,0,1,.164.2845Z"/><path class="cls-4" d="M223.7734,27.93541a1.31359,1.31359,0,0,0,.65368-1.1358V23.75606a1.31373,1.31373,0,0,0-.65412-1.13615l-10.809-6.27583a1.31366,1.31366,0,0,0-1.31634-.00175l-10.875,6.27836a1.31354,1.31354,0,0,0-.65673,1.13746V36.31409a1.31305,1.31305,0,0,0,.66353,1.14129l10.80735,6.15827a1.31306,1.31306,0,0,0,1.28817.00724l6.53687-3.63339a.657.657,0,0,0,.00811-1.14382l-10.944-6.28133a.65664.65664,0,0,1-.33-.56986V28.0576a.65634.65634,0,0,1,.32872-.5689l3.406-1.96365a.65583.65583,0,0,1,.65577,0l3.40776,1.96365a.65634.65634,0,0,1,.32872.5689v3.096a.65686.65686,0,0,0,.98675.56812Z"/><path class="cls-5" d="M212.14544,27.34732a.25145.25145,0,0,1,.25213,0l2.0875,1.20427a.2523.2523,0,0,1,.126.21847v2.41037a.25232.25232,0,0,1-.126.21847l-2.0875,1.20427a.25145.25145,0,0,1-.25213,0L210.0596,31.3989a.25232.25232,0,0,1-.126-.21847V28.77006a.2523.2523,0,0,1,.126-.21847Z"/><path class="cls-6" d="M153.42068,16.40788a1.30619,1.30619,0,0,0-1.30617,0l-10.81789,6.2427a1.30591,1.30591,0,0,0-.65356,1.13166v12.495a1.30748,1.30748,0,0,0,.65312,1.13166l10.8179,6.24773a1.30736,1.30736,0,0,0,1.307,0l10.81538-6.24773a1.30757,1.30757,0,0,0,.653-1.13166V23.78181a1.30583,1.30583,0,0,0-.65348-1.13123Z"/><g class="cls-7"><path class="cls-2" d="M152.09187,16.40788l-10.84055,6.24269a1.35,1.35,0,0,0-.69887,1.13166v12.495a1.26355,1.26355,0,0,0,.33718.83142l12.18019-20.836A1.327,1.327,0,0,0,152.09187,16.40788Z"/><path class="cls-2" d="M153.13008,43.7831a1.30132,1.30132,0,0,0,.30461-.12645l10.82892-6.24772a1.3336,1.3336,0,0,0,.68018-1.13166V23.7818a1.291,1.291,0,0,0-.39532-.90738Z"/><path class="cls-8" d="M164.25753,22.65057l-10.84818-6.24269a1.29882,1.29882,0,0,0-.33953-.13515l-12.18019,20.836a1.48964,1.48964,0,0,0,.36463.30024l10.8666,6.24772a1.31979,1.31979,0,0,0,1.00922.12645l11.41839-20.90868A1.423,1.423,0,0,0,164.25753,22.65057Z"/><path class="cls-2" d="M164.94379,36.27727V23.7818a1.33744,1.33744,0,0,0-.68626-1.13123l-10.84818-6.24269a1.30084,1.30084,0,0,0-.39815-.14657l11.892,20.31622A1.20174,1.20174,0,0,0,164.94379,36.27727Z"/><path class="cls-2" d="M141.25132,22.65057a1.35,1.35,0,0,0-.69887,1.13166v12.495a1.35515,1.35515,0,0,0,.70181,1.13166l10.8666,6.24772a1.31771,1.31771,0,0,0,.83608.16235L141.31657,22.613Z"/><polygon class="cls-9" points="151.754 14.113 151.605 14.198 151.803 14.198 151.754 14.113"/><path class="cls-10" d="M164.26361,37.40893a1.36739,1.36739,0,0,0,.63962-.8314l-11.892-20.31622a1.32438,1.32438,0,0,0-.91933.14657L141.31657,22.613l11.64037,21.206a1.30818,1.30818,0,0,0,.47775-.16235Z"/><polygon class="cls-11" points="165.272 37.208 165.201 37.085 165.201 37.249 165.272 37.208"/><path class="cls-12" d="M164.26361,37.40893l-10.82892,6.24772a1.30818,1.30818,0,0,1-.47775.16235l.21568.39292,12.02792-6.96246v-.164l-.29731-.5079A1.36739,1.36739,0,0,1,164.26361,37.40893Z"/><path class="cls-13" d="M164.26361,37.40893l-10.82892,6.24772a1.30818,1.30818,0,0,1-.47775.16235l.21568.39292,12.02792-6.96246v-.164l-.29731-.5079A1.36739,1.36739,0,0,1,164.26361,37.40893Z"/></g></g></g></svg>