<svg xmlns="http://www.w3.org/2000/svg" xmlns:xlink="http://www.w3.org/1999/xlink" viewBox="0 0 335.27492 70.23641"><defs><style>.cls-1{fill:none;}.cls-2{clip-path:url(#clip-path);}.cls-3{fill:url(#Degradado_sin_nombre_10);}.cls-4{clip-path:url(#clip-path-2);}.cls-5{fill:#777bb2;}.cls-6{fill:#fff;}</style><clipPath id="clip-path"><path class="cls-1" d="M115.58261,35.11821c0,15.123,23.30626,27.38283,52.05485,27.38283h0c28.7486,0,52.055-12.25985,52.055-27.38283h0c0-15.12279-23.30645-27.38284-52.055-27.38284h0c-28.74859,0-52.05485,12.26-52.05485,27.38284"/></clipPath><radialGradient id="Degradado_sin_nombre_10" cx="5372.15709" cy="4742.21276" r="0.15062" gradientTransform="matrix(453.82236, 0, 0, -453.82236, -2437858.19865, 2152139.57165)" gradientUnits="userSpaceOnUse"><stop offset="0" stop-color="#adb1d4"/><stop offset="0.3" stop-color="#adb1d4"/><stop offset="0.75" stop-color="#484c88"/><stop offset="1" stop-color="#484c88"/></radialGradient><clipPath id="clip-path-2"><rect class="cls-1" x="113.41366" y="4.61732" width="108.44761" height="61.00178"/></clipPath></defs><g id="Capa_2" data-name="Capa 2"><g id="Contenido"><g id="g3438"><g id="g3440"><g class="cls-2"><g id="g3442"><g id="g3448"><g id="g3450"><path id="path3462" class="cls-3" d="M115.58261,35.11821c0,15.123,23.30626,27.38283,52.05485,27.38283h0c28.7486,0,52.055-12.25985,52.055-27.38283h0c0-15.12279-23.30645-27.38284-52.055-27.38284h0c-28.74859,0-52.05485,12.26-52.05485,27.38284"/></g></g></g></g></g><g id="g3464"><g class="cls-4"><g id="g3466"><g id="g3472"><path id="path3474" class="cls-5" d="M167.63746,60.468c27.62571,0,50.02146-11.34953,50.02146-25.34982,0-14.0001-22.39575-25.34982-50.02146-25.34982S117.616,21.118,117.616,35.11813c0,14.00029,22.39575,25.34982,50.02146,25.34982"/></g></g></g></g><g id="g3476"><g class="cls-4"><g id="g3478"><g id="g3484"><path id="path3486" d="M143.86454,38.26119a8.3017,8.3017,0,0,0,5.04037-1.2447,6.73616,6.73616,0,0,0,2.17893-4.20855c.35829-1.84625.22179-3.13538-.40555-3.83107-.64146-.71055-2.02831-1.07092-4.12195-1.07092h-3.63017l-2.0125,10.35524ZM131.99122,51.017a.56485.56485,0,0,1-.55428-.67253l5.33351-27.44157a.56491.56491,0,0,1,.55447-.45695H148.82c3.61267,0,6.30164.98092,7.9918,2.91584,1.6992,1.94509,2.22393,4.664,1.5595,8.08105a12.48753,12.48753,0,0,1-3.92595,7.03007,11.15962,11.15962,0,0,1-4.18653,2.50861,18.96389,18.96389,0,0,1-5.75149.73974h-4.65459l-1.32923,6.8386a.56471.56471,0,0,1-.55429.45714Z"/></g><g id="g3488"><path id="path3490" class="cls-6" d="M143.39181,28.47069h3.16457c2.52686,0,3.40461.55448,3.70284.8849.49479.54864.58818,1.70542.27018,3.34512a6.2098,6.2098,0,0,1-1.969,3.86815,7.78668,7.78668,0,0,1-4.69582,1.12741h-2.26573ZM148.82,21.881H137.32477a1.12961,1.12961,0,0,0-1.10876.91409L130.8825,50.23665a1.12925,1.12925,0,0,0,1.10876,1.34505h5.9778a1.12966,1.12966,0,0,0,1.10895-.91408l1.24037-6.38165h4.189a19.5153,19.5153,0,0,0,5.92677-.76761,11.72374,11.72374,0,0,0,4.397-2.63287,13.05218,13.05218,0,0,0,4.09465-7.33509c.69945-3.59684.13123-6.4771-1.68866-8.5602C155.435,22.92706,152.6029,21.881,148.82,21.881m-8.59165,16.94494h3.6362a8.7798,8.7798,0,0,0,5.38491-1.362,7.23325,7.23325,0,0,0,2.38886-4.54821q.59335-3.05911-.54054-4.317-1.13532-1.2576-4.54143-1.25769H142.4606l-2.23222,11.4849M148.82,23.01065q5.18713,0,7.56648,2.72268,2.37822,2.72277,1.43034,7.60169a11.92239,11.92239,0,0,1-3.75368,6.72205,10.55833,10.55833,0,0,1-3.97886,2.38717,18.32436,18.32436,0,0,1-5.57695.71206H139.387L137.96906,50.452h-5.9778l5.33351-27.44139H148.82"/></g><g id="g3492"><path id="path3494" d="M172.0776,43.72123a.56511.56511,0,0,1-.55447-.67253l2.3593-12.1418c.22442-1.1547.16907-1.9835-.15571-2.3337-.19882-.21407-.796-.57311-2.56188-.57311h-4.27427l-2.96631,15.264a.5649.5649,0,0,1-.55447.45714h-5.93073a.56487.56487,0,0,1-.55448-.67253l5.33352-27.44158a.56491.56491,0,0,1,.55447-.457h5.93073a.56467.56467,0,0,1,.55448.67253l-1.28707,6.62322h4.59811c3.50289,0,5.8782.61754,7.26166,1.888,1.41019,1.2961,1.8502,3.36846,1.308,6.16024L178.657,43.26409a.56476.56476,0,0,1-.55448.45714Z"/></g><g id="g3496"><path id="path3498" class="cls-6" d="M168.70332,14.58525h-5.93073a1.12966,1.12966,0,0,0-1.109.91409l-5.33352,27.44157a1.12951,1.12951,0,0,0,1.109,1.34506h5.93072a1.12983,1.12983,0,0,0,1.109-.91409l2.87744-14.807h3.80865c1.76284,0,2.13281.37655,2.14768.39274.10694.115.24758.64787.01544,1.84154l-2.3593,12.1418a1.12951,1.12951,0,0,0,1.10895,1.34506h6.02487a1.12983,1.12983,0,0,0,1.109-.91409l2.4813-12.76989c.58234-2.99756.08416-5.24616-1.48-6.68384-1.49266-1.37085-3.993-2.03716-7.64387-2.03716h-3.91315l1.15659-5.9505a1.12977,1.12977,0,0,0-1.109-1.34524m0,1.12967-1.41792,7.29573h5.28344q4.9866,0,6.87945,1.73931,1.893,1.73967,1.13569,5.63664l-2.48149,12.7697h-6.02487l2.3593-12.14161q.40272-2.0718-.29635-2.82566-.69954-.7535-2.97572-.75387h-4.74006l-3.055,15.72114h-5.93072l5.33351-27.44138h5.93073"/></g><g id="g3500"><path id="path3502" d="M190.52251,38.26119a8.30166,8.30166,0,0,0,5.04036-1.2447,6.73609,6.73609,0,0,0,2.17912-4.20855c.35829-1.84625.22179-3.13538-.40573-3.83107-.64146-.71055-2.02831-1.07092-4.12195-1.07092h-3.63018l-2.01249,10.35524ZM178.64938,51.017a.56511.56511,0,0,1-.55448-.67253l5.33351-27.44157a.56512.56512,0,0,1,.55467-.45695H195.478c3.61285,0,6.30164.98092,7.992,2.91584,1.6992,1.94491,2.22374,4.66382,1.5595,8.08105a12.48922,12.48922,0,0,1-3.92615,7.03007,11.15962,11.15962,0,0,1-4.18653,2.50861,18.96382,18.96382,0,0,1-5.75148.73974h-4.65478l-1.32867,6.8386a.56511.56511,0,0,1-.55467.45714Z"/></g><g id="g3504"><path id="path3506" class="cls-6" d="M190.0498,28.47069h3.16456c2.52687,0,3.40461.55448,3.70284.8849.495.54864.58837,1.70542.27018,3.34493a6.21071,6.21071,0,0,1-1.969,3.86834,7.78668,7.78668,0,0,1-4.69582,1.12741H188.257ZM195.478,21.881H183.98294a1.12961,1.12961,0,0,0-1.10876.91409l-5.33351,27.44157a1.12925,1.12925,0,0,0,1.10876,1.34505h5.9778a1.12981,1.12981,0,0,0,1.10895-.91408l1.24018-6.38165h4.189a19.5153,19.5153,0,0,0,5.92677-.76761,11.72377,11.72377,0,0,0,4.39741-2.63324,13.052,13.052,0,0,0,4.09427-7.33472c.69945-3.597.13123-6.47729-1.68866-8.56039-1.80219-2.063-4.63406-3.109-8.41712-3.109m-8.59146,16.94494h3.636a8.77984,8.77984,0,0,0,5.38492-1.362,7.23239,7.23239,0,0,0,2.38885-4.54821q.59364-3.05911-.54054-4.317-1.1353-1.2576-4.54143-1.25769h-4.09578l-2.232,11.4849M195.478,23.01065q5.18713,0,7.56648,2.72268,2.37852,2.72277,1.43035,7.60169a11.92255,11.92255,0,0,1-3.75368,6.72205,10.55848,10.55848,0,0,1-3.97886,2.38717,18.32448,18.32448,0,0,1-5.577.71206H186.045L184.62723,50.452h-5.9778l5.33351-27.44139H195.478"/></g></g></g></g></g><rect class="cls-1" width="335.27492" height="70.23641"/></g></g></svg>