<svg xmlns="http://www.w3.org/2000/svg" xmlns:xlink="http://www.w3.org/1999/xlink" viewBox="0 0 335.27492 70.23641"><defs><style>.cls-1{fill:#646464;}.cls-2{fill:url(#linear-gradient);}.cls-3{fill:url(#linear-gradient-2);}.cls-4{isolation:isolate;opacity:0.44382;fill:url(#radial-gradient);}.cls-5{fill:none;}</style><linearGradient id="linear-gradient" x1="-3171.68941" y1="11262.20361" x2="-3137.13871" y2="11232.47734" gradientTransform="matrix(0.5625, 0, 0, -0.568, 1875.61315, 6412.22067)" gradientUnits="userSpaceOnUse"><stop offset="0" stop-color="#5a9ed3"/><stop offset="1" stop-color="#306997"/></linearGradient><linearGradient id="linear-gradient-2" x1="-3123.78202" y1="11214.48869" x2="-3136.11942" y2="11231.94396" gradientTransform="matrix(0.5625, 0, 0, -0.568, 1875.61315, 6412.22067)" gradientUnits="userSpaceOnUse"><stop offset="0" stop-color="#ffd33b"/><stop offset="1" stop-color="#ffe773"/></linearGradient><radialGradient id="radial-gradient" cx="20795.77433" cy="8354.66455" r="9.20241" gradientTransform="matrix(0, -0.2399, -1.0547, 0, 8921.75552, 5043.65236)" gradientUnits="userSpaceOnUse"><stop offset="0" stop-color="#b7b7b7" stop-opacity="0.49804"/><stop offset="1" stop-color="#7f7f7f" stop-opacity="0"/></radialGradient></defs><g id="Capa_2" data-name="Capa 2"><g id="Contenido"><g id="g2303"><path id="path46" class="cls-1" d="M149.13648,31.87487q0-6.92219-3.94781-7.11388a7.41263,7.41263,0,0,0-3.06425.50354,4.4976,4.4976,0,0,0-1.60933.84953V37.12948a7.81793,7.81793,0,0,0,4.482,1.47007Q149.13478,38.32659,149.13648,31.87487Zm3.2465.19157a9.78929,9.78929,0,0,1-1.65575,5.838,6.10485,6.10485,0,0,1-5.12448,2.70306,9.08735,9.08735,0,0,1-5.08766-1.54433V49.07444l-2.82345-1.00706V25.84512a6.31464,6.31464,0,0,1,1.78233-1.47039,12.23359,12.23359,0,0,1,6.1257-1.50718l.0399.03993a5.61988,5.61988,0,0,1,5.07837,2.70306A11.48783,11.48783,0,0,1,152.383,32.06644Z"/><path id="path48" class="cls-1" d="M169.63813,38.63669q0,4.7175-.94516,6.53326a6.66153,6.66153,0,0,1-3.6173,2.89743,13.841,13.841,0,0,1-4.67665.9297l-.4664-1.77894a22.47124,22.47124,0,0,0,3.59562-.69509,4.74924,4.74924,0,0,0,2.82314-2.12558,10.66152,10.66152,0,0,0,.61773-4.44485v-.73534a14.49763,14.49763,0,0,1-6.06965,1.31285,5.57789,5.57789,0,0,1-3.673-1.31285,4.46643,4.46643,0,0,1-1.77894-3.63213V23.83439l2.82314-.96684V34.69522a3.59487,3.59487,0,0,0,1.22307,2.91891,4.62325,4.62325,0,0,0,3.16639.98542,7.91931,7.91931,0,0,0,4.15484-1.50722V23.29371h2.82314Z"/><path id="path50" class="cls-1" d="M180.65961,40.45337c-.33673.02786-.64562.03962-.92971.03962a5.55633,5.55633,0,0,1-3.73151-1.14264,3.94855,3.94855,0,0,1-1.33107-3.15986V25.06985h-1.934V23.29371h1.934v-4.7169l2.82-1.00395v5.72085h3.17226v1.77614h-3.17226V36.11313a2.67455,2.67455,0,0,0,.85231,2.24873,4.31313,4.31313,0,0,0,2.31995.62084Z"/><path id="path52" class="cls-1" d="M197.75443,40.22126H194.931V29.32345a5.15386,5.15386,0,0,0-.77526-2.86028A2.82177,2.82177,0,0,0,191.669,25.1101q-1.94142,0-4.85615,2.04787V40.22126h-2.82313V14.17188l2.82313-.88945V25.14721a9.83915,9.83915,0,0,1,5.91553-1.97079,4.71451,4.71451,0,0,1,3.63277,1.5075,5.30886,5.30886,0,0,1,1.39331,3.75V40.22126Z"/><path id="path54" class="cls-1" d="M212.7605,31.43011a8.67532,8.67532,0,0,0-1.00674-4.39564,4.21613,4.21613,0,0,0-3.71012-2.23326q-4.64277.26881-4.63985,6.64747a10.93372,10.93372,0,0,0,.97,4.88356,3.90011,3.90011,0,0,0,3.72558,2.4592Q212.76068,38.75427,212.7605,31.43011Zm3.09211.01857a10.04288,10.04288,0,0,1-1.93369,6.30163,6.95452,6.95452,0,0,1-5.87528,2.82007,6.81583,6.81583,0,0,1-5.801-2.82007,10.17726,10.17726,0,0,1-1.89344-6.30163,8.99694,8.99694,0,0,1,2.04788-5.99257,7.05572,7.05572,0,0,1,5.6837-2.58856,7.174,7.174,0,0,1,5.724,2.58856A8.997,8.997,0,0,1,215.85261,31.44868Z"/><path id="path56" class="cls-1" d="M232.03878,40.22126h-2.82314V28.70572a3.8532,3.8532,0,0,0-1.13953-2.95932,4.14,4.14,0,0,0-3.03668-1.02255,6.78518,6.78518,0,0,0-3.82713,1.31285V40.22126h-2.82377V25.68758a13.90607,13.90607,0,0,1,4.48571-2.31648,13.67992,13.67992,0,0,1,3.40376-.50355,8.82239,8.82239,0,0,1,1.89343.19465,5.447,5.447,0,0,1,2.70614,1.43014,3.783,3.783,0,0,1,1.16121,2.78324Z"/><path id="path1948" class="cls-2" d="M109.80624,14.27618a24.26288,24.26288,0,0,0-4.06047.34664c-3.59562.63535-4.24865,1.96494-4.24865,4.417v3.23846h8.49728v1.07951H98.30817a5.30571,5.30571,0,0,0-5.30833,4.308,15.8828,15.8828,0,0,0,0,8.63609c.60414,2.51551,2.04664,4.30807,4.516,4.30807h2.92157v-3.8822a5.4,5.4,0,0,1,5.30832-5.27879h8.48736a4.28094,4.28094,0,0,0,4.24866-4.318V19.03982a4.74369,4.74369,0,0,0-4.24866-4.417A26.49919,26.49919,0,0,0,109.80624,14.27618ZM105.211,16.88084a1.61942,1.61942,0,1,1-1.59449,1.62419A1.61226,1.61226,0,0,1,105.211,16.88084Z"/><path id="path1950" class="cls-3" d="M119.54145,23.35779V27.131a5.44987,5.44987,0,0,1-5.30832,5.38755h-8.48736a4.33466,4.33466,0,0,0-4.24865,4.31812V44.928c0,2.30257,2.00239,3.65751,4.24865,4.318a14.21408,14.21408,0,0,0,8.48736,0c2.13918-.6196,4.24866-1.86622,4.24866-4.318V41.68947H109.9944V40.61h12.736c2.46972,0,3.38981-1.72262,4.24865-4.30807a14.58079,14.58079,0,0,0,0-8.63609c-.61031-2.45824-1.77583-4.308-4.24865-4.308Zm-4.77352,20.49066a1.61944,1.61944,0,1,1-1.59447,1.6143A1.6037,1.6037,0,0,1,114.76793,43.84845Z"/><path id="text3004" class="cls-1" d="M237.53712,20.77664h.49518V17.67218h1.17233v-.37013h-2.84047v.37013h1.173v3.10446m2.10638,0h.42276v-2.8355l.91794,2.83522h.471l.95633-2.82565v2.82593h.46174V17.30205H242.263l-1.04544,2.97662-.89133-2.97662h-.68272v3.47459"/><path id="path1894" class="cls-4" d="M121.47793,54.7461c0,1.21939-5.09818,2.20788-11.387,2.20788-6.28908,0-11.38725-.98849-11.38725-2.20788s5.09817-2.20788,11.38725-2.20788c6.28879,0,11.387.98852,11.387,2.20788Z"/></g><rect class="cls-5" width="335.27492" height="70.23641"/></g></g></svg>