<svg width="58" height="78" viewBox="0 0 58 78" fill="none" xmlns="http://www.w3.org/2000/svg">
<path d="M39.2502 26.1835L33.1052 25.2911L30.3567 19.7212C30.2306 19.4658 30.0356 19.2506 29.7936 19.1002C29.5516 18.9498 29.2724 18.8701 28.9875 18.8701C28.7026 18.8701 28.4234 18.9498 28.1815 19.1002C27.9395 19.2506 27.7445 19.4658 27.6184 19.7212L24.8699 25.2911L18.7231 26.1835C18.441 26.2241 18.1759 26.3429 17.9578 26.5264C17.7398 26.7099 17.5774 26.9508 17.4891 27.2218C17.4009 27.4928 17.3902 27.7831 17.4584 28.0599C17.5265 28.3366 17.6708 28.5887 17.8749 28.7877L22.3216 33.1225L21.2714 39.2438C21.2339 39.4629 21.2446 39.6876 21.303 39.9021C21.3613 40.1167 21.4658 40.3159 21.6091 40.4859C21.7524 40.6559 21.9311 40.7925 22.1327 40.8862C22.3344 40.9799 22.554 41.0285 22.7763 41.0285C23.0246 41.0267 23.2686 40.9643 23.4873 40.8469L28.9843 37.9628L34.4812 40.8469C34.7331 40.9804 35.0172 41.0407 35.3015 41.0211C35.5859 41.0015 35.859 40.9027 36.0901 40.7359C36.3212 40.569 36.501 40.3409 36.6092 40.0772C36.7173 39.8135 36.7495 39.5248 36.7021 39.2438L35.6519 33.1225L40.0987 28.7877C40.3392 28.553 40.4957 28.2454 40.5437 27.9128C40.6638 27.0779 40.0849 26.3038 39.2502 26.1835ZM32.9424 31.4835C32.7642 31.6569 32.631 31.8711 32.5544 32.1077C32.4778 32.3442 32.4602 32.5959 32.503 32.8408L33.1646 36.7039L29.6952 34.8801C29.475 34.7666 29.2305 34.7083 28.9828 34.7104C28.7351 34.7125 28.4916 34.7748 28.2733 34.8919L24.8039 36.7158L25.4673 32.8527C25.5101 32.6078 25.4924 32.3561 25.4158 32.1196C25.3393 31.883 25.2061 31.6688 25.0279 31.4954L22.2217 28.7588L26.1 28.1955C26.345 28.1601 26.5778 28.0655 26.7782 27.9201C26.9785 27.7747 27.1406 27.5828 27.2503 27.3609L28.9843 23.8456L30.7182 27.3609C30.8279 27.5828 30.9899 27.7748 31.1903 27.9202C31.3907 28.0656 31.6235 28.1601 31.8685 28.1955L35.7486 28.7486L32.9424 31.4835Z" fill="white"/>
<path d="M28.9952 10.4189C18.0213 10.4189 9.125 19.3152 9.125 30.2892C9.125 41.2632 18.0213 50.1594 28.9952 50.1594C39.9642 50.1472 48.8534 41.2582 48.8655 30.2892C48.8655 19.3152 39.9692 10.4189 28.9952 10.4189ZM28.9952 47.1056C19.7078 47.1056 12.1788 39.5766 12.1788 30.2892C12.1788 21.0018 19.7078 13.4728 28.9952 13.4728C38.2785 13.4831 45.8013 21.0061 45.8117 30.2892C45.8117 39.5768 38.2827 47.1056 28.9952 47.1056Z" fill="white"/>
<path d="M56.9661 34.4065L54.1091 35.4872C54.5536 36.6629 55.1068 38.1255 54.9167 38.7108C54.7029 39.369 53.4085 40.2123 52.2649 40.957C50.9076 41.8427 49.3637 42.847 48.3033 44.306C47.243 45.7651 46.7426 47.5719 46.3132 49.1497C45.9739 50.39 45.5566 51.9339 45.0154 52.3274C44.4741 52.721 42.9065 52.6345 41.6223 52.5735C39.9817 52.4955 38.1222 52.4038 36.3731 52.9772C34.6765 53.5269 33.2667 54.6738 32.018 55.6799C30.9474 56.5452 29.7326 57.5258 29.0015 57.5258C28.2704 57.5258 27.0555 56.5452 25.9834 55.6766C24.7347 54.6671 23.3198 53.5236 21.63 52.9757C20.663 52.6617 19.5789 52.516 18.2166 52.516C17.5871 52.516 16.9713 52.5447 16.3775 52.5737C15.1035 52.6347 13.5188 52.7095 12.9946 52.3276C12.4705 51.946 12.0343 50.3867 11.6951 49.1465C11.2658 47.5669 10.7806 45.7787 9.70662 44.3027C8.63263 42.8267 7.10408 41.8409 5.74336 40.9537C4.60165 40.209 3.30709 39.3657 3.09326 38.7075C2.9032 38.1256 3.45804 36.6615 3.90259 35.484C4.49137 33.9282 5.15631 32.1655 5.15631 30.289C5.15631 28.4126 4.48947 26.6499 3.90087 25.0941C3.45631 23.9185 2.9032 22.4542 3.09154 21.8706C3.30537 21.2124 4.59975 20.3691 5.74336 19.6226C7.10063 18.737 8.64279 17.7326 9.7049 16.2754C10.767 14.818 11.2657 13.0094 11.6951 11.4316C12.0343 10.1913 12.4517 8.64746 12.9929 8.25391C13.5341 7.86036 15.1018 7.94686 16.3775 8.00786C18.0181 8.08591 19.8794 8.17758 21.6369 7.60414C23.3335 7.05447 24.7416 5.90759 25.992 4.90148C27.0541 4.03288 28.2689 3.05382 29 3.05382C29.7311 3.05382 30.946 4.0327 32.0164 4.90131C33.2651 5.91069 34.68 7.0543 36.3715 7.60397C38.1223 8.17224 39.9834 8.08402 41.6309 8.00768C42.9049 7.94824 44.4896 7.87363 45.0138 8.25374C45.538 8.63385 45.9656 10.1895 46.3049 11.4315C46.7341 13.011 47.2193 14.7992 48.2933 16.2752C49.3673 17.7512 50.8959 18.7387 52.2566 19.6242C53.3985 20.3689 54.6929 21.2122 54.9084 21.8704C55.0985 22.454 54.5437 23.9181 54.0991 25.0939C53.5103 26.6497 52.8437 28.4142 52.8437 30.2889C52.8437 32.1636 53.5105 33.928 54.0991 35.4838L55.5275 34.9443L56.956 34.4048C56.4113 32.9662 55.8973 31.6072 55.8973 30.2889C55.8973 28.9705 56.4063 27.6117 56.9543 26.1729C57.6617 24.3067 58.3319 22.5303 57.811 20.9272C57.263 19.2425 55.5648 18.1363 53.9225 17.0658C52.7349 16.2871 51.4929 15.4829 50.7618 14.4786C50.0306 13.4742 49.6286 12.0202 49.2502 10.6307C48.7157 8.66607 48.2118 6.80997 46.802 5.78525C45.3922 4.76053 43.5004 4.86237 41.4782 4.95731C40.031 5.0252 38.5329 5.09636 37.3132 4.69936C36.1596 4.32442 35.0278 3.40998 33.9352 2.52604C32.3929 1.28439 30.8116 0 28.9998 0C27.188 0 25.6067 1.28439 24.0628 2.52794C22.9702 3.41188 21.8387 4.32459 20.6849 4.69954C19.4651 5.09481 18.0331 5.02865 16.5199 4.95748C14.4975 4.86254 12.5873 4.7726 11.1943 5.78542C9.8014 6.79825 9.28068 8.66952 8.74618 10.6325C8.36779 12.022 7.97768 13.459 7.23452 14.4803C6.49135 15.5015 5.26986 16.2888 4.07387 17.0675C2.4316 18.138 0.733325 19.2443 0.185385 20.9289C-0.335503 22.5322 0.334604 24.3017 1.0421 26.1764C1.58504 27.6152 2.09904 28.974 2.09904 30.2906C2.09904 31.6072 1.59004 32.966 1.0421 34.4065C0.334604 36.2728 -0.335503 38.0508 0.185385 39.6523C0.733325 41.3387 2.4316 42.4449 4.07387 43.5154C5.26141 44.2941 6.50341 45.0983 7.23279 46.1026C7.96235 47.107 8.36607 48.561 8.74445 49.9505C9.07012 51.1516 9.38751 52.3121 9.90667 53.2672L3.72098 69.0862C3.62505 69.3319 3.59443 69.5983 3.6321 69.8594C3.66976 70.1205 3.77443 70.3674 3.9359 70.576C4.09737 70.7847 4.31014 70.9479 4.55346 71.0498C4.79678 71.1517 5.06236 71.1889 5.32431 71.1576L13.9768 70.1228L19.6281 76.7496C19.7999 76.9506 20.021 77.1037 20.2696 77.1936C20.5183 77.2836 20.7861 77.3074 21.0468 77.2628C21.3074 77.2181 21.552 77.1065 21.7566 76.939C21.9612 76.7714 22.1187 76.5535 22.2138 76.3067L28.3809 60.5286C28.7915 60.597 29.2106 60.597 29.6212 60.5286L35.7865 76.3067C35.8826 76.5526 36.0409 76.7692 36.2457 76.9357C36.4506 77.1021 36.6951 77.2126 36.9554 77.2564C37.2156 77.3001 37.4828 77.2757 37.7308 77.1853C37.9789 77.095 38.1992 76.942 38.3705 76.7411L44.0218 70.1143L52.6743 71.1492C52.9353 71.1801 53.2 71.143 53.4425 71.0416C53.685 70.9402 53.8973 70.7779 54.0587 70.5704C54.2202 70.3629 54.3253 70.1173 54.3639 69.8573C54.4026 69.5972 54.3734 69.3316 54.2793 69.0862L48.0912 53.2639C48.6104 52.3088 48.9259 51.1483 49.2534 49.9472C49.6301 48.5577 50.0202 47.1206 50.7651 46.0994C51.5098 45.0781 52.7298 44.2908 53.9258 43.5122C55.568 42.4416 57.268 41.3354 57.8142 39.6507C58.3351 38.0474 57.6667 36.2795 56.9661 34.4065ZM20.2912 72.8271L15.7664 67.5185C15.6029 67.3272 15.3948 67.1792 15.1603 67.0877C14.9259 66.9963 14.6725 66.9642 14.4227 66.9943L7.49384 67.824L12.3614 55.3745C13.5744 55.7614 15.0148 55.6935 16.518 55.6223C17.0778 55.5951 17.6564 55.5681 18.2145 55.5681C19.246 55.5681 20.0315 55.6664 20.6847 55.8786C21.8383 56.2535 22.9683 57.1662 24.0627 58.0519C24.5717 58.4608 25.0807 58.8731 25.6031 59.2394L20.2912 72.8271ZM50.5054 67.824L43.5783 66.9943C43.3283 66.9644 43.0749 66.9968 42.8404 67.0886C42.606 67.1803 42.3979 67.3286 42.2346 67.5202L37.7081 72.8289L32.3927 59.2427C32.9153 58.8729 33.4276 58.4606 33.9332 58.0551C35.0258 57.1712 36.1573 56.2585 37.3111 55.8835C38.5293 55.4883 39.9595 55.5544 41.4779 55.6256C42.9962 55.6969 44.4214 55.7629 45.6345 55.3778L50.5054 67.824Z" fill="white"/>
</svg>
