<svg width="68" height="70" viewBox="0 0 68 70" fill="none" xmlns="http://www.w3.org/2000/svg">
<path fill-rule="evenodd" clip-rule="evenodd" d="M33.3256 0.00998183C40.3599 0.234679 45.8387 4.96951 51.3127 9.3496C57.7906 14.5331 67.7545 18.9276 67.2554 27.1596C66.7563 35.3914 55.1456 37.1023 49.2754 42.9523C43.365 48.8425 41.6882 60.3558 33.3256 60.973C24.9514 61.591 20.6468 51.4709 14.8068 45.496C9.13413 39.6923 0.419841 35.2349 0.275461 27.1596C0.130273 19.039 7.82649 13.348 14.1393 8.16216C19.7074 3.58823 26.0946 -0.220999 33.3256 0.00998183Z" fill="#7149C6" fill-opacity="0.1"/>
<path d="M40.1316 10C39.7528 10 39.3894 10.1505 39.1215 10.4184C38.8536 10.6863 38.7031 11.0497 38.7031 11.4286V37.1428C38.7031 37.5217 38.8536 37.885 39.1215 38.1529C39.3894 38.4208 39.7528 38.5713 40.1316 38.5713H65.8446C66.2235 38.5713 66.5868 38.4208 66.8547 38.1529C67.1226 37.885 67.2731 37.5217 67.2731 37.1428C67.265 29.9465 64.4029 23.0474 59.3146 17.9588C54.2264 12.8703 47.3275 10.0081 40.1316 10Z" fill="#F44730"/>
<path d="M60.1279 41.4271H35.8434V17.1415C35.8434 16.7626 35.6929 16.3992 35.425 16.1313C35.1571 15.8634 34.7938 15.7129 34.4149 15.7129C29.0469 15.7129 23.7993 17.3048 19.3359 20.2873C14.8725 23.2698 11.3937 27.5089 9.33947 32.4686C7.2852 37.4283 6.74771 42.8858 7.79497 48.151C8.84223 53.4162 11.4272 58.2525 15.223 62.0485C19.0188 65.8445 23.855 68.4296 29.1199 69.4769C34.3848 70.5242 39.8421 69.9867 44.8015 67.9323C49.761 65.878 53.9999 62.399 56.9823 57.9354C59.9646 53.4718 61.5564 48.224 61.5564 42.8557C61.5564 42.4768 61.4059 42.1134 61.138 41.8455C60.8701 41.5776 60.5068 41.4271 60.1279 41.4271ZM32.9864 67.0994C26.8018 66.7377 20.9893 64.0258 16.7384 59.5189C12.4875 55.0119 10.1198 49.0507 10.1198 42.8552C10.1198 36.6597 12.4875 30.6985 16.7384 26.1915C20.9893 21.6846 26.8018 18.9727 32.9864 18.611V67.0994ZM35.8434 67.0994V44.2842H58.6585C58.3006 50.2184 55.7819 55.816 51.5783 60.0196C47.3747 64.2232 41.7773 66.7417 35.8434 67.0994Z" fill="#F44730"/>
</svg>
