<svg width="60" height="61" viewBox="0 0 60 61" fill="none" xmlns="http://www.w3.org/2000/svg">
<g clip-path="url(#clip0_3909_58946)">
<rect width="60" height="60" transform="translate(0 0.816406)" fill="#242424"/>
<path d="M43.7497 60.8164C43.5855 60.8165 43.4229 60.7843 43.2712 60.7215C43.1195 60.6587 42.9817 60.5666 42.8656 60.4505C42.7495 60.3344 42.6575 60.1965 42.5947 60.0448C42.532 59.893 42.4998 59.7304 42.5 59.5662C42.4998 59.4021 42.532 59.2395 42.5948 59.0878C42.6575 58.9361 42.7496 58.7983 42.8656 58.6822C42.9817 58.5661 43.1196 58.4741 43.2713 58.4113C43.4229 58.3486 43.5855 58.3164 43.7497 58.3166C44.7513 58.3166 45.6938 57.9252 46.4011 57.2175C47.1089 56.5102 47.4997 55.5677 47.4997 54.5666V7.06625C47.4997 5.69668 47.9387 4.3925 48.7484 3.31625H11.2498C10.2496 3.31625 9.30758 3.70625 8.59754 4.41535C7.89125 5.12398 7.49984 6.06641 7.49984 7.06625V48.3162C7.49984 49.0074 6.94004 49.5664 6.24969 49.5664C5.5598 49.5664 5 49.0074 5 48.3162V7.06625C5 5.39902 5.65004 3.82895 6.82965 2.64652C8.01348 1.46645 9.58227 0.816406 11.2498 0.816406H53.75C54.4412 0.816406 54.9997 1.37621 54.9997 2.06656C54.9997 2.75645 54.4412 3.31625 53.75 3.31625C52.7484 3.31625 51.8073 3.70625 51.0972 4.41535C50.3909 5.12258 50 6.06512 50 7.06625V54.5666C50 56.2351 49.3486 57.8053 48.1685 58.9854C46.9885 60.165 45.4187 60.8164 43.7497 60.8164Z" fill="#F44730"/>
<path d="M43.7498 60.8164H6.24984C2.80383 60.8164 0 58.0126 0 54.5666V53.3164C0 52.6252 0.559805 52.0662 1.25016 52.0662H38.7502C39.4413 52.0662 39.9998 52.6252 39.9998 53.3164V54.5666C39.9998 56.6338 41.6827 58.3166 43.7498 58.3166C43.914 58.3164 44.0766 58.3486 44.2284 58.4113C44.3801 58.474 44.518 58.5661 44.6341 58.6821C44.7502 58.7982 44.8423 58.9361 44.9051 59.0878C44.9679 59.2395 45.0001 59.4021 45 59.5662C45.0001 59.7305 44.9679 59.8931 44.9051 60.0448C44.8423 60.1965 44.7502 60.3344 44.6341 60.4505C44.518 60.5666 44.3801 60.6587 44.2284 60.7215C44.0767 60.7843 43.9141 60.8165 43.7498 60.8164ZM2.49984 54.5666C2.49984 56.6338 4.18266 58.3166 6.24984 58.3166H38.7525C37.9382 57.2361 37.4984 55.9195 37.5 54.5666H2.49984ZM58.7498 9.56656H53.7502C53.059 9.56656 52.5 9.00629 52.5 8.31641C52.5 7.62652 53.059 7.06625 53.7502 7.06625H57.5002C57.5002 4.99906 55.8173 3.31625 53.7502 3.31625C53.059 3.31625 52.5 2.75645 52.5 2.06656C52.5 1.37633 53.059 0.816406 53.7502 0.816406C57.1962 0.816406 60 3.62023 60 7.06625V8.31641C60 9.00629 59.441 9.56656 58.7498 9.56656ZM21.2498 19.5664C18.4923 19.5664 16.2502 17.3238 16.2502 14.5662V12.0664C16.2502 9.30887 18.4923 7.06625 21.2498 7.06625C24.0074 7.06625 26.25 9.30887 26.25 12.0664V14.5662C26.25 17.3238 24.0074 19.5664 21.2498 19.5664ZM21.2498 9.56656C19.871 9.56656 18.75 10.6876 18.75 12.0664V14.5662C18.75 15.9451 19.871 17.0666 21.2498 17.0666C22.6287 17.0666 23.7502 15.9451 23.7502 14.5662V12.0664C23.7502 10.6876 22.6287 9.56656 21.2498 9.56656ZM30 32.0666C29.3101 32.0666 28.7498 31.5063 28.7498 30.8164V28.3166C28.7498 27.315 28.3598 26.3738 27.6512 25.6652C26.944 24.9566 26.0014 24.5666 24.9998 24.5666H17.4998C16.4987 24.5666 15.5576 24.9566 14.8489 25.6652C14.14 26.3738 13.7498 27.315 13.7498 28.3166V29.5662H24.9998C25.6901 29.5662 26.25 30.1265 26.25 30.8164C26.25 31.5063 25.6902 32.0666 24.9998 32.0666H12.5002C11.8099 32.0666 11.25 31.5063 11.25 30.8164V28.3166C11.25 26.649 11.9 25.0788 13.0801 23.8978C14.2625 22.7163 15.8326 22.0662 17.4998 22.0662H24.9998C26.6702 22.0662 28.2386 22.7177 29.42 23.8978C30.6001 25.0788 31.2502 26.6489 31.2502 28.3166V30.8164C31.2502 31.5063 30.6899 32.0666 30 32.0666ZM11.25 47.0666H13.7498V49.5664H11.25V47.0666ZM16.2502 39.5666H18.75V49.5664H16.2502V39.5666ZM21.2498 42.0664H23.7502V49.5664H21.2498V42.0664ZM26.25 37.0662H28.7498V49.5664H26.25V37.0662ZM31.2502 44.5662H33.75V49.5664H31.2502V44.5662ZM36.2498 38.3164H38.7502V49.5664H36.2498V38.3164ZM41.25 35.8166H43.7498V49.5664H41.25V35.8166ZM41.25 7.06625H43.7498V9.56656H41.25V7.06625ZM36.2498 7.06625H38.7502V9.56656H36.2498V7.06625ZM31.2502 7.06625H33.75V9.56656H31.2502V7.06625ZM31.2502 12.0664H43.7498V14.5662H31.2502V12.0664ZM31.2502 17.0666H38.7502V19.5664H31.2502V17.0666Z" fill="#F44730"/>
</g>
<defs>
<clipPath id="clip0_3909_58946">
<rect width="60" height="60" fill="white" transform="translate(0 0.816406)"/>
</clipPath>
</defs>
</svg>
