<svg width="60" height="61" viewBox="0 0 60 61" fill="none" xmlns="http://www.w3.org/2000/svg">
<g clip-path="url(#clip0_3909_58932)">
<rect width="60" height="60" transform="translate(0 0.816406)" fill="#242424"/>
<path d="M14.9998 33.3164H17.4997V58.3167H14.9998V33.3164ZM5 33.3164H7.49984V58.3167H5V33.3164ZM9.99969 38.3166H12.5V58.3167H9.99969V38.3166Z" fill="#F44730"/>
<path d="M21.2498 38.3164H16.2502V35.8166H20.0002V23.3164C20.0002 20.5589 17.7575 18.3162 15 18.3162H7.5C4.74246 18.3162 2.49984 20.5589 2.49984 23.3164V35.8166H6.24984V38.3164H1.25016C0.559922 38.3164 0 37.7574 0 37.0662V23.3164C0 19.18 3.36363 15.8164 7.5 15.8164H15C19.1364 15.8164 22.5 19.18 22.5 23.3164V37.0662C22.5 37.7574 21.9402 38.3164 21.2498 38.3164ZM11.25 13.3166C7.80398 13.3166 5.00016 10.5127 5.00016 7.06625C5.00016 3.62023 7.80398 0.816406 11.25 0.816406C14.696 0.816406 17.4998 3.62023 17.4998 7.06625C17.4998 10.5127 14.696 13.3166 11.25 13.3166ZM11.25 3.31625C9.18223 3.31625 7.5 4.99906 7.5 7.06625C7.5 9.13402 9.18223 10.8162 11.25 10.8162C13.3178 10.8162 15 9.13402 15 7.06625C15 4.99906 13.3178 3.31625 11.25 3.31625Z" fill="#F44730"/>
<path d="M10 20.8164H12.5003V23.3163H10V20.8164ZM25 23.3163H27.5003V25.8161H25V23.3163ZM25 28.3164H27.5003V30.8162H25V28.3164ZM25 33.3161H27.5003V35.8164H25V33.3161ZM48.7487 50.8164C48.4827 50.8164 48.2151 50.7326 47.9875 50.5564C46.4489 49.3713 44.3113 48.1427 41.8091 47.0037C38.3416 45.4088 34.6913 44.5661 31.2503 44.5661H28.75C28.0601 44.5661 27.5003 44.0076 27.5003 43.3164C27.5003 42.6252 28.0601 42.0662 28.75 42.0662H31.2503C35.0502 42.0662 39.0603 42.9877 42.8478 44.7313C45.5549 45.9623 47.7989 47.2573 49.5128 48.5761C50.0603 48.9977 50.1614 49.7814 49.7403 50.3289C49.4949 50.6488 49.1238 50.8164 48.7489 50.8164H48.7487Z" fill="#F44730"/>
<path d="M31.2502 58.3166C30.5599 58.3166 30 57.7576 30 57.0664C30 56.3752 30.5598 55.8163 31.2502 55.8163C35.0564 55.8163 38.7574 51.9362 41.1525 45.4337C41.2765 45.0835 41.3974 44.7323 41.5151 44.3799C42.9776 40.0326 43.7498 34.9088 43.7498 29.5663C43.7498 23.7815 42.8512 18.2939 41.1539 13.7002C38.7588 7.19762 35.0564 3.31625 31.2502 3.31625C30.5599 3.31625 30 2.75645 30 2.06656C30 1.37633 30.5598 0.816406 31.2502 0.816406C36.2215 0.816406 40.6852 5.19629 43.4986 12.834C45.2975 17.7015 46.2502 23.489 46.2502 29.5663C46.2502 35.1775 45.4325 40.5764 43.8848 45.1764C43.7607 45.5471 43.6333 45.9167 43.5027 46.2852C40.6852 53.9363 36.2215 58.3166 31.2502 58.3166Z" fill="#F44730"/>
<path d="M30 2.06641H32.4998V57.0662H30V2.06641Z" fill="#F44730"/>
<path d="M53.7502 30.8163H31.2502C30.5599 30.8163 30 30.2564 30 29.5661C30 28.8762 30.5598 28.3164 31.2502 28.3164H53.7502C54.4413 28.3164 54.9998 28.8762 54.9998 29.5661C54.9998 30.2563 54.4413 30.8163 53.7502 30.8163Z" fill="#F44730"/>
<path d="M31.25 58.3166H28.7497C28.0598 58.3166 27.5 57.7576 27.5 57.0664C27.5 56.3752 28.0598 55.8163 28.7497 55.8163H31.25C45.7236 55.8163 57.5 44.0403 57.5 29.5663C57.5 15.0913 45.7236 3.31625 31.25 3.31625H28.7497C28.0598 3.31625 27.5 2.75645 27.5 2.06656C27.5 1.37633 28.0598 0.816406 28.7497 0.816406H31.25C47.1037 0.816406 59.9998 13.7139 59.9998 29.5663C59.9998 45.42 47.1037 58.3166 31.25 58.3166Z" fill="#F44730"/>
<path d="M31.25 17.0664H28.7497C28.0598 17.0664 27.5 16.5061 27.5 15.8162C27.5 15.1264 28.0598 14.5661 28.7497 14.5661H31.25C34.6897 14.5661 38.3398 13.7239 41.8024 12.1299C44.3498 10.97 46.4285 9.77512 47.9864 8.57488C48.5337 8.15512 49.3184 8.25766 49.7386 8.80234C49.8388 8.93242 49.9124 9.08096 49.9552 9.23949C49.998 9.39802 50.0092 9.56344 49.9881 9.72629C49.967 9.88913 49.914 10.0462 49.8322 10.1886C49.7504 10.331 49.6413 10.4558 49.5112 10.5561C47.8023 11.8727 45.5588 13.1663 42.841 14.4036C39.0586 16.145 35.0485 17.0664 31.25 17.0664Z" fill="#F44730"/>
</g>
<defs>
<clipPath id="clip0_3909_58932">
<rect width="60" height="60" fill="white" transform="translate(0 0.816406)"/>
</clipPath>
</defs>
</svg>
