<svg width="75" height="75" viewBox="0 0 75 75" fill="none" xmlns="http://www.w3.org/2000/svg">
<path d="M37.4991 5.04044C37.1649 5.04044 36.8444 4.90767 36.6081 4.67136C36.3718 4.43504 36.239 4.11453 36.239 3.78033V1.26011C36.239 0.925907 36.3718 0.605394 36.6081 0.369077C36.8444 0.132761 37.1649 0 37.4991 0C37.8333 0 38.1538 0.132761 38.3902 0.369077C38.6265 0.605394 38.7592 0.925907 38.7592 1.26011V3.78033C38.7592 4.11453 38.6265 4.43504 38.3902 4.67136C38.1538 4.90767 37.8333 5.04044 37.4991 5.04044ZM26.7882 7.90971C26.5668 7.90992 26.3492 7.8518 26.1574 7.74119C25.9656 7.63058 25.8064 7.47139 25.6957 7.27965L24.4356 5.09714C24.2711 4.80787 24.2277 4.46529 24.3149 4.14417C24.4021 3.82304 24.6128 3.54943 24.9009 3.38305C25.1891 3.21667 25.5314 3.17102 25.8531 3.25607C26.1748 3.34113 26.4498 3.54997 26.6181 3.83703L27.8782 6.01954C27.9887 6.21101 28.047 6.42819 28.047 6.64927C28.0471 6.87036 27.989 7.08757 27.8785 7.27909C27.7681 7.47061 27.6092 7.62971 27.4178 7.7404C27.2264 7.85109 27.0093 7.90948 26.7882 7.90971ZM48.21 7.90971C47.989 7.90948 47.7718 7.85109 47.5804 7.7404C47.3891 7.62971 47.2302 7.47061 47.1197 7.27909C47.0093 7.08757 46.9512 6.87036 46.9512 6.64927C46.9513 6.42819 47.0095 6.21101 47.12 6.01954L48.3802 3.83703C48.5484 3.54997 48.8234 3.34113 49.1451 3.25607C49.4668 3.17102 49.8091 3.21667 50.0973 3.38305C50.3855 3.54943 50.5961 3.82304 50.6833 4.14417C50.7705 4.46529 50.7271 4.80787 50.5627 5.09714L49.3026 7.27965C49.1919 7.47139 49.0326 7.63058 48.8408 7.74119C48.649 7.8518 48.4314 7.90992 48.21 7.90971ZM72.4356 26.9248C72.465 26.7004 72.4797 26.4743 72.4797 26.2481C72.4752 25.0933 72.0755 23.9749 71.3472 23.0788C70.6189 22.1827 69.6058 21.5629 68.4764 21.3223C67.185 21.0821 65.8506 21.3428 64.7446 22.0513C63.6386 22.7599 62.844 23.8631 62.5224 25.1367L58.1422 40.6058C57.6596 40.7104 57.1951 40.8858 56.7637 41.1262L45.6243 47.6561C43.9208 48.6596 42.5081 50.0895 41.5253 51.805C40.5425 53.5205 40.0235 55.4625 40.0193 57.4396V73.0863C40.0193 73.4205 40.1521 73.741 40.3884 73.9774C40.6247 74.2137 40.9452 74.3464 41.2794 74.3464C41.6136 74.3464 41.9342 74.2137 42.1705 73.9774C42.4068 73.741 42.5396 73.4205 42.5396 73.0863V57.4396C42.5428 55.9019 42.9465 54.3915 43.711 53.0574C44.4756 51.7232 45.5745 50.6112 46.8995 49.831L58.0313 43.3049C58.3181 43.1368 58.6352 43.0271 58.9645 42.9821C59.2938 42.937 59.6288 42.9576 59.9501 43.0426C60.2714 43.1275 60.5728 43.2752 60.8368 43.4771C61.1008 43.679 61.3223 43.9311 61.4885 44.2189C61.6547 44.5068 61.7623 44.8246 61.8051 45.1542C61.848 45.4838 61.8252 45.8186 61.7381 46.1394C61.651 46.4601 61.5013 46.7605 61.2977 47.0232C61.0941 47.2859 60.8405 47.5057 60.5516 47.6699L53.3299 51.8396C53.1854 51.9218 53.0586 52.0317 52.9568 52.163C52.855 52.2943 52.7801 52.4445 52.7366 52.6049C52.6931 52.7653 52.6817 52.9327 52.7031 53.0975C52.7245 53.2623 52.7783 53.4212 52.8614 53.5651C52.9445 53.709 53.0552 53.8351 53.1873 53.9361C53.3193 54.037 53.4699 54.1108 53.6306 54.1533C53.7913 54.1958 53.9587 54.2061 54.1234 54.1836C54.288 54.161 54.4466 54.1062 54.59 54.0221L61.8117 49.8524C62.8434 49.2597 63.6308 48.3194 64.0331 47.1996C64.4355 46.0798 64.4266 44.8535 64.008 43.7396L67.467 30.8512C67.6239 30.199 68.0203 29.6297 68.5775 29.2562C69.1347 28.8827 69.812 28.7323 70.4749 28.8351C71.0386 28.9545 71.5446 29.2628 71.9091 29.7089C72.2737 30.1551 72.475 30.7124 72.4797 31.2885C72.4814 31.5101 72.4534 31.7309 72.3966 31.945L66.9164 52.3991C66.7245 53.1129 66.3281 53.7551 65.776 54.2464L57.2564 61.8197C56.5905 62.4113 56.0577 63.1373 55.693 63.9499C55.3283 64.7624 55.1401 65.6431 55.1406 66.5338V73.0863C55.1406 73.4205 55.2734 73.741 55.5097 73.9774C55.746 74.2137 56.0666 74.3464 56.4008 74.3464C56.735 74.3464 57.0555 74.2137 57.2918 73.9774C57.5281 73.741 57.6609 73.4205 57.6609 73.0863V66.5338C57.6609 66 57.774 65.4722 57.9927 64.9853C58.2114 64.4983 58.5308 64.0632 58.9298 63.7086L67.4519 56.1341C68.3725 55.3141 69.0324 54.242 69.3496 53.0506L74.8298 32.599C74.9446 32.1713 75.0019 31.7301 75 31.2872C74.9943 30.3987 74.7542 29.5275 74.3039 28.7615C73.8537 27.9955 73.2092 27.3619 72.4356 26.9248ZM65.0338 30.201L62.0536 41.3001C61.6481 41.0309 61.2059 40.8216 60.7406 40.6788L64.9519 25.8096C65.1114 25.1583 65.5087 24.5903 66.0658 24.2172C66.6229 23.8442 67.2993 23.693 67.9622 23.7934C68.5255 23.9128 69.0308 24.2216 69.3942 24.6682C69.7576 25.1148 69.9571 25.6723 69.9595 26.2481V26.2657C68.822 26.2947 67.7252 26.6946 66.8359 27.4046C65.9467 28.1146 65.3139 29.0957 65.0338 30.1985V30.201ZM29.3739 47.6561L18.227 41.1224C17.7982 40.8829 17.3361 40.7083 16.856 40.6045L12.4809 25.1518C12.1625 23.8739 11.3681 22.7658 10.26 22.0541C9.15197 21.3423 7.81393 21.0805 6.51934 21.3223C5.3905 21.5636 4.37814 22.1837 3.65036 23.0797C2.92259 23.9757 2.5232 25.0937 2.51849 26.2481C2.51846 26.4743 2.5332 26.7004 2.5626 26.9248C1.59137 27.4708 0.829139 28.3241 0.395748 29.3505C-0.0376437 30.377 -0.11762 31.5184 0.168392 32.5952L5.64861 53.0506C5.96734 54.2398 6.62753 55.3096 7.54759 56.1278L16.0684 63.701C16.4684 64.0565 16.7883 64.4928 17.0071 64.9812C17.2258 65.4695 17.3384 65.9987 17.3374 66.5338V73.0863C17.3374 73.4205 17.4701 73.741 17.7065 73.9774C17.9428 74.2137 18.2633 74.3464 18.5975 74.3464C18.9317 74.3464 19.2522 74.2137 19.4885 73.9774C19.7248 73.741 19.8576 73.4205 19.8576 73.0863V66.5338C19.8575 65.6439 19.6688 64.7643 19.3042 63.9526C18.9395 63.1409 18.4071 62.4157 17.7419 61.8247L9.22353 54.2515C8.6705 53.7606 8.27356 53.1183 8.08188 52.4042L2.6004 31.9425C2.51408 31.6116 2.49577 31.2666 2.54658 30.9284C2.59739 30.5902 2.71626 30.2658 2.89601 29.9749C3.07576 29.684 3.31265 29.4325 3.59235 29.2357C3.87206 29.0389 4.18877 28.9009 4.52333 28.83C5.18627 28.727 5.8637 28.8772 6.42099 29.2507C6.97828 29.6243 7.37461 30.1938 7.53121 30.8462L10.9902 43.7346C10.5717 44.8484 10.5628 46.0748 10.9651 47.1946C11.3675 48.3144 12.1548 49.2547 13.1866 49.8474L20.4083 54.0171C20.5516 54.1011 20.7102 54.156 20.8748 54.1785C21.0395 54.201 21.207 54.1908 21.3676 54.1483C21.5283 54.1058 21.679 54.032 21.811 53.931C21.943 53.8301 22.0537 53.704 22.1368 53.5601C22.2199 53.4162 22.2737 53.2572 22.2952 53.0924C22.3166 52.9276 22.3052 52.7602 22.2616 52.5999C22.2181 52.4395 22.1433 52.2893 22.0414 52.158C21.9396 52.0266 21.8128 51.9167 21.6684 51.8346L14.4467 47.6699C13.9542 47.3877 13.5718 46.9471 13.3617 46.4198C13.1516 45.8925 13.1263 45.3096 13.2898 44.766C13.4533 44.2225 13.796 43.7503 14.2621 43.4264C14.7282 43.1025 15.2903 42.946 15.8567 42.9823H15.8668C16.2509 43.002 16.625 43.1111 16.9593 43.3011L28.0987 49.831C29.4238 50.6112 30.5227 51.7232 31.2872 53.0574C32.0517 54.3915 32.4555 55.9019 32.4587 57.4396V73.0863C32.4587 73.4205 32.5914 73.741 32.8278 73.9774C33.0641 74.2137 33.3846 74.3464 33.7188 74.3464C34.053 74.3464 34.3735 74.2137 34.6098 73.9774C34.8461 73.741 34.9789 73.4205 34.9789 73.0863V57.4396C34.9748 55.4625 34.4557 53.5205 33.4729 51.805C32.4901 50.0895 31.0774 48.6596 29.3739 47.6561ZM12.9446 41.2988L9.96448 30.1985C9.68547 29.0954 9.05331 28.1139 8.16442 27.4036C7.27553 26.6933 6.1787 26.2932 5.04123 26.2645V26.2481C5.04269 25.672 5.24144 25.1138 5.60439 24.6665C5.96735 24.2192 6.47259 23.9097 7.03599 23.7896C7.70258 23.6872 8.38328 23.8396 8.94255 24.2165C9.50182 24.5934 9.89863 25.1671 10.0539 25.8234L14.2577 40.6763C13.7921 40.819 13.3498 41.0287 12.9446 41.2988Z" fill="white"/>
<path d="M47.0736 42.1864C47.4709 42.183 47.8618 42.0862 48.2149 41.9039C48.5679 41.7217 48.8732 41.4591 49.1061 41.1372C49.3391 40.8154 49.4932 40.4433 49.556 40.051C49.6188 39.6587 49.5886 39.2572 49.4678 38.8787L46.3717 29.3497L54.4768 23.46C54.907 23.1474 55.2273 22.7067 55.3919 22.2009C55.5565 21.6952 55.5568 21.1504 55.3929 20.6445C55.229 20.1385 54.9093 19.6974 54.4795 19.3842C54.0496 19.071 53.5317 18.9019 52.9999 18.9009H42.9795L39.8809 9.37195C39.7152 8.86774 39.3945 8.42871 38.9646 8.11747C38.5347 7.80624 38.0175 7.63867 37.4867 7.63867C36.956 7.63867 36.4388 7.80624 36.0088 8.11747C35.5789 8.42871 35.2582 8.86774 35.0925 9.37195L31.9939 18.9009H21.9735C21.4414 18.9011 20.9229 19.0697 20.4925 19.3825C20.062 19.6954 19.7417 20.1365 19.5773 20.6427C19.4129 21.1488 19.413 21.6939 19.5775 22.2C19.7419 22.7061 20.0624 23.1472 20.4929 23.46L28.5979 29.3497L25.5018 38.8787C25.3373 39.3849 25.3372 39.9302 25.5017 40.4364C25.6662 40.9427 25.9867 41.3839 26.4174 41.6967C26.848 42.0096 27.3667 42.178 27.899 42.1779C28.4313 42.1779 28.9499 42.0092 29.3804 41.6963L37.4867 35.8078L45.593 41.6963C46.0218 42.013 46.5405 42.1847 47.0736 42.1864ZM37.4867 33.285C36.9542 33.2853 36.4354 33.4543 36.0048 33.7677L27.8998 39.6574L30.9959 30.1285C31.1603 29.6222 31.1602 29.077 30.9956 28.5708C30.831 28.0647 30.5104 27.6236 30.0798 27.3109L21.9735 21.4211H31.9939C32.5257 21.4205 33.0436 21.2518 33.4737 20.939C33.9037 20.6262 34.2238 20.1854 34.3881 19.6796L37.4867 10.1343V10.1507L40.5828 19.6796C40.7472 20.1858 41.0677 20.6269 41.4983 20.9397C41.9288 21.2526 42.4473 21.4211 42.9795 21.4211H52.9999L44.8949 27.3096C44.4638 27.6223 44.1427 28.0635 43.9779 28.5699C43.8131 29.0763 43.813 29.6219 43.9775 30.1285L47.0736 39.6574L38.9686 33.7702C38.5383 33.4559 38.0195 33.286 37.4867 33.285ZM16.1228 14.3217L18.3041 15.5818C18.4474 15.6658 18.606 15.7207 18.7707 15.7432C18.9353 15.7657 19.1028 15.7554 19.2634 15.7129C19.4241 15.6705 19.5748 15.5966 19.7068 15.4957C19.8388 15.3947 19.9495 15.2687 20.0326 15.1248C20.1157 14.9808 20.1695 14.8219 20.191 14.6571C20.2124 14.4923 20.201 14.3249 20.1574 14.1645C20.1139 14.0042 20.0391 13.854 19.9373 13.7226C19.8354 13.5913 19.7086 13.4814 19.5642 13.3993L17.3829 12.1392C17.0937 11.9747 16.7511 11.9313 16.43 12.0185C16.1088 12.1057 15.8352 12.3163 15.6688 12.6045C15.5025 12.8927 15.4568 13.235 15.5419 13.5567C15.6269 13.8784 15.8358 14.1534 16.1228 14.3217ZM56.0406 15.7506C56.2617 15.7506 56.479 15.6924 56.6706 15.5818L58.8519 14.3217C59.1389 14.1534 59.3478 13.8784 59.4328 13.5567C59.5179 13.235 59.4722 12.8927 59.3058 12.6045C59.1395 12.3163 58.8659 12.1057 58.5447 12.0185C58.2236 11.9313 57.881 11.9747 57.5918 12.1392L55.4105 13.3993C55.1703 13.538 54.9826 13.7521 54.8764 14.0083C54.7703 14.2646 54.7516 14.5487 54.8234 14.8167C54.8952 15.0846 55.0534 15.3213 55.2735 15.4902C55.4935 15.6591 55.7632 15.7506 56.0406 15.7506Z" fill="white"/>
</svg>
