<svg width="40" height="41" viewBox="0 0 40 41" fill="none" xmlns="http://www.w3.org/2000/svg">
<g clip-path="url(#clip0_3909_58773)">
<path d="M19.1666 27.4834H20.8334V39.1503H19.1666V27.4834ZM7.5 24.1503H32.5V25.8168H7.5V24.1503ZM35.8334 13.3168C33.5358 13.3168 31.6666 11.4476 31.6666 9.15027C31.6666 6.85262 33.5358 4.9834 35.8334 4.9834C38.1308 4.9834 40 6.85262 40 9.15027C40 11.4476 38.1308 13.3168 35.8334 13.3168ZM35.8334 6.65027C34.4549 6.65027 33.3334 7.77176 33.3334 9.15027C33.3334 10.5284 34.4549 11.6503 35.8334 11.6503C37.2116 11.6503 38.3334 10.5284 38.3334 9.15027C38.3334 7.77176 37.2116 6.65027 35.8334 6.65027Z" fill="white"/>
<path d="M27.5025 39.1503C27.3927 39.1503 27.2809 39.1292 27.1741 39.0825C26.7509 38.901 26.5549 38.4111 26.7368 37.9885L29.2368 32.155C29.3009 32.0051 29.4077 31.8774 29.5438 31.7876C29.68 31.6979 29.8395 31.6501 30.0025 31.6503H35.8359C37.2141 31.6503 38.3359 30.5284 38.3359 29.1503V18.3168C38.3359 17.3976 37.5883 16.6503 36.6691 16.6503H35.8359C35.2509 16.6503 34.7184 17.037 34.0009 17.987C33.1959 19.0502 30.7527 22.05 30.6491 22.1767C30.5708 22.2725 30.4722 22.3498 30.3604 22.4028C30.2485 22.4559 30.1263 22.4834 30.0025 22.4834H25.8359C25.3758 22.4834 25.0025 22.8569 25.0025 23.3168V24.9834C25.0026 25.0929 24.9811 25.2013 24.9392 25.3024C24.8974 25.4036 24.836 25.4955 24.7586 25.5729C24.6812 25.6503 24.5893 25.7117 24.4881 25.7536C24.3869 25.7954 24.2785 25.8169 24.1691 25.8168C24.0596 25.8169 23.9512 25.7954 23.8501 25.7536C23.7489 25.7117 23.657 25.6503 23.5797 25.5729C23.5023 25.4955 23.4409 25.4036 23.3991 25.3024C23.3573 25.2013 23.3358 25.0929 23.3359 24.9834V23.3168C23.3359 21.9383 24.4574 20.8168 25.8359 20.8168H29.6058C30.2625 20.0084 32.0325 17.8252 32.6709 16.9811C33.375 16.0509 34.3698 14.9834 35.8359 14.9834H36.6691C38.5074 14.9834 40.0025 16.4785 40.0025 18.3168V29.1503C40.0025 31.4476 38.1333 33.3168 35.8359 33.3168H30.5518L28.2682 38.6452C28.1333 38.9611 27.8257 39.1503 27.5025 39.1503Z" fill="white"/>
<path d="M24.1688 39.1494C24.0821 39.1494 23.9931 39.135 23.9055 39.1061C23.4697 38.9611 23.2331 38.4893 23.3791 38.0517L26.1423 29.7611C26.5947 28.3993 27.8663 27.4825 29.3041 27.4825H31.6688V24.9825C31.6688 24.5218 32.0415 24.1494 32.5023 24.1494C32.9631 24.1494 33.3357 24.5218 33.3357 24.9825V28.316C33.3358 28.4254 33.3143 28.5339 33.2724 28.635C33.2306 28.7362 33.1692 28.8281 33.0918 28.9055C33.0144 28.9829 32.9225 29.0443 32.8213 29.0861C32.7202 29.128 32.6117 29.1495 32.5023 29.1494H29.304C28.5856 29.1494 27.9497 29.6068 27.7238 30.2877L24.9598 38.5793C24.9044 38.7453 24.7982 38.8896 24.6562 38.9919C24.5143 39.0942 24.3438 39.1493 24.1688 39.1494Z" fill="white"/>
<path d="M32.4991 25.8168C32.3252 25.8168 32.15 25.7628 32.0002 25.6502C31.6318 25.3743 31.5567 24.8518 31.8332 24.4844L34.3332 21.151C34.6091 20.7826 35.1316 20.7085 35.4993 20.9844C35.8676 21.2602 35.9423 21.7827 35.6659 22.1501L33.1659 25.4836C33.0032 25.7018 32.7534 25.8168 32.4991 25.8168ZM4.16656 13.3168C1.86922 13.3168 0 11.4476 0 9.15027C0 6.85262 1.86922 4.9834 4.16656 4.9834C6.46422 4.9834 8.33344 6.85262 8.33344 9.15027C8.33344 11.4476 6.46422 13.3168 4.16656 13.3168ZM4.16656 6.65027C2.78844 6.65027 1.66656 7.77176 1.66656 9.15027C1.66656 10.5284 2.78844 11.6503 4.16656 11.6503C5.54508 11.6503 6.66656 10.5284 6.66656 9.15027C6.66656 7.77176 5.54508 6.65027 4.16656 6.65027ZM12.5 39.1503C12.1768 39.1503 11.8692 38.9611 11.7344 38.6452L9.45063 33.3168H4.16656C1.86922 33.3168 0 31.4476 0 29.1503V18.3168C0 16.4785 1.49508 14.9834 3.33344 14.9834H4.16656C5.63266 14.9834 6.62844 16.0509 7.33094 16.9811C7.97 17.8252 9.73906 20.0084 10.3958 20.8168H14.1666C15.5451 20.8168 16.6666 21.9383 16.6666 23.3168V24.9834C16.6666 25.4442 16.2934 25.8168 15.8334 25.8168C15.3733 25.8168 15 25.4442 15 24.9834V23.3168C15 22.8569 14.6258 22.4834 14.1666 22.4834H10C9.74922 22.4834 9.51266 22.3711 9.35422 22.1767C9.25078 22.0501 6.80664 19.0501 6.0025 17.9861C5.28414 17.0369 4.7525 16.6503 4.16656 16.6503H3.33344C2.41422 16.6503 1.66656 17.3976 1.66656 18.3168V29.1503C1.66656 30.5284 2.78844 31.6503 4.16656 31.6503H10C10.163 31.6501 10.3225 31.6979 10.4586 31.7876C10.5947 31.8773 10.7015 32.0051 10.7656 32.155L13.2656 37.9885C13.4476 38.4111 13.2508 38.901 12.8284 39.0825C12.7248 39.1276 12.613 39.1506 12.5 39.1503Z" fill="white"/>
<path d="M15.8309 39.1494C15.656 39.1493 15.4855 39.0942 15.3435 38.9919C15.2016 38.8896 15.0954 38.7453 15.0399 38.5793L12.2766 30.2883C12.1662 29.9565 11.954 29.6678 11.6702 29.4634C11.3865 29.2589 11.0455 29.1491 10.6958 29.1494H7.4975C7.03758 29.1494 6.66406 28.7768 6.66406 28.316V24.9825C6.66406 24.5218 7.03758 24.1494 7.4975 24.1494C7.95742 24.1494 8.33094 24.5218 8.33094 24.9825V27.4825H10.6958C11.3955 27.4817 12.0777 27.7014 12.6454 28.1105C13.2131 28.5195 13.6375 29.097 13.8583 29.761L16.6216 38.0517C16.7675 38.4884 16.5316 38.9611 16.0949 39.1061C16.0098 39.1344 15.9207 39.1491 15.8309 39.1494Z" fill="white"/>
<path d="M7.49864 25.8164C7.3691 25.8166 7.2413 25.7865 7.1254 25.7287C7.00949 25.6708 6.90866 25.5867 6.8309 25.4831L4.3309 22.1497C4.05434 21.7823 4.1295 21.2598 4.49786 20.984C4.8677 20.708 5.38926 20.7823 5.6645 21.1505L8.1645 24.484C8.44106 24.8514 8.3659 25.3738 7.99755 25.6498C7.85376 25.758 7.67863 25.8165 7.49864 25.8164ZM26.6643 22.483C26.5548 22.4831 26.4464 22.4616 26.3453 22.4198C26.2442 22.378 26.1523 22.3166 26.0749 22.2392C25.9975 22.1618 25.9362 22.0699 25.8943 21.9688C25.8525 21.8677 25.831 21.7593 25.8311 21.6498V15.8164C25.8311 13.978 24.3361 12.483 22.4977 12.483H17.4977C15.6593 12.483 14.1643 13.978 14.1643 15.8164V18.3164C14.1643 18.7763 13.7911 19.1498 13.3311 19.1498C12.871 19.1498 12.4977 18.7763 12.4977 18.3164V15.8164C12.4977 13.0588 14.7401 10.8164 17.4977 10.8164H22.4977C25.2553 10.8164 27.4977 13.0588 27.4977 15.8164V21.6498C27.4977 22.1106 27.125 22.483 26.6643 22.483ZM19.9977 9.14984C17.7004 9.14984 15.8311 7.28062 15.8311 4.98297C15.8311 2.68563 17.7004 0.816406 19.9977 0.816406C22.295 0.816406 24.1643 2.68563 24.1643 4.98297C24.1643 7.28062 22.295 9.14984 19.9977 9.14984ZM19.9977 2.48297C18.6192 2.48297 17.4977 3.60484 17.4977 4.98297C17.4977 6.36148 18.6192 7.48297 19.9977 7.48297C21.3762 7.48297 22.4977 6.36148 22.4977 4.98297C22.4977 3.60484 21.3762 2.48297 19.9977 2.48297Z" fill="white"/>
<path d="M19.1641 14.1494H20.8309V15.816H19.1641V14.1494Z" fill="white"/>
</g>
<defs>
<clipPath id="clip0_3909_58773">
<rect width="40" height="40" fill="white" transform="translate(0 0.816406)"/>
</clipPath>
</defs>
</svg>
