<svg width="40" height="41" viewBox="0 0 40 41" fill="none" xmlns="http://www.w3.org/2000/svg">
<g clip-path="url(#clip0_3909_58759)">
<path d="M10.8359 24.1498C10.3758 24.1498 10.0025 23.7772 10.0025 23.3164V14.983C10.0025 14.523 10.3757 14.1498 10.8359 14.1498C11.2959 14.1498 11.6691 14.523 11.6691 14.983V23.3164C11.6691 23.7772 11.2959 24.1498 10.8359 24.1498ZM7.5025 9.14984C5.20516 9.14984 3.33594 7.28062 3.33594 4.98297C3.33594 2.68563 5.20516 0.816406 7.5025 0.816406C9.79984 0.816406 11.6691 2.68563 11.6691 4.98297C11.6691 7.28062 9.79984 9.14984 7.5025 9.14984ZM7.5025 2.48297C6.12398 2.48297 5.0025 3.60484 5.0025 4.98297C5.0025 6.36148 6.12398 7.48297 7.5025 7.48297C8.88102 7.48297 10.0025 6.36148 10.0025 4.98297C10.0025 3.60484 8.88102 2.48297 7.5025 2.48297ZM6.66906 14.1498H8.33594V15.8164H6.66906V14.1498Z" fill="white"/>
<path d="M0.833438 24.1498C0.373281 24.1498 0 23.7772 0 23.3164V15.8164C0 13.0588 2.24242 10.8164 5 10.8164H23.3334C23.7942 10.8164 24.1666 11.1896 24.1666 11.6498V14.983C24.1666 15.4431 23.7942 15.8164 23.3334 15.8164H10.8334C10.3733 15.8164 10 15.4432 10 14.983C10 14.523 10.3732 14.1498 10.8334 14.1498H22.5V12.483H5C3.16164 12.483 1.66656 13.978 1.66656 15.8164V23.3164C1.66656 23.7772 1.29336 24.1498 0.833438 24.1498Z" fill="white"/>
<path d="M4.16656 24.1498C3.70664 24.1498 3.33344 23.7772 3.33344 23.3164V20.8164C3.33344 20.3565 3.70664 19.983 4.16656 19.983C4.62672 19.983 5 20.3565 5 20.8164V23.3164C5 23.7772 4.6268 24.1498 4.16656 24.1498ZM6.66656 32.483C4.8282 32.483 3.33344 30.9882 3.33344 29.1498C3.33344 27.3115 4.8282 25.8164 6.66656 25.8164C8.50492 25.8164 10 27.3115 10 29.1498C10 30.9882 8.50492 32.483 6.66656 32.483ZM6.66656 27.483C5.74734 27.483 5 28.2306 5 29.1498C5 30.0691 5.74734 30.8164 6.66656 30.8164C7.58578 30.8164 8.33344 30.0691 8.33344 29.1498C8.33344 28.2306 7.58578 27.483 6.66656 27.483ZM10.8334 40.8164H0.833438C0.373281 40.8164 0 40.4437 0 39.983V38.3164C0 37.2041 0.433359 36.1582 1.22008 35.3705C2.00742 34.5838 3.05422 34.1498 4.16656 34.1498H9.16656C10.2802 34.1498 11.3266 34.5838 12.1134 35.3705C12.4384 35.6974 12.4384 36.2238 12.1124 36.5498C11.7868 36.8748 11.2591 36.8738 10.9341 36.5488C10.4627 36.0764 9.83492 35.8164 9.16656 35.8164H4.16656C3.49914 35.8164 2.87172 36.0773 2.3993 36.5488C1.92664 37.0215 1.66656 37.649 1.66656 38.3164V39.1498H10.8334C11.2934 39.1498 11.6666 39.5222 11.6666 39.983C11.6666 40.4437 11.2934 40.8164 10.8334 40.8164ZM20 32.483C18.1616 32.483 16.6666 30.9882 16.6666 29.1498C16.6666 27.3115 18.1616 25.8164 20 25.8164C21.8384 25.8164 23.3334 27.3115 23.3334 29.1498C23.3334 30.9882 21.8384 32.483 20 32.483ZM20 27.483C19.0808 27.483 18.3334 28.2306 18.3334 29.1498C18.3334 30.0691 19.0808 30.8164 20 30.8164C20.9192 30.8164 21.6666 30.0691 21.6666 29.1498C21.6666 28.2306 20.9192 27.483 20 27.483ZM25.8334 40.8164H14.1666C13.7066 40.8164 13.3334 40.4437 13.3334 39.983V38.3164C13.3334 37.2041 13.7668 36.1582 14.5532 35.3705C15.3409 34.5838 16.3876 34.1498 17.5 34.1498H22.5C23.6133 34.1498 24.66 34.5838 25.4468 35.3705C26.2326 36.1573 26.6666 37.2041 26.6666 38.3164V39.983C26.6667 40.0924 26.6452 40.2008 26.6034 40.302C26.5616 40.4031 26.5002 40.4951 26.4228 40.5725C26.3455 40.6499 26.2536 40.7113 26.1524 40.7531C26.0513 40.795 25.9429 40.8165 25.8334 40.8164ZM15 39.1498H25V38.3164C25 37.649 24.7391 37.0206 24.2676 36.5488C23.7957 36.0764 23.1684 35.8164 22.5 35.8164H17.5C16.8326 35.8164 16.2052 36.0773 15.7324 36.5488C15.26 37.0215 15 37.649 15 38.3164V39.1498ZM33.3334 32.483C31.4951 32.483 30 30.9882 30 29.1498C30 27.3115 31.4951 25.8164 33.3334 25.8164C35.1718 25.8164 36.6666 27.3115 36.6666 29.1498C36.6666 30.9882 35.1718 32.483 33.3334 32.483ZM33.3334 27.483C32.4142 27.483 31.6666 28.2306 31.6666 29.1498C31.6666 30.0691 32.4142 30.8164 33.3334 30.8164C34.2527 30.8164 35 30.0691 35 29.1498C35 28.2306 34.2527 27.483 33.3334 27.483ZM39.1666 40.8164H29.1666C29.0571 40.8165 28.9487 40.795 28.8476 40.7531C28.7464 40.7113 28.6545 40.6499 28.5772 40.5725C28.4998 40.4951 28.4384 40.4031 28.3966 40.302C28.3548 40.2008 28.3333 40.0924 28.3334 39.983C28.3333 39.8735 28.3548 39.7651 28.3966 39.664C28.4385 39.5629 28.4998 39.471 28.5772 39.3936C28.6546 39.3162 28.7465 39.2549 28.8476 39.213C28.9487 39.1712 29.0571 39.1497 29.1666 39.1498H38.3334V38.3164C38.3334 37.649 38.0725 37.0206 37.6007 36.5488C37.1292 36.0764 36.5018 35.8164 35.8334 35.8164H30.8334C30.1657 35.8164 29.5373 36.0773 29.0659 36.5488C28.9886 36.6263 28.8967 36.6878 28.7956 36.7297C28.6945 36.7717 28.5862 36.7933 28.4767 36.7933C28.3673 36.7933 28.2589 36.7717 28.1578 36.7297C28.0567 36.6878 27.9649 36.6263 27.8876 36.5488C27.8101 36.4715 27.7486 36.3797 27.7067 36.2786C27.6647 36.1775 27.6431 36.0691 27.6431 35.9597C27.6431 35.8502 27.6647 35.7419 27.7067 35.6408C27.7486 35.5397 27.8101 35.4478 27.8876 35.3705C28.6743 34.5838 29.7208 34.1498 30.8334 34.1498H35.8334C36.9467 34.1498 37.9934 34.5838 38.7799 35.3705C39.5656 36.1573 40 37.2041 40 38.3164V39.983C40.0001 40.0924 39.9786 40.2009 39.9367 40.302C39.8949 40.4032 39.8335 40.4951 39.7561 40.5725C39.6787 40.6499 39.5868 40.7113 39.4856 40.7531C39.3844 40.795 39.276 40.8165 39.1666 40.8164ZM37.5 24.1498H14.1666C13.7066 24.1498 13.3334 23.7772 13.3334 23.3164C13.3334 22.8556 13.7066 22.483 14.1666 22.483H37.5C37.9599 22.483 38.3334 22.1098 38.3334 21.6498V3.31641C38.3334 2.85711 37.9599 2.48297 37.5 2.48297H14.1666C13.7066 2.48297 13.3334 2.10977 13.3334 1.64984C13.3334 1.18969 13.7066 0.816406 14.1666 0.816406H37.5C38.8785 0.816406 40 1.93789 40 3.31641V21.6498C40 23.028 38.8785 24.1498 37.5 24.1498Z" fill="white"/>
<path d="M35.8359 20.816H14.1691C13.7091 20.816 13.3359 20.4428 13.3359 19.9825C13.3359 19.5226 13.7091 19.1494 14.1691 19.1494H35.8359C36.2967 19.1494 36.6691 19.5226 36.6691 19.9825C36.6691 20.4427 36.2967 20.816 35.8359 20.816ZM20.0025 4.14941H21.6691V5.81598H20.0025V4.14941ZM16.6691 4.14941H18.3359V5.81598H16.6691V4.14941ZM13.3359 4.14941H15.0025V5.81598H13.3359V4.14941Z" fill="white"/>
</g>
<defs>
<clipPath id="clip0_3909_58759">
<rect width="40" height="40" fill="white" transform="translate(0 0.816406)"/>
</clipPath>
</defs>
</svg>
