<svg width="68" height="61" viewBox="0 0 68 61" fill="none" xmlns="http://www.w3.org/2000/svg">
<path fill-rule="evenodd" clip-rule="evenodd" d="M33.3256 0.00998183C40.3599 0.234679 45.8387 4.96951 51.3127 9.3496C57.7906 14.5331 67.7545 18.9276 67.2554 27.1596C66.7563 35.3914 55.1456 37.1023 49.2754 42.9523C43.365 48.8425 41.6882 60.3558 33.3256 60.973C24.9514 61.591 20.6468 51.4709 14.8068 45.496C9.13413 39.6923 0.419841 35.2349 0.275461 27.1596C0.130273 19.039 7.82649 13.348 14.1393 8.16216C19.7074 3.58823 26.0946 -0.220999 33.3256 0.00998183Z" fill="#2192FF" fill-opacity="0.1"/>
<path d="M4.70213 41.9063H8.03535V54.2872H18.5112V41.9063H21.8444C22.1148 41.9063 22.3797 41.8296 22.6083 41.685C22.8369 41.5404 23.0197 41.3339 23.1355 41.0895C23.2513 40.8451 23.2954 40.5728 23.2625 40.3044C23.2297 40.0359 23.1214 39.7823 22.9501 39.573L14.3789 29.0968C14.2403 28.9405 14.07 28.8153 13.8794 28.7296C13.6888 28.6439 13.4822 28.5996 13.2733 28.5996C13.0643 28.5996 12.8577 28.6439 12.6671 28.7296C12.4765 28.8153 12.3063 28.9405 12.1676 29.0968L3.59646 39.573C3.42517 39.7823 3.31682 40.0359 3.284 40.3044C3.25118 40.5728 3.29523 40.8451 3.41105 41.0895C3.52686 41.3339 3.70967 41.5404 3.93823 41.685C4.16678 41.8296 4.43168 41.9063 4.70213 41.9063Z" fill="#F44730"/>
<path d="M24.7013 27.6191H28.0345V54.2857H30.8915V26.1905C30.8915 25.8117 30.741 25.4483 30.4731 25.1804C30.2052 24.9125 29.8419 24.762 29.463 24.762H27.7164L33.2724 17.9705L38.8284 24.762H37.0818C36.7029 24.762 36.3396 24.9125 36.0717 25.1804C35.8038 25.4483 35.6533 25.8117 35.6533 26.1905V54.2857H38.5103V27.6191H41.8435C42.114 27.6191 42.3789 27.5424 42.6074 27.3978C42.836 27.2532 43.0188 27.0467 43.1346 26.8023C43.2504 26.5579 43.2945 26.2856 43.2617 26.0172C43.2288 25.7487 43.1205 25.4951 42.9492 25.2858L34.3781 14.8096C34.2394 14.6533 34.0691 14.5281 33.8786 14.4424C33.688 14.3567 33.4814 14.3124 33.2724 14.3124C33.0634 14.3124 32.8568 14.3567 32.6662 14.4424C32.4756 14.5281 32.3054 14.6533 32.1667 14.8096L23.5956 25.2858C23.4243 25.4951 23.316 25.7487 23.2831 26.0172C23.2503 26.2856 23.2944 26.5579 23.4102 26.8023C23.526 27.0467 23.7088 27.2532 23.9374 27.3978C24.1659 27.5424 24.4308 27.6191 24.7013 27.6191ZM61.8428 60H4.70196C4.32309 60 3.95974 59.8495 3.69184 59.5816C3.42394 59.3137 3.27344 58.9503 3.27344 58.5714C3.27344 58.1926 3.42394 57.8292 3.69184 57.5613C3.95974 57.2934 4.32309 57.1429 4.70196 57.1429H61.8428C62.2217 57.1429 62.585 57.2934 62.853 57.5613C63.1208 57.8292 63.2714 58.1926 63.2714 58.5714C63.2714 58.9503 63.1208 59.3137 62.853 59.5816C62.585 59.8495 62.2217 60 61.8428 60ZM44.7006 13.3067H48.0338V54.2591H50.8908V11.8782C50.8908 11.4993 50.7403 11.1359 50.4724 10.868C50.2045 10.6001 49.8412 10.4496 49.4623 10.4496H47.7138L53.2717 3.65819L58.8287 10.4496H57.0811C56.7022 10.4496 56.3389 10.6001 56.071 10.868C55.8031 11.1359 55.6526 11.4993 55.6526 11.8782V54.2591H58.5096V13.3067H61.8428C62.1135 13.3071 62.3788 13.2305 62.6076 13.086C62.8365 12.9414 63.0196 12.7348 63.1355 12.4902C63.2515 12.2455 63.2956 11.973 63.2626 11.7043C63.2297 11.4356 63.1211 11.1818 62.9495 10.9725L54.3783 0.496288C54.2394 0.340206 54.069 0.215292 53.8784 0.129756C53.6877 0.0442208 53.4811 0 53.2722 0C53.0632 0 52.8566 0.0442208 52.666 0.129756C52.4753 0.215292 52.305 0.340206 52.166 0.496288L43.5949 10.9725C43.4233 11.1817 43.3147 11.4355 43.2817 11.7041C43.2488 11.9727 43.2928 12.2451 43.4086 12.4897C43.5245 12.7343 43.7074 12.9409 43.9361 13.0856C44.1648 13.2302 44.43 13.3069 44.7006 13.3067Z" fill="#F44730"/>
</svg>
