<svg width="73" height="75" viewBox="0 0 73 75" fill="none" xmlns="http://www.w3.org/2000/svg">
<path d="M15.7973 50.044H57.1964C58.3338 50.043 59.4242 49.5908 60.2286 48.7867C61.0329 47.9826 61.4855 46.8923 61.4869 45.7549V40.4011C61.4888 37.9485 60.718 35.5576 59.2838 33.568C57.8496 31.5785 55.825 30.0913 53.4975 29.3178L42.8006 25.7522C55.2857 19.1339 50.8286 0.178548 36.4968 0C22.197 0.129247 17.7093 19.1912 30.193 25.7522L19.4961 29.3178C17.1687 30.0913 15.1441 31.5785 13.7099 33.568C12.2757 35.5576 11.5049 37.9485 11.5068 40.4011V45.7549C11.5079 46.8925 11.9602 47.9832 12.7646 48.7876C13.569 49.592 14.6597 50.043 15.7973 50.044ZM25.5082 13.6536C25.5117 10.7403 26.6705 7.94732 28.7306 5.8873C30.7906 3.82729 33.5835 2.66842 36.4968 2.66489C51.0552 3.21653 51.0498 24.092 36.4968 24.6423C33.5835 24.6388 30.7906 23.4799 28.7306 21.4199C26.6705 19.3599 25.5117 16.5669 25.5082 13.6536ZM14.1717 40.3998C14.1704 38.5066 14.7656 36.6612 15.8728 35.1256C16.98 33.59 18.543 32.4423 20.3396 31.8455C23.8493 30.8621 32.8806 27.0567 36.4968 27.3112C40.0638 27.0447 49.2044 30.8821 52.6541 31.8442C54.4507 32.4409 56.0136 33.5887 57.1208 35.1243C58.2281 36.6599 58.8233 38.5053 58.822 40.3985V45.7536C58.822 46.1847 58.6507 46.5982 58.3459 46.903C58.041 47.2079 57.6275 47.3792 57.1964 47.3792H15.7973C15.3661 47.3792 14.9527 47.2079 14.6478 46.903C14.343 46.5982 14.1717 46.1847 14.1717 45.7536V40.3998ZM44.3849 59.2633H40.8273C40.75 59.2631 40.6748 59.2385 40.6123 59.1931C40.5499 59.1476 40.5034 59.0836 40.4795 59.0101L39.3803 55.6283C39.1753 55.0263 38.787 54.5036 38.2699 54.1334C37.7528 53.7632 37.1328 53.5641 36.4968 53.5641C35.8609 53.5641 35.2409 53.7632 34.7238 54.1334C34.2067 54.5036 33.8184 55.0263 33.6134 55.6283L32.5142 59.0101C32.4902 59.0838 32.4435 59.148 32.3808 59.1935C32.3181 59.2389 32.2425 59.2634 32.1651 59.2633H28.6074C27.9669 59.263 27.3427 59.4657 26.8245 59.8422C26.3063 60.2187 25.9207 60.7497 25.723 61.3589C25.5253 61.9682 25.5257 62.6244 25.724 63.2334C25.9224 63.8425 26.3086 64.373 26.8273 64.7489L29.704 66.8382C29.7671 66.8838 29.814 66.9483 29.8379 67.0223C29.8619 67.0963 29.8616 67.1761 29.8373 67.2499L28.738 70.6317C28.5405 71.2406 28.5408 71.8965 28.7388 72.5052C28.9368 73.114 29.3224 73.6445 29.8404 74.0208C30.3583 74.397 30.982 74.5997 31.6222 74.5998C32.2624 74.6 32.8862 74.3975 33.4042 74.0214L36.281 71.9308C36.3438 71.8853 36.4193 71.8608 36.4968 71.8608C36.5744 71.8608 36.6499 71.8853 36.7127 71.9308L39.5894 74.0214C40.1091 74.3878 40.7305 74.5823 41.3663 74.5777C42.0021 74.5732 42.6206 74.3698 43.135 73.996C43.6494 73.6222 44.0339 73.0968 44.2346 72.4935C44.4354 71.8902 44.4423 71.2391 44.2543 70.6317L43.1564 67.2473C43.1324 67.1738 43.1324 67.0946 43.1564 67.021C43.1803 66.9475 43.227 66.8835 43.2897 66.8382L46.1664 64.7489C46.676 64.3681 47.0536 63.8373 47.2462 63.231C47.4388 62.6246 47.4367 61.9732 47.2402 61.3681C47.0437 60.763 46.6626 60.2347 46.1506 59.8572C45.6385 59.4797 45.021 59.272 44.3849 59.2633ZM44.5994 62.593L41.7227 64.6823C41.204 65.058 40.8179 65.5887 40.6201 66.1979C40.4223 66.8071 40.423 67.4633 40.6221 68.0721L41.72 71.4551C41.7441 71.5287 41.7443 71.6081 41.7204 71.6818C41.6966 71.7555 41.6501 71.8197 41.5875 71.8653C41.5249 71.9109 41.4494 71.9355 41.372 71.9355C41.2945 71.9356 41.2191 71.9111 41.1564 71.8655C36.5008 68.2972 36.4702 68.3239 31.8373 71.8655C31.7745 71.9113 31.6989 71.936 31.6212 71.9359C31.5435 71.9359 31.4679 71.9112 31.4052 71.8654C31.3425 71.8196 31.2959 71.755 31.2723 71.6811C31.2486 71.6071 31.2491 71.5275 31.2736 71.4538L32.3716 68.0721C32.5707 67.4633 32.5714 66.8071 32.3736 66.1979C32.1758 65.5887 31.7897 65.058 31.271 64.6823L28.3929 62.593C28.3294 62.5478 28.282 62.4835 28.2575 62.4095C28.2331 62.3355 28.2328 62.2556 28.2569 62.1814C28.281 62.1073 28.3281 62.0427 28.3914 61.9972C28.4546 61.9516 28.5308 61.9274 28.6088 61.9282H32.1664C32.8066 61.929 33.4306 61.7266 33.9486 61.3502C34.4665 60.9738 34.8516 60.4428 35.0485 59.8335L36.1477 56.4518C36.1714 56.3777 36.2179 56.3131 36.2807 56.2673C36.3434 56.2214 36.4191 56.1967 36.4968 56.1967C36.5746 56.1967 36.6503 56.2214 36.713 56.2673C36.7758 56.3131 36.8223 56.3777 36.8459 56.4518L37.9452 59.8335C38.1422 60.443 38.5275 60.9742 39.0457 61.3506C39.5638 61.7271 40.1881 61.9293 40.8286 61.9282H44.3863C44.464 61.928 44.5397 61.9526 44.6026 61.9984C44.6654 62.0441 44.7121 62.1087 44.7358 62.1827C44.7595 62.2567 44.7591 62.3364 44.7346 62.4101C44.7101 62.4839 44.6628 62.548 44.5994 62.593ZM18.8099 59.2633H15.2523C15.175 59.2631 15.0998 59.2385 15.0374 59.1931C14.9749 59.1476 14.9284 59.0836 14.9045 59.0101L13.8053 55.6283C13.6003 55.0263 13.212 54.5036 12.6949 54.1334C12.1778 53.7632 11.5578 53.5641 10.9219 53.5641C10.2859 53.5641 9.66589 53.7632 9.14879 54.1334C8.63168 54.5036 8.24341 55.0263 8.03844 55.6283L6.93917 59.0101C6.91529 59.0836 6.8688 59.1476 6.80634 59.1931C6.74388 59.2385 6.66865 59.2631 6.5914 59.2633H3.03377C2.39312 59.2627 1.76878 59.4652 1.25036 59.8416C0.731938 60.218 0.346099 60.749 0.14822 61.3583C-0.0496581 61.9676 -0.0494002 62.624 0.148957 63.2331C0.347313 63.8423 0.733569 64.373 1.25228 64.7489L4.13037 66.8382C4.19318 66.884 4.23981 66.9485 4.26352 67.0226C4.28723 67.0966 4.2868 67.1762 4.26228 67.2499L3.16435 70.6317C2.96723 71.2404 2.96771 71.896 3.16572 72.5044C3.36374 73.1129 3.74914 73.6431 4.26679 74.0193C4.78443 74.3954 5.40779 74.5982 6.04766 74.5986C6.68754 74.599 7.31114 74.397 7.82924 74.0214L10.706 71.9308C10.7688 71.8853 10.8443 71.8608 10.9219 71.8608C10.9994 71.8608 11.0749 71.8853 11.1377 71.9308L14.0158 74.0214C14.5355 74.3873 15.1566 74.5814 15.7922 74.5765C16.4277 74.5717 17.0458 74.3682 17.5599 73.9945C18.074 73.6208 18.4584 73.0957 18.6591 72.4927C18.8599 71.8897 18.8669 71.2389 18.6794 70.6317L17.5828 67.2473C17.5588 67.1738 17.5588 67.0946 17.5827 67.021C17.6067 66.9475 17.6533 66.8835 17.716 66.8382L20.5914 64.7489C21.101 64.3681 21.4786 63.8373 21.6712 63.231C21.8638 62.6246 21.8617 61.9732 21.6652 61.3681C21.4687 60.763 21.0876 60.2347 20.5756 59.8572C20.0635 59.4797 19.4461 59.272 18.8099 59.2633ZM19.0245 62.593L16.1477 64.6823C15.629 65.058 15.2429 65.5887 15.0451 66.1979C14.8473 66.8071 14.848 67.4633 15.0471 68.0721L16.1464 71.4551C16.1708 71.5289 16.1712 71.6086 16.1473 71.6826C16.1235 71.7566 16.0768 71.8211 16.0139 71.8668C15.951 71.9125 15.8752 71.937 15.7974 71.9368C15.7197 71.9366 15.644 71.9116 15.5814 71.8655C10.9258 68.2972 10.8952 68.3239 6.26228 71.8655C6.19954 71.9113 6.12388 71.936 6.04622 71.9359C5.96855 71.9359 5.89291 71.9112 5.83019 71.8654C5.76748 71.8196 5.72095 71.755 5.6973 71.6811C5.67366 71.6071 5.67414 71.5275 5.69866 71.4538L6.7966 68.0721C6.99567 67.4633 6.99637 66.8071 6.79857 66.1979C6.60078 65.5887 6.21471 65.058 5.69599 64.6823L2.81791 62.593C2.7544 62.5478 2.70697 62.4835 2.68252 62.4095C2.65806 62.3355 2.65786 62.2556 2.68193 62.1814C2.70601 62.1073 2.7531 62.0427 2.81638 61.9972C2.87965 61.9516 2.95581 61.9274 3.03377 61.9282H6.5914C7.23165 61.929 7.85566 61.7266 8.37358 61.3502C8.89149 60.9738 9.27661 60.4428 9.47348 59.8335L10.5728 56.4518C10.5964 56.3777 10.6429 56.3131 10.7057 56.2673C10.7684 56.2214 10.8441 56.1967 10.9219 56.1967C10.9996 56.1967 11.0753 56.2214 11.138 56.2673C11.2008 56.3131 11.2473 56.3777 11.271 56.4518L12.3702 59.8335C12.5672 60.443 12.9525 60.9742 13.4707 61.3506C13.9889 61.7271 14.6132 61.9293 15.2536 61.9282H18.8113C18.889 61.928 18.9648 61.9526 19.0276 61.9984C19.0904 62.0441 19.1371 62.1087 19.1608 62.1827C19.1846 62.2567 19.1841 62.3364 19.1596 62.4101C19.1351 62.4839 19.0878 62.548 19.0245 62.593ZM72.8433 61.3592C72.6518 60.7464 72.2679 60.2115 71.7485 59.834C71.2291 59.4565 70.602 59.2564 69.9599 59.2633H66.4023C66.325 59.2631 66.2498 59.2385 66.1873 59.1931C66.1249 59.1476 66.0784 59.0836 66.0545 59.0101L64.9552 55.6283C64.7503 55.0263 64.362 54.5036 63.8449 54.1334C63.3278 53.7632 62.7078 53.5641 62.0718 53.5641C61.4359 53.5641 60.8159 53.7632 60.2988 54.1334C59.7817 54.5036 59.3934 55.0263 59.1884 55.6283L58.0891 59.0101C58.0652 59.0838 58.0185 59.148 57.9558 59.1935C57.8931 59.2389 57.8175 59.2634 57.74 59.2633H54.1824C53.5419 59.263 52.9177 59.4657 52.3995 59.8422C51.8813 60.2187 51.4957 60.7497 51.298 61.3589C51.1003 61.9682 51.1006 62.6244 51.299 63.2334C51.4974 63.8425 51.8836 64.373 52.4023 64.7489L55.279 66.8382C55.3421 66.8838 55.389 66.9483 55.4129 67.0223C55.4369 67.0963 55.4366 67.1761 55.4123 67.2499L54.313 70.6317C54.1155 71.2406 54.1158 71.8965 54.3138 72.5052C54.5118 73.114 54.8974 73.6445 55.4154 74.0208C55.9333 74.397 56.557 74.5997 57.1972 74.5998C57.8374 74.6 58.4611 74.3975 58.9792 74.0214L61.856 71.9308C61.9187 71.8853 61.9943 71.8608 62.0718 71.8608C62.1494 71.8608 62.2249 71.8853 62.2877 71.9308L65.1644 74.0214C65.6841 74.3878 66.3055 74.5823 66.9413 74.5777C67.5771 74.5732 68.1956 74.3698 68.71 73.996C69.2243 73.6222 69.6089 73.0968 69.8096 72.4935C70.0103 71.8902 70.0172 71.2391 69.8293 70.6317L68.7314 67.2473C68.7074 67.1738 68.7074 67.0946 68.7314 67.021C68.7553 66.9475 68.802 66.8835 68.8646 66.8382L71.7414 64.7489C72.2652 64.3773 72.6553 63.8467 72.8538 63.2358C73.0523 62.625 73.0486 61.9678 72.8433 61.3592ZM70.1744 62.593L67.2977 64.6823C66.779 65.058 66.3929 65.5887 66.1951 66.1979C65.9973 66.8071 65.998 67.4633 66.1971 68.0721L67.295 71.4551C67.3191 71.5287 67.3192 71.6081 67.2954 71.6818C67.2716 71.7555 67.2251 71.8197 67.1624 71.8653C67.0998 71.9109 67.0244 71.9355 66.947 71.9355C66.8695 71.9356 66.7941 71.9111 66.7314 71.8655C62.0758 68.2972 62.0452 68.3239 57.4123 71.8655C57.3495 71.9119 57.2737 71.937 57.1957 71.9372C57.1178 71.9375 57.0417 71.9129 56.9787 71.8669C56.9157 71.821 56.869 71.7562 56.8454 71.6819C56.8217 71.6076 56.8224 71.5277 56.8473 71.4538L57.9466 68.0721C58.1456 67.4633 58.1463 66.8071 57.9485 66.1979C57.7508 65.5887 57.3647 65.058 56.846 64.6823L53.9679 62.593C53.9044 62.5478 53.8569 62.4835 53.8325 62.4095C53.808 62.3355 53.8078 62.2556 53.8319 62.1814C53.856 62.1073 53.9031 62.0427 53.9664 61.9972C54.0296 61.9516 54.1058 61.9274 54.1837 61.9282H57.7414C58.3816 61.929 59.0056 61.7266 59.5235 61.3502C60.0415 60.9738 60.4266 60.4428 60.6235 59.8335L61.7227 56.4518C61.7463 56.3777 61.7929 56.3131 61.8556 56.2673C61.9184 56.2214 61.9941 56.1967 62.0718 56.1967C62.1495 56.1967 62.2253 56.2214 62.288 56.2673C62.3508 56.3131 62.3973 56.3777 62.4209 56.4518L63.5202 59.8335C63.7171 60.4428 64.1022 60.9738 64.6201 61.3502C65.138 61.7266 65.762 61.929 66.4023 61.9282H69.9599C70.0378 61.9277 70.1137 61.9521 70.1768 61.9978C70.2398 62.0434 70.2867 62.108 70.3106 62.1821C70.3345 62.2561 70.3342 62.3359 70.3097 62.4098C70.2852 62.4837 70.2378 62.5479 70.1744 62.593Z" fill="white"/>
</svg>
