<svg width="55" height="55" viewBox="0 0 55 55" fill="none" xmlns="http://www.w3.org/2000/svg">
<circle opacity="0.1" cx="27.5" cy="27.5" r="27.5" fill="white"/>
<path d="M25.125 19.7812L26.375 22.7812C26.5938 23.2812 26.4688 23.875 26.0312 24.2188L24.5 25.5C25.5312 27.6875 27.3125 29.4688 29.5 30.5L30.7812 28.9688C31.125 28.5312 31.7188 28.4062 32.2188 28.625L35.2188 29.875C35.8125 30.0938 36.0938 30.75 35.9375 31.3438L35.1875 34.0938C35.0312 34.625 34.5625 35 34 35C26.25 35 20 28.75 20 21C20 20.4375 20.375 19.9688 20.9062 19.8125L23.6562 19.0625C24.25 18.9062 24.9062 19.1875 25.125 19.7812Z" fill="white"/>
</svg>
