<svg width="68" height="75" viewBox="0 0 68 75" fill="none" xmlns="http://www.w3.org/2000/svg">
<path d="M59.5062 47.3829H59.5022C61.293 45.3855 62.2286 42.42 62.2286 39.5564C62.2286 37.4344 61.3857 35.3992 59.8852 33.8987C58.3846 32.3982 56.3495 31.5552 54.2275 31.5552C52.1054 31.5552 50.0703 32.3982 48.5698 33.8987C47.0693 35.3992 46.2263 37.4344 46.2263 39.5564C46.2263 41.846 46.8935 44.2965 48.0111 46.1106C48.287 46.5607 48.6011 46.9864 48.9498 47.3829H48.9444C47.0821 47.379 45.2664 47.9643 43.7571 49.0551C43.0776 48.9424 42.3901 48.8853 41.7014 48.8845H40.358C41.1896 48.1356 41.913 47.2746 42.5073 46.3263C44.1671 43.7188 45.1191 40.2891 45.1191 36.9165C45.1244 35.4529 44.8408 34.0026 44.2844 32.6488C43.728 31.295 42.9098 30.0643 41.8768 29.0275C40.8437 27.9906 39.6161 27.1679 38.2644 26.6065C36.9126 26.0452 35.4634 25.7562 33.9997 25.7562C32.536 25.7562 31.0868 26.0452 29.735 26.6065C28.3833 27.1679 27.1557 27.9906 26.1226 29.0275C25.0896 30.0643 24.2714 31.295 23.715 32.6488C23.1586 34.0026 22.875 35.4529 22.8803 36.9165C22.8803 40.1576 23.823 43.623 25.4019 46.1861C26.0091 47.1892 26.7593 48.0984 27.6291 48.8848H26.2944C25.6057 48.8856 24.9182 48.9427 24.2387 49.0555C22.7294 47.9646 20.9136 47.3793 19.0514 47.3832H19.046C19.3947 46.9867 19.7087 46.561 19.9847 46.1109C21.1023 44.2965 21.7695 41.8463 21.7695 39.5567C21.7695 37.4352 20.9267 35.4006 19.4266 33.9005C17.9265 32.4004 15.8919 31.5576 13.7704 31.5576C11.6489 31.5576 9.61435 32.4004 8.11424 33.9005C6.61412 35.4006 5.77136 37.4352 5.77136 39.5567C5.77136 42.4203 6.70735 45.3858 8.49641 47.3832H8.48964C3.80835 47.3832 0 50.9583 0 55.3524V64.5919C0 64.9112 0.126833 65.2174 0.352597 65.4432C0.578361 65.6689 0.884563 65.7958 1.20384 65.7958H14.4611V73.4343C14.4611 73.7536 14.588 74.0598 14.8137 74.2855C15.0395 74.5113 15.3457 74.6381 15.665 74.6381H52.3325C52.6517 74.6381 52.9579 74.5113 53.1837 74.2855C53.4095 74.0598 53.5363 73.7536 53.5363 73.4343V65.7955H66.7962C67.1154 65.7955 67.4216 65.6686 67.6474 65.4429C67.8732 65.2171 68 64.9109 68 64.5916V55.3521C68 50.958 64.1897 47.3829 59.5062 47.3829ZM48.634 39.5564C48.634 38.0729 49.2233 36.6502 50.2723 35.6012C51.3212 34.5522 52.744 33.9629 54.2275 33.9629C55.711 33.9629 57.1337 34.5522 58.1827 35.6012C59.2316 36.6502 59.821 38.0729 59.821 39.5564C59.821 42.5824 58.3011 47.3829 54.2252 47.3829C50.152 47.3829 48.634 42.5824 48.634 39.5564ZM33.9975 28.2021C36.3078 28.2047 38.5226 29.1236 40.1562 30.7572C41.7898 32.3908 42.7087 34.6057 42.7114 36.9159C42.7114 36.9787 42.7088 37.0416 42.7079 37.1043C39.3533 36.7218 36.4579 35.9757 32.5476 32.91C32.3552 32.7592 32.1214 32.6705 31.8774 32.6558C31.6333 32.6411 31.3906 32.701 31.1814 32.8277L25.3056 36.3861C25.4423 34.1725 26.4172 32.0942 28.0318 30.5738C29.6465 29.0535 31.7797 28.2054 33.9975 28.2021ZM27.4516 44.9231C26.4466 43.2913 25.7428 41.2227 25.4459 39.1146L31.7266 35.312C35.8087 38.341 39.0038 39.1101 42.4947 39.5031C42.1624 41.5307 41.4591 43.488 40.476 45.0327C39.3575 46.7898 37.3255 48.885 33.9972 48.885C31.2738 48.8845 29.0711 47.5517 27.4516 44.9231ZM8.17829 39.5564C8.17829 38.8221 8.32292 38.095 8.60391 37.4167C8.88491 36.7383 9.29676 36.1219 9.81597 35.6027C10.3352 35.0835 10.9516 34.6716 11.63 34.3906C12.3083 34.1096 13.0354 33.965 13.7697 33.965C14.504 33.965 15.231 34.1096 15.9094 34.3906C16.5878 34.6716 17.2042 35.0835 17.7234 35.6027C18.2426 36.1219 18.6545 36.7383 18.9355 37.4167C19.2164 38.095 19.3611 38.8221 19.3611 39.5564C19.3611 42.5824 17.843 47.3829 13.7697 47.3829C9.69634 47.3829 8.17829 42.5824 8.17829 39.5564ZM2.40693 63.3878V55.3521C2.40693 52.2855 5.13528 49.7905 8.48888 49.7905H19.0506C19.6991 49.7905 20.3439 49.8868 20.964 50.0765C17.1096 51.9045 14.4599 55.6466 14.4599 59.9595V63.3882L2.40693 63.3878ZM51.1274 72.2304H45.0252V64.8091C45.0252 64.4898 44.8983 64.1836 44.6726 63.9578C44.4468 63.7321 44.1406 63.6052 43.8213 63.6052C43.502 63.6052 43.1958 63.7321 42.9701 63.9578C42.7443 64.1836 42.6175 64.4898 42.6175 64.8091V72.2304H25.3818V64.8091C25.3818 64.4898 25.2549 64.1836 25.0292 63.9578C24.8034 63.7321 24.4972 63.6052 24.1779 63.6052C23.8587 63.6052 23.5525 63.7321 23.3267 63.9578C23.1009 64.1836 22.9741 64.4898 22.9741 64.8091V72.2304H16.8676V59.9591C16.8676 55.1801 21.0961 51.2922 26.2937 51.2922H41.7021C46.8997 51.2922 51.1282 55.1801 51.1282 59.9591L51.1274 72.2304ZM65.5923 63.3878H53.5351V59.9591C53.5351 55.6462 50.8855 51.904 47.0311 50.076C47.6511 49.8864 48.296 49.79 48.9444 49.7901H59.5062C62.8619 49.7901 65.5923 52.2851 65.5923 55.3517V63.3878ZM27.3082 14.3344L26.3691 20.8502C26.3378 21.0672 26.3664 21.2885 26.4517 21.4904C26.537 21.6923 26.6758 21.8671 26.8532 21.9959C27.0305 22.1247 27.2396 22.2027 27.458 22.2213C27.6764 22.24 27.8957 22.1987 28.0924 22.1019L33.9975 19.1945L39.9069 22.1022C40.1035 22.199 40.3229 22.2403 40.5412 22.2216C40.7596 22.2029 40.9687 22.1249 41.1461 21.9961C41.3234 21.8672 41.4622 21.6925 41.5475 21.4906C41.6327 21.2887 41.6613 21.0673 41.63 20.8504L40.6907 14.3346L45.2814 9.61492C45.4342 9.45784 45.5413 9.26203 45.591 9.0486C45.6407 8.83518 45.6312 8.61223 45.5635 8.4038C45.4959 8.19536 45.3726 8.00935 45.207 7.86582C45.0414 7.72229 44.8398 7.62669 44.6238 7.58931L38.1345 6.46598L35.0622 0.642399C34.96 0.448569 34.8068 0.286305 34.6192 0.173102C34.4316 0.0598976 34.2166 4.64807e-05 33.9975 0C33.7783 4.79746e-05 33.5633 0.0599313 33.3757 0.173192C33.188 0.286452 33.0349 0.448791 32.9327 0.6427L29.8646 6.46628L23.3757 7.58946C23.1598 7.62684 22.9582 7.72244 22.7926 7.86597C22.627 8.00951 22.5037 8.19551 22.436 8.40395C22.3684 8.61238 22.3589 8.83533 22.4086 9.04876C22.4583 9.26218 22.5653 9.45799 22.7181 9.61508L27.3082 14.3344ZM30.8587 8.73733C31.0402 8.70588 31.2122 8.63317 31.3612 8.5248C31.5103 8.41642 31.6325 8.27527 31.7183 8.11223L33.9975 3.78518L36.2808 8.11283C36.3667 8.27573 36.4888 8.41673 36.6378 8.525C36.7868 8.63327 36.9587 8.70591 37.1401 8.73733L41.9635 9.57219L38.5519 13.0803C38.4234 13.2125 38.327 13.3724 38.27 13.5477C38.2131 13.723 38.1971 13.9091 38.2235 14.0916L38.9214 18.9339L34.529 16.7725C34.3636 16.6911 34.1817 16.6488 33.9974 16.6488C33.813 16.6488 33.6311 16.6911 33.4657 16.7725L29.078 18.933L29.7758 14.0914C29.8021 13.909 29.7862 13.7229 29.7292 13.5476C29.6723 13.3723 29.5758 13.2125 29.4473 13.0803L26.0352 9.57219L30.8587 8.73733ZM4.96494 16.3649L4.31983 20.8508C4.28864 21.0678 4.31726 21.2891 4.40262 21.491C4.48798 21.6929 4.62683 21.8676 4.8042 21.9964C4.98157 22.1251 5.19072 22.203 5.40911 22.2216C5.62749 22.2403 5.84682 22.1989 6.04343 22.1021L10.1096 20.099L14.1716 22.1018C14.3682 22.1987 14.5875 22.2401 14.8059 22.2215C15.0243 22.2029 15.2335 22.1251 15.4109 21.9963C15.5883 21.8676 15.7272 21.6929 15.8126 21.491C15.898 21.2891 15.9267 21.0678 15.8955 20.8508L15.2504 16.3653L18.4118 13.117C18.5647 12.96 18.6718 12.7642 18.7215 12.5508C18.7713 12.3373 18.7618 12.1144 18.6942 11.9059C18.6265 11.6975 18.5033 11.5114 18.3377 11.3679C18.1721 11.2243 17.9705 11.1287 17.7545 11.0913L13.2874 10.3178L11.1747 6.31129C11.0725 6.11753 10.9193 5.95532 10.7318 5.84215C10.5442 5.72898 10.3294 5.66912 10.1103 5.66904C9.8913 5.66902 9.67645 5.72875 9.48887 5.84179C9.3013 5.95483 9.14811 6.11689 9.04581 6.31053L6.92856 10.3178L2.46501 11.0914C2.24916 11.1288 2.04761 11.2244 1.88207 11.3679C1.71653 11.5114 1.59329 11.6974 1.52561 11.9057C1.45794 12.1141 1.44841 12.337 1.49804 12.5503C1.54767 12.7637 1.65459 12.9595 1.80727 13.1166L4.96494 16.3649ZM7.92233 12.5892C8.10365 12.5578 8.27536 12.4852 8.42426 12.3771C8.57316 12.269 8.69529 12.1281 8.78127 11.9654L10.1088 9.45241L11.433 11.9654C11.5189 12.1284 11.6411 12.2695 11.7901 12.3778C11.9391 12.4861 12.111 12.5588 12.2926 12.5902L15.0932 13.0751L13.1112 15.1115C12.9826 15.2436 12.8862 15.4034 12.8292 15.5787C12.7721 15.754 12.7561 15.94 12.7824 16.1224L13.1866 18.933L10.6415 17.6782C10.476 17.5967 10.2939 17.5543 10.1094 17.5543C9.92488 17.5543 9.74283 17.5967 9.57731 17.6782L7.02742 18.9343L7.43176 16.1227C7.45799 15.9404 7.44202 15.7545 7.3851 15.5793C7.32817 15.4041 7.2318 15.2443 7.10341 15.1123L5.12385 13.0742L7.92233 12.5892ZM52.7448 16.3649L52.1003 20.8508C52.0691 21.0678 52.0977 21.2891 52.1831 21.491C52.2684 21.6929 52.4073 21.8676 52.5846 21.9964C52.762 22.1251 52.9712 22.203 53.1896 22.2216C53.4079 22.2403 53.6273 22.1989 53.8239 22.1021L57.8901 20.099L61.9566 22.1021C62.1533 22.199 62.3727 22.2403 62.5912 22.2216C62.8096 22.2029 63.0189 22.1249 63.1962 21.996C63.3736 21.8672 63.5124 21.6923 63.5977 21.4903C63.683 21.2882 63.7114 21.0668 63.68 20.8498L63.0313 16.3655L66.1923 13.1176C66.3451 12.9606 66.4522 12.7648 66.5019 12.5514C66.5517 12.3379 66.5422 12.115 66.4746 11.9065C66.407 11.6981 66.2837 11.512 66.1181 11.3685C65.9526 11.2249 65.7509 11.1293 65.535 11.0919L61.0677 10.3184L58.9543 6.31129C58.8521 6.11751 58.699 5.95529 58.5114 5.84211C58.3238 5.72894 58.1089 5.6691 57.8898 5.66904C57.6709 5.66905 57.456 5.72879 57.2685 5.84183C57.081 5.95487 56.9278 6.11692 56.8255 6.31053L54.7087 10.3178L50.2452 11.0914C50.0293 11.1288 49.8277 11.2244 49.6622 11.3679C49.4966 11.5114 49.3733 11.6973 49.3057 11.9057C49.238 12.114 49.2284 12.3369 49.278 12.5503C49.3277 12.7637 49.4346 12.9595 49.5873 13.1166L52.7448 16.3649ZM55.702 12.5892C55.8834 12.5577 56.0551 12.4852 56.204 12.377C56.3529 12.2689 56.475 12.128 56.561 11.9653L57.8885 9.45226L59.2127 11.9653C59.2986 12.1282 59.4208 12.2693 59.5698 12.3776C59.7188 12.486 59.8907 12.5586 60.0723 12.5901L62.873 13.0749L60.8909 15.1114C60.7622 15.2436 60.6657 15.4036 60.6087 15.5791C60.5517 15.7545 60.5358 15.9408 60.5622 16.1233L60.9685 18.9328L58.4209 17.6778C58.2554 17.5963 58.0733 17.554 57.8889 17.554C57.7044 17.554 57.5224 17.5963 57.3568 17.6778L54.8071 18.9337L55.2115 16.1224C55.2377 15.9401 55.2217 15.7541 55.1648 15.5789C55.1079 15.4037 55.0115 15.2439 54.8831 15.1118L52.9035 13.0742L55.702 12.5892Z" fill="white"/>
</svg>
