<svg width="60" height="61" viewBox="0 0 60 61" fill="none" xmlns="http://www.w3.org/2000/svg">
<g clip-path="url(#clip0_3909_58922)">
<rect width="60" height="60" transform="translate(0 0.816406)" fill="#242424"/>
<path d="M20.0003 33.3164H22.5002V58.3167H20.0003V33.3164ZM10 48.3164H12.5003V58.3167H10V48.3164ZM15.0002 38.3166H17.5V58.3167H15.0002V38.3166Z" fill="#F44730"/>
<path d="M26.2498 38.3164H21.2497V35.8166H24.9997V23.3164C24.9997 20.5589 22.7575 18.3162 20 18.3162H12.5C9.74246 18.3162 7.49984 20.5589 7.49984 23.3164V35.8166H11.2498V38.3164H6.24969C5.5598 38.3164 5 37.7574 5 37.0662V23.3164C5 19.18 8.36363 15.8164 12.5 15.8164H20C24.1359 15.8164 27.5 19.18 27.5 23.3164V37.0662C27.5 37.7574 26.9397 38.3164 26.2498 38.3164ZM16.25 13.3166C12.8035 13.3166 9.99969 10.5127 9.99969 7.06625C9.99969 3.62023 12.8035 0.816406 16.25 0.816406C19.696 0.816406 22.4998 3.62023 22.4998 7.06625C22.4998 10.5127 19.696 13.3166 16.25 13.3166ZM16.25 3.31625C14.1822 3.31625 12.5 4.99906 12.5 7.06625C12.5 9.13402 14.1822 10.8162 16.25 10.8162C18.3172 10.8162 20 9.13402 20 7.06625C20 4.99906 18.3172 3.31625 16.25 3.31625Z" fill="#F44730"/>
<path d="M15 20.8166H17.4998V23.3164H15V20.8166ZM11.25 45.8164H1.25016C0.559922 45.8164 0 45.2574 0 44.5663V37.0663C0 36.3751 0.559805 35.8166 1.25016 35.8166H11.25C11.9399 35.8166 12.5002 36.3751 12.5002 37.0663V44.5663C12.5002 45.2574 11.9399 45.8164 11.25 45.8164ZM2.49984 43.3166H9.99984V38.3164H2.49984V43.3166ZM53.7502 13.3166C50.3037 13.3166 47.4998 10.5127 47.4998 7.06625C47.4998 3.62023 50.3037 0.816406 53.7502 0.816406C57.1962 0.816406 60 3.62023 60 7.06625C60 10.5127 57.1962 13.3166 53.7502 13.3166ZM53.7502 3.31625C51.6824 3.31625 50.0002 4.99906 50.0002 7.06625C50.0002 9.13402 51.6824 10.8163 53.7502 10.8163C55.8173 10.8163 57.5002 9.13402 57.5002 7.06625C57.5002 4.99906 55.8173 3.31625 53.7502 3.31625ZM53.7502 58.3166C50.3037 58.3166 47.4998 55.5127 47.4998 52.0663C47.4998 48.6202 50.3037 45.8164 53.7502 45.8164C57.1962 45.8164 60 48.6202 60 52.0663C60 55.5127 57.1962 58.3166 53.7502 58.3166ZM53.7502 48.3163C51.6824 48.3163 50.0002 49.9991 50.0002 52.0663C50.0002 54.134 51.6824 55.8163 53.7502 55.8163C55.8173 55.8163 57.5002 54.134 57.5002 52.0663C57.5002 49.9991 55.8173 48.3163 53.7502 48.3163ZM53.7502 35.8166C50.3037 35.8166 47.4998 33.0127 47.4998 29.5663C47.4998 26.1202 50.3037 23.3164 53.7502 23.3164C57.1962 23.3164 60 26.1202 60 29.5663C60 33.0127 57.1962 35.8166 53.7502 35.8166ZM53.7502 25.8163C51.6824 25.8163 50.0002 27.4991 50.0002 29.5663C50.0002 31.634 51.6824 33.3163 53.7502 33.3163C55.8173 33.3163 57.5002 31.634 57.5002 29.5663C57.5002 27.4991 55.8173 25.8163 53.7502 25.8163ZM32.4998 30.8164C31.8087 30.8164 31.2502 30.2566 31.2502 29.5663C31.2502 28.8764 31.8087 28.3166 32.4998 28.3166C34.5676 28.3166 36.2498 26.6338 36.2498 24.5666V12.0664C36.2498 8.62039 39.0537 5.81656 42.5002 5.81656H43.7498C44.441 5.81656 45 6.37637 45 7.06625C45 7.75648 44.441 8.31641 43.7498 8.31641H42.5002C40.4324 8.31641 38.7502 9.99863 38.7502 12.0664V24.5666C38.7502 28.0126 35.9463 30.8164 32.4998 30.8164Z" fill="#F44730"/>
<path d="M43.7497 53.3162H42.5C39.0535 53.3162 36.2497 50.5124 36.2497 47.0664V34.5662C36.2497 32.4985 34.5675 30.8163 32.4997 30.8163C31.8085 30.8163 31.25 30.2564 31.25 29.5661C31.25 28.8762 31.8085 28.3164 32.4997 28.3164C35.9462 28.3164 38.75 31.1202 38.75 34.5662V47.0664C38.75 49.1336 40.4322 50.8164 42.5 50.8164H43.7497C43.9139 50.8162 44.0765 50.8484 44.2282 50.9111C44.3799 50.9739 44.5178 51.0659 44.6339 51.182C44.75 51.2981 44.8421 51.4359 44.9049 51.5876C44.9677 51.7393 45 51.9019 44.9998 52.0661C45 52.2303 44.9677 52.3929 44.9049 52.5447C44.8422 52.6964 44.7501 52.8342 44.634 52.9504C44.5178 53.0665 44.38 53.1586 44.2282 53.2213C44.0765 53.2841 43.9139 53.3164 43.7497 53.3162ZM43.7497 30.8163H41.2498C40.5587 30.8163 39.9997 30.2564 39.9997 29.5661C39.9997 28.8762 40.5587 28.3164 41.2498 28.3164H43.7497C44.4409 28.3164 44.9998 28.8762 44.9998 29.5661C44.9998 30.2563 44.4409 30.8163 43.7497 30.8163Z" fill="#F44730"/>
</g>
<defs>
<clipPath id="clip0_3909_58922">
<rect width="60" height="60" fill="white" transform="translate(0 0.816406)"/>
</clipPath>
</defs>
</svg>
