<svg width="63" height="64" viewBox="0 0 63 64" fill="none" xmlns="http://www.w3.org/2000/svg">
<path d="M25.6429 29.6211L3.8088 51.4553C1.39707 53.8669 1.39707 57.7773 3.8088 60.1889C6.22051 62.6008 10.1307 62.6008 12.5424 60.1889L34.3765 38.355" stroke="#F44730" stroke-width="3" stroke-linecap="round" stroke-linejoin="round"/>
<path d="M47.6944 39.4824L59.6699 51.4579C62.0818 53.8695 62.0818 57.7799 59.6699 60.1915C57.2583 62.6034 53.3479 62.6034 50.9363 60.1915L31.7656 41.0211" stroke="#F44730" stroke-width="3" stroke-linecap="round" stroke-linejoin="round"/>
<path d="M15.3895 15.1005L8.8393 17.2839L2.28906 6.36685L6.65588 2L17.573 8.55024L15.3895 15.1005ZM15.3895 15.1005L24.1288 23.8397" stroke="#F44730" stroke-width="3" stroke-linecap="round" stroke-linejoin="round"/>
<path d="M25.6501 29.6221C23.0446 22.974 23.554 14.251 28.9253 8.87968C34.2966 3.50836 44.2091 2.32943 49.6677 5.60455L40.2786 14.9936L39.406 24.5999L49.0122 23.7272L58.4013 14.3382C61.6765 19.7967 60.4976 29.7094 55.1263 35.0807C49.7548 40.452 41.032 40.9614 34.384 38.3556" stroke="#F44730" stroke-width="3" stroke-linecap="round" stroke-linejoin="round"/>
</svg>
