<svg width="61" height="64" viewBox="0 0 61 64" fill="none" xmlns="http://www.w3.org/2000/svg">
<path d="M29.4179 2.4499C30.1084 1.85003 31.1352 1.85003 31.8258 2.4499L37.7868 7.62861C38.1625 7.95495 38.6545 8.11481 39.1501 8.07161L47.017 7.38583C47.9281 7.30637 48.7588 7.90994 48.965 8.80114L50.7436 16.4947C50.8559 16.9795 51.1597 17.398 51.5862 17.6544L58.3537 21.7235C59.1376 22.1949 59.4549 23.1714 59.0975 24.0135L56.0147 31.2831C55.8204 31.7415 55.8204 32.2585 56.0147 32.7169L59.0975 39.9865C59.4549 40.8285 59.1376 41.8051 58.3537 42.2766L51.5862 46.3456C51.1597 46.602 50.8559 47.0205 50.7436 47.5055L48.965 55.1988C48.7588 56.0901 47.9281 56.6937 47.017 56.6142L39.1501 55.9285C38.6545 55.8851 38.1625 56.0451 37.7868 56.3713L31.8258 61.5502C31.1352 62.1499 30.1084 62.1499 29.4179 61.5502L23.4567 56.3713C23.0811 56.0451 22.5891 55.8851 22.0934 55.9285L14.2267 56.6142C13.3155 56.6937 12.4847 56.0901 12.2787 55.1988L10.5 47.5055C10.3879 47.0205 10.0838 46.602 9.65737 46.3456L2.89005 42.2766C2.10612 41.8051 1.78881 40.8285 2.14596 39.9865L5.22911 32.7169C5.42337 32.2585 5.42337 31.7415 5.22911 31.2831L2.14596 24.0135C1.78881 23.1714 2.10612 22.1949 2.89005 21.7235L9.65737 17.6544C10.0838 17.398 10.3879 16.9795 10.5 16.4947L12.2787 8.80114C12.4847 7.90994 13.3155 7.30637 14.2267 7.38583L22.0934 8.07161C22.5891 8.11481 23.0811 7.95495 23.4567 7.62861L29.4179 2.4499Z" stroke="white" stroke-width="3"/>
<path d="M21.4336 35.0606L27.5528 41.1798L42.8508 25.8818" stroke="white" stroke-width="3" stroke-linecap="round" stroke-linejoin="round"/>
</svg>
