<svg width="60" height="60" viewBox="0 0 60 60" fill="none" xmlns="http://www.w3.org/2000/svg">
<g clip-path="url(#clip0_3760_9389)">
<path d="M59.0625 0H0.9375C0.68886 0 0.450403 0.0987721 0.274587 0.274587C0.0987721 0.450403 0 0.68886 0 0.9375L0 59.0625C0 59.3111 0.0987721 59.5496 0.274587 59.7254C0.450403 59.9012 0.68886 60 0.9375 60H59.0625C59.3111 60 59.5496 59.9012 59.7254 59.7254C59.9012 59.5496 60 59.3111 60 59.0625V0.9375C60 0.68886 59.9012 0.450403 59.7254 0.274587C59.5496 0.0987721 59.3111 0 59.0625 0ZM1.875 1.875H13.125V58.125H1.875V1.875ZM15 1.875H45V58.125H15V1.875ZM58.125 58.125H46.875V1.875H58.125V58.125Z" fill="#F44730"/>
<path d="M41.25 32.8125H40.3125V27.1875H41.25V25.3125H37.5V27.1875H38.4375V32.8125H37.5V34.6875H41.25V32.8125Z" fill="#F44730"/>
<path d="M43.125 2.8125H16.875C16.6264 2.8125 16.3879 2.91127 16.2121 3.08709C16.0363 3.2629 15.9375 3.50136 15.9375 3.75V56.25C15.9375 56.4986 16.0363 56.7371 16.2121 56.9129C16.3879 57.0887 16.6264 57.1875 16.875 57.1875H43.125C43.3736 57.1875 43.6121 57.0887 43.7879 56.9129C43.9637 56.7371 44.0625 56.4986 44.0625 56.25V3.75C44.0625 3.50136 43.9637 3.2629 43.7879 3.08709C43.6121 2.91127 43.3736 2.8125 43.125 2.8125ZM42.1875 55.3125H17.8125V4.6875H42.1875V55.3125Z" fill="#F44730"/>
<path d="M11.25 2.8125H3.75C3.50136 2.8125 3.2629 2.91127 3.08709 3.08709C2.91127 3.2629 2.8125 3.50136 2.8125 3.75V56.25C2.8125 56.4986 2.91127 56.7371 3.08709 56.9129C3.2629 57.0887 3.50136 57.1875 3.75 57.1875H11.25C11.4986 57.1875 11.7371 57.0887 11.9129 56.9129C12.0887 56.7371 12.1875 56.4986 12.1875 56.25V3.75C12.1875 3.50136 12.0887 3.2629 11.9129 3.08709C11.7371 2.91127 11.4986 2.8125 11.25 2.8125ZM10.3125 55.3125H4.6875V4.6875H10.3125V55.3125Z" fill="#F44730"/>
<path d="M48.75 57.1875H56.25C56.4986 57.1875 56.7371 57.0887 56.9129 56.9129C57.0887 56.7371 57.1875 56.4986 57.1875 56.25V3.75C57.1875 3.50136 57.0887 3.2629 56.9129 3.08709C56.7371 2.91127 56.4986 2.8125 56.25 2.8125H48.75C48.5014 2.8125 48.2629 2.91127 48.0871 3.08709C47.9113 3.2629 47.8125 3.50136 47.8125 3.75V56.25C47.8125 56.4986 47.9113 56.7371 48.0871 56.9129C48.2629 57.0887 48.5014 57.1875 48.75 57.1875ZM49.6875 4.6875H55.3125V55.3125H49.6875V4.6875Z" fill="#F44730"/>
</g>
<defs>
<clipPath id="clip0_3760_9389">
<rect width="60" height="60" fill="white"/>
</clipPath>
</defs>
</svg>
