<svg width="153" height="41" viewBox="0 0 153 41" fill="none" xmlns="http://www.w3.org/2000/svg">
<path d="M54.7366 13.1411L54.1072 15.5945L52.7051 19.7994H56.7708L55.3687 15.5945C55.1009 14.7535 54.7393 13.1411 54.7393 13.1411H54.7366ZM57.4685 22.1135H52.0181L50.6857 26.1096H47.7422L53.2796 10.4789H56.2231L61.6909 26.1096H58.7474L57.4685 22.1135ZM67.9863 24.0057C69.4594 24.0057 70.7905 22.9545 70.7905 20.4302C70.7905 18.6893 69.8798 16.9952 67.9863 16.9952C66.4436 16.9952 65.1821 18.2567 65.1821 20.4998C65.1821 22.6023 66.3873 24.0044 67.9863 24.0044M67.4961 14.6115C69.9495 14.6115 70.7208 16.0846 70.7208 16.0846V10.4775H73.525V26.1082H70.8467V24.4959C70.8467 24.4959 69.8651 26.3881 67.3421 26.3881C64.329 26.3881 62.3658 24.0044 62.3658 20.4998C62.3658 16.9243 64.4683 14.6115 67.4814 14.6115M80.0427 24.216C81.5158 24.216 82.5657 22.6036 82.5657 21.2725V21.0047H82.0756C80.6025 21.0047 78.2911 21.2149 78.2911 22.7456C78.3608 23.446 78.9205 24.2187 80.032 24.2187M82.2015 19.0281H82.622V18.8875C82.622 17.4144 81.7113 16.9243 80.4485 16.9243C78.8362 16.9243 77.3644 17.9755 77.3644 17.9755L76.3132 15.9427C76.3132 15.9427 78.0541 14.5406 80.7297 14.5406C83.6732 14.5406 85.3565 16.1529 85.3565 19.0267V26.0359H82.7786V24.3579C82.7786 24.3579 81.9376 26.3211 79.3437 26.3211C77.3108 26.3211 75.5592 25.0597 75.5592 22.8166C75.5592 19.312 80.3963 19.0321 82.2189 19.0321M92.9415 24.0057C94.4842 24.0057 95.7457 22.7442 95.7457 20.5012C95.7457 18.3987 94.6249 16.9966 92.9415 16.9966C91.4685 16.9966 90.1373 18.0478 90.1373 20.5721C90.207 22.313 91.1189 24.0071 92.9415 24.0071V24.0057ZM87.4737 14.8928H89.9967V16.5051C89.9967 16.5051 90.9783 14.6129 93.5723 14.6129C96.5854 14.6129 98.5486 16.9966 98.5486 20.5012C98.5486 24.0767 96.3751 26.3894 93.433 26.3894C91.1899 26.3894 90.2083 24.8467 90.2083 24.8467C90.2071 25.1752 90.2304 25.5033 90.2779 25.8283V30.5248H87.4737V14.8928Z" fill="white"/>
<path d="M101.27 17.2757H99.7969V15.0326H101.27V11.7959H104.002V15.0206H106.525V17.2637H104.002V21.6093C104.002 23.5015 105.475 23.7117 106.245 23.7117H106.735V26.1651C106.735 26.1651 106.384 26.2347 105.894 26.2347C104.351 26.2347 101.267 25.8142 101.267 22.0298L101.27 17.2757Z" fill="white"/>
<path d="M112.562 24.216C114.035 24.216 115.085 22.6036 115.085 21.2725V21.0047H114.595C113.122 21.0047 110.81 21.2149 110.81 22.7456C110.88 23.446 111.373 24.2187 112.551 24.2187M114.725 19.0321H115.075V18.8915C115.075 17.4184 114.165 16.9283 112.902 16.9283C111.29 16.9283 109.818 17.9795 109.818 17.9795L108.793 15.948C108.793 15.948 110.534 14.5459 113.21 14.5459C116.153 14.5459 117.837 16.1583 117.837 19.0321V26.0413H115.243V24.3579C115.243 24.3579 114.402 26.3211 111.808 26.3211C109.775 26.3211 108.023 25.0597 108.023 22.8166C108.023 19.312 112.86 19.0321 114.753 19.0321M118.462 14.8807H121.406L123.718 21.8202C123.929 22.4496 124.069 23.5022 124.139 23.5022L124.559 21.8202L126.872 14.8807H129.816L125.82 26.0962H122.456L118.462 14.8807ZM131.291 14.8941H134.096V26.1096H131.291V14.8941ZM131.291 10.4775H134.023V12.9309H131.291V10.4775ZM136.758 22.7442C136.758 22.7442 138.019 24.0057 139.842 24.0057C140.613 24.0057 141.315 23.6549 141.315 22.9545C141.315 21.2725 135.847 21.4814 135.847 17.9059C135.847 15.8034 137.739 14.6115 140.123 14.6115C142.646 14.6115 143.908 15.873 143.908 15.873L142.856 17.9755C142.856 17.9755 141.805 16.9939 140.124 16.9939C139.424 16.9939 138.651 17.2617 138.651 18.0451C138.651 19.6575 144.119 19.4472 144.119 23.0215C144.119 24.9137 142.507 26.3854 139.843 26.3854C137.039 26.3854 135.498 24.7034 135.498 24.7034L136.758 22.7442Z" fill="white"/>
<path d="M146.7 17.2757H145.227V15.0326H146.7V11.7959H149.432V15.0206H151.955V17.2637H149.432V21.6093C149.432 23.5015 150.905 23.7117 151.675 23.7117H152.165V26.1651C152.165 26.1651 151.814 26.2347 151.324 26.2347C149.781 26.2347 146.697 25.8142 146.697 22.0298L146.7 17.2757Z" fill="white"/>
<path d="M24.7062 31.0246C24.7062 26.0603 28.6768 22.0897 33.641 22.0897C38.6053 22.0897 42.5759 26.0603 42.5759 31.0246C42.5759 35.9889 38.6053 39.9595 33.641 39.9595C28.6768 40.0586 24.7062 35.9889 24.7062 31.0246ZM25.9958 2.23534C23.3148 0.647092 19.9401 0.448896 17.0609 2.03714C15.5984 2.83708 14.3937 4.03662 13.5874 5.49568C12.7812 6.95473 12.4067 8.61307 12.5078 10.277C12.4132 12.8578 11.6979 15.3779 10.4227 17.6236C9.1104 19.8293 7.26768 21.672 5.06203 22.9843C2.08373 24.4734 0.0977587 27.4517 0 30.9255C0.00554449 32.5069 0.419799 34.0599 1.20256 35.434C1.98532 36.808 3.11 37.9564 4.46744 38.7676C5.82719 39.5801 7.37463 40.0255 8.95824 40.0602C10.5419 40.095 12.1073 39.7179 13.5014 38.9658C14.9639 38.1659 16.1687 36.9663 16.9749 35.5073C17.7811 34.0482 18.1556 32.3899 18.0546 30.726C18.1492 28.1451 18.8644 25.6251 20.1396 23.3793C21.4519 21.1737 23.2946 19.331 25.5003 18.0187C28.4786 16.5295 30.4646 13.5512 30.5623 10.0775C30.5623 6.80187 28.7759 3.82358 26.0949 2.33443L25.9958 2.23534Z" fill="white"/>
</svg>
