<svg width="153" height="37" viewBox="0 0 153 37" fill="none" xmlns="http://www.w3.org/2000/svg">
<path d="M23.115 30.1887C23.115 30.1887 15.9752 20.018 21.6135 9.95871C25.9349 2.70465 34.4971 -0.862325 42.6931 1.17678C46.5164 2.39556 45.0164 8.96699 45.0164 10.5813C44.9578 11.2756 45.0164 11.9729 45.1863 12.6497C45.3987 13.2415 45.9773 13.6224 46.6028 13.5843C47.2514 13.4853 47.8943 13.3528 48.5292 13.1873C48.4408 17.4241 46.8667 21.4953 44.0818 24.6895C39.5495 29.4504 36.4893 27.0699 32.4653 30.4977C28.4413 33.9256 25.0428 38.2616 26.2894 31.7722C30.2841 11.0632 41.3044 3.44148 37.6217 5.90687C26.9427 13.4144 23.1165 30.1857 23.1165 30.1857L23.115 30.1887Z" fill="white"/>
<path d="M13.474 17.3536C12.1796 13.5196 9.90389 10.0914 6.87324 7.41003C10.5296 9.54581 13.5208 12.6543 15.516 16.3897L16.3363 17.919C16.5739 14.941 17.4326 12.0457 18.8574 9.41984C16.6677 7.40261 14.0593 5.89432 11.2186 5.00291C8.37803 4.11149 5.37548 3.85899 2.42588 4.26347C3.26525 5.34748 3.6051 6.73911 3.36047 8.0868C2.87706 10.2402 -2.70412 16.8687 2.87706 23.5852C6.40301 27.618 10.3626 31.2465 14.6913 34.4077C15.5933 28.7041 15.1764 22.8696 13.4725 17.3521L13.474 17.3536Z" fill="white"/>
<path d="M20.3959 7.21155C18.3548 5.71442 16.0325 4.6447 13.5682 4.06646C16.3306 2.49199 19.4547 1.66214 22.6343 1.6582C22.4365 2.76272 22.7764 3.35746 24.5328 3.92437C23.0737 4.91479 21.6909 6.0131 20.3959 7.21008V7.21155ZM14.8294 36.3919C14.8294 36.3919 3.04302 29.2242 0.664062 23.6724C1.88284 28.4889 1.62795 33.7009 14.8294 36.3933V36.3919ZM30.9489 35.1174C30.9489 35.1174 34.4617 31.3205 35.9353 31.3205C37.409 31.3205 41.6015 30.1017 41.6015 30.1017C41.6015 30.1017 39.2504 34.719 30.9489 35.116V35.1174ZM66.0078 25.9693L60.7723 17.5389L58.6776 20.5463V25.9693H55.3376V6.17149H58.6776V15.6434L65.0688 6.17149H68.8716L62.9858 14.8479L69.9996 25.981L66.0078 25.9693ZM78.4592 24.5073C78.0952 25.067 77.5635 25.4972 76.9402 25.7364C76.2251 26.0529 75.4516 26.2156 74.6696 26.2139C73.4146 26.277 72.183 25.8578 71.2271 25.042C70.7934 24.6109 70.4557 24.093 70.2364 23.5222C70.017 22.9513 69.9208 22.3406 69.9542 21.7299C69.9203 20.9792 70.0652 20.2312 70.3769 19.5474C70.6886 18.8636 71.1583 18.2636 71.7472 17.7967C73.2318 16.7533 75.0262 16.2437 76.8376 16.3509C77.2873 16.3612 77.7356 16.43 78.1677 16.5531C78.1677 14.847 77.1457 13.9939 75.1017 13.9939C74.053 13.9578 73.0112 14.1759 72.0651 14.6297L71.3736 12.0559C72.6054 11.47 73.9579 11.1825 75.3215 11.2165C76.9914 11.07 78.657 11.5754 79.9358 12.6624C80.8997 13.6262 81.3817 15.5306 81.3817 18.3754V21.4707C81.3817 23.394 81.7435 24.6084 82.4803 25.1006C82.3047 25.4964 81.9913 25.815 81.5985 25.9971C81.2396 26.1165 80.8633 26.175 80.4852 26.17C80.0135 26.1641 79.5623 25.9649 79.24 25.6206C78.8957 25.3194 78.6323 24.9366 78.4739 24.5073H78.4592ZM78.1707 19.1415C77.7678 19.0434 77.3562 18.9862 76.9402 18.9686C74.405 18.9686 73.1373 19.8412 73.1373 21.5864C73.1373 22.8784 73.8503 23.5293 75.2761 23.5391C77.2038 23.5391 78.1677 22.5268 78.1677 20.5024L78.1707 19.1415ZM86.5732 25.1739L85.8495 26.2432H84.0565V6.11289L87.2793 5.31746V12.0559C88.0996 11.5197 89.0606 11.2356 90.042 11.2312C90.949 11.1954 91.853 11.3565 92.6918 11.7034C93.5306 12.0504 94.2843 12.5749 94.901 13.241C96.1647 14.6452 96.8292 16.4878 96.7526 18.3754C96.8759 20.4694 96.2106 22.5336 94.8878 24.1616C94.2567 24.8666 93.4761 25.4219 92.603 25.7868C91.73 26.1517 90.7865 26.3172 89.8413 26.2711C88.6636 26.2828 87.5166 25.8946 86.5893 25.1724L86.5732 25.1739ZM87.2529 14.949V22.4829C87.4796 22.7692 87.7705 22.9983 88.1021 23.1514C88.4337 23.3046 88.7966 23.3777 89.1616 23.3647C90.3775 23.4936 91.5889 23.0688 92.4576 22.1928C93.194 21.1004 93.5356 19.7894 93.4259 18.4764C93.4259 15.5838 92.0904 14.1375 89.4194 14.1375C88.6196 14.073 87.8315 14.3645 87.2661 14.9329L87.2529 14.949ZM101.338 25.1739L100.614 26.2432H98.8064V6.11289L102.014 5.31746V12.0559C102.844 11.5149 103.814 11.2283 104.805 11.2312C106.645 11.1579 108.426 11.8904 109.679 13.241C110.942 14.6452 111.607 16.4878 111.53 18.3754C111.652 20.4701 110.988 22.5327 109.666 24.1616C109.034 24.8658 108.253 25.4205 107.38 25.7853C106.507 26.1502 105.564 26.3161 104.619 26.2711C103.447 26.2886 102.275 25.9004 101.338 25.1724V25.1739ZM102.017 14.949V22.4829C102.244 22.7692 102.535 22.9983 102.867 23.1514C103.198 23.3046 103.561 23.3777 103.926 23.3647C105.142 23.4936 106.353 23.0688 107.222 22.1928C107.959 21.1004 108.3 19.7894 108.19 18.4764C108.19 15.5838 106.855 14.1375 104.184 14.1375C103.786 14.1022 103.386 14.1552 103.011 14.2927C102.636 14.4302 102.296 14.6488 102.016 14.9329L102.017 14.949ZM121.496 24.5073C121.132 25.067 120.6 25.4972 119.977 25.7364C119.262 26.0533 118.488 26.216 117.706 26.2139C116.432 26.2877 115.178 25.8681 114.205 25.042C113.771 24.6109 113.434 24.093 113.214 23.5222C112.995 22.9513 112.899 22.3406 112.932 21.7299C112.898 20.9792 113.043 20.2312 113.355 19.5474C113.667 18.8636 114.136 18.2636 114.725 17.7967C116.21 16.7544 118.004 16.2448 119.816 16.3509C120.266 16.3623 120.713 16.4303 121.146 16.5531C121.146 14.847 120.124 13.9939 118.08 13.9939C117.036 13.9607 116 14.1788 115.058 14.6297L114.363 12.0559C115.595 11.47 116.948 11.1825 118.311 11.2165C119.138 11.1351 119.973 11.2211 120.766 11.4695C121.558 11.718 122.293 12.1236 122.926 12.6624C123.889 13.6262 124.371 15.5306 124.371 18.3754V21.4707C124.371 23.394 124.733 24.6084 125.47 25.1006C125.294 25.4961 124.981 25.814 124.588 25.9971C124.229 26.1168 123.853 26.1753 123.475 26.17C123.003 26.1627 122.555 25.9649 122.23 25.6206C121.897 25.3156 121.643 24.9333 121.493 24.5073H121.496ZM121.178 19.1415C120.775 19.0429 120.362 18.985 119.947 18.9686C117.412 18.9686 116.145 19.8412 116.145 21.5864C116.145 22.8784 116.858 23.5293 118.283 23.5391C120.211 23.5391 121.175 22.5268 121.175 20.5024L121.178 19.1415ZM126.296 29.7135L128.321 27.0811C129.092 27.8593 130.079 28.3883 131.154 28.5998C132.229 28.8113 133.343 28.6956 134.352 28.2677C134.603 28.1831 134.823 28.0246 134.983 27.8129C135.143 27.6012 135.235 27.3461 135.248 27.0811C135.248 26.2286 134.583 25.792 133.253 25.792C132.716 25.8042 132.18 25.8478 131.647 25.9224C131.116 25.9957 130.578 26.0396 130.042 26.0689C127.835 26.0689 126.731 25.2349 126.731 23.5669C126.737 23.035 126.932 22.5226 127.281 22.1211C127.623 21.6854 128.064 21.3382 128.568 21.1088C127.814 20.6212 127.199 19.9466 126.784 19.1508C126.368 18.355 126.165 17.4651 126.195 16.5677C126.154 15.1116 126.744 13.7112 127.815 12.7209C128.352 12.2154 128.984 11.8209 129.674 11.5602C130.363 11.2995 131.098 11.1777 131.835 11.2019C132.893 11.1726 133.94 11.4216 134.872 11.9255L136.131 10.3786L138.358 12.5027L136.826 13.6746C137.391 14.58 137.682 15.6294 137.665 16.6966C137.698 17.4176 137.586 18.1379 137.338 18.8156C137.09 19.4933 136.71 20.115 136.219 20.6445C135.272 21.6142 133.959 22.1386 132.604 22.0903C132.296 22.1079 131.987 22.1079 131.678 22.0903L131.144 22.0171C130.907 22.0881 130.679 22.1848 130.464 22.3056C130.06 22.4931 129.871 22.6968 129.871 22.9136C129.871 23.1304 130.174 23.4482 130.752 23.4482C131.201 23.4219 131.631 23.3545 132.082 23.2461C132.609 23.1245 133.147 23.0568 133.688 23.0439C136.813 23.0439 138.376 24.3648 138.376 27.0064C138.39 27.6944 138.224 28.3741 137.895 28.9781C137.565 29.582 137.083 30.0891 136.496 30.4489C135.146 31.3085 133.569 31.7419 131.97 31.6926C129.911 31.6885 127.914 30.9908 126.301 29.712L126.296 29.7135ZM129.507 16.6117C129.472 17.3567 129.714 18.0884 130.187 18.6654C130.41 18.9229 130.689 19.1268 131.002 19.262C131.315 19.3971 131.654 19.4601 131.995 19.4462C132.327 19.4668 132.659 19.4096 132.965 19.2791C133.272 19.1487 133.543 18.9486 133.758 18.6947C134.201 18.0938 134.421 17.3571 134.379 16.6117C134.397 15.9334 134.16 15.2728 133.714 14.7601C133.505 14.5038 133.24 14.2988 132.939 14.1609C132.638 14.0231 132.309 13.9559 131.978 13.9646C131.645 13.9543 131.312 14.0146 131.003 14.1416C130.694 14.2686 130.416 14.4594 130.185 14.7015C129.72 15.2136 129.475 15.8893 129.506 16.5809L129.507 16.6117ZM152.213 19.7655H142.436C142.429 20.2691 142.522 20.7689 142.711 21.2358C142.9 21.7027 143.18 22.1272 143.535 22.4844C144.311 23.1538 145.318 23.5098 146.34 23.4394C146.95 23.4863 147.563 23.4037 148.138 23.1969C148.714 22.9902 149.239 22.6639 149.68 22.2397L150.925 24.8135C149.464 25.8827 147.669 26.3954 145.864 26.2593C144.945 26.3067 144.026 26.1584 143.169 25.8243C142.311 25.4902 141.534 24.9779 140.889 24.3213C139.6 22.8242 138.947 20.8847 139.067 18.913C138.978 16.8736 139.701 14.8822 141.077 13.3743C141.691 12.7125 142.431 12.18 143.253 11.8079C144.076 11.4358 144.964 11.2317 145.866 11.2074C146.769 11.1831 147.667 11.3392 148.508 11.6665C149.349 11.9938 150.117 12.4858 150.766 13.1135C151.369 13.7517 151.84 14.5036 152.151 15.3255C152.461 16.1473 152.605 17.0228 152.573 17.9008C152.512 18.5325 152.391 19.1569 152.211 19.7655H152.213ZM142.509 17.221H149.321C149.353 16.3392 149.006 15.4866 148.369 14.8772C147.732 14.2679 146.86 13.9632 145.981 14.0393C144.13 14.054 143.002 15.1087 142.539 17.2357L142.509 17.221Z" fill="white"/>
</svg>
