<svg width="153" height="49" viewBox="0 0 153 49" fill="none" xmlns="http://www.w3.org/2000/svg">
<path d="M122.311 18.9059H118.789V20.663C117.566 19.3114 115.907 18.541 114.015 18.541C109.882 18.541 106.883 21.97 106.883 26.7046C106.883 31.2662 109.881 34.6087 113.985 34.6087C115.905 34.6087 117.362 33.9694 118.789 32.43V34.552C118.789 37.7187 117.537 39.2879 114.918 39.2879C113.52 39.2879 112.123 38.5905 111.512 37.5173C111.163 36.9091 111.046 36.3279 110.931 35.0169H107.498C107.528 39.5785 110.35 42.4263 114.891 42.4263C117.482 42.4263 119.753 41.3802 121.004 39.4934C122.023 38.0404 122.315 36.7037 122.315 33.7396L122.311 18.9059ZM114.656 21.6362C117.189 21.6362 118.935 23.6122 118.935 26.5019C118.935 29.4659 117.245 31.4419 114.714 31.4419C112.153 31.4419 110.493 29.5227 110.493 26.56C110.463 23.596 112.123 21.6497 114.656 21.6497V21.6362Z" fill="white"/>
<path d="M54.5391 18.9063V34.1036H58.0316V26.2589C58.0316 23.034 58.9047 21.6392 60.8699 21.6392C62.4418 21.6392 63.1987 22.9462 63.1987 25.6777V34.1049H66.6912V26.2589C66.6912 23.0043 67.5643 21.6392 69.5295 21.6392C71.219 21.6392 71.8583 22.7718 71.8583 25.6494V34.1049H75.3508V24.7181C75.3508 20.6633 73.6046 18.5008 70.2148 18.5008C68.3523 18.5008 66.8088 19.2847 65.7316 20.7377C64.7855 19.2847 63.3731 18.5008 61.6849 18.5008C60.1711 18.5008 59.3872 18.9063 58.0762 20.3025V18.9063H54.5391ZM88.4802 18.9063V20.6633C86.9664 19.1225 85.6419 18.4846 83.7496 18.4846C79.6746 18.4846 76.5592 21.8838 76.5592 26.3887C76.5592 31.1544 79.5867 34.5523 83.8361 34.5523C85.6702 34.5523 86.8637 34.0008 88.4937 32.4898V34.0873H92.0159V18.9063H88.4802ZM84.347 21.6365C86.9083 21.6365 88.6721 23.6706 88.6721 26.5184C88.6721 29.4514 86.8961 31.4288 84.347 31.4288C81.8736 31.4288 80.126 29.3662 80.126 26.5184C80.126 23.7004 81.9304 21.6365 84.347 21.6365ZM98.29 18.9063H94.7678V34.1036H98.29V18.9063ZM96.5735 10.4507C95.2625 10.4507 94.2447 11.4671 94.2447 12.7174C94.2447 13.9676 95.2922 15.0407 96.5167 15.0407C97.7981 15.0407 98.8455 13.9946 98.8455 12.716C98.8455 11.4374 97.8264 10.4494 96.5749 10.4494L96.5735 10.4507ZM101.52 6.58789H105.043V34.1063H101.52V6.58789Z" fill="white"/>
<path d="M127.922 18.9054H124.398V27.7096C124.398 30.0925 124.835 31.3995 126 32.6497C127.223 33.8986 128.881 34.569 130.89 34.569C132.928 34.569 134.587 33.9297 135.81 32.6497C136.972 31.4008 137.411 30.0925 137.411 27.7096V18.9054H133.889V27.6502C133.889 30.2358 132.943 31.4279 130.891 31.4279C128.853 31.4279 127.922 30.2385 127.922 27.6502V18.9054ZM139.739 18.9054V34.1027H143.261V26.7797C143.261 23.0318 144.134 21.6653 146.505 21.6653C148.688 21.6653 149.343 22.652 149.343 25.6458V34.131H152.865V24.8051C152.865 20.534 151.089 18.5283 147.364 18.5283C145.705 18.5283 144.657 18.9932 143.289 20.33V18.9351H139.737L139.739 18.9054ZM24.3603 15.6116C21.9891 15.6137 19.7153 16.5556 18.0372 18.2309C16.3591 19.9062 15.4134 22.1784 15.4074 24.5496C15.4134 26.9209 16.3591 29.193 18.0372 30.8683C19.7153 32.5436 21.9891 33.4855 24.3603 33.4877C26.7315 33.4855 29.0053 32.5436 30.6834 30.8683C32.3615 29.193 33.3072 26.9209 33.3132 24.5496C33.3072 22.1784 32.3615 19.9062 30.6834 18.2309C29.0053 16.5556 26.7315 15.6137 24.3603 15.6116ZM10.4227 24.5496C10.4284 20.8571 11.8995 17.3179 14.5127 14.7092C17.126 12.1005 20.6678 10.6356 24.3603 10.6364C32.0536 10.6364 38.2979 16.8537 38.2979 24.5496C38.2979 25.0808 38.2492 25.5633 38.2006 26.0472C38.1033 27.3988 39.0724 28.4125 40.4267 28.4125C42.7014 28.4125 42.9433 25.466 42.9433 24.4996C42.9433 14.21 34.6175 5.90174 24.3103 5.90174C14.0031 5.90174 5.67863 14.2113 5.67863 24.501C5.67863 34.7906 14.0044 43.0988 24.3116 43.0988C29.7802 43.0988 34.6689 40.7336 38.1046 37.0113L41.9296 40.201C37.6221 45.0316 31.3305 48.0754 24.313 48.0754C11.2458 48.0754 0.695312 37.4952 0.695312 24.4996C0.695312 11.4568 11.2945 0.923828 24.313 0.923828C37.3802 0.923828 47.9307 11.5041 47.9307 24.4996C47.9307 29.7168 45.414 33.9689 40.4294 33.9689C38.2033 33.9689 36.8963 32.9552 36.1218 31.8428C33.6538 35.803 29.2963 38.4115 24.2643 38.4115C16.6657 38.4602 10.4241 32.228 10.4241 24.5469L10.4227 24.5496ZM24.3603 20.4435C26.635 20.4435 28.4745 22.279 28.4745 24.501C28.4745 25.592 28.0412 26.6383 27.2697 27.4097C26.4983 28.1811 25.452 28.6145 24.361 28.6145C23.27 28.6145 22.2237 28.1811 21.4522 27.4097C20.6808 26.6383 20.2474 25.592 20.2474 24.501C20.2961 22.279 22.0856 20.4435 24.3617 20.4435H24.3603Z" fill="white"/>
</svg>
