<svg width="153" height="71" viewBox="0 0 153 71" fill="none" xmlns="http://www.w3.org/2000/svg">
<path d="M14.6747 17.4256C14.4798 16.8426 14.1419 16.2916 13.8116 15.7771C13.3856 15.1079 12.9082 14.4728 12.3838 13.8775C12.1007 13.573 11.7141 13.0768 11.2879 12.9185C11.2118 12.8881 11.1539 12.8576 11.0702 12.8622C11.0245 12.847 10.9819 12.847 10.9484 12.847L8.26944 12.1559C7.03495 11.7981 5.8408 11.3135 4.70607 10.7099C4.21898 10.4481 3.7395 10.1695 3.29046 9.84985L2.96167 9.6063C2.55526 9.05833 2.13971 8.44946 1.62218 8.00804L1.51562 7.9502C1.5963 8.39467 1.85811 8.80565 2.08643 9.18923C2.65268 10.1436 3.31481 11.0417 3.98456 11.9261C4.61778 12.7633 5.29362 13.5883 6.11558 14.2656C6.78838 14.8319 7.55402 15.2779 8.33489 15.6767L10.9941 16.934C12.1327 17.3754 13.2895 17.7224 14.4951 17.9081L14.3383 17.8838C14.4037 17.8884 14.4661 17.9051 14.527 17.9295C14.8893 18.0573 14.7401 17.5687 14.6945 17.4271L14.6747 17.4256Z" fill="white"/>
<path d="M11.5703 13.1149C11.4363 12.5152 11.1532 11.9322 10.8747 11.3888C10.5162 10.6804 10.1025 10.0015 9.63716 9.35822C9.42101 9.05074 9.17747 8.74936 8.90957 8.50124L8.63558 8.2988C7.80144 8.08113 6.91554 8.17246 6.07836 7.95175C5.35535 7.75969 4.66195 7.46983 4.01736 7.0902C3.64899 6.85123 3.28977 6.59398 2.95641 6.30934L2.70526 6.11755L2.6672 6.08101L2.46171 5.86335L2.43736 5.82834L1.71129 4.85111C1.2653 4.31836 0.788862 3.66383 0.167822 3.32896L0.274372 3.38984C0.234796 3.34874 0.18761 3.3183 0.132812 3.29395C0.134335 3.33961 0.148034 3.38223 0.157167 3.42637C0.168125 3.47551 0.183931 3.52344 0.204354 3.56946C0.402234 4.18593 0.635125 4.78718 0.919768 5.3656L1.46013 6.39001L1.57429 6.59398L2.19533 7.63362C2.75549 8.4708 3.34152 9.25623 4.02192 9.99905C4.67645 10.7145 5.40404 11.3918 6.21078 11.9291C6.981 12.4406 7.79839 12.9185 8.68429 13.1956C9.54126 13.465 10.45 13.4909 11.3328 13.6309C11.4927 13.707 11.5794 13.6568 11.5916 13.4787L11.5536 13.1438L11.5703 13.1149Z" fill="white"/>
<path d="M11.5956 13.2354C11.5834 12.6204 11.4251 11.9933 11.2607 11.4042C11.0506 10.6431 10.7888 9.88663 10.4646 9.16665C10.2895 8.77698 10.0627 8.20161 9.70656 7.92457C9.64111 7.87434 9.59544 7.82868 9.51629 7.80585C9.47367 7.77845 9.43562 7.76322 9.40061 7.75561L8.99267 7.50446L9.12053 7.58057L7.05344 6.30195C5.9788 5.58654 4.97874 4.7798 4.07458 3.85585C3.68795 3.46009 3.3135 3.05367 2.97863 2.61377L2.73813 2.27889C2.51285 1.63502 2.2967 0.927218 1.93443 0.353365L1.84919 0.266602C1.79439 0.714116 1.92073 1.18598 2.02423 1.61828C2.283 2.69901 2.64527 3.75386 3.02125 4.79654C3.37591 5.78594 3.77471 6.7723 4.34248 7.6582C4.81435 8.39949 5.41408 9.05401 6.04121 9.66744L8.20571 11.6462C9.16011 12.4043 10.1617 13.0816 11.2592 13.6174L11.1176 13.5474C11.1785 13.5718 11.2333 13.6053 11.285 13.6479C11.5895 13.8762 11.5971 13.3678 11.594 13.2186L11.5956 13.2354Z" fill="white"/>
<path d="M17.936 21.1035C17.6818 20.5434 17.2846 20.0319 16.901 19.557C16.4032 18.9405 15.8613 18.3393 15.2723 17.8248C14.9978 17.5685 14.7002 17.3382 14.3833 17.1368L14.0759 16.9952C13.2143 16.9526 12.368 17.2235 11.5034 17.1809C10.7571 17.1417 10.0197 17.0008 9.3115 16.7623C8.8999 16.6061 8.49874 16.4235 8.11052 16.2159L7.83196 16.0606L7.78934 16.0332L7.5458 15.8658L7.51536 15.8353L6.60206 15.0286C6.05408 14.5978 5.45588 14.0544 4.77547 13.8413L4.89268 13.8809C4.84701 13.8474 4.79374 13.8276 4.73438 13.8154C4.74503 13.8611 4.76482 13.8976 4.78461 13.9372C4.81048 13.9935 4.83484 14.0331 4.86376 14.0742C5.18341 14.6374 5.53351 15.1747 5.92927 15.6831L6.66904 16.5751L6.82125 16.7501L7.64322 17.6406C8.3632 18.3438 9.0984 18.9923 9.9158 19.5783C10.7028 20.1415 11.5552 20.659 12.4578 21.0168C13.3163 21.3592 14.2144 21.6561 15.1368 21.7474C16.0303 21.8342 16.9269 21.6713 17.8188 21.6287C17.9908 21.6713 18.0654 21.6043 18.0426 21.4277L17.936 21.105V21.1035Z" fill="white"/>
<path d="M21.9375 25.289C21.63 24.7562 21.1871 24.2844 20.7624 23.8475C20.2106 23.277 19.6157 22.7497 18.983 22.2705C18.6405 22.0118 18.1656 21.6206 17.7196 21.549C17.6389 21.5369 17.5765 21.5186 17.4943 21.5369C17.4524 21.5325 17.4101 21.5361 17.3695 21.5475L16.89 21.5232L17.0392 21.5277L14.6159 21.406C13.3282 21.2994 12.0618 21.0741 10.8227 20.7027C10.2945 20.5444 9.76787 20.3678 9.26099 20.1441L8.88958 19.9706C8.38118 19.5139 7.85147 19.0009 7.25631 18.6737L7.14062 18.6387C7.29284 19.0573 7.6475 19.4089 7.94737 19.7377C8.69322 20.5596 9.5228 21.3055 10.3554 22.0361C11.1439 22.7287 11.9689 23.4015 12.8974 23.9053C13.6692 24.3239 14.5109 24.6086 15.3542 24.843L18.2128 25.5432C19.4305 25.7456 20.6208 25.8552 21.8386 25.7943L21.6803 25.8019C21.7447 25.7938 21.8102 25.7969 21.8736 25.8111C22.2541 25.8644 22.0258 25.4153 21.9345 25.2859L21.9375 25.289Z" fill="white"/>
<path d="M12.5473 24.8223L12.9917 25.0324L13.5291 25.2531C14.9706 25.7036 16.5171 25.7326 17.992 25.4297L17.7942 25.4723C18.5023 25.3128 19.1977 25.1017 19.8749 24.8406C20.1946 24.7218 20.5812 25.0354 20.8126 25.1998C21.4215 25.6214 21.942 26.1344 22.4413 26.6611C22.9406 27.1877 23.42 27.754 23.8067 28.372C23.8128 28.3811 24.3638 29.2396 24.1111 29.3279C22.2449 29.9672 20.3027 30.2595 18.3726 29.7297C17.6879 29.5379 17.0245 29.2773 16.3922 28.9519C15.3511 28.4222 14.4469 27.6992 13.5763 26.9275C12.9674 26.3886 12.3555 25.8011 11.8532 25.1618C11.5792 24.8147 11.2793 24.4463 11.2078 24.0049L11.2321 24.1571C11.2139 24.0597 11.1926 23.9927 11.1956 23.9029C11.1986 23.8268 12.0419 24.4509 11.9719 24.3931L12.5579 24.8375L12.5473 24.8223Z" fill="white"/>
<path d="M16.3765 30.168L16.8591 30.27L17.4329 30.3613C18.9551 30.4678 20.4498 30.1375 21.8167 29.5028L21.6341 29.5896C22.2886 29.276 22.9127 28.9 23.5139 28.4936C23.7955 28.3049 24.2446 28.521 24.5079 28.626C25.1822 28.9 25.8215 29.2745 26.4289 29.6733C27.0362 30.0721 27.6314 30.5105 28.1489 31.0219C28.1565 31.0295 28.8917 31.7373 28.6664 31.8819C26.9982 32.9353 25.1777 33.6689 23.1745 33.602C22.464 33.5735 21.7583 33.4735 21.0678 33.3036C19.9323 33.0296 18.8851 32.5334 17.8561 31.9854C17.1407 31.6049 16.41 31.1696 15.7707 30.6642C15.4267 30.3902 15.0477 30.101 14.8757 29.6855L14.9305 29.8133C14.8909 29.722 14.8544 29.6611 14.8361 29.5743C14.8209 29.5013 15.7859 29.9092 15.7037 29.8727L16.3765 30.1695V30.168Z" fill="white"/>
<path d="M32.1463 33.6838C31.6379 33.3383 31.0352 33.1054 30.4598 32.8999C29.7144 32.6274 28.949 32.4131 28.1705 32.2591C27.7519 32.1769 27.1506 32.0308 26.7183 32.1617C26.6392 32.1845 26.5768 32.1967 26.5113 32.2485C26.4657 32.2667 26.4306 32.288 26.4048 32.3124L25.9481 32.4996L26.0851 32.4387L23.8521 33.3885C22.6466 33.8543 21.409 34.2044 20.132 34.4114C19.587 34.4997 19.036 34.5697 18.4835 34.5895L18.0755 34.5956C17.421 34.4084 16.7178 34.1755 16.0358 34.139L15.9141 34.1588C16.2489 34.4632 16.7056 34.6154 17.1196 34.795C18.1501 35.206 19.2202 35.5196 20.2903 35.8149C21.3025 36.0934 22.3391 36.3385 23.3924 36.3872C24.2707 36.4268 25.1505 36.3172 26.0136 36.1589L28.9057 35.5409C30.0777 35.1984 31.2072 34.7707 32.2772 34.1862L32.1403 34.2623C32.1948 34.2265 32.255 34.2003 32.3183 34.1846C32.6837 34.0659 32.2727 33.7676 32.1463 33.6823V33.6838Z" fill="white"/>
<path d="M22.5825 37.9771L23.0665 37.8903L23.6328 37.7579C25.0697 37.286 26.3422 36.4154 27.3697 35.3118L27.2327 35.461C27.7169 34.9202 28.1611 34.3448 28.5615 33.7394C28.7518 33.4578 29.2511 33.4883 29.5327 33.4883C30.2635 33.4995 30.9915 33.582 31.7063 33.7349C32.4187 33.8764 33.1371 34.0576 33.8099 34.3346C33.8191 34.3392 34.7689 34.7182 34.6106 34.9374C33.4629 36.5417 32.0503 37.9056 30.1705 38.5966C29.5068 38.8402 28.8051 39.0076 28.1064 39.1111C26.9496 39.2846 25.7927 39.2177 24.6359 39.0989C23.8291 39.0152 22.9874 38.8904 22.2065 38.6606C21.7849 38.5388 21.3237 38.4124 21.0086 38.0913L21.1075 38.1902C21.036 38.1202 20.9797 38.0791 20.931 38.0045C20.8883 37.9436 21.9356 37.9588 21.8442 37.9543L22.5795 37.9756L22.5825 37.9771Z" fill="white"/>
<path d="M25.2005 41.2299L25.6723 41.0853L26.2203 40.8874C27.5903 40.2527 28.7547 39.2344 29.6421 38.0197L29.5234 38.1841C29.945 37.5935 30.3073 36.9633 30.6391 36.3179C30.7944 36.0165 31.2937 35.9876 31.5737 35.9526C32.2968 35.8658 33.035 35.8856 33.7611 35.9419C34.4872 35.9983 35.2193 36.0942 35.9225 36.292C35.9317 36.2951 36.9196 36.5599 36.7902 36.7943C35.8388 38.522 34.5983 40.0442 32.8113 40.9498C32.1811 41.2543 31.5022 41.5191 30.8218 41.7048C29.6954 42.0123 28.5386 42.0854 27.3741 42.1006C26.5628 42.1097 25.7119 42.0854 24.9082 41.9484C24.4744 41.8753 24.0041 41.8053 23.6509 41.5252C23.6874 41.5557 23.6205 41.5161 23.5642 41.4491C23.5154 41.3913 24.5581 41.2847 24.4668 41.2908L25.2005 41.2253V41.2299Z" fill="white"/>
<path d="M38.3562 37.4675C37.7275 37.4127 37.0821 37.4979 36.4763 37.5862C35.6922 37.6983 34.9177 37.8697 34.1596 38.0992C33.7547 38.221 33.1595 38.3762 32.8627 38.6822C32.8079 38.7385 32.7607 38.7765 32.7333 38.8496C32.7029 38.8861 32.6876 38.9196 32.677 38.9516L32.403 39.3108L32.4852 39.1982L31.1 41.0248C30.3255 41.9722 29.4473 42.83 28.4819 43.582C28.0633 43.9062 27.6326 44.2167 27.1698 44.4846L26.8197 44.6764C26.1545 44.821 25.4239 44.9474 24.8257 45.229L24.7344 45.3005C25.191 45.401 25.6735 45.331 26.1195 45.2792C27.2307 45.1498 28.3221 44.92 29.4013 44.6764C30.4242 44.4451 31.4471 44.1741 32.3756 43.7327C33.1519 43.3643 33.843 42.8696 34.4914 42.343L36.6133 40.5118C37.4246 39.6898 38.1568 38.8161 38.7489 37.8389L38.6728 37.9652C38.7002 37.9104 38.7367 37.8617 38.7824 37.8191C39.0289 37.5527 38.5084 37.4934 38.3562 37.4797V37.4675Z" fill="white"/>
<path d="M43.8056 36.9411C43.7447 36.3627 43.6138 35.7949 43.4098 35.2622C43.2424 34.8253 43.0749 34.3245 42.7339 33.979C42.7644 34.0399 42.7568 34.0322 42.7218 33.9668C42.4782 33.947 42.2499 34.0277 42.0429 34.2027L41.5101 34.5939C40.7704 35.1937 40.1189 35.8756 39.5192 36.5621C38.9194 37.2486 38.3471 37.9716 37.9118 38.7205C37.8615 38.8118 37.2953 39.7221 37.6332 39.8012C37.9072 39.8667 38.0411 40.06 38.1507 40.2624C38.58 41.1301 38.8814 42.089 38.9788 43.0723C39.1082 44.392 38.9483 45.7559 38.7048 47.1274L37.9894 50.4518L37.7519 51.2737L37.6302 51.6208L37.5464 51.7517L36.4353 53.6468C36.4353 53.6468 36.0517 54.3013 36.4124 54.0166C37.067 53.4991 37.5297 52.802 37.9924 52.1901C38.8799 51.0149 39.6516 49.7927 40.402 48.5734C40.9419 47.7121 41.4103 46.808 41.8024 45.8701L42.1982 44.9218L42.6335 43.7421L43.1876 41.8089C43.5985 40.1878 43.9745 38.5013 43.8056 36.9426V36.9411Z" fill="white"/>
<path d="M54.2422 26.4666L54.3061 26.5731C54.1052 26.2276 53.7216 26.0297 53.373 25.8425C52.7261 25.4924 52.0001 25.2215 51.2907 24.9947C50.2755 24.6689 49.248 24.3934 48.1581 24.331C47.4902 24.2892 46.8198 24.3132 46.1565 24.4025C44.2751 24.6643 42.6555 25.6157 41.1836 26.8289C41.1684 26.8395 41.1714 26.8563 41.1653 26.8715C40.6113 27.3403 40.0922 27.8807 39.6127 28.4241C38.8319 29.3145 38.0967 30.2385 37.5548 31.3086C37.2605 31.8867 37.0165 32.4892 36.8257 33.1093C36.6217 32.7242 36.3782 32.3482 36.0798 32.1351L34.4085 30.9478C29.6441 27.701 24.8722 24.4786 20.5843 20.6032L20.2281 20.2744L19.9632 20.0279L19.2204 19.3185C18.7303 18.8421 18.2462 18.3596 17.7744 17.8618C16.785 16.8237 15.8138 15.7536 14.8853 14.6562C14.3944 14.0788 13.9183 13.489 13.4575 12.8874L13.2231 12.5754L13.1653 12.4962C12.972 12.2222 12.7893 11.9422 12.6066 11.6621L12.1926 11.0106L12.0708 10.7975C11.5959 9.6711 11.873 10.3835 11.8425 10.3043C11.416 9.20794 10.9286 8.1362 10.3828 7.09409C10.0783 6.51871 9.72519 5.75154 9.21679 5.3086C8.77536 4.92501 8.97324 5.86418 8.97781 5.91746L8.98238 5.95551C8.98033 6.16676 8.99356 6.37787 9.02195 6.58721C9.07523 6.93731 9.13307 7.2874 9.21222 7.63445C9.46338 8.73649 9.8013 9.78374 10.159 10.8569C10.7435 12.6073 11.5822 14.2848 12.4362 15.9135C13.9948 18.8847 15.963 21.7799 18.2203 24.2549C20.2448 26.462 22.4641 28.4956 24.7808 30.3937C27.1204 32.3117 29.5452 34.1382 32.0111 35.904C31.9913 35.904 32.0233 35.9192 32.075 35.9496L32.8239 36.4824C33.6428 37.1856 34.684 38.5403 34.0645 40.58L33.4602 41.7856L33.2014 42.3305C33.1679 42.3853 33.1558 42.4173 33.1558 42.4264C32.9282 42.908 32.7105 43.3942 32.5028 43.8846C31.8736 44.6795 31.1095 45.3576 30.2454 45.8878C30.0353 46.0035 29.8192 46.1131 29.6015 46.212C29.4493 46.2775 29.2971 46.3338 29.1449 46.3992C29.049 46.4403 29.1388 46.4144 28.4218 46.5332C28.5132 46.518 27.4842 46.7204 27.539 46.7737C27.6029 46.8346 27.6669 46.865 27.7521 46.9183L27.6349 46.8422C28.0109 47.0888 28.4873 47.1162 28.9257 47.1466C29.737 47.2075 30.6001 47.1527 31.3916 47.0659C31.0978 48.0218 30.8817 49.0082 30.7218 49.993L30.6153 50.6628C30.0095 51.4924 29.3625 52.2915 28.6365 53.0313C28.017 53.666 27.3685 54.2733 26.6881 54.8426C26.3456 55.1471 25.997 55.4134 25.6409 55.6844L25.1507 56.0497L24.8859 56.24C24.1278 56.7636 23.3683 57.2446 22.5874 57.686C22.1977 57.9067 21.805 58.1229 21.4032 58.3208L20.7487 58.6298L20.5158 58.7363C20.5051 58.7409 20.5005 58.7439 20.4853 58.7515C19.6913 59.0898 18.8811 59.3886 18.0575 59.6466L17.8048 59.7181L17.2416 59.8657L16.6814 60.0027L16.4881 60.0484C15.8488 60.1747 15.1867 60.3011 14.593 60.5812C14.4408 60.6527 13.9279 60.9236 14.313 61.1246C14.7635 61.3605 15.4455 61.3224 15.9265 61.3179C16.8085 61.297 17.6877 61.2099 18.5567 61.0576C21.4412 60.5857 24.2724 59.6572 26.9134 58.3634L26.2436 59.0027C25.8403 59.3726 25.4293 59.7364 25.0076 60.0865L24.7458 60.3041L24.1568 60.7608C23.761 61.0576 23.3576 61.3392 22.9482 61.6132L22.6772 61.7882L22.0379 62.1794L21.7639 62.3392L21.1307 62.6787L21.0668 62.7091L20.5112 62.9679L20.4305 63.0044L19.9678 63.1901L18.5461 63.5661L18.0894 63.6803C18.0438 63.6879 17.992 63.6955 17.9342 63.7107C17.0026 63.8705 16.0741 64.3196 15.243 64.7306C14.5185 65.0852 13.797 65.4764 13.1424 65.9513C13.112 65.9711 13.0815 65.997 13.0541 66.0153C13.0267 66.0335 12.9887 66.0533 12.9583 66.0761C12.8273 66.1644 12.1728 66.5297 12.1972 66.7992C12.2231 67.0777 15.068 66.3943 15.5231 66.2755C19.5416 65.2253 23.3728 63.3987 26.8829 61.152C26.6972 61.4351 26.5055 61.7152 26.3091 61.9922L26.0579 62.3316L25.5982 62.9207L25.3958 63.1703L24.9392 63.7077L24.9026 63.7472L24.446 64.1993L24.379 64.2663L24.0182 64.5936L22.8005 65.446L22.3971 65.72C22.3535 65.7451 22.3108 65.772 22.2693 65.8006C21.4519 66.2771 20.7395 67.026 20.1017 67.7003C19.5477 68.2863 19.0103 68.9058 18.5644 69.5801C18.5446 69.6106 18.5233 69.641 18.5035 69.6745C18.4837 69.708 18.4578 69.7324 18.435 69.7628C18.3436 69.8922 17.8566 70.463 17.9783 70.7065C18.1001 70.9577 20.5249 69.3214 20.91 69.0322C25.0731 66.1005 28.5619 62.1825 31.3764 57.9509L31.4829 57.791C33.9488 55.7559 36.1742 53.4164 37.911 50.7435C38.3417 50.3173 38.6614 49.9428 38.7329 49.7114C39.9202 45.8117 40.0618 43.9729 39.7634 42.4203C39.9644 42.3259 40.1744 42.2681 40.4027 42.3107C40.7924 42.3868 40.9781 41.1904 41.0009 41.0747C41.0545 40.7788 41.0951 40.4807 41.1227 40.1812C41.5218 39.8712 41.8941 39.528 42.2354 39.1553C42.2963 39.0898 42.9173 38.4353 42.7012 38.2268C42.5246 38.0593 42.4774 37.8219 42.4516 37.5875C42.3576 36.5837 42.396 35.5719 42.5657 34.5782C42.8017 33.2661 43.2507 32.0209 43.7652 30.8032L44.1609 29.8975C44.5292 29.9156 44.8973 29.8592 45.2432 29.7316C45.6322 29.5903 45.9837 29.3617 46.2707 29.0634C46.2904 29.0512 46.3118 29.0405 46.3285 29.0253C46.8339 28.5809 47.359 28.1623 47.9192 27.7863C49.0562 27.0648 50.3318 26.5686 51.6484 26.3966C51.892 26.3752 52.1386 26.3585 52.3836 26.3585C52.5359 26.36 52.6911 26.3707 52.8449 26.3737C52.9423 26.3752 52.857 26.3646 53.5039 26.5305C53.4233 26.5092 54.367 26.7208 54.3442 26.6584C54.3183 26.5823 54.2772 26.5336 54.2315 26.4605L54.2422 26.4666ZM18.1869 63.6818C18.161 63.6833 18.126 63.6879 18.0955 63.6924C18.3695 63.6224 18.3086 63.6574 18.1869 63.6818ZM21.8918 62.286C22.044 62.2023 22.2054 62.1064 21.8918 62.286V62.286ZM24.7839 60.3041C24.8904 60.2204 25.207 59.9586 24.7839 60.3041V60.3041ZM22.5189 65.6834C22.4946 65.6926 22.4656 65.7093 22.4382 65.726C22.6727 65.5647 22.6255 65.6195 22.5189 65.6834ZM25.4749 63.1079C25.5967 62.9664 25.7611 62.7609 25.4749 63.1079V63.1079Z" fill="white"/>
<path d="M63.7435 35.6699H65.7253V50.3283H63.7435V35.6699ZM69.7758 26.3848H71.7576V46.424C71.7576 48.348 72.6314 48.6387 73.3894 48.6387C73.6527 48.6387 73.8841 48.6083 73.8841 48.6083V50.3861C73.8841 50.3861 73.534 50.444 73.1565 50.444C71.9312 50.444 69.7773 50.0665 69.7773 46.8593V26.4L69.7758 26.3848ZM76.3896 26.3848H78.3562V46.424C78.3562 48.348 79.2314 48.6387 79.9879 48.6387C80.2498 48.6387 80.4827 48.6083 80.4827 48.6083V50.3861C80.4827 50.3861 80.1326 50.444 79.752 50.444C78.5282 50.444 76.3728 50.0665 76.3728 46.8593L76.3896 26.3848ZM82.947 35.6699H84.9289V44.471C84.9289 46.7741 85.279 48.8137 88.1056 48.8137C91.4574 48.8137 93.5275 45.8699 93.5275 42.6947V35.6699H95.5094V50.3283H93.5854V48.1288C93.5854 47.4864 93.6432 46.9628 93.6432 46.9628H93.5854C93.0884 48.0686 92.2816 49.0066 91.2626 49.6633C90.2436 50.32 89.0561 50.6673 87.8438 50.6632C84.4037 50.6632 82.9485 48.7985 82.9485 44.9794V35.6532L82.947 35.6699ZM99.4107 35.6699H101.364V37.8573C101.364 38.4966 101.306 39.0232 101.306 39.0232H101.364C102.064 37.0414 104.393 35.3213 106.667 35.3213C109.376 35.3213 110.777 36.5741 111.213 38.9943H111.271C112.058 37.0125 114.186 35.3213 116.663 35.3213C120.219 35.3213 121.531 37.3915 121.531 41.0051V50.3313H119.549V41.5028C119.549 39.113 119.054 37.1312 116.372 37.1312C114.127 37.1312 112.293 39.1146 111.739 41.2715C111.535 41.9138 111.475 42.611 111.475 43.3994V50.3344H109.493V41.5059C109.493 39.2911 109.189 37.1342 106.403 37.1342C104.014 37.1342 102.207 39.2044 101.593 41.448C101.451 42.0891 101.383 42.7443 101.389 43.401V50.3359H99.4076V35.6775L99.4107 35.6699ZM132.195 35.3198C136.48 35.3198 139.947 38.5849 139.947 42.926C139.947 47.3403 136.477 50.6784 132.195 50.6784C127.913 50.6784 124.443 47.3555 124.443 42.926C124.443 38.5833 127.913 35.3198 132.195 35.3198ZM132.195 48.902C135.343 48.902 137.906 46.3372 137.906 42.9276C137.906 39.6047 135.343 37.1434 132.195 37.1434C129.047 37.1434 126.484 39.6199 126.484 42.9276C126.484 46.3372 129.049 48.902 132.195 48.902ZM142.947 47.1257C142.947 47.1257 144.579 48.9036 147.319 48.9036C148.893 48.9036 150.263 48.1166 150.263 46.5716C150.263 43.3659 142.363 44.1514 142.363 39.3718C142.363 36.7491 144.722 35.3198 147.377 35.3198C150.467 35.3198 151.893 36.9227 151.893 36.9227L150.99 38.4387C150.99 38.4387 149.738 37.0992 147.318 37.0992C145.83 37.0992 144.403 37.7385 144.403 39.3718C144.403 42.6064 152.303 41.7312 152.303 46.5716C152.303 48.9614 150.232 50.6814 147.289 50.6814C143.734 50.6814 141.87 48.5535 141.87 48.5535L142.947 47.1257ZM64.7329 29.2769C63.8881 29.2769 63.2031 29.9618 63.2031 30.8066C63.2031 31.6514 63.8881 32.3364 64.7329 32.3364C65.5777 32.3364 66.2627 31.6514 66.2627 30.8066C66.2627 29.9618 65.5777 29.2769 64.7329 29.2769Z" fill="white"/>
</svg>
