<svg width="154" height="43" viewBox="0 0 154 43" fill="none" xmlns="http://www.w3.org/2000/svg">
<path d="M150.111 22.7881C149.572 20.8132 147.828 19.556 145.802 19.556C143.955 19.556 142.185 20.9923 141.801 22.7881H150.111ZM152.496 26.8406C151.419 29.4566 148.88 31.2263 146.033 31.2263C142.031 31.2263 138.825 28.0971 138.825 24.0701C138.825 20.0176 141.877 16.7603 145.955 16.7603C147.854 16.7603 149.752 17.6067 151.085 18.9662C152.445 20.4024 153.009 22.1466 153.009 24.0956L152.907 25.1986H141.826C142.237 27.0969 143.981 28.4814 145.93 28.4814C147.289 28.4814 148.469 27.9687 149.239 26.8402H152.496M124.284 20.0944H122.514V17.1705H127.413V19.1197C128.234 17.6065 129.773 16.8625 131.465 16.8625C132.953 16.8625 134.415 17.4783 135.415 18.5555C136.544 19.8124 136.569 21.0179 136.569 22.5823V27.943H138.339V30.8668H131.671V27.943H133.44V23.5056C133.44 22.6591 133.44 21.7872 132.901 21.0431C132.337 20.2996 131.414 19.9407 130.491 19.9407C129.542 19.9407 128.567 20.3253 128.003 21.0945C127.413 21.8637 127.413 23.0437 127.413 23.9674V27.943H129.182V30.8669H122.514V27.943H124.284V20.0942M119.795 15.8624H116.666V12.5537H119.795V15.8624ZM119.795 27.943H121.565V30.8669H114.871V27.943H116.666V20.0942H114.897V17.1704H119.795V27.9427M91.5303 20.094H89.7609V17.1701H94.3775V19.222C95.2497 17.7857 96.5834 16.8366 98.3274 16.8366C100.225 16.8366 101.816 17.9907 102.585 19.7093C103.329 17.9653 105.176 16.8366 107.073 16.8366C108.561 16.8366 110.023 17.452 111.023 18.5807C112.101 19.8377 112.101 21.1969 112.101 22.7613V27.9427H113.871V30.8666H107.202V27.9427H108.972V23.5311C108.972 22.6331 108.972 21.838 108.561 21.0428C108.048 20.2993 107.202 19.9143 106.33 19.9143C105.484 19.9143 104.56 20.2736 104.022 20.9401C103.38 21.7612 103.38 22.5306 103.38 23.5311V27.9427H105.15V30.8666H98.4812V27.9427H100.251V23.7364C100.251 22.9155 100.251 21.8896 99.8409 21.1714C99.4048 20.3509 98.507 19.9146 97.5836 19.9146C96.7115 19.9146 95.9677 20.2225 95.4035 20.9152C94.7107 21.7614 94.6595 22.659 94.6595 23.7107V27.9428H96.4292V30.8666H89.7609V27.9428H91.5303V20.094M81.304 26.8919C81.4066 28.1231 82.2273 28.9435 83.5098 28.9435C84.4589 28.9435 85.3819 28.2771 85.3819 27.2511C85.3819 25.8916 84.0997 25.6608 83.048 25.3787C80.6626 24.7632 78.0464 24.0191 78.0464 21.0185C78.0464 18.4022 80.2523 16.8891 82.6891 16.8891C83.9199 16.8891 85.0228 17.1458 85.7923 18.1201V17.1712H88.1008V20.8903H85.074C85.0228 19.9153 84.279 19.2743 83.3045 19.2743C82.4581 19.2743 81.5605 19.7616 81.5605 20.7106C81.5605 21.993 82.8172 22.275 83.8175 22.5058C86.2795 23.0701 88.9214 23.8399 88.9214 26.9177C88.9214 29.6876 86.5875 31.2264 84.0228 31.2264C82.6374 31.2264 81.3806 30.7906 80.483 29.7389V30.8673H78.0979V26.8917H81.304M72.3252 23.9427C72.3252 21.6853 70.4528 19.8642 68.1957 19.8642C65.8618 19.8642 64.0663 21.7881 64.0663 24.0962C64.0663 26.3279 65.9387 28.1745 68.1446 28.1745C70.504 28.1745 72.3252 26.2765 72.3252 23.9427ZM72.274 29.0209C71.2734 30.534 69.6578 31.2267 67.8623 31.2267C63.9379 31.2267 60.8348 27.9694 60.8348 24.0962C60.8348 20.1206 64.0151 16.8122 68.0162 16.8122C69.7859 16.8122 71.3249 17.6327 72.274 19.1204V17.1712H77.1729V20.0951H75.4543V27.9438H77.1729V30.8677H72.274V29.021M51.1388 25.7126C51.1645 26.8413 51.8571 27.9951 53.1396 27.9951C53.9091 27.9951 54.4733 27.6362 54.8581 26.995C55.217 26.3536 55.217 25.4048 55.217 24.6866V15.479H53.2165V12.5549H60.6801V15.479H58.7053V25.1227C58.7053 26.7644 58.6024 28.0465 57.4486 29.3805C56.4226 30.5603 54.7555 31.2272 53.165 31.2272C49.882 31.2272 47.3682 29.0471 47.4969 25.7129H51.1388" fill="white"/>
<path d="M19.8642 17.9523H23.0609L23.855 16.859V8.29492H19.0703V16.8597L19.8642 17.9523" fill="white"/>
<path d="M20.7657 34.6543H22.0916V28.1439H20.7657V34.6543ZM8.94388 26.0049L8.53434 24.7438L14.7256 22.7328L15.135 23.9939L8.94405 26.0049M16.9326 16.0952L13.1067 10.8282L14.1799 10.0487L18.0057 15.316L16.9326 16.0952M26.0733 16.1435L25.0005 15.3642L28.8267 10.0968L29.8999 10.876L26.0733 16.1437M33.9699 26.0841L27.7782 24.072L28.1878 22.8106L34.3791 24.8227L33.9698 26.0841M24.1404 18.7325L25.1287 21.7732L26.4138 22.1901L34.5588 19.544L33.0803 14.9936L24.9347 17.6404L24.1402 18.7326M24.7221 23.034L22.1355 24.913L22.1358 26.2639L27.1696 33.1928L31.0409 30.3807L26.0061 23.4514L24.7221 23.034ZM20.8096 24.9137L18.2236 23.034L16.9383 23.4523L11.9045 30.3809L15.7752 33.1929L20.8096 26.264V24.9137M17.8135 21.7732L18.8012 18.7331L18.0069 17.6397L9.86193 14.9932L8.38329 19.5437L16.5296 22.1905L17.8138 21.7731M21.4741 0.862305C10.0944 0.862305 0.835938 10.119 0.835938 21.4969C0.835938 32.8791 10.0944 42.1386 21.4741 42.1386C32.8527 42.1386 42.1097 32.8791 42.1097 21.4969C42.1097 10.119 32.8527 0.862305 21.4741 0.862305ZM21.4741 5.04045C30.5613 5.04045 37.9312 12.4072 37.9312 21.4969C37.9312 30.5898 30.5613 37.9597 21.4741 37.9597C12.3833 37.9597 5.01478 30.5898 5.01478 21.4969C5.01478 12.4072 12.3833 5.04045 21.4741 5.04045Z" fill="white"/>
</svg>
